<?xml version="1.0" encoding="UTF-8" standalone="no"?>
<svg
   aria-hidden="true"
   focusable="false"
   data-prefix="far"
   data-icon="file"
   class="svg-inline--fa fa-file fa-w-12"
   role="img"
   viewBox="0 0 429.20102 512.09998"
   version="1.1"
   id="svg4"
   sodipodi:docname="cc_logo.svg"
   inkscape:version="1.1 (c4e8f9ed74, 2021-05-24)"
   width="429.20102"
   height="512.09998"
   xmlns:inkscape="http://www.inkscape.org/namespaces/inkscape"
   xmlns:sodipodi="http://sodipodi.sourceforge.net/DTD/sodipodi-0.dtd"
   xmlns="http://www.w3.org/2000/svg"
   xmlns:svg="http://www.w3.org/2000/svg">
  <defs
     id="defs8" />
  <sodipodi:namedview
     id="namedview6"
     pagecolor="#ffffff"
     bordercolor="#999999"
     borderopacity="1"
     inkscape:pageshadow="0"
     inkscape:pageopacity="0"
     inkscape:pagecheckerboard="true"
     showgrid="false"
     inkscape:zoom="0.7578125"
     inkscape:cx="51.463918"
     inkscape:cy="353.64948"
     inkscape:window-width="1920"
     inkscape:window-height="1011"
     inkscape:window-x="0"
     inkscape:window-y="0"
     inkscape:window-maximized="1"
     inkscape:current-layer="svg4"
     fit-margin-top="0"
     fit-margin-left="0"
     fit-margin-right="0"
     fit-margin-bottom="0" />
  <path
     fill="currentColor"
     d="m 415.10103,98 -83.9,-83.9 c -9,-9 -21.2,-14.1 -33.9,-14.1 H 48 C 21.5,0.1 0,21.6 0,48.1 v 416 c 0,26.5 21.5,48 48,48 h 333.20103 c 26.5,0 48,-21.5 48,-48 V 132 c 0,-12.7 -5.1,-25 -14.1,-34 z M 48,464.1 v -416 h 205.20103 v 104 c 0,13.3 10.7,24 24,24 h 104 v 288 z"
     id="path2"
     sodipodi:nodetypes="ssscssssssscccssccc" />
  <g
     inkscape:label="Layer 1"
     id="layer1"
     transform="matrix(2.9691847,0,0,2.962638,-142.54744,-79.325257)"
     style="stroke-width:1.27432">
    <path
       id="rect903-9-4"
       style="opacity:0.998;fill:#000000;stroke:none;stroke-width:3.45545;stroke-linecap:square;paint-order:markers stroke fill"
       d="M 83.027344,98.328125 V 248.53906 l 51.759766,-41.73828 51.62305,41.88672 V 98.328125 Z"
       transform="matrix(0.26458333,0,0,0.26458333,62.821846,46.556198)" />
    <circle
       style="opacity:0.998;fill:#000000;stroke-width:1.04218;stroke-linecap:square;paint-order:markers stroke fill"
       id="path833-3-7-6-5"
       cx="75.733047"
       cy="-98.466248"
       r="24.120024"
       transform="rotate(90)" />
    <path
       sodipodi:type="star"
       style="opacity:0.998;fill:#ffffff;stroke-width:2.16916;stroke-linecap:square;paint-order:markers stroke fill"
       id="path835-6-5-2-03"
       sodipodi:sides="7"
       sodipodi:cx="104.52818"
       sodipodi:cy="98.40979"
       sodipodi:r1="25.643127"
       sodipodi:r2="46.623867"
       sodipodi:arg1="1.0719622"
       sodipodi:arg2="1.5207612"
       inkscape:flatsided="false"
       inkscape:rounded="0"
       inkscape:randomized="0"
       d="m 116.79591,120.92807 -9.93587,24.04724 -12.288555,-22.93431 -24.9958,7.22504 10.268973,-23.90689 -21.233385,-15.037769 25.093756,-6.877093 -1.481798,-25.976824 21.022429,15.331291 19.38561,-17.354802 1.12079,25.994901 25.65526,4.33574 -19.62484,17.083816 12.60598,22.76139 z"
       inkscape:transform-center-x="-0.67550987"
       inkscape:transform-center-y="-1.8662519"
       transform="matrix(-0.52181972,-0.02807995,0.02807995,-0.52181972,150.12425,129.89008)" />
  </g>
  <text
     xml:space="preserve"
     style="font-size:120px;line-height:1.25;font-family:'IBM Plex Sans';-inkscape-font-specification:'IBM Plex Sans';text-align:center;text-anchor:middle"
     x="213.34045"
     y="409.67154"
     id="text4786"><tspan
       sodipodi:role="line"
       id="tspan4784"
       x="213.34045"
       y="409.67154"
       style="font-style:normal;font-variant:normal;font-weight:500;font-stretch:normal;font-size:120px;font-family:'IBM Plex Sans';-inkscape-font-specification:'IBM Plex Sans Medium';text-align:center;text-anchor:middle">CC</tspan></text>
</svg>
