<?xml version="1.0" encoding="UTF-8" standalone="no"?>
<svg
   xmlns:dc="http://purl.org/dc/elements/1.1/"
   xmlns:cc="http://creativecommons.org/ns#"
   xmlns:rdf="http://www.w3.org/1999/02/22-rdf-syntax-ns#"
   xmlns:svg="http://www.w3.org/2000/svg"
   xmlns="http://www.w3.org/2000/svg"
   version="1.1"
   id="svg880"
   xml:space="preserve"
   width="377.94666"
   height="177.10667"
   viewBox="0 0 377.94666 177.10667"><metadata
     id="metadata886"><rdf:RDF><cc:Work
         rdf:about=""><dc:format>image/svg+xml</dc:format><dc:type
           rdf:resource="http://purl.org/dc/dcmitype/StillImage" /><dc:title></dc:title></cc:Work></rdf:RDF></metadata><defs
     id="defs884" /><g
     id="g888"
     transform="matrix(1.3333333,0,0,-1.3333333,0,177.10667)"><g
       id="g890"
       transform="scale(0.1)"><path
         d="m 458.809,781.406 c -0.539,5.293 -1.321,9.364 -2.414,12.446 -1.375,3.843 -3.387,6.586 -6.024,8.168 -2.422,1.449 -5.234,2.175 -8.406,2.175 -5.949,0 -13.379,-3.281 -22.699,-10.039 -8.133,-5.894 -18.758,-12.617 -31.551,-19.976 -12.649,-7.278 -28.203,-13.953 -46.211,-19.852 -17.832,-5.848 -39.074,-8.808 -63.133,-8.808 -28.351,0 -54.055,5.089 -76.367,15.128 -22.231,9.989 -41.262,24.957 -56.555,44.497 -15.383,19.656 -27.394,44.535 -35.683,73.949 -8.321,29.59 -12.5472,64.191 -12.5472,102.847 0,38.959 4.3832,74.029 13.0272,104.249 8.582,30.07 20.856,55.88 36.465,76.7 15.469,20.66 34.344,36.51 56.102,47.11 21.816,10.64 46.386,16.02 73.046,16.02 24.641,0 46.016,-3.05 63.528,-9.08 17.75,-6.12 32.965,-12.9 45.222,-20.19 12.383,-7.34 22.649,-14.16 30.508,-20.27 9.133,-7.11 16.094,-10.42 21.875,-10.42 3.778,0 7.051,1.11 9.719,3.32 2.41,1.95 4.391,4.8 6.023,8.66 1.465,3.47 2.52,7.57 3.243,12.55 0.671,4.68 1.003,10.42 1.003,17.06 0,5.9 -0.242,11.1 -0.73,15.46 -0.488,4.27 -1.184,8.14 -2.039,11.51 -0.918,3.45 -2.129,6.53 -3.617,9.16 -1.531,2.68 -4.453,6.14 -9.207,10.88 -4.637,4.61 -12.547,10.23 -24.192,17.18 -11.375,6.79 -24.558,12.85 -39.168,18.02 -14.543,5.14 -30.547,9.45 -47.605,12.81 -17.18,3.38 -35.051,5.08 -53.125,5.08 -41.035,0 -78.996,-7.55 -112.805,-22.46 -33.879,-14.93 -63.39,-36.9 -87.6951,-65.29 C 52.5586,1191.68 33.4766,1156.7 20.0977,1116.03 6.75781,1075.47 0,1028.69 0,976.988 0,926.563 6.28906,881.324 18.6719,842.523 31.1016,803.57 49.1484,770.332 72.3125,743.734 95.5469,717.082 124.043,696.637 157.012,682.992 189.875,669.395 227.168,662.5 267.844,662.5 c 23.504,0 45.515,2.203 65.437,6.559 19.813,4.324 37.649,9.707 53.02,16 15.398,6.312 28.484,12.875 38.867,19.511 10.641,6.817 17.5,11.809 20.934,15.25 3.527,3.52 5.988,6.524 7.531,9.184 1.472,2.617 2.683,5.582 3.594,8.844 0.878,3.148 1.484,6.754 1.836,11.007 0.332,3.899 0.507,8.559 0.507,13.836 0,7.622 -0.254,13.739 -0.761,18.715"
         style="fill:#383435;fill-opacity:1;fill-rule:nonzero;stroke:none"
         id="path892" /><path
         d="m 980.652,700.172 c -1.316,4.808 -4.199,12.887 -8.789,24.68 -0.027,0.07 -55.554,136.531 -55.554,136.531 -6.434,15.75 -12.938,30.058 -19.356,42.539 -6.445,12.601 -13.445,23.965 -20.789,33.758 -7.434,9.886 -15.539,18.472 -24.074,25.527 -5.684,4.715 -12.031,8.703 -18.613,12.352 14.304,5.687 27.625,12.324 39.628,19.879 15.071,9.482 28.196,20.852 39.032,33.802 10.879,13.02 19.328,28.22 25.097,45.17 5.735,16.89 8.645,36.2 8.645,57.38 0,21.84 -3.242,42.12 -9.641,60.29 -6.402,18.24 -16.187,34.67 -29.05,48.86 -12.833,14.12 -28.895,25.94 -47.762,35.12 -18.711,9.1 -40.508,15.84 -64.836,20.05 -8.633,1.01 -18.133,1.9 -28.504,2.69 -10.473,0.81 -23.742,1.22 -39.438,1.22 H 594.922 c -8.426,0 -16.465,-2.85 -23.899,-8.45 -7.847,-5.94 -11.843,-16.08 -11.843,-30.14 V 688.047 c 0,-3.531 0.918,-6.731 2.734,-9.492 1.965,-2.903 5.09,-5.082 9.316,-6.551 3.489,-1.211 7.942,-2.223 13.606,-3.094 5.547,-0.832 12.5,-1.254 20.68,-1.254 8.195,0 15.136,0.422 20.664,1.25 5.722,0.879 10.129,1.899 13.476,3.129 3.918,1.426 6.965,3.531 9.024,6.242 2.121,2.84 3.183,6.121 3.183,9.782 v 258.777 h 49.981 c 18.078,0 33.695,-2.691 46.41,-7.988 12.723,-5.301 23.914,-12.813 33.301,-22.332 9.468,-9.653 17.8,-21.321 24.734,-34.696 7.117,-13.808 14.063,-29.047 20.637,-45.297 -0.024,0.059 56.961,-146 56.961,-146 1.297,-3.996 3.039,-7.652 5.07,-10.605 2.281,-3.332 5.496,-5.938 9.551,-7.75 3.64,-1.648 8.277,-2.797 14.148,-3.516 5.469,-0.664 12.528,-0.996 20.977,-0.996 9.676,0 17.586,0.332 23.523,0.989 6.274,0.703 11.086,1.75 14.739,3.195 4.355,1.738 7.343,4.168 8.886,7.219 1.317,2.675 1.973,5.687 1.973,9 0,3.004 -0.684,6.968 -2.102,12.113 z M 841.609,1083.41 c -4.656,-11.97 -12.019,-22.51 -21.902,-31.34 -9.98,-8.93 -22.676,-16 -37.734,-21.02 -15.207,-5.07 -33.614,-7.64 -54.7,-7.64 h -75.41 v 198.74 h 64.399 c 16.035,0 29.168,-0.47 39.058,-1.41 9.719,-0.93 18.52,-2.48 26.164,-4.62 24.192,-6.96 41.602,-18.42 51.719,-34.05 10.274,-15.84 15.477,-35.63 15.477,-58.8 0,-14.31 -2.379,-27.72 -7.071,-39.86"
         style="fill:#383435;fill-opacity:1;fill-rule:nonzero;stroke:none"
         id="path894" /><path
         d="m 2381.61,781.395 c -0.52,5.281 -1.32,9.359 -2.43,12.472 -1.36,3.84 -3.38,6.594 -6.04,8.168 -2.4,1.434 -5.2,2.16 -8.37,2.16 -5.95,0 -13.38,-3.281 -22.7,-10.039 -8.1,-5.871 -18.72,-12.59 -31.55,-19.976 -12.66,-7.278 -28.22,-13.953 -46.22,-19.852 -17.84,-5.848 -39.08,-8.808 -63.14,-8.808 -28.33,0 -54.03,5.089 -76.36,15.128 -22.23,9.989 -41.25,24.957 -56.55,44.497 -15.39,19.675 -27.4,44.558 -35.67,73.941 -8.33,29.586 -12.56,64.191 -12.56,102.855 0,38.979 4.37,74.059 13.02,104.249 8.61,30.11 20.89,55.92 36.46,76.7 15.48,20.65 34.36,36.5 56.12,47.11 21.81,10.64 46.38,16.02 73.04,16.02 24.64,0 46.01,-3.05 63.52,-9.08 17.73,-6.1 32.96,-12.9 45.24,-20.19 12.42,-7.36 22.67,-14.19 30.5,-20.27 9.13,-7.11 16.09,-10.42 21.88,-10.42 3.76,0 7.03,1.11 9.7,3.3 2.43,1.97 4.41,4.82 6.04,8.68 1.46,3.47 2.51,7.57 3.24,12.55 0.67,4.72 1.02,10.46 1.02,17.06 0,5.87 -0.26,11.08 -0.76,15.47 -0.5,4.38 -1.19,8.25 -2.04,11.51 -0.95,3.53 -2.12,6.52 -3.6,9.15 -1.54,2.68 -4.55,6.24 -9.21,10.88 -4.68,4.64 -12.59,10.26 -24.19,17.18 -11.37,6.78 -24.55,12.84 -39.18,18.02 -14.49,5.13 -30.51,9.44 -47.61,12.81 -17.17,3.38 -35.03,5.08 -53.1,5.08 -41.05,0 -79.01,-7.55 -112.81,-22.46 -33.88,-14.93 -63.39,-36.9 -87.69,-65.29 -24.25,-28.32 -43.33,-63.3 -56.7,-103.97 -13.34,-40.55 -20.11,-87.32 -20.11,-139.042 0,-50.461 6.29,-95.695 18.67,-134.465 12.42,-38.953 30.48,-72.191 53.66,-98.789 23.21,-26.652 51.71,-47.089 84.67,-60.742 32.87,-13.597 70.16,-20.492 110.84,-20.492 23.5,0 45.52,2.203 65.45,6.559 19.81,4.324 37.64,9.707 53.01,16 15.36,6.289 28.44,12.855 38.86,19.511 10.64,6.809 17.5,11.797 20.95,15.243 3.57,3.582 6.03,6.593 7.52,9.214 1.48,2.614 2.69,5.582 3.6,8.821 0.87,3.144 1.48,6.84 1.85,10.996 0.32,3.961 0.5,8.613 0.5,13.847 0,7.622 -0.26,13.739 -0.77,18.704"
         style="fill:#383435;fill-opacity:1;fill-rule:nonzero;stroke:none"
         id="path896" /><path
         d="m 2822,915.172 c -8.37,18.535 -19.51,34.824 -33.11,48.406 -13.51,13.524 -29.08,25.391 -46.25,35.277 -17.01,9.795 -34.53,18.885 -52.05,27.025 -0.01,0 -51.63,24.16 -51.63,24.16 -16.56,7.82 -31.5,16.51 -44.42,25.84 -12.65,9.16 -22.92,19.81 -30.5,31.66 -7.41,11.56 -11.16,25.61 -11.16,41.79 0,11.14 1.97,21.81 5.86,31.69 3.86,9.78 9.72,18.36 17.39,25.46 7.78,7.18 17.83,13.04 29.88,17.41 12.15,4.41 26.7,6.65 43.25,6.65 17.9,0 34.21,-2.25 48.5,-6.69 14.54,-4.51 27.22,-9.54 37.71,-14.92 10.99,-5.64 19.91,-10.5 27.24,-14.86 8.47,-5.03 14.55,-7.37 19.12,-7.37 3.42,0 6.52,1.11 9.19,3.3 2.53,2.07 4.43,5.14 5.69,9.13 1.06,3.39 1.84,7.39 2.36,12.26 0.5,4.61 0.75,9.96 0.75,15.92 0,6.32 -0.16,11.32 -0.49,15.32 -0.35,4.06 -0.86,7.62 -1.54,10.56 -0.77,3.23 -1.72,5.84 -2.89,8 -1.24,2.26 -3.4,4.9 -6.86,8.32 -3.46,3.4 -10.06,7.56 -20.18,12.74 -9.78,4.98 -21.06,9.54 -33.56,13.55 -12.46,3.99 -25.91,7.23 -39.94,9.63 -14.15,2.4 -28.35,3.62 -42.26,3.62 -27.16,0 -52.88,-3.7 -76.42,-11 -23.66,-7.35 -44.37,-18.21 -61.55,-32.29 -17.29,-14.16 -30.97,-31.92 -40.64,-52.78 -9.69,-20.85 -14.6,-44.84 -14.6,-71.31 0,-25.83 4.27,-48.36 12.65,-66.96 8.34,-18.5 19.37,-34.86 32.79,-48.61 13.31,-13.66 28.61,-25.69 45.48,-35.752 16.65,-9.942 34.02,-19.125 51.62,-27.301 l 51.38,-23.93 c 16.34,-7.633 31.1,-16.172 43.87,-25.371 12.49,-9.004 22.68,-19.57 30.25,-31.41 7.4,-11.57 11.15,-25.789 11.15,-42.262 0,-15.508 -2.75,-29.476 -8.17,-41.527 -5.39,-12 -13.2,-22.262 -23.21,-30.5 -10.14,-8.328 -22.45,-14.883 -36.61,-19.461 -14.23,-4.602 -30.2,-6.938 -47.46,-6.938 -23,0 -43.5,2.747 -60.92,8.157 -17.67,5.484 -32.95,11.425 -45.39,17.66 -12.54,6.281 -22.9,12.137 -30.79,17.41 -9.08,6.059 -16.19,8.996 -21.72,8.996 -3.45,0 -6.55,-0.793 -9.25,-2.363 -2.86,-1.68 -5.17,-4.473 -6.88,-8.32 -1.48,-3.344 -2.54,-7.481 -3.25,-12.637 -0.68,-4.875 -1.01,-10.821 -1.01,-18.164 0,-10.332 0.96,-18.789 2.84,-25.157 1.98,-6.667 5.12,-12.277 9.35,-16.679 4.01,-4.184 10.8,-9.008 20.76,-14.742 9.56,-5.512 21.58,-10.942 35.74,-16.137 13.95,-5.129 30.15,-9.543 48.14,-13.117 17.98,-3.551 37.72,-5.344 58.68,-5.344 30.04,0 58.5,4.102 84.56,12.191 26.22,8.145 49.35,20.461 68.77,36.618 19.46,16.191 34.9,36.187 45.87,59.418 10.96,23.242 16.52,50.066 16.52,79.722 0,25.176 -4.26,47.383 -12.65,66.012"
         style="fill:#383435;fill-opacity:1;fill-rule:nonzero;stroke:none"
         id="path898" /><path
         d="m 1334.85,977.008 c -0.45,52.922 41.07,95.222 94.02,95.722 52.95,0.43 95.25,-41.1 95.71,-94.066 0.47,-52.965 -41.1,-97.41 -94.01,-97.926 -52.96,-0.461 -95.25,43.297 -95.72,96.27 v 0 0"
         style="fill:#383435;fill-opacity:1;fill-rule:evenodd;stroke:none"
         id="path900" /><path
         d="m 1547.53,740.598 c -10.3,-5.129 -18.02,-13.973 -21.68,-24.879 -3.68,-10.922 -2.87,-22.617 2.29,-32.961 5.12,-10.301 13.95,-17.988 24.87,-21.664 10.94,-3.649 22.63,-2.813 32.94,2.308 121.23,60.305 195.85,181.891 194.62,317.223 l -0.76,20.485 c -1.5,23.7 -22.03,41.8 -45.78,40.25 -23.73,-1.49 -41.8,-22.04 -40.27,-45.778 l 0.56,-15.687 c 0.88,-102.067 -55.36,-193.758 -146.79,-239.297 z m -267.55,454.922 0.01,0.02 c 43.48,29.96 94.47,46.02 147.54,46.44 52.29,0.5 103.01,-14.3 146.65,-42.75 9.64,-6.28 21.2,-8.45 32.46,-6.05 11.29,2.36 20.94,8.99 27.2,18.64 13,19.87 7.35,46.64 -12.54,59.66 -57.92,37.78 -125.17,57.43 -194.54,56.8 -70.37,-0.65 -138.03,-21.95 -195.71,-61.72 -19.58,-13.48 -24.53,-40.36 -11.03,-59.95 13.49,-19.57 40.42,-24.55 59.96,-11.09 z m -0.89,-534.766 c 10.42,-4.949 22.13,-5.559 32.98,-1.711 10.84,3.867 19.57,11.687 24.49,22.105 4.98,10.36 5.6,22.055 1.74,32.95 -3.86,10.867 -11.71,19.55 -22.09,24.535 -92.15,43.969 -149.95,134.594 -150.87,236.578 l 0.3,15.59 c 0.56,11.469 -3.43,22.499 -11.19,31.009 -7.72,8.53 -18.35,13.53 -29.89,14.05 -11.49,0.57 -22.51,-3.42 -31.01,-11.14 -8.52,-7.79 -13.52,-18.42 -14.04,-29.939 0,-0.047 -0.42,-20.351 -0.42,-20.351 1.2,-135.254 77.82,-255.434 200,-313.676"
         style="fill:#383435;fill-opacity:1;fill-rule:nonzero;stroke:none"
         id="path902" /><path
         d="m 937.109,256.047 c -5.984,-3.098 -19.187,-6.399 -35.898,-6.399 -44.16,0 -70.977,27.852 -70.977,70.157 0,45.8 31.77,73.449 74.278,73.449 16.707,0 28.672,-3.508 33.836,-6.184 l -5.575,-20.222 c -6.601,2.879 -15.683,5.359 -27.238,5.359 -28.262,0 -48.691,-17.742 -48.691,-51.172 0,-30.527 17.953,-50.137 48.488,-50.137 10.32,0 21.047,2.071 27.645,5.157 l 4.132,-20.008"
         style="fill:#383435;fill-opacity:1;fill-rule:nonzero;stroke:none"
         id="path904" /><path
         d="m 972.391,295.039 c 0.617,-18.152 14.855,-25.996 30.949,-25.996 11.76,0 20.21,1.648 27.85,4.543 l 3.71,-17.539 c -8.66,-3.508 -20.62,-6.399 -35.064,-6.399 -32.609,0 -51.801,20.215 -51.801,50.957 0,27.864 16.926,54.063 49.113,54.063 32.802,0 43.332,-26.816 43.332,-48.898 0,-4.747 -0.41,-8.465 -0.83,-10.731 z m 44.149,17.754 c 0.21,9.277 -3.91,24.551 -20.837,24.551 -15.683,0 -22.285,-14.239 -23.312,-24.551 h 44.149"
         style="fill:#383435;fill-opacity:1;fill-rule:nonzero;stroke:none"
         id="path906" /><path
         d="m 1060.9,322.48 c 0,11.563 -0.21,21.25 -0.82,29.922 h 22.28 l 1.24,-15.058 h 0.62 c 4.33,7.832 15.26,17.324 31.98,17.324 17.54,0 35.69,-11.348 35.69,-43.125 v -59.629 h -25.38 v 56.738 c 0,14.453 -5.36,25.391 -19.19,25.391 -10.1,0 -17.12,-7.227 -19.8,-14.863 -0.83,-2.266 -1.04,-5.364 -1.04,-8.25 v -59.016 h -25.58 v 70.566"
         style="fill:#383435;fill-opacity:1;fill-rule:nonzero;stroke:none"
         id="path908" /><path
         d="m 1206.98,378.191 v -25.789 h 24.15 v -18.984 h -24.15 v -44.355 c 0,-12.176 3.31,-18.575 13.01,-18.575 4.74,0 7.01,0.41 9.9,1.239 l 0.41,-19.391 c -3.71,-1.445 -10.31,-2.688 -18.36,-2.688 -9.28,0 -17.13,3.301 -21.87,8.457 -5.36,5.782 -7.84,14.864 -7.84,28.067 v 47.246 h -14.45 v 18.984 h 14.45 v 18.575 l 24.75,7.214"
         style="fill:#383435;fill-opacity:1;fill-rule:nonzero;stroke:none"
         id="path910" /><path
         d="m 1250.31,320 c 0,13.625 -0.2,23.32 -0.82,32.402 h 22.08 l 0.82,-19.187 h 0.83 c 4.96,14.226 16.71,21.453 27.44,21.453 2.48,0 3.92,-0.203 5.98,-0.613 v -23.938 c -2.06,0.41 -4.33,0.821 -7.42,0.821 -12.18,0 -20.43,-7.833 -22.7,-19.18 -0.42,-2.278 -0.83,-4.961 -0.83,-7.852 v -51.992 h -25.38 V 320"
         style="fill:#383435;fill-opacity:1;fill-rule:nonzero;stroke:none"
         id="path912" /><path
         d="m 1339.86,295.039 c 0.62,-18.152 14.86,-25.996 30.95,-25.996 11.76,0 20.21,1.648 27.85,4.543 l 3.72,-17.539 c -8.67,-3.508 -20.63,-6.399 -35.08,-6.399 -32.6,0 -51.79,20.215 -51.79,50.957 0,27.864 16.92,54.063 49.11,54.063 32.8,0 43.33,-26.816 43.33,-48.898 0,-4.747 -0.41,-8.465 -0.83,-10.731 z m 44.15,17.754 c 0.21,9.277 -3.91,24.551 -20.83,24.551 -15.69,0 -22.29,-14.239 -23.32,-24.551 h 44.15"
         style="fill:#383435;fill-opacity:1;fill-rule:nonzero;stroke:none"
         id="path914" /><path
         d="m 1473.96,251.914 v 81.504 h -13.61 v 18.984 h 13.61 v 4.336 c 0,12.989 3.51,25.996 12.18,34.239 7.42,7.023 17.54,9.707 26.2,9.707 6.81,0 12.18,-1.036 16.3,-2.481 l -1.85,-19.601 c -2.69,1.027 -6.2,1.859 -10.74,1.859 -12.57,0 -16.91,-10.52 -16.91,-22.902 v -5.157 h 22.08 v -18.984 h -21.88 v -81.504 h -25.38"
         style="fill:#383435;fill-opacity:1;fill-rule:nonzero;stroke:none"
         id="path916" /><path
         d="m 1630.16,303.086 c 0,-36.934 -26,-53.438 -51.59,-53.438 -28.47,0 -50.35,19.61 -50.35,51.786 0,33.019 21.67,53.234 52,53.234 29.92,0 49.94,-21.043 49.94,-51.582 z m -75.73,-1.035 c 0,-19.395 9.5,-34.043 24.96,-34.043 14.45,0 24.56,14.238 24.56,34.465 0,15.672 -7.02,33.621 -24.35,33.621 -17.95,0 -25.17,-17.324 -25.17,-34.043"
         style="fill:#383435;fill-opacity:1;fill-rule:nonzero;stroke:none"
         id="path918" /><path
         d="m 1650.98,320 c 0,13.625 -0.2,23.32 -0.81,32.402 h 22.08 l 0.82,-19.187 h 0.82 c 4.96,14.226 16.72,21.453 27.45,21.453 2.47,0 3.91,-0.203 5.97,-0.613 v -23.938 c -2.06,0.41 -4.32,0.821 -7.42,0.821 -12.18,0 -20.43,-7.833 -22.69,-19.18 -0.42,-2.278 -0.83,-4.961 -0.83,-7.852 v -51.992 h -25.39 V 320"
         style="fill:#383435;fill-opacity:1;fill-rule:nonzero;stroke:none"
         id="path920" /><path
         d="m 1768.18,389.121 c 9.49,1.66 23.72,2.891 38.37,2.891 20.01,0 33.63,-3.301 42.91,-11.133 7.64,-6.406 11.97,-16.094 11.97,-27.859 0,-17.954 -12.17,-30.129 -25.17,-34.875 v -0.618 c 9.9,-3.711 15.89,-13.406 19.39,-26.824 4.34,-17.324 8.05,-33.418 10.94,-38.789 h -26.2 c -2.06,4.133 -5.36,15.481 -9.29,32.813 -3.91,18.156 -10.51,23.925 -24.96,24.343 h -12.79 v -57.156 h -25.17 z m 25.17,-61.484 h 15.06 c 17.13,0 27.85,9.082 27.85,22.91 0,15.262 -10.72,22.285 -27.24,22.285 -8.04,0 -13.2,-0.625 -15.67,-1.25 v -43.945"
         style="fill:#383435;fill-opacity:1;fill-rule:nonzero;stroke:none"
         id="path922" /><path
         d="m 1903.11,295.039 c 0.61,-18.152 14.85,-25.996 30.94,-25.996 11.76,0 20.22,1.648 27.85,4.543 l 3.71,-17.539 c -8.66,-3.508 -20.62,-6.399 -35.06,-6.399 -32.61,0 -51.8,20.215 -51.8,50.957 0,27.864 16.93,54.063 49.11,54.063 32.8,0 43.33,-26.816 43.33,-48.898 0,-4.747 -0.41,-8.465 -0.83,-10.731 z m 44.15,17.754 c 0.2,9.277 -3.92,24.551 -20.84,24.551 -15.69,0 -22.29,-14.239 -23.31,-24.551 h 44.15"
         style="fill:#383435;fill-opacity:1;fill-rule:nonzero;stroke:none"
         id="path924" /><path
         d="m 1990.38,275.234 c 5.77,-3.507 16.71,-7.226 25.79,-7.226 11.14,0 16.1,4.551 16.1,11.152 0,6.797 -4.13,10.313 -16.52,14.649 -19.6,6.796 -27.85,17.539 -27.64,29.296 0,17.735 14.64,31.563 37.96,31.563 11.15,0 20.84,-2.891 26.61,-5.977 l -4.95,-17.949 c -4.32,2.473 -12.37,5.774 -21.25,5.774 -9.08,0 -14.03,-4.328 -14.03,-10.52 0,-6.406 4.75,-9.492 17.54,-14.043 18.15,-6.601 26.62,-15.879 26.83,-30.742 0,-18.145 -14.24,-31.563 -40.85,-31.563 -12.18,0 -23.12,3.098 -30.54,7.227 l 4.95,18.359"
         style="fill:#383435;fill-opacity:1;fill-rule:nonzero;stroke:none"
         id="path926" /><path
         d="m 2095.61,295.039 c 0.61,-18.152 14.85,-25.996 30.94,-25.996 11.76,0 20.22,1.648 27.86,4.543 l 3.71,-17.539 c -8.67,-3.508 -20.63,-6.399 -35.07,-6.399 -32.61,0 -51.8,20.215 -51.8,50.957 0,27.864 16.93,54.063 49.11,54.063 32.8,0 43.33,-26.816 43.33,-48.898 0,-4.747 -0.41,-8.465 -0.83,-10.731 z m 44.15,17.754 c 0.2,9.277 -3.92,24.551 -20.84,24.551 -15.69,0 -22.29,-14.239 -23.31,-24.551 h 44.15"
         style="fill:#383435;fill-opacity:1;fill-rule:nonzero;stroke:none"
         id="path928" /><path
         d="m 2262.11,276.055 c 0,-9.075 0.41,-17.95 1.44,-24.141 h -22.91 l -1.64,11.152 h -0.62 c -6.19,-7.851 -16.71,-13.418 -29.71,-13.418 -20.22,0 -31.57,14.649 -31.57,29.922 0,25.371 22.49,38.164 59.63,37.957 v 1.653 c 0,6.601 -2.69,17.539 -20.43,17.539 -9.91,0 -20.21,-3.094 -27.02,-7.422 l -4.95,16.504 c 7.42,4.531 20.42,8.867 36.31,8.867 32.18,0 41.47,-20.43 41.47,-42.293 z m -24.77,24.968 c -17.95,0.411 -35.07,-3.503 -35.07,-18.777 0,-9.902 6.4,-14.433 14.45,-14.433 10.11,0 17.54,6.601 19.8,13.82 0.62,1.851 0.82,3.914 0.82,5.574 v 13.816"
         style="fill:#383435;fill-opacity:1;fill-rule:nonzero;stroke:none"
         id="path930" /><path
         d="m 2288.93,320 c 0,13.625 -0.21,23.32 -0.82,32.402 h 22.07 l 0.83,-19.187 h 0.83 c 4.95,14.226 16.71,21.453 27.44,21.453 2.47,0 3.92,-0.203 5.97,-0.613 v -23.938 c -2.05,0.41 -4.32,0.821 -7.42,0.821 -12.17,0 -20.43,-7.833 -22.69,-19.18 -0.42,-2.278 -0.84,-4.961 -0.84,-7.852 v -51.992 h -25.37 V 320"
         style="fill:#383435;fill-opacity:1;fill-rule:nonzero;stroke:none"
         id="path932" /><path
         d="m 2434.39,255.02 c -5.37,-2.481 -15.89,-5.372 -28.47,-5.372 -31.37,0 -51.8,20.215 -51.8,51.375 0,30.129 20.64,53.645 55.92,53.645 9.29,0 18.78,-2.063 24.55,-4.746 l -4.53,-18.984 c -4.13,1.855 -10.12,3.925 -19.19,3.925 -19.4,0 -30.96,-14.238 -30.74,-32.597 0,-20.633 13.41,-32.403 30.74,-32.403 8.87,0 15.06,1.864 20.01,3.926 l 3.51,-18.769"
         style="fill:#383435;fill-opacity:1;fill-rule:nonzero;stroke:none"
         id="path934" /><path
         d="m 2453.16,398.418 h 25.58 v -59.844 h 0.42 c 3.09,4.746 7.42,8.867 12.58,11.563 4.95,2.883 10.94,4.531 17.33,4.531 17.13,0 35.08,-11.348 35.08,-43.535 v -59.219 h -25.38 v 56.328 c 0,14.649 -5.36,25.586 -19.39,25.586 -9.91,0 -16.92,-6.601 -19.61,-14.238 -0.82,-2.063 -1.03,-4.746 -1.03,-7.637 v -60.039 h -25.58 v 146.504"
         style="fill:#383435;fill-opacity:1;fill-rule:nonzero;stroke:none"
         id="path936" /><path
         d="m 2709.41,303.086 c 0,-36.934 -25.99,-53.438 -51.58,-53.438 -28.47,0 -50.35,19.61 -50.35,51.786 0,33.019 21.67,53.234 52,53.234 29.91,0 49.93,-21.043 49.93,-51.582 z m -75.72,-1.035 c 0,-19.395 9.49,-34.043 24.96,-34.043 14.44,0 24.55,14.238 24.55,34.465 0,15.672 -7.01,33.621 -24.34,33.621 -17.95,0 -25.17,-17.324 -25.17,-34.043"
         style="fill:#383435;fill-opacity:1;fill-rule:nonzero;stroke:none"
         id="path938" /><path
         d="m 2730.25,322.48 c 0,11.563 -0.21,21.25 -0.82,29.922 h 22.28 l 1.24,-15.058 h 0.61 c 4.34,7.832 15.27,17.324 31.99,17.324 17.54,0 35.69,-11.348 35.69,-43.125 v -59.629 h -25.38 v 56.738 c 0,14.453 -5.36,25.391 -19.19,25.391 -10.11,0 -17.12,-7.227 -19.8,-14.863 -0.83,-2.266 -1.04,-5.364 -1.04,-8.25 v -59.016 h -25.58 v 70.566"
         style="fill:#383435;fill-opacity:1;fill-rule:nonzero;stroke:none"
         id="path940" /><path
         d="m 550.254,49.7266 c -5.988,-3.1055 -19.191,-6.4063 -35.899,-6.4063 -44.16,0 -70.976,27.8633 -70.976,70.1567 0,45.8 31.766,73.457 74.277,73.457 16.707,0 28.672,-3.516 33.84,-6.192 l -5.578,-20.215 c -6.602,2.883 -15.684,5.352 -27.238,5.352 -28.258,0 -48.692,-17.734 -48.692,-51.16 0,-30.5393 17.95,-50.137 48.489,-50.137 10.324,0 21.043,2.0586 27.648,5.1524 l 4.129,-20.0078"
         style="fill:#383435;fill-opacity:1;fill-rule:nonzero;stroke:none"
         id="path942" /><path
         d="m 570.262,113.684 c 0,13.621 -0.203,23.308 -0.821,32.39 h 22.082 l 0.821,-19.179 h 0.832 c 4.949,14.23 16.707,21.445 27.437,21.445 2.473,0 3.918,-0.195 5.981,-0.606 v -23.945 c -2.063,0.41 -4.328,0.832 -7.422,0.832 -12.18,0 -20.434,-7.844 -22.699,-19.191 -0.418,-2.266 -0.828,-4.953 -0.828,-7.8323 v -52 h -25.383 v 68.0863"
         style="fill:#383435;fill-opacity:1;fill-rule:nonzero;stroke:none"
         id="path944" /><path
         d="m 664.133,146.074 18.164,-53.8474 c 2.058,-6.1914 4.121,-13.8282 5.562,-19.5977 h 0.618 c 1.652,5.7695 3.515,13.2031 5.371,19.8047 l 15.672,53.6404 h 27.238 L 711.594,77.5781 C 697.762,40.0195 688.477,23.3086 676.512,13 666.609,4.12109 656.289,0.820313 649.891,0 l -5.77,21.457 c 4.336,1.0235 9.695,3.3008 14.852,7.0196 4.746,3.0859 10.316,9.0742 13.832,15.8789 1.023,1.8554 1.648,3.3008 1.648,4.539 0,1.0274 -0.203,2.4727 -1.445,4.9532 l -36.731,92.2263 h 27.856"
         style="fill:#383435;fill-opacity:1;fill-rule:nonzero;stroke:none"
         id="path946" /><path
         d="m 751.406,112.656 c 0,13.203 -0.41,23.926 -0.82,33.418 h 22.285 l 1.238,-15.469 h 0.411 c 7.421,11.348 19.191,17.735 34.453,17.735 23.109,0 42.297,-19.805 42.297,-51.1603 0,-36.3203 -22.899,-53.8594 -45.801,-53.8594 -12.586,0 -23.106,5.3711 -28.274,13.418 h -0.406 V 4.74609 h -25.383 z m 25.383,-24.9724 c 0,-2.4688 0.203,-4.7461 0.828,-7.0195 2.473,-10.3125 11.555,-17.7344 22.274,-17.7344 16.093,0 25.586,13.4101 25.586,33.2226 0,17.7347 -8.661,32.1877 -24.961,32.1877 -10.528,0 -20.223,-7.637 -22.696,-18.789 -0.625,-2.051 -1.031,-4.324 -1.031,-6.387 V 87.6836"
         style="fill:#383435;fill-opacity:1;fill-rule:nonzero;stroke:none"
         id="path948" /><path
         d="m 901.199,171.875 v -25.801 h 24.145 V 127.09 H 901.199 V 82.7344 c 0,-12.168 3.313,-18.5742 13.012,-18.5742 4.734,0 7.008,0.4218 9.898,1.25 l 0.411,-19.3946 c -3.711,-1.4453 -10.309,-2.6953 -18.36,-2.6953 -9.285,0 -17.129,3.3008 -21.871,8.4688 -5.363,5.7695 -7.844,14.8515 -7.844,28.0547 V 127.09 h -14.441 v 18.984 h 14.441 v 18.574 l 24.754,7.227"
         style="fill:#383435;fill-opacity:1;fill-rule:nonzero;stroke:none"
         id="path950" /><path
         d="m 1038.84,96.7578 c 0,-36.9219 -26,-53.4375 -51.582,-53.4375 -28.481,0 -50.356,19.6094 -50.356,51.7969 0,33.0078 21.672,53.2228 52.004,53.2228 29.914,0 49.934,-21.035 49.934,-51.5822 z m -75.727,-1.0273 c 0,-19.3907 9.492,-34.043 24.961,-34.043 14.446,0 24.556,14.2422 24.556,34.4648 0,15.6757 -7.02,33.6207 -24.349,33.6207 -17.949,0 -25.168,-17.332 -25.168,-34.0425"
         style="fill:#383435;fill-opacity:1;fill-rule:nonzero;stroke:none"
         id="path952" /><path
         d="m 1150.66,60.2461 c 0,-21.0469 -4.33,-36.1055 -14.85,-45.5977 -10.53,-9.28902 -24.97,-12.16793 -38.79,-12.16793 -12.79,0 -26.41,2.67578 -35.08,8.04683 l 5.57,19.1797 c 6.4,-3.7109 17.13,-7.6367 29.29,-7.6367 16.52,0 28.89,8.6719 28.89,30.332 v 8.6719 h -0.41 c -5.77,-8.8789 -16.09,-14.8633 -29.3,-14.8633 -24.96,0 -42.71,20.6368 -42.71,49.1094 0,33.0197 21.46,53.0197 45.61,53.0197 15.26,0 24.34,-7.422 29.09,-15.672 h 0.41 l 1.03,13.406 h 22.07 c -0.41,-6.804 -0.82,-15.058 -0.82,-28.886 z m -25.38,45.5939 c 0,2.273 -0.2,4.746 -0.82,6.816 -2.68,9.278 -9.91,16.289 -20.63,16.289 -14.24,0 -24.77,-12.375 -24.77,-32.7927 0,-17.1289 8.67,-30.957 24.57,-30.957 9.48,0 17.74,6.1914 20.62,15.2735 0.63,2.6757 1.03,6.1914 1.03,9.082 V 105.84"
         style="fill:#383435;fill-opacity:1;fill-rule:nonzero;stroke:none"
         id="path954" /><path
         d="m 1177.06,113.684 c 0,13.621 -0.2,23.308 -0.82,32.39 h 22.08 l 0.82,-19.179 h 0.83 c 4.95,14.23 16.71,21.445 27.44,21.445 2.47,0 3.92,-0.195 5.98,-0.606 v -23.945 c -2.06,0.41 -4.33,0.832 -7.42,0.832 -12.18,0 -20.43,-7.844 -22.7,-19.191 -0.42,-2.266 -0.83,-4.953 -0.83,-7.8323 v -52 h -25.38 v 68.0863"
         style="fill:#383435;fill-opacity:1;fill-rule:nonzero;stroke:none"
         id="path956" /><path
         d="m 1326.65,69.7344 c 0,-9.0703 0.41,-17.9453 1.44,-24.1367 h -22.91 l -1.64,11.1406 h -0.62 c -6.19,-7.8438 -16.71,-13.418 -29.71,-13.418 -20.22,0 -31.57,14.6485 -31.57,29.9219 0,25.3828 22.49,38.1758 59.63,37.9688 v 1.641 c 0,6.613 -2.68,17.539 -20.43,17.539 -9.9,0 -20.21,-3.086 -27.02,-7.422 l -4.95,16.504 c 7.42,4.543 20.42,8.867 36.31,8.867 32.18,0 41.47,-20.418 41.47,-42.285 z m -24.76,24.9726 c -17.96,0.4102 -35.07,-3.5156 -35.07,-18.7773 0,-9.9141 6.39,-14.4453 14.44,-14.4453 10.11,0 17.54,6.6015 19.8,13.8281 0.62,1.8555 0.83,3.9141 0.83,5.5664 V 94.707"
         style="fill:#383435;fill-opacity:1;fill-rule:nonzero;stroke:none"
         id="path958" /><path
         d="m 1353.47,112.656 c 0,13.203 -0.42,23.926 -0.83,33.418 h 22.29 l 1.24,-15.469 h 0.41 c 7.42,11.348 19.19,17.735 34.46,17.735 23.1,0 42.29,-19.805 42.29,-51.1603 0,-36.3203 -22.9,-53.8594 -45.8,-53.8594 -12.59,0 -23.1,5.3711 -28.27,13.418 h -0.41 V 4.74609 h -25.38 z m 25.38,-24.9724 c 0,-2.4688 0.2,-4.7461 0.83,-7.0195 2.47,-10.3125 11.55,-17.7344 22.28,-17.7344 16.09,0 25.58,13.4101 25.58,33.2226 0,17.7347 -8.66,32.1877 -24.96,32.1877 -10.53,0 -20.23,-7.637 -22.7,-18.789 -0.62,-2.051 -1.03,-4.324 -1.03,-6.387 V 87.6836"
         style="fill:#383435;fill-opacity:1;fill-rule:nonzero;stroke:none"
         id="path960" /><path
         d="m 1474.17,192.09 h 25.59 v -59.844 h 0.42 c 3.08,4.746 7.42,8.879 12.57,11.563 4.95,2.89 10.94,4.531 17.34,4.531 17.13,0 35.08,-11.348 35.08,-43.535 V 45.5977 h -25.38 v 56.3283 c 0,14.644 -5.36,25.586 -19.4,25.586 -9.9,0 -16.91,-6.614 -19.6,-14.242 -0.83,-2.059 -1.03,-4.747 -1.03,-7.633 V 45.5977 h -25.59 V 192.09"
         style="fill:#383435;fill-opacity:1;fill-rule:nonzero;stroke:none"
         id="path962" /><path
         d="m 1604.77,146.074 18.17,-53.8474 c 2.06,-6.1914 4.12,-13.8282 5.57,-19.5977 h 0.61 c 1.65,5.7695 3.52,13.2031 5.37,19.8047 l 15.68,53.6404 h 27.23 L 1652.23,77.5781 C 1638.41,40.0195 1629.12,23.3086 1617.16,13 1607.26,4.12109 1596.93,0.820313 1590.54,0 l -5.77,21.457 c 4.33,1.0235 9.69,3.3008 14.85,7.0196 4.74,3.0859 10.31,9.0742 13.83,15.8789 1.02,1.8554 1.65,3.3008 1.65,4.539 0,1.0274 -0.21,2.4727 -1.45,4.9532 l -36.72,92.2263 h 27.84"
         style="fill:#383435;fill-opacity:1;fill-rule:nonzero;stroke:none"
         id="path964" /><path
         d="m 1812.75,69.7344 c 0,-9.0703 0.41,-17.9453 1.45,-24.1367 h -22.91 l -1.65,11.1406 h -0.62 c -6.19,-7.8438 -16.71,-13.418 -29.7,-13.418 -20.23,0 -31.58,14.6485 -31.58,29.9219 0,25.3828 22.49,38.1758 59.64,37.9688 v 1.641 c 0,6.613 -2.69,17.539 -20.44,17.539 -9.9,0 -20.21,-3.086 -27.02,-7.422 l -4.95,16.504 c 7.42,4.543 20.42,8.867 36.31,8.867 32.19,0 41.47,-20.418 41.47,-42.285 z m -24.76,24.9726 c -17.95,0.4102 -35.07,-3.5156 -35.07,-18.7773 0,-9.9141 6.4,-14.4453 14.44,-14.4453 10.11,0 17.54,6.6015 19.81,13.8281 0.61,1.8555 0.82,3.9141 0.82,5.5664 V 94.707"
         style="fill:#383435;fill-opacity:1;fill-rule:nonzero;stroke:none"
         id="path966" /><path
         d="m 1839.57,116.164 c 0,11.551 -0.21,21.25 -0.82,29.91 h 22.29 l 1.23,-15.058 h 0.62 c 4.34,7.839 15.26,17.324 31.99,17.324 17.53,0 35.69,-11.348 35.69,-43.113 V 45.5977 h -25.39 v 56.7383 c 0,14.441 -5.36,25.379 -19.18,25.379 -10.11,0 -17.12,-7.227 -19.81,-14.863 -0.83,-2.266 -1.03,-5.352 -1.03,-8.243 V 45.5977 h -25.59 v 70.5663"
         style="fill:#383435;fill-opacity:1;fill-rule:nonzero;stroke:none"
         id="path968" /><path
         d="M 2050.23,192.09 V 73.8672 c 0,-10.3203 0.41,-21.4649 0.82,-28.2695 h -22.69 l -1.02,15.8867 h -0.43 c -5.97,-11.1406 -18.15,-18.1641 -32.8,-18.1641 -23.93,0 -42.92,20.4297 -42.92,51.3867 -0.21,33.633 20.84,53.633 44.98,53.633 13.83,0 23.73,-5.774 28.27,-13.203 h 0.41 v 56.953 z m -25.38,-87.891 c 0,2.051 -0.2,4.531 -0.61,6.602 -2.28,9.902 -10.32,17.949 -21.88,17.949 -16.3,0 -25.38,-14.453 -25.38,-33.2227 0,-18.3593 9.08,-31.7773 25.18,-31.7773 10.31,0 19.39,7.0117 21.87,17.9492 0.62,2.2774 0.82,4.7461 0.82,7.4336 v 15.0662"
         style="fill:#383435;fill-opacity:1;fill-rule:nonzero;stroke:none"
         id="path970" /><path
         d="m 2120.59,73.2422 c 8.25,-4.7461 20.62,-8.8672 33.63,-8.8672 16.3,0 25.37,7.6367 25.37,18.9844 0,10.5195 -7.01,16.7066 -24.75,23.1056 -22.91,8.254 -37.55,20.43 -37.55,40.437 0,22.7 18.97,40.032 49.1,40.032 15.06,0 26.2,-3.301 33.42,-7.012 l -6.18,-20.43 c -4.96,2.676 -14.66,6.602 -27.65,6.602 -16.1,0 -23.11,-8.672 -23.11,-16.719 0,-10.723 8.04,-15.684 26.61,-22.898 24.15,-9.075 35.9,-21.25 35.9,-41.2622 0,-22.2851 -16.91,-41.8945 -52.81,-41.8945 -14.66,0 -29.93,4.336 -37.56,8.875 l 5.58,21.0469"
         style="fill:#383435;fill-opacity:1;fill-rule:nonzero;stroke:none"
         id="path972" /><path
         d="m 2246.45,88.7109 c 0.61,-18.1445 14.85,-25.9961 30.94,-25.9961 11.76,0 20.22,1.6602 27.86,4.5508 l 3.71,-17.539 c -8.67,-3.5157 -20.63,-6.4063 -35.07,-6.4063 -32.61,0 -51.8,20.2266 -51.8,50.9688 0,27.8589 16.92,54.0509 49.11,54.0509 32.8,0 43.33,-26.817 43.33,-48.8869 0,-4.7461 -0.41,-8.4687 -0.83,-10.7422 z m 44.14,17.7541 c 0.21,9.277 -3.91,24.551 -20.83,24.551 -15.69,0 -22.29,-14.239 -23.31,-24.551 h 44.14"
         style="fill:#383435;fill-opacity:1;fill-rule:nonzero;stroke:none"
         id="path974" /><path
         d="m 2408.82,48.6914 c -5.36,-2.4805 -15.89,-5.3711 -28.47,-5.3711 -31.37,0 -51.8,20.2266 -51.8,51.3867 0,30.117 20.64,53.633 55.92,53.633 9.29,0 18.78,-2.051 24.55,-4.738 l -4.53,-18.981 c -4.13,1.856 -10.11,3.914 -19.19,3.914 -19.39,0 -30.96,-14.238 -30.74,-32.5975 0,-20.625 13.41,-32.3906 30.74,-32.3906 8.87,0 15.06,1.8633 20.01,3.914 l 3.51,-18.7695"
         style="fill:#383435;fill-opacity:1;fill-rule:nonzero;stroke:none"
         id="path976" /><path
         d="m 2517.55,75.7227 c 0,-11.9727 0.41,-21.875 0.83,-30.125 h -22.29 l -1.24,15.2617 h -0.4 c -4.34,-7.2149 -14.24,-17.5391 -32.19,-17.5391 -18.37,0 -35.08,10.9375 -35.08,43.75 v 59.0037 h 25.38 V 91.4063 c 0,-16.7188 5.36,-27.4415 18.78,-27.4415 10.11,0 16.71,7.2188 19.39,13.6133 0.82,2.2657 1.44,4.9492 1.44,7.8321 v 60.6638 h 25.38 V 75.7227"
         style="fill:#383435;fill-opacity:1;fill-rule:nonzero;stroke:none"
         id="path978" /><path
         d="m 2544.98,113.684 c 0,13.621 -0.21,23.308 -0.82,32.39 h 22.08 l 0.82,-19.179 h 0.83 c 4.95,14.23 16.71,21.445 27.44,21.445 2.47,0 3.92,-0.195 5.98,-0.606 v -23.945 c -2.06,0.41 -4.33,0.832 -7.42,0.832 -12.18,0 -20.43,-7.844 -22.7,-19.191 -0.42,-2.266 -0.83,-4.953 -0.83,-7.8323 v -52 h -25.38 v 68.0863"
         style="fill:#383435;fill-opacity:1;fill-rule:nonzero;stroke:none"
         id="path980" /><path
         d="m 2645.46,174.141 c 0,-7.637 -5.57,-13.614 -14.44,-13.614 -8.46,0 -14.03,5.977 -14.03,13.614 0,7.832 5.77,13.828 14.23,13.828 8.67,0 14.03,-5.996 14.24,-13.828 z M 2618.43,45.5977 V 146.074 h 25.58 V 45.5977 h -25.58"
         style="fill:#383435;fill-opacity:1;fill-rule:nonzero;stroke:none"
         id="path982" /><path
         d="m 2700.34,171.875 v -25.801 h 24.14 V 127.09 h -24.14 V 82.7344 c 0,-12.168 3.31,-18.5742 13.01,-18.5742 4.74,0 7.01,0.4218 9.9,1.25 l 0.41,-19.3946 c -3.71,-1.4453 -10.31,-2.6953 -18.36,-2.6953 -9.28,0 -17.12,3.3008 -21.87,8.4688 -5.36,5.7695 -7.84,14.8515 -7.84,28.0547 V 127.09 h -14.45 v 18.984 h 14.45 v 18.574 l 24.75,7.227"
         style="fill:#383435;fill-opacity:1;fill-rule:nonzero;stroke:none"
         id="path984" /><path
         d="m 2761.01,146.074 18.16,-53.8474 c 2.06,-6.1914 4.12,-13.8282 5.57,-19.5977 h 0.61 c 1.65,5.7695 3.52,13.2031 5.37,19.8047 l 15.67,53.6404 h 27.24 L 2808.47,77.5781 C 2794.64,40.0195 2785.35,23.3086 2773.39,13 2763.49,4.12109 2753.16,0.820313 2746.77,0 L 2741,21.457 c 4.33,1.0235 9.7,3.3008 14.85,7.0196 4.74,3.0859 10.31,9.0742 13.83,15.8789 1.02,1.8554 1.65,3.3008 1.65,4.539 0,1.0274 -0.2,2.4727 -1.45,4.9532 l -36.72,92.2263 h 27.85"
         style="fill:#383435;fill-opacity:1;fill-rule:nonzero;stroke:none"
         id="path986" /></g></g></svg>
