<?xml version="1.0" encoding="UTF-8" standalone="no"?>
<svg
   width="210.78629mm"
   height="103.24005mm"
   viewBox="0 0 210.78628 103.24005"
   version="1.1"
   id="svg8"
   sodipodi:docname="cve_card.svg"
   inkscape:version="1.4.2 (ebf0e940d0, 2025-05-08)"
   xml:space="preserve"
   xmlns:inkscape="http://www.inkscape.org/namespaces/inkscape"
   xmlns:sodipodi="http://sodipodi.sourceforge.net/DTD/sodipodi-0.dtd"
   xmlns="http://www.w3.org/2000/svg"
   xmlns:svg="http://www.w3.org/2000/svg"
   xmlns:rdf="http://www.w3.org/1999/02/22-rdf-syntax-ns#"
   xmlns:cc="http://creativecommons.org/ns#"
   xmlns:dc="http://purl.org/dc/elements/1.1/"><sodipodi:namedview
     pagecolor="#ffffff"
     bordercolor="#666666"
     borderopacity="1"
     objecttolerance="10"
     gridtolerance="10"
     guidetolerance="10"
     id="namedview12"
     showgrid="false"
     inkscape:pageshadow="0"
     inkscape:pageopacity="0"
     inkscape:pagecheckerboard="0"
     inkscape:document-units="mm"
     inkscape:zoom="0.8850451"
     inkscape:cx="289.81574"
     inkscape:cy="385.85604"
     inkscape:window-width="2560"
     inkscape:window-height="1369"
     inkscape:window-x="0"
     inkscape:window-y="0"
     inkscape:window-maximized="1"
     inkscape:current-layer="svg8"
     inkscape:snap-page="true"
     inkscape:showpageshadow="0"
     inkscape:deskcolor="#d1d1d1"
     showguides="true"><sodipodi:guide
       position="179.43879,93.350053"
       orientation="0,-1"
       id="guide1"
       inkscape:locked="false" /><sodipodi:guide
       position="197.84379,67.012462"
       orientation="1,0"
       id="guide2"
       inkscape:locked="false" /><sodipodi:guide
       position="12.94,65.79494"
       orientation="-1,0"
       id="guide3"
       inkscape:locked="false"
       inkscape:label=""
       inkscape:color="rgb(0,134,229)" /><sodipodi:guide
       position="38.551217,64.091284"
       orientation="0,-1"
       id="guide4"
       inkscape:locked="false" /></sodipodi:namedview><defs
     id="defs2" /><metadata
     id="metadata5"><rdf:RDF><cc:Work
         rdf:about=""><dc:format>image/svg+xml</dc:format><dc:type
           rdf:resource="http://purl.org/dc/dcmitype/StillImage" /></cc:Work></rdf:RDF></metadata><rect
     style="fill:#ffffff;fill-opacity:1;stroke-width:0.765;stroke-linecap:round;stroke-linejoin:round;paint-order:stroke fill markers"
     id="rect17281"
     width="210.78627"
     height="103.24004"
     x="0"
     y="0"
     rx="0.70000017"
     ry="0.70000017" /><g
     id="layer1"
     transform="matrix(0.64064012,0,0,0.64064012,-18.257298,-90.153525)"
     style="display:none;stroke-width:1.56094"><path
       id="rect903"
       style="opacity:1;fill:#000000;stroke:none;stroke-width:7.65976;stroke-linecap:square;paint-order:markers stroke fill"
       d="M 176.80859,77.863281 V 181.24609 h 492.48047 l -41.74218,-51.76367 41.88476,-51.619139 z"
       transform="matrix(0.26458333,0,0,0.26458333,24.826912,135.56049)" /><circle
       style="opacity:1;fill:#000000;stroke-width:1.27658;stroke-linecap:square;paint-order:markers stroke fill"
       id="path833-3"
       cx="59.321445"
       cy="169.68051"
       r="24.120024" /><path
       style="opacity:1;fill:#ffffff;stroke-width:2.65705;stroke-linecap:square;paint-order:markers stroke fill"
       id="path835-6"
       d="m 116.79591,120.92807 -9.93587,24.04724 -12.288555,-22.93431 -24.9958,7.22504 10.268973,-23.90689 -21.233385,-15.037769 25.093756,-6.877093 -1.481798,-25.976824 21.022429,15.331291 19.38561,-17.354802 1.12079,25.994901 25.65526,4.33574 -19.62484,17.083816 12.60598,22.76139 z"
       transform="matrix(-0.02807995,0.52181971,-0.52181971,-0.02807995,113.47851,118.0225)" /><g
       aria-label="seccerts"
       id="text877-7"
       style="fill:#ffffff;stroke-width:0.412998"><path
         d="m 93.714232,177.27479 c 2.54,0 4.6228,-1.5748 4.6228,-3.6322 0,-2.0574 -1.524,-3.048 -4.2672,-3.9116 -2.667,-0.8382 -3.7338,-1.5494 -3.7338,-2.8194 0,-1.27 1.4478,-2.2098 3.175,-2.2098 1.2954,0 2.7432,0.4572 4.0132,1.27 l 0.6858,-0.9652 c -1.4224,-0.9144 -3.1242,-1.4732 -4.699,-1.4732 -2.4384,0 -4.4196,1.4986 -4.4196,3.5306 0,1.778 1.2192,2.8194 4.3688,3.7846 2.413,0.7112 3.6322,1.4732 3.6322,2.9464 0,1.2954 -1.4732,2.3114 -3.3782,2.3114 -1.524,0 -3.2258,-0.635 -4.7244,-1.7272 l -0.7112,0.9398 c 1.5494,1.2446 3.5814,1.9558 5.4356,1.9558 z"
         style="fill:#ffffff;stroke-width:0.412998"
         id="path1756" /><path
         d="m 107.27779,176.10639 c -2.7686,0 -4.9784,-2.286 -5.2324,-5.1816 h 11.43 c 0,-4.445 -2.413,-7.3914 -6.2484,-7.3914 -3.5814,0 -6.4516,2.9718 -6.4516,6.8326 0,3.8608 3.0226,6.9088 6.5278,6.9088 2.0066,0 4.2926,-0.8128 5.4102,-2.032 l -0.8128,-0.8636 c -0.9906,1.0922 -2.8448,1.7272 -4.6228,1.7272 z m -0.0254,-11.4046 c 2.9464,0 4.8006,2.0828 4.9784,5.0546 h -10.1854 c 0.2794,-2.921 2.4638,-5.0546 5.207,-5.0546 z"
         style="fill:#ffffff;stroke-width:0.412998"
         id="path1758" /><path
         d="m 122.51777,177.27479 c 1.778,0 3.4036,-0.7366 4.5974,-1.9558 l -0.8636,-0.8636 c -0.9906,1.016 -2.3114,1.651 -3.7338,1.651 -3.0734,0 -5.3594,-2.4384 -5.3594,-5.715 0,-3.2512 2.286,-5.6896 5.3594,-5.6896 1.4224,0 2.7432,0.635 3.683,1.6256 l 0.889,-0.8636 c -1.1938,-1.1938 -2.8194,-1.9304 -4.572,-1.9304 -3.7846,0 -6.6294,2.9464 -6.6294,6.858 0,3.937 2.8448,6.8834 6.6294,6.8834 z"
         style="fill:#ffffff;stroke-width:0.412998"
         id="path1760" /><path
         d="m 135.95435,177.27479 c 1.778,0 3.4036,-0.7366 4.5974,-1.9558 l -0.8636,-0.8636 c -0.9906,1.016 -2.3114,1.651 -3.7338,1.651 -3.0734,0 -5.3594,-2.4384 -5.3594,-5.715 0,-3.2512 2.286,-5.6896 5.3594,-5.6896 1.4224,0 2.7432,0.635 3.683,1.6256 l 0.889,-0.8636 c -1.1938,-1.1938 -2.8194,-1.9304 -4.572,-1.9304 -3.7846,0 -6.62939,2.9464 -6.62939,6.858 0,3.937 2.84479,6.8834 6.62939,6.8834 z"
         style="fill:#ffffff;stroke-width:0.412998"
         id="path1762" /><path
         d="m 149.26394,176.10639 c -2.7686,0 -4.9784,-2.286 -5.2324,-5.1816 h 11.43 c 0,-4.445 -2.413,-7.3914 -6.2484,-7.3914 -3.5814,0 -6.4516,2.9718 -6.4516,6.8326 0,3.8608 3.0226,6.9088 6.5278,6.9088 2.0066,0 4.2926,-0.8128 5.4102,-2.032 l -0.8128,-0.8636 c -0.9906,1.0922 -2.8448,1.7272 -4.6228,1.7272 z m -0.0254,-11.4046 c 2.9464,0 4.8006,2.0828 4.9784,5.0546 h -10.1854 c 0.2794,-2.921 2.4638,-5.0546 5.207,-5.0546 z"
         style="fill:#ffffff;stroke-width:0.412998"
         id="path1764" /><path
         d="m 160.00812,166.70839 v -2.8702 h -1.2446 v 13.1318 h 1.2446 v -7.3406 c 0,-2.8702 2.1082,-4.9276 5.08,-4.9276 v -1.1684 c -2.413,0 -4.4196,1.3208 -5.08,3.175 z"
         style="fill:#ffffff;stroke-width:0.412998"
         id="path1766" /><path
         d="m 173.62249,175.47139 c -0.4572,0.381 -1.0922,0.635 -1.7272,0.635 -0.9652,0 -1.6764,-0.9144 -1.6764,-2.1844 v -8.9154 h 3.3782 v -1.1684 h -3.3782 v -3.6068 h -1.2446 v 3.6068 h -2.2352 v 1.1684 h 2.2352 v 8.9154 c 0,1.9558 1.1684,3.3528 2.8448,3.3528 0.889,0 1.7526,-0.3048 2.4384,-0.8382 z"
         style="fill:#ffffff;stroke-width:0.412998"
         id="path1768" /><path
         d="m 181.59807,177.27479 c 2.54,0 4.6228,-1.5748 4.6228,-3.6322 0,-2.0574 -1.524,-3.048 -4.2672,-3.9116 -2.667,-0.8382 -3.7338,-1.5494 -3.7338,-2.8194 0,-1.27 1.4478,-2.2098 3.175,-2.2098 1.2954,0 2.7432,0.4572 4.0132,1.27 l 0.6858,-0.9652 c -1.4224,-0.9144 -3.1242,-1.4732 -4.699,-1.4732 -2.4384,0 -4.4196,1.4986 -4.4196,3.5306 0,1.778 1.2192,2.8194 4.3688,3.7846 2.413,0.7112 3.6322,1.4732 3.6322,2.9464 0,1.2954 -1.4732,2.3114 -3.3782,2.3114 -1.524,0 -3.2258,-0.635 -4.7244,-1.7272 l -0.7112,0.9398 c 1.5494,1.2446 3.5814,1.9558 5.4356,1.9558 z"
         style="fill:#ffffff;stroke-width:0.412998"
         id="path1770" /></g></g><text
     xml:space="preserve"
     style="font-size:14.1111px;line-height:1.25;font-family:'IBM Plex Sans';-inkscape-font-specification:'IBM Plex Sans';text-align:center;text-anchor:middle;stroke-width:0.264583"
     x="198.26712"
     y="75.673904"
     id="text3762"><tspan
       sodipodi:role="line"
       style="font-weight:bold;font-size:14.1111px;text-align:end;text-anchor:end;stroke-width:0.264583"
       x="198.26712"
       y="75.673904"
       id="tspan11770">CVE</tspan></text><path
     fill="currentColor"
     d="m 196.83225,16.920546 -6.01901,-6.019008 c -0.64566,-0.645663 -1.52089,-1.0115383 -2.43199,-1.0115383 h -17.88492 c -1.90112,0.0072 -3.44354,1.5495903 -3.44354,3.4507073 v 29.843952 c 0,1.901117 1.54242,3.443532 3.44354,3.443532 h 23.90393 c 1.90112,0 3.44353,-1.542415 3.44353,-3.443532 V 19.359715 c 0,-0.911101 -0.36588,-1.793506 -1.01154,-2.439169 z M 170.49633,43.184659 V 13.340707 h 14.72117 v 7.460988 c 0,0.954145 0.76762,1.721766 1.72177,1.721766 h 7.46099 v 20.661198 z"
     id="path2"
     sodipodi:nodetypes="ssscssssssscccssccc"
     style="stroke-width:0.264583" /><g
     id="layer1-3"
     transform="matrix(0.60652446,0,0,0.60652446,-8.1833737,-78.395997)"
     style="stroke-width:1.64874"><path
       id="rect903-5"
       style="opacity:1;fill:#000000;stroke:none;stroke-width:2.14064;stroke-linecap:square;paint-order:markers stroke fill"
       d="m 71.607517,156.16182 v 27.35336 H 211.30707 l -11.8408,-13.6958 11.88125,-13.65756 z" /><circle
       style="opacity:1;fill:#000000;stroke-width:1.34839;stroke-linecap:square;paint-order:markers stroke fill"
       id="path833-3-6"
       cx="59.321445"
       cy="169.68051"
       r="24.120024" /><path
       style="opacity:1;fill:#ffffff;stroke-width:2.8065;stroke-linecap:square;paint-order:markers stroke fill"
       id="path835-6-2"
       d="m 116.79591,120.92807 -9.93587,24.04724 -12.288555,-22.93431 -24.9958,7.22504 10.268973,-23.90689 -21.233385,-15.037769 25.093756,-6.877093 -1.481798,-25.976824 21.022429,15.331291 19.38561,-17.354802 1.12079,25.994901 25.65526,4.33574 -19.62484,17.083816 12.60598,22.76139 z"
       transform="matrix(-0.02807995,0.52181971,-0.52181971,-0.02807995,113.47851,118.0225)" /><path
       d="m 93.714132,177.27479 c 2.54,0 4.6228,-1.5748 4.6228,-3.6322 0,-2.0574 -1.524,-3.048 -4.2672,-3.9116 -2.667,-0.8382 -3.7338,-1.5494 -3.7338,-2.8194 0,-1.27 1.4478,-2.2098 3.175,-2.2098 1.2954,0 2.7432,0.4572 4.0132,1.27 l 0.6858,-0.9652 c -1.4224,-0.9144 -3.1242,-1.4732 -4.699,-1.4732 -2.4384,0 -4.4196,1.4986 -4.4196,3.5306 0,1.778 1.2192,2.8194 4.3688,3.7846 2.413,0.7112 3.6322,1.4732 3.6322,2.9464 0,1.2954 -1.4732,2.3114 -3.3782,2.3114 -1.524,0 -3.2258,-0.635 -4.7244,-1.7272 l -0.7112,0.9398 c 1.5494,1.2446 3.5814,1.9558 5.4356,1.9558 z m 13.563608,-1.1684 c -2.7686,0 -4.9784,-2.286 -5.2324,-5.1816 h 11.43 c 0,-4.445 -2.413,-7.3914 -6.2484,-7.3914 -3.5814,0 -6.4516,2.9718 -6.4516,6.8326 0,3.8608 3.0226,6.9088 6.5278,6.9088 2.0066,0 4.2926,-0.8128 5.4102,-2.032 l -0.8128,-0.8636 c -0.9906,1.0922 -2.8448,1.7272 -4.6228,1.7272 z m -0.0254,-11.4046 c 2.9464,0 4.8006,2.0828 4.9784,5.0546 h -10.1854 c 0.2794,-2.921 2.4638,-5.0546 5.207,-5.0546 z m 15.26538,12.573 c 1.778,0 3.4036,-0.7366 4.5974,-1.9558 l -0.8636,-0.8636 c -0.9906,1.016 -2.3114,1.651 -3.7338,1.651 -3.0734,0 -5.3594,-2.4384 -5.3594,-5.715 0,-3.2512 2.286,-5.6896 5.3594,-5.6896 1.4224,0 2.7432,0.635 3.683,1.6256 l 0.889,-0.8636 c -1.1938,-1.1938 -2.8194,-1.9304 -4.572,-1.9304 -3.7846,0 -6.6294,2.9464 -6.6294,6.858 0,3.937 2.8448,6.8834 6.6294,6.8834 z m 7.01038,-6.604 h 6.5786 v -1.2192 h -6.5786 z m 15.84961,6.604 c 1.778,0 3.4036,-0.7366 4.5974,-1.9558 l -0.8636,-0.8636 c -0.9906,1.016 -2.3114,1.651 -3.7338,1.651 -3.0734,0 -5.3594,-2.4384 -5.3594,-5.715 0,-3.2512 2.286,-5.6896 5.3594,-5.6896 1.4224,0 2.7432,0.635 3.683,1.6256 l 0.889,-0.8636 c -1.1938,-1.1938 -2.8194,-1.9304 -4.572,-1.9304 -3.7846,0 -6.6294,2.9464 -6.6294,6.858 0,3.937 2.8448,6.8834 6.6294,6.8834 z m 13.30958,-1.1684 c -2.7686,0 -4.9784,-2.286 -5.2324,-5.1816 h 11.43 c 0,-4.445 -2.413,-7.3914 -6.2484,-7.3914 -3.5814,0 -6.4516,2.9718 -6.4516,6.8326 0,3.8608 3.0226,6.9088 6.5278,6.9088 2.0066,0 4.2926,-0.8128 5.4102,-2.032 l -0.8128,-0.8636 c -0.9906,1.0922 -2.8448,1.7272 -4.6228,1.7272 z m -0.0254,-11.4046 c 2.9464,0 4.8006,2.0828 4.9784,5.0546 h -10.1854 c 0.2794,-2.921 2.4638,-5.0546 5.207,-5.0546 z m 10.76959,2.0066 v -2.8702 h -1.2446 v 13.1318 h 1.2446 v -7.3406 c 0,-2.8702 2.1082,-4.9276 5.08,-4.9276 v -1.1684 c -2.413,0 -4.4196,1.3208 -5.08,3.175 z m 13.61441,8.763 c -0.4572,0.381 -1.0922,0.635 -1.7272,0.635 -0.9652,0 -1.6764,-0.9144 -1.6764,-2.1844 v -8.9154 h 3.3782 v -1.1684 h -3.3782 v -3.6068 h -1.2446 v 3.6068 h -2.2352 v 1.1684 h 2.2352 v 8.9154 c 0,1.9558 1.1684,3.3528 2.8448,3.3528 0.889,0 1.7526,-0.3048 2.4384,-0.8382 z m 7.97562,1.8034 c 2.54,0 4.6228,-1.5748 4.6228,-3.6322 0,-2.0574 -1.524,-3.048 -4.2672,-3.9116 -2.667,-0.8382 -3.7338,-1.5494 -3.7338,-2.8194 0,-1.27 1.4478,-2.2098 3.175,-2.2098 1.2954,0 2.7432,0.4572 4.0132,1.27 l 0.6858,-0.9652 c -1.4224,-0.9144 -3.1242,-1.4732 -4.699,-1.4732 -2.4384,0 -4.4196,1.4986 -4.4196,3.5306 0,1.778 1.2192,2.8194 4.3688,3.7846 2.413,0.7112 3.6322,1.4732 3.6322,2.9464 0,1.2954 -1.4732,2.3114 -3.3782,2.3114 -1.524,0 -3.2258,-0.635 -4.7244,-1.7272 l -0.7112,0.9398 c 1.5494,1.2446 3.5814,1.9558 5.4356,1.9558 z"
       id="text877-7-9"
       style="font-size:25.4px;line-height:1.25;text-align:center;letter-spacing:0px;word-spacing:0px;text-anchor:middle;fill:#ffffff;stroke-width:0.436228"
       aria-label="sec-certs" /></g></svg>
