<svg xmlns="http://www.w3.org/2000/svg" xml:space="preserve" width="377.947" height="177.107">
  <path d="M458.809 781.406c-.539 5.293-1.321 9.364-2.414 12.446-1.375 3.843-3.387 6.586-6.024 8.168-2.422 1.449-5.234 2.175-8.406 2.175-5.949 0-13.379-3.281-22.699-10.039-8.133-5.894-18.758-12.617-31.551-19.976-12.649-7.278-28.203-13.953-46.211-19.852-17.832-5.848-39.074-8.808-63.133-8.808-28.351 0-54.055 5.089-76.367 15.128-22.231 9.989-41.262 24.957-56.555 44.497-15.383 19.656-27.394 44.535-35.683 73.949-8.321 29.59-12.547 64.191-12.547 102.847 0 38.959 4.383 74.029 13.027 104.249 8.582 30.07 20.856 55.88 36.465 76.7 15.469 20.66 34.344 36.51 56.102 47.11 21.816 10.64 46.386 16.02 73.046 16.02 24.641 0 46.016-3.05 63.528-9.08 17.75-6.12 32.965-12.9 45.222-20.19 12.383-7.34 22.649-14.16 30.508-20.27 9.133-7.11 16.094-10.42 21.875-10.42 3.778 0 7.051 1.11 9.719 3.32 2.41 1.95 4.391 4.8 6.023 8.66 1.465 3.47 2.52 7.57 3.243 12.55.671 4.68 1.003 10.42 1.003 17.06 0 5.9-.242 11.1-.73 15.46-.488 4.27-1.184 8.14-2.039 11.51-.918 3.45-2.129 6.53-3.617 9.16-1.531 2.68-4.453 6.14-9.207 10.88-4.637 4.61-12.547 10.23-24.192 17.18-11.375 6.79-24.558 12.85-39.168 18.02-14.543 5.14-30.547 9.45-47.605 12.81-17.18 3.38-35.051 5.08-53.125 5.08-41.035 0-78.996-7.55-112.805-22.46-33.879-14.93-63.39-36.9-87.695-65.29-24.238-28.32-43.32-63.3-56.7-103.97C6.758 1075.47 0 1028.69 0 976.988c0-50.425 6.29-95.664 18.672-134.465 12.43-38.953 30.476-72.191 53.64-98.789 23.235-26.652 51.731-47.097 84.7-60.742 32.863-13.597 70.156-20.492 110.832-20.492 23.504 0 45.515 2.203 65.437 6.559 19.813 4.324 37.649 9.707 53.02 16 15.398 6.312 28.484 12.875 38.867 19.511 10.641 6.817 17.5 11.809 20.934 15.25 3.527 3.52 5.988 6.524 7.531 9.184 1.472 2.617 2.683 5.582 3.594 8.844.878 3.148 1.484 6.754 1.836 11.007.332 3.899.507 8.559.507 13.836 0 7.622-.254 13.739-.761 18.715M980.652 700.172c-1.316 4.808-4.199 12.887-8.789 24.68-.027.07-55.554 136.531-55.554 136.531-6.434 15.75-12.938 30.058-19.356 42.539-6.445 12.601-13.445 23.965-20.789 33.758-7.434 9.886-15.539 18.472-24.074 25.527-5.684 4.715-12.031 8.703-18.613 12.352 14.304 5.687 27.625 12.324 39.628 19.879 15.071 9.482 28.196 20.852 39.032 33.802 10.879 13.02 19.328 28.22 25.097 45.17 5.735 16.89 8.645 36.2 8.645 57.38 0 21.84-3.242 42.12-9.641 60.29-6.402 18.24-16.187 34.67-29.05 48.86-12.833 14.12-28.895 25.94-47.762 35.12-18.711 9.1-40.508 15.84-64.836 20.05-8.633 1.01-18.133 1.9-28.504 2.69-10.473.81-23.742 1.22-39.438 1.22H594.922c-8.426 0-16.465-2.85-23.899-8.45-7.847-5.94-11.843-16.08-11.843-30.14V688.047c0-3.531.918-6.731 2.734-9.492 1.965-2.903 5.09-5.082 9.316-6.551 3.489-1.211 7.942-2.223 13.606-3.094 5.547-.832 12.5-1.254 20.68-1.254 8.195 0 15.136.422 20.664 1.25 5.722.879 10.129 1.899 13.476 3.129 3.918 1.426 6.965 3.531 9.024 6.242 2.121 2.84 3.183 6.121 3.183 9.782v258.777h49.981c18.078 0 33.695-2.691 46.41-7.988 12.723-5.301 23.914-12.813 33.301-22.332 9.468-9.653 17.8-21.321 24.734-34.696 7.117-13.808 14.063-29.047 20.637-45.297l56.961-146c1.297-3.996 3.039-7.652 5.07-10.605 2.281-3.332 5.496-5.938 9.551-7.75 3.64-1.648 8.277-2.797 14.148-3.516 5.469-.664 12.528-.996 20.977-.996 9.676 0 17.586.332 23.523.989 6.274.703 11.086 1.75 14.739 3.195 4.355 1.738 7.343 4.168 8.886 7.219 1.317 2.675 1.973 5.687 1.973 9 0 3.004-.684 6.968-2.102 12.113zM841.609 1083.41c-4.656-11.97-12.019-22.51-21.902-31.34-9.98-8.93-22.676-16-37.734-21.02-15.207-5.07-33.614-7.64-54.7-7.64h-75.41v198.74h64.399c16.035 0 29.168-.47 39.058-1.41 9.719-.93 18.52-2.48 26.164-4.62 24.192-6.96 41.602-18.42 51.719-34.05 10.274-15.84 15.477-35.63 15.477-58.8 0-14.31-2.379-27.72-7.071-39.86M2381.61 781.395c-.52 5.281-1.32 9.359-2.43 12.472-1.36 3.84-3.38 6.594-6.04 8.168-2.4 1.434-5.2 2.16-8.37 2.16-5.95 0-13.38-3.281-22.7-10.039-8.1-5.871-18.72-12.59-31.55-19.976-12.66-7.278-28.22-13.953-46.22-19.852-17.84-5.848-39.08-8.808-63.14-8.808-28.33 0-54.03 5.089-76.36 15.128-22.23 9.989-41.25 24.957-56.55 44.497-15.39 19.675-27.4 44.558-35.67 73.941-8.33 29.586-12.56 64.191-12.56 102.855 0 38.979 4.37 74.059 13.02 104.249 8.61 30.11 20.89 55.92 36.46 76.7 15.48 20.65 34.36 36.5 56.12 47.11 21.81 10.64 46.38 16.02 73.04 16.02 24.64 0 46.01-3.05 63.52-9.08 17.73-6.1 32.96-12.9 45.24-20.19 12.42-7.36 22.67-14.19 30.5-20.27 9.13-7.11 16.09-10.42 21.88-10.42 3.76 0 7.03 1.11 9.7 3.3 2.43 1.97 4.41 4.82 6.04 8.68 1.46 3.47 2.51 7.57 3.24 12.55.67 4.72 1.02 10.46 1.02 17.06 0 5.87-.26 11.08-.76 15.47-.5 4.38-1.19 8.25-2.04 11.51-.95 3.53-2.12 6.52-3.6 9.15-1.54 2.68-4.55 6.24-9.21 10.88-4.68 4.64-12.59 10.26-24.19 17.18-11.37 6.78-24.55 12.84-39.18 18.02-14.49 5.13-30.51 9.44-47.61 12.81-17.17 3.38-35.03 5.08-53.1 5.08-41.05 0-79.01-7.55-112.81-22.46-33.88-14.93-63.39-36.9-87.69-65.29-24.25-28.32-43.33-63.3-56.7-103.97-13.34-40.55-20.11-87.32-20.11-139.042 0-50.461 6.29-95.695 18.67-134.465 12.42-38.953 30.48-72.191 53.66-98.789 23.21-26.652 51.71-47.089 84.67-60.742 32.87-13.597 70.16-20.492 110.84-20.492 23.5 0 45.52 2.203 65.45 6.559 19.81 4.324 37.64 9.707 53.01 16 15.36 6.289 28.44 12.855 38.86 19.511 10.64 6.809 17.5 11.797 20.95 15.243 3.57 3.582 6.03 6.593 7.52 9.214 1.48 2.614 2.69 5.582 3.6 8.821.87 3.144 1.48 6.84 1.85 10.996.32 3.961.5 8.613.5 13.847 0 7.622-.26 13.739-.77 18.704M2822 915.172c-8.37 18.535-19.51 34.824-33.11 48.406-13.51 13.524-29.08 25.391-46.25 35.277a673.217 673.217 0 0 1-52.05 27.025c-.01 0-51.63 24.16-51.63 24.16-16.56 7.82-31.5 16.51-44.42 25.84-12.65 9.16-22.92 19.81-30.5 31.66-7.41 11.56-11.16 25.61-11.16 41.79 0 11.14 1.97 21.81 5.86 31.69 3.86 9.78 9.72 18.36 17.39 25.46 7.78 7.18 17.83 13.04 29.88 17.41 12.15 4.41 26.7 6.65 43.25 6.65 17.9 0 34.21-2.25 48.5-6.69 14.54-4.51 27.22-9.54 37.71-14.92 10.99-5.64 19.91-10.5 27.24-14.86 8.47-5.03 14.55-7.37 19.12-7.37 3.42 0 6.52 1.11 9.19 3.3 2.53 2.07 4.43 5.14 5.69 9.13 1.06 3.39 1.84 7.39 2.36 12.26.5 4.61.75 9.96.75 15.92 0 6.32-.16 11.32-.49 15.32-.35 4.06-.86 7.62-1.54 10.56-.77 3.23-1.72 5.84-2.89 8-1.24 2.26-3.4 4.9-6.86 8.32-3.46 3.4-10.06 7.56-20.18 12.74-9.78 4.98-21.06 9.54-33.56 13.55-12.46 3.99-25.91 7.23-39.94 9.63-14.15 2.4-28.35 3.62-42.26 3.62-27.16 0-52.88-3.7-76.42-11-23.66-7.35-44.37-18.21-61.55-32.29-17.29-14.16-30.97-31.92-40.64-52.78-9.69-20.85-14.6-44.84-14.6-71.31 0-25.83 4.27-48.36 12.65-66.96 8.34-18.5 19.37-34.86 32.79-48.61 13.31-13.66 28.61-25.69 45.48-35.752a567.214 567.214 0 0 1 51.62-27.301l51.38-23.93c16.34-7.633 31.1-16.172 43.87-25.371 12.49-9.004 22.68-19.57 30.25-31.41 7.4-11.57 11.15-25.789 11.15-42.262 0-15.508-2.75-29.476-8.17-41.527-5.39-12-13.2-22.262-23.21-30.5-10.14-8.328-22.45-14.883-36.61-19.461-14.23-4.602-30.2-6.938-47.46-6.938-23 0-43.5 2.747-60.92 8.157-17.67 5.484-32.95 11.425-45.39 17.66-12.54 6.281-22.9 12.137-30.79 17.41-9.08 6.059-16.19 8.996-21.72 8.996-3.45 0-6.55-.793-9.25-2.363-2.86-1.68-5.17-4.473-6.88-8.32-1.48-3.344-2.54-7.481-3.25-12.637-.68-4.875-1.01-10.821-1.01-18.164 0-10.332.96-18.789 2.84-25.157 1.98-6.667 5.12-12.277 9.35-16.679 4.01-4.184 10.8-9.008 20.76-14.742 9.56-5.512 21.58-10.942 35.74-16.137 13.95-5.129 30.15-9.543 48.14-13.117 17.98-3.551 37.72-5.344 58.68-5.344 30.04 0 58.5 4.102 84.56 12.191 26.22 8.145 49.35 20.461 68.77 36.618 19.46 16.191 34.9 36.187 45.87 59.418 10.96 23.242 16.52 50.066 16.52 79.722 0 25.176-4.26 47.383-12.65 66.012" style="fill:#fff;fill-opacity:1;fill-rule:nonzero;stroke:none" transform="matrix(.13333 0 0 -.13333 0 177.107)"/>
  <path d="M1334.85 977.008c-.45 52.922 41.07 95.222 94.02 95.722 52.95.43 95.25-41.1 95.71-94.066.47-52.965-41.1-97.41-94.01-97.926-52.96-.461-95.25 43.297-95.72 96.27" style="fill:#fff;fill-opacity:1;fill-rule:evenodd;stroke:none" transform="matrix(.13333 0 0 -.13333 0 177.107)"/>
  <path d="M1547.53 740.598c-10.3-5.129-18.02-13.973-21.68-24.879-3.68-10.922-2.87-22.617 2.29-32.961 5.12-10.301 13.95-17.988 24.87-21.664 10.94-3.649 22.63-2.813 32.94 2.308 121.23 60.305 195.85 181.891 194.62 317.223l-.76 20.485c-1.5 23.7-22.03 41.8-45.78 40.25-23.73-1.49-41.8-22.04-40.27-45.778l.56-15.687c.88-102.067-55.36-193.758-146.79-239.297zm-267.55 454.922.01.02c43.48 29.96 94.47 46.02 147.54 46.44 52.29.5 103.01-14.3 146.65-42.75 9.64-6.28 21.2-8.45 32.46-6.05 11.29 2.36 20.94 8.99 27.2 18.64 13 19.87 7.35 46.64-12.54 59.66-57.92 37.78-125.17 57.43-194.54 56.8-70.37-.65-138.03-21.95-195.71-61.72-19.58-13.48-24.53-40.36-11.03-59.95 13.49-19.57 40.42-24.55 59.96-11.09zm-.89-534.766c10.42-4.949 22.13-5.559 32.98-1.711 10.84 3.867 19.57 11.687 24.49 22.105 4.98 10.36 5.6 22.055 1.74 32.95-3.86 10.867-11.71 19.55-22.09 24.535-92.15 43.969-149.95 134.594-150.87 236.578l.3 15.59c.56 11.469-3.43 22.499-11.19 31.009-7.72 8.53-18.35 13.53-29.89 14.05-11.49.57-22.51-3.42-31.01-11.14-8.52-7.79-13.52-18.42-14.04-29.939l-.42-20.351c1.2-135.254 77.82-255.434 200-313.676M937.109 256.047c-5.984-3.098-19.187-6.399-35.898-6.399-44.16 0-70.977 27.852-70.977 70.157 0 45.8 31.77 73.449 74.278 73.449 16.707 0 28.672-3.508 33.836-6.184l-5.575-20.222c-6.601 2.879-15.683 5.359-27.238 5.359-28.262 0-48.691-17.742-48.691-51.172 0-30.527 17.953-50.137 48.488-50.137 10.32 0 21.047 2.071 27.645 5.157l4.132-20.008M972.391 295.039c.617-18.152 14.855-25.996 30.949-25.996 11.76 0 20.21 1.648 27.85 4.543l3.71-17.539c-8.66-3.508-20.62-6.399-35.064-6.399-32.609 0-51.801 20.215-51.801 50.957 0 27.864 16.926 54.063 49.113 54.063 32.802 0 43.332-26.816 43.332-48.898 0-4.747-.41-8.465-.83-10.731zm44.149 17.754c.21 9.277-3.91 24.551-20.837 24.551-15.683 0-22.285-14.239-23.312-24.551h44.149M1060.9 322.48c0 11.563-.21 21.25-.82 29.922h22.28l1.24-15.058h.62c4.33 7.832 15.26 17.324 31.98 17.324 17.54 0 35.69-11.348 35.69-43.125v-59.629h-25.38v56.738c0 14.453-5.36 25.391-19.19 25.391-10.1 0-17.12-7.227-19.8-14.863-.83-2.266-1.04-5.364-1.04-8.25v-59.016h-25.58v70.566M1206.98 378.191v-25.789h24.15v-18.984h-24.15v-44.355c0-12.176 3.31-18.575 13.01-18.575 4.74 0 7.01.41 9.9 1.239l.41-19.391c-3.71-1.445-10.31-2.688-18.36-2.688-9.28 0-17.13 3.301-21.87 8.457-5.36 5.782-7.84 14.864-7.84 28.067v47.246h-14.45v18.984h14.45v18.575l24.75 7.214M1250.31 320c0 13.625-.2 23.32-.82 32.402h22.08l.82-19.187h.83c4.96 14.226 16.71 21.453 27.44 21.453 2.48 0 3.92-.203 5.98-.613v-23.938c-2.06.41-4.33.821-7.42.821-12.18 0-20.43-7.833-22.7-19.18-.42-2.278-.83-4.961-.83-7.852v-51.992h-25.38V320M1339.86 295.039c.62-18.152 14.86-25.996 30.95-25.996 11.76 0 20.21 1.648 27.85 4.543l3.72-17.539c-8.67-3.508-20.63-6.399-35.08-6.399-32.6 0-51.79 20.215-51.79 50.957 0 27.864 16.92 54.063 49.11 54.063 32.8 0 43.33-26.816 43.33-48.898 0-4.747-.41-8.465-.83-10.731zm44.15 17.754c.21 9.277-3.91 24.551-20.83 24.551-15.69 0-22.29-14.239-23.32-24.551h44.15M1473.96 251.914v81.504h-13.61v18.984h13.61v4.336c0 12.989 3.51 25.996 12.18 34.239 7.42 7.023 17.54 9.707 26.2 9.707 6.81 0 12.18-1.036 16.3-2.481l-1.85-19.601c-2.69 1.027-6.2 1.859-10.74 1.859-12.57 0-16.91-10.52-16.91-22.902v-5.157h22.08v-18.984h-21.88v-81.504h-25.38M1630.16 303.086c0-36.934-26-53.438-51.59-53.438-28.47 0-50.35 19.61-50.35 51.786 0 33.019 21.67 53.234 52 53.234 29.92 0 49.94-21.043 49.94-51.582zm-75.73-1.035c0-19.395 9.5-34.043 24.96-34.043 14.45 0 24.56 14.238 24.56 34.465 0 15.672-7.02 33.621-24.35 33.621-17.95 0-25.17-17.324-25.17-34.043M1650.98 320c0 13.625-.2 23.32-.81 32.402h22.08l.82-19.187h.82c4.96 14.226 16.72 21.453 27.45 21.453 2.47 0 3.91-.203 5.97-.613v-23.938c-2.06.41-4.32.821-7.42.821-12.18 0-20.43-7.833-22.69-19.18-.42-2.278-.83-4.961-.83-7.852v-51.992h-25.39V320M1768.18 389.121c9.49 1.66 23.72 2.891 38.37 2.891 20.01 0 33.63-3.301 42.91-11.133 7.64-6.406 11.97-16.094 11.97-27.859 0-17.954-12.17-30.129-25.17-34.875v-.618c9.9-3.711 15.89-13.406 19.39-26.824 4.34-17.324 8.05-33.418 10.94-38.789h-26.2c-2.06 4.133-5.36 15.481-9.29 32.813-3.91 18.156-10.51 23.925-24.96 24.343h-12.79v-57.156h-25.17zm25.17-61.484h15.06c17.13 0 27.85 9.082 27.85 22.91 0 15.262-10.72 22.285-27.24 22.285-8.04 0-13.2-.625-15.67-1.25v-43.945M1903.11 295.039c.61-18.152 14.85-25.996 30.94-25.996 11.76 0 20.22 1.648 27.85 4.543l3.71-17.539c-8.66-3.508-20.62-6.399-35.06-6.399-32.61 0-51.8 20.215-51.8 50.957 0 27.864 16.93 54.063 49.11 54.063 32.8 0 43.33-26.816 43.33-48.898 0-4.747-.41-8.465-.83-10.731zm44.15 17.754c.2 9.277-3.92 24.551-20.84 24.551-15.69 0-22.29-14.239-23.31-24.551h44.15M1990.38 275.234c5.77-3.507 16.71-7.226 25.79-7.226 11.14 0 16.1 4.551 16.1 11.152 0 6.797-4.13 10.313-16.52 14.649-19.6 6.796-27.85 17.539-27.64 29.296 0 17.735 14.64 31.563 37.96 31.563 11.15 0 20.84-2.891 26.61-5.977l-4.95-17.949c-4.32 2.473-12.37 5.774-21.25 5.774-9.08 0-14.03-4.328-14.03-10.52 0-6.406 4.75-9.492 17.54-14.043 18.15-6.601 26.62-15.879 26.83-30.742 0-18.145-14.24-31.563-40.85-31.563-12.18 0-23.12 3.098-30.54 7.227l4.95 18.359M2095.61 295.039c.61-18.152 14.85-25.996 30.94-25.996 11.76 0 20.22 1.648 27.86 4.543l3.71-17.539c-8.67-3.508-20.63-6.399-35.07-6.399-32.61 0-51.8 20.215-51.8 50.957 0 27.864 16.93 54.063 49.11 54.063 32.8 0 43.33-26.816 43.33-48.898 0-4.747-.41-8.465-.83-10.731zm44.15 17.754c.2 9.277-3.92 24.551-20.84 24.551-15.69 0-22.29-14.239-23.31-24.551h44.15M2262.11 276.055c0-9.075.41-17.95 1.44-24.141h-22.91l-1.64 11.152h-.62c-6.19-7.851-16.71-13.418-29.71-13.418-20.22 0-31.57 14.649-31.57 29.922 0 25.371 22.49 38.164 59.63 37.957v1.653c0 6.601-2.69 17.539-20.43 17.539-9.91 0-20.21-3.094-27.02-7.422l-4.95 16.504c7.42 4.531 20.42 8.867 36.31 8.867 32.18 0 41.47-20.43 41.47-42.293zm-24.77 24.968c-17.95.411-35.07-3.503-35.07-18.777 0-9.902 6.4-14.433 14.45-14.433 10.11 0 17.54 6.601 19.8 13.82.62 1.851.82 3.914.82 5.574v13.816M2288.93 320c0 13.625-.21 23.32-.82 32.402h22.07l.83-19.187h.83c4.95 14.226 16.71 21.453 27.44 21.453 2.47 0 3.92-.203 5.97-.613v-23.938c-2.05.41-4.32.821-7.42.821-12.17 0-20.43-7.833-22.69-19.18-.42-2.278-.84-4.961-.84-7.852v-51.992h-25.37V320M2434.39 255.02c-5.37-2.481-15.89-5.372-28.47-5.372-31.37 0-51.8 20.215-51.8 51.375 0 30.129 20.64 53.645 55.92 53.645 9.29 0 18.78-2.063 24.55-4.746l-4.53-18.984c-4.13 1.855-10.12 3.925-19.19 3.925-19.4 0-30.96-14.238-30.74-32.597 0-20.633 13.41-32.403 30.74-32.403 8.87 0 15.06 1.864 20.01 3.926l3.51-18.769M2453.16 398.418h25.58v-59.844h.42c3.09 4.746 7.42 8.867 12.58 11.563 4.95 2.883 10.94 4.531 17.33 4.531 17.13 0 35.08-11.348 35.08-43.535v-59.219h-25.38v56.328c0 14.649-5.36 25.586-19.39 25.586-9.91 0-16.92-6.601-19.61-14.238-.82-2.063-1.03-4.746-1.03-7.637v-60.039h-25.58v146.504M2709.41 303.086c0-36.934-25.99-53.438-51.58-53.438-28.47 0-50.35 19.61-50.35 51.786 0 33.019 21.67 53.234 52 53.234 29.91 0 49.93-21.043 49.93-51.582zm-75.72-1.035c0-19.395 9.49-34.043 24.96-34.043 14.44 0 24.55 14.238 24.55 34.465 0 15.672-7.01 33.621-24.34 33.621-17.95 0-25.17-17.324-25.17-34.043M2730.25 322.48c0 11.563-.21 21.25-.82 29.922h22.28l1.24-15.058h.61c4.34 7.832 15.27 17.324 31.99 17.324 17.54 0 35.69-11.348 35.69-43.125v-59.629h-25.38v56.738c0 14.453-5.36 25.391-19.19 25.391-10.11 0-17.12-7.227-19.8-14.863-.83-2.266-1.04-5.364-1.04-8.25v-59.016h-25.58v70.566M550.254 49.727c-5.988-3.106-19.191-6.407-35.899-6.407-44.16 0-70.976 27.864-70.976 70.157 0 45.8 31.766 73.457 74.277 73.457 16.707 0 28.672-3.516 33.84-6.192l-5.578-20.215c-6.602 2.883-15.684 5.352-27.238 5.352-28.258 0-48.692-17.734-48.692-51.16 0-30.54 17.95-50.137 48.489-50.137 10.324 0 21.043 2.059 27.648 5.152l4.129-20.007M570.262 113.684c0 13.621-.203 23.308-.821 32.39h22.082l.821-19.179h.832c4.949 14.23 16.707 21.445 27.437 21.445 2.473 0 3.918-.195 5.981-.606v-23.945c-2.063.41-4.328.832-7.422.832-12.18 0-20.434-7.844-22.699-19.191-.418-2.266-.828-4.953-.828-7.832v-52h-25.383v68.086M664.133 146.074l18.164-53.847c2.058-6.192 4.121-13.829 5.562-19.598h.618c1.652 5.77 3.515 13.203 5.371 19.805l15.672 53.64h27.238l-25.164-68.496C697.762 40.02 688.477 23.308 676.512 13 666.609 4.121 656.289.82 649.891 0l-5.77 21.457c4.336 1.024 9.695 3.3 14.852 7.02 4.746 3.086 10.316 9.074 13.832 15.879 1.023 1.855 1.648 3.3 1.648 4.538 0 1.028-.203 2.473-1.445 4.954l-36.731 92.226h27.856M751.406 112.656c0 13.203-.41 23.926-.82 33.418h22.285l1.238-15.469h.411c7.421 11.348 19.191 17.735 34.453 17.735 23.109 0 42.297-19.805 42.297-51.16 0-36.32-22.899-53.86-45.801-53.86-12.586 0-23.106 5.371-28.274 13.418h-.406V4.746h-25.383zm25.383-24.972c0-2.47.203-4.746.828-7.02 2.473-10.312 11.555-17.734 22.274-17.734 16.093 0 25.586 13.41 25.586 33.222 0 17.735-8.661 32.188-24.961 32.188-10.528 0-20.223-7.637-22.696-18.789-.625-2.051-1.031-4.324-1.031-6.387v-15.48M901.199 171.875v-25.801h24.145V127.09h-24.145V82.734c0-12.168 3.313-18.574 13.012-18.574 4.734 0 7.008.422 9.898 1.25l.411-19.394c-3.711-1.446-10.309-2.696-18.36-2.696-9.285 0-17.129 3.301-21.871 8.47-5.363 5.769-7.844 14.85-7.844 28.054v47.246h-14.441v18.984h14.441v18.574l24.754 7.227M1038.84 96.758c0-36.922-26-53.438-51.582-53.438-28.481 0-50.356 19.61-50.356 51.797 0 33.008 21.672 53.223 52.004 53.223 29.914 0 49.934-21.035 49.934-51.582zm-75.727-1.027c0-19.391 9.492-34.043 24.961-34.043 14.446 0 24.556 14.242 24.556 34.464 0 15.676-7.02 33.621-24.349 33.621-17.949 0-25.168-17.332-25.168-34.042M1150.66 60.246c0-21.047-4.33-36.105-14.85-45.598-10.53-9.289-24.97-12.168-38.79-12.168-12.79 0-26.41 2.676-35.08 8.047l5.57 19.18c6.4-3.71 17.13-7.637 29.29-7.637 16.52 0 28.89 8.672 28.89 30.332v8.672h-.41c-5.77-8.879-16.09-14.863-29.3-14.863-24.96 0-42.71 20.637-42.71 49.11 0 33.019 21.46 53.019 45.61 53.019 15.26 0 24.34-7.422 29.09-15.672h.41l1.03 13.406h22.07c-.41-6.804-.82-15.058-.82-28.886zm-25.38 45.594c0 2.273-.2 4.746-.82 6.816-2.68 9.278-9.91 16.289-20.63 16.289-14.24 0-24.77-12.375-24.77-32.793 0-17.129 8.67-30.957 24.57-30.957 9.48 0 17.74 6.192 20.62 15.274.63 2.676 1.03 6.191 1.03 9.082v16.289M1177.06 113.684c0 13.621-.2 23.308-.82 32.39h22.08l.82-19.179h.83c4.95 14.23 16.71 21.445 27.44 21.445 2.47 0 3.92-.195 5.98-.606v-23.945c-2.06.41-4.33.832-7.42.832-12.18 0-20.43-7.844-22.7-19.191-.42-2.266-.83-4.953-.83-7.832v-52h-25.38v68.086M1326.65 69.734c0-9.07.41-17.945 1.44-24.136h-22.91l-1.64 11.14h-.62c-6.19-7.844-16.71-13.418-29.71-13.418-20.22 0-31.57 14.649-31.57 29.922 0 25.383 22.49 38.176 59.63 37.969v1.641c0 6.613-2.68 17.539-20.43 17.539-9.9 0-20.21-3.086-27.02-7.422l-4.95 16.504c7.42 4.543 20.42 8.867 36.31 8.867 32.18 0 41.47-20.418 41.47-42.285zm-24.76 24.973c-17.96.41-35.07-3.516-35.07-18.777 0-9.914 6.39-14.446 14.44-14.446 10.11 0 17.54 6.602 19.8 13.828.62 1.856.83 3.915.83 5.567v13.828M1353.47 112.656c0 13.203-.42 23.926-.83 33.418h22.29l1.24-15.469h.41c7.42 11.348 19.19 17.735 34.46 17.735 23.1 0 42.29-19.805 42.29-51.16 0-36.32-22.9-53.86-45.8-53.86-12.59 0-23.1 5.371-28.27 13.418h-.41V4.746h-25.38zm25.38-24.972c0-2.47.2-4.746.83-7.02 2.47-10.312 11.55-17.734 22.28-17.734 16.09 0 25.58 13.41 25.58 33.222 0 17.735-8.66 32.188-24.96 32.188-10.53 0-20.23-7.637-22.7-18.789-.62-2.051-1.03-4.324-1.03-6.387v-15.48M1474.17 192.09h25.59v-59.844h.42c3.08 4.746 7.42 8.879 12.57 11.563 4.95 2.89 10.94 4.531 17.34 4.531 17.13 0 35.08-11.348 35.08-43.535V45.598h-25.38v56.328c0 14.644-5.36 25.586-19.4 25.586-9.9 0-16.91-6.614-19.6-14.242-.83-2.059-1.03-4.747-1.03-7.633v-60.04h-25.59V192.09M1604.77 146.074l18.17-53.847c2.06-6.192 4.12-13.829 5.57-19.598h.61c1.65 5.77 3.52 13.203 5.37 19.805l15.68 53.64h27.23l-25.17-68.496c-13.82-37.559-23.11-54.27-35.07-64.578-9.9-8.879-20.23-12.18-26.62-13l-5.77 21.457c4.33 1.024 9.69 3.3 14.85 7.02 4.74 3.086 10.31 9.074 13.83 15.879 1.02 1.855 1.65 3.3 1.65 4.538 0 1.028-.21 2.473-1.45 4.954l-36.72 92.226h27.84M1812.75 69.734c0-9.07.41-17.945 1.45-24.136h-22.91l-1.65 11.14h-.62c-6.19-7.844-16.71-13.418-29.7-13.418-20.23 0-31.58 14.649-31.58 29.922 0 25.383 22.49 38.176 59.64 37.969v1.641c0 6.613-2.69 17.539-20.44 17.539-9.9 0-20.21-3.086-27.02-7.422l-4.95 16.504c7.42 4.543 20.42 8.867 36.31 8.867 32.19 0 41.47-20.418 41.47-42.285zm-24.76 24.973c-17.95.41-35.07-3.516-35.07-18.777 0-9.914 6.4-14.446 14.44-14.446 10.11 0 17.54 6.602 19.81 13.828.61 1.856.82 3.915.82 5.567v13.828M1839.57 116.164c0 11.551-.21 21.25-.82 29.91h22.29l1.23-15.058h.62c4.34 7.839 15.26 17.324 31.99 17.324 17.53 0 35.69-11.348 35.69-43.113v-59.63h-25.39v56.739c0 14.441-5.36 25.379-19.18 25.379-10.11 0-17.12-7.227-19.81-14.863-.83-2.266-1.03-5.352-1.03-8.243V45.598h-25.59v70.566M2050.23 192.09V73.867c0-10.32.41-21.465.82-28.27h-22.69l-1.02 15.887h-.43c-5.97-11.14-18.15-18.164-32.8-18.164-23.93 0-42.92 20.43-42.92 51.387-.21 33.633 20.84 53.633 44.98 53.633 13.83 0 23.73-5.774 28.27-13.203h.41v56.953zm-25.38-87.891c0 2.051-.2 4.531-.61 6.602-2.28 9.902-10.32 17.949-21.88 17.949-16.3 0-25.38-14.453-25.38-33.223 0-18.359 9.08-31.777 25.18-31.777 10.31 0 19.39 7.012 21.87 17.95.62 2.277.82 4.745.82 7.433v15.066M2120.59 73.242c8.25-4.746 20.62-8.867 33.63-8.867 16.3 0 25.37 7.637 25.37 18.984 0 10.52-7.01 16.707-24.75 23.106-22.91 8.254-37.55 20.43-37.55 40.437 0 22.7 18.97 40.032 49.1 40.032 15.06 0 26.2-3.301 33.42-7.012l-6.18-20.43c-4.96 2.676-14.66 6.602-27.65 6.602-16.1 0-23.11-8.672-23.11-16.719 0-10.723 8.04-15.684 26.61-22.898 24.15-9.075 35.9-21.25 35.9-41.262 0-22.285-16.91-41.895-52.81-41.895-14.66 0-29.93 4.336-37.56 8.875l5.58 21.047M2246.45 88.71c.61-18.144 14.85-25.995 30.94-25.995 11.76 0 20.22 1.66 27.86 4.55l3.71-17.538c-8.67-3.516-20.63-6.407-35.07-6.407-32.61 0-51.8 20.227-51.8 50.97 0 27.858 16.92 54.05 49.11 54.05 32.8 0 43.33-26.817 43.33-48.887 0-4.746-.41-8.469-.83-10.742zm44.14 17.755c.21 9.277-3.91 24.551-20.83 24.551-15.69 0-22.29-14.239-23.31-24.551h44.14M2408.82 48.691c-5.36-2.48-15.89-5.37-28.47-5.37-31.37 0-51.8 20.226-51.8 51.386 0 30.117 20.64 53.633 55.92 53.633 9.29 0 18.78-2.051 24.55-4.738l-4.53-18.981c-4.13 1.856-10.11 3.914-19.19 3.914-19.39 0-30.96-14.238-30.74-32.597 0-20.626 13.41-32.391 30.74-32.391 8.87 0 15.06 1.863 20.01 3.914l3.51-18.77M2517.55 75.723c0-11.973.41-21.875.83-30.125h-22.29l-1.24 15.261h-.4c-4.34-7.215-14.24-17.539-32.19-17.539-18.37 0-35.08 10.938-35.08 43.75v59.004h25.38V91.406c0-16.719 5.36-27.441 18.78-27.441 10.11 0 16.71 7.219 19.39 13.613.82 2.266 1.44 4.95 1.44 7.832v60.664h25.38V75.723M2544.98 113.684c0 13.621-.21 23.308-.82 32.39h22.08l.82-19.179h.83c4.95 14.23 16.71 21.445 27.44 21.445 2.47 0 3.92-.195 5.98-.606v-23.945c-2.06.41-4.33.832-7.42.832-12.18 0-20.43-7.844-22.7-19.191-.42-2.266-.83-4.953-.83-7.832v-52h-25.38v68.086M2645.46 174.141c0-7.637-5.57-13.614-14.44-13.614-8.46 0-14.03 5.977-14.03 13.614 0 7.832 5.77 13.828 14.23 13.828 8.67 0 14.03-5.996 14.24-13.828zm-27.03-128.543v100.476h25.58V45.598h-25.58M2700.34 171.875v-25.801h24.14V127.09h-24.14V82.734c0-12.168 3.31-18.574 13.01-18.574 4.74 0 7.01.422 9.9 1.25l.41-19.394c-3.71-1.446-10.31-2.696-18.36-2.696-9.28 0-17.12 3.301-21.87 8.47-5.36 5.769-7.84 14.85-7.84 28.054v47.246h-14.45v18.984h14.45v18.574l24.75 7.227M2761.01 146.074l18.16-53.847c2.06-6.192 4.12-13.829 5.57-19.598h.61c1.65 5.77 3.52 13.203 5.37 19.805l15.67 53.64h27.24l-25.16-68.496c-13.83-37.559-23.12-54.27-35.08-64.578-9.9-8.879-20.23-12.18-26.62-13L2741 21.457c4.33 1.024 9.7 3.3 14.85 7.02 4.74 3.086 10.31 9.074 13.83 15.879 1.02 1.855 1.65 3.3 1.65 4.538 0 1.028-.2 2.473-1.45 4.954l-36.72 92.226h27.85" style="fill:#fff;fill-opacity:1;fill-rule:nonzero;stroke:none" transform="matrix(.13333 0 0 -.13333 0 177.107)"/>
</svg>