<svg xmlns="http://www.w3.org/2000/svg" width="429.201" height="512.1" aria-hidden="true" class="svg-inline--fa fa-file fa-w-12" data-icon="file" data-prefix="far">
  <path fill="currentColor" d="m415.101 98-83.9-83.9c-9-9-21.2-14.1-33.9-14.1H48C21.5.1 0 21.6 0 48.1v416c0 26.5 21.5 48 48 48h333.201c26.5 0 48-21.5 48-48V132c0-12.7-5.1-25-14.1-34zM48 464.1v-416h205.201v104c0 13.3 10.7 24 24 24h104v288z"/>
  <g style="stroke-width:1.27432" transform="matrix(2.96918 0 0 2.96264 -142.547 -79.325)">
    <path d="M83.027 98.328V248.54l51.76-41.738 51.623 41.887V98.327Z" style="fill:#000;stroke:none;stroke-width:3.45545;stroke-linecap:square;paint-order:markers stroke fill" transform="matrix(.26458 0 0 .26458 62.822 46.556)"/>
    <circle cx="75.733" cy="-98.466" r="24.12" style="fill:#000;stroke-width:1.04218;stroke-linecap:square;paint-order:markers stroke fill" transform="rotate(90)"/>
    <path d="m116.796 120.928-9.936 24.047-12.289-22.934-24.995 7.225 10.269-23.907L58.61 90.321l25.094-6.877-1.482-25.977L103.246 72.8l19.385-17.355 1.121 25.995 25.655 4.336-19.625 17.083 12.606 22.762z" style="fill:#fff;stroke-width:2.16916;stroke-linecap:square;paint-order:markers stroke fill" transform="matrix(-.52182 -.02808 .02808 -.52182 150.124 129.89)"/>
  </g>
  <text xml:space="preserve" x="213.34" y="409.672" style="font-size:120px;line-height:1.25;font-family:&quot;IBM Plex Sans&quot;;-inkscape-font-specification:&quot;IBM Plex Sans&quot;;text-align:center;text-anchor:middle"><tspan x="213.34" y="409.672" style="font-style:normal;font-variant:normal;font-weight:500;font-stretch:normal;font-size:120px;font-family:&quot;IBM Plex Sans&quot;;-inkscape-font-specification:&quot;IBM Plex Sans Medium&quot;;text-align:center;text-anchor:middle">CVE</tspan></text>
</svg>