<svg xmlns="http://www.w3.org/2000/svg" width="667.165" height="182.325" viewBox="0 0 176.521 48.24">
  <g transform="translate(-34.827 -145.56)">
    <path d="M71.608 156.162v27.353h139.7l-11.842-13.696 11.882-13.657z" style="opacity:1;fill:#000;stroke:none;stroke-width:1.29835;stroke-linecap:square;paint-order:markers stroke fill"/>
    <circle cx="59.321" cy="169.681" r="24.12" style="opacity:1;fill:#000;stroke-width:.81783;stroke-linecap:square;paint-order:markers stroke fill"/>
    <path d="m116.796 120.928-9.936 24.047-12.289-22.934-24.995 7.225 10.269-23.907L58.61 90.321l25.094-6.877-1.482-25.977L103.246 72.8l19.385-17.355 1.121 25.995 25.655 4.336-19.625 17.083 12.606 22.762z" style="opacity:1;fill:#fff;stroke-width:1.70221;stroke-linecap:square;paint-order:markers stroke fill" transform="scale(-.52257) rotate(-86.92 -227.74 1.652)"/>
    <path d="M93.714 177.275c2.54 0 4.623-1.575 4.623-3.632 0-2.058-1.524-3.048-4.267-3.912-2.667-.838-3.734-1.55-3.734-2.82 0-1.27 1.448-2.21 3.175-2.21 1.295 0 2.743.458 4.013 1.27l.686-.964c-1.422-.915-3.124-1.474-4.7-1.474-2.437 0-4.419 1.499-4.419 3.531 0 1.778 1.22 2.82 4.37 3.785 2.412.71 3.631 1.473 3.631 2.946 0 1.295-1.473 2.311-3.378 2.311-1.524 0-3.226-.635-4.724-1.727l-.711.94c1.549 1.245 3.58 1.956 5.435 1.956zm13.564-1.169c-2.769 0-4.979-2.286-5.233-5.181h11.43c0-4.445-2.413-7.392-6.248-7.392-3.581 0-6.452 2.972-6.452 6.833 0 3.86 3.023 6.909 6.528 6.909 2.007 0 4.293-.813 5.41-2.032l-.812-.864c-.991 1.092-2.845 1.727-4.623 1.727zm-.026-11.404c2.947 0 4.8 2.083 4.979 5.054h-10.186c.28-2.92 2.464-5.054 5.207-5.054zm15.266 12.573c1.778 0 3.403-.737 4.597-1.956l-.863-.864c-.991 1.016-2.312 1.651-3.734 1.651-3.074 0-5.36-2.438-5.36-5.715 0-3.25 2.286-5.69 5.36-5.69 1.422 0 2.743.636 3.683 1.626l.889-.863c-1.194-1.194-2.82-1.93-4.572-1.93-3.785 0-6.63 2.946-6.63 6.857 0 3.937 2.845 6.884 6.63 6.884zm7.01-6.604h6.579v-1.22h-6.579zm15.85 6.604c1.778 0 3.403-.737 4.597-1.956l-.863-.864c-.991 1.016-2.312 1.651-3.734 1.651-3.074 0-5.36-2.438-5.36-5.715 0-3.25 2.286-5.69 5.36-5.69 1.422 0 2.743.636 3.683 1.626l.889-.863c-1.194-1.194-2.82-1.93-4.572-1.93-3.785 0-6.63 2.946-6.63 6.857 0 3.937 2.845 6.884 6.63 6.884zm13.31-1.169c-2.77 0-4.98-2.286-5.233-5.181h11.43c0-4.445-2.413-7.392-6.249-7.392-3.58 0-6.451 2.972-6.451 6.833 0 3.86 3.022 6.909 6.528 6.909 2.006 0 4.292-.813 5.41-2.032l-.813-.864c-.99 1.092-2.845 1.727-4.623 1.727zm-.026-11.404c2.946 0 4.8 2.083 4.978 5.054h-10.185c.28-2.92 2.464-5.054 5.207-5.054zm10.77 2.006v-2.87h-1.245v13.132h1.244v-7.34c0-2.87 2.109-4.928 5.08-4.928v-1.169c-2.413 0-4.42 1.321-5.08 3.175zm13.614 8.763a2.772 2.772 0 0 1-1.727.635c-.966 0-1.677-.914-1.677-2.184v-8.915h3.378v-1.169h-3.378v-3.607h-1.244v3.607h-2.236v1.169h2.236v8.915c0 1.956 1.168 3.353 2.844 3.353.89 0 1.753-.305 2.439-.838zm7.976 1.804c2.54 0 4.622-1.575 4.622-3.632 0-2.058-1.524-3.048-4.267-3.912-2.667-.838-3.734-1.55-3.734-2.82 0-1.27 1.448-2.21 3.175-2.21 1.296 0 2.744.458 4.014 1.27l.685-.964c-1.422-.915-3.124-1.474-4.699-1.474-2.438 0-4.42 1.499-4.42 3.531 0 1.778 1.22 2.82 4.37 3.785 2.413.71 3.632 1.473 3.632 2.946 0 1.295-1.473 2.311-3.378 2.311-1.524 0-3.226-.635-4.725-1.727l-.711.94c1.55 1.245 3.581 1.956 5.436 1.956z" aria-label="sec-certs" style="font-size:25.4px;line-height:1.25;text-align:center;letter-spacing:0;word-spacing:0;text-anchor:middle;fill:#fff;stroke-width:.264583"/>
  </g>
</svg>