<svg xmlns="http://www.w3.org/2000/svg" width="667.165" height="182.325" viewBox="0 0 176.521 48.24">
  <g transform="translate(-34.827 -145.56)">
    <path d="M71.608 156.162v27.353h139.7l-11.842-13.696 11.881-13.657H71.607zm106.79 4.07h1.244v3.606h3.378v1.169h-3.378v8.915c0 1.27.712 2.184 1.677 2.184.635 0 1.27-.254 1.727-.635l.635.966a3.992 3.992 0 0 1-2.439.838c-1.676 0-2.845-1.397-2.845-3.353v-8.915h-2.235v-1.169h2.235v-3.607zm-84.887 3.302c1.575 0 3.277.558 4.7 1.473l-.687.965c-1.27-.813-2.717-1.27-4.013-1.27-1.727 0-3.175.94-3.175 2.21s1.067 1.98 3.734 2.82c2.743.863 4.267 1.853 4.267 3.91 0 2.058-2.083 3.633-4.623 3.633-1.854 0-3.886-.712-5.436-1.956l.711-.94c1.5 1.093 3.201 1.727 4.725 1.727 1.905 0 3.378-1.016 3.378-2.311 0-1.473-1.219-2.235-3.632-2.947-3.15-.965-4.369-2.006-4.369-3.784 0-2.032 1.982-3.53 4.42-3.53zm13.716 0c3.836 0 6.248 2.946 6.248 7.39h-11.43c.255 2.896 2.464 5.182 5.233 5.182 1.778 0 3.632-.634 4.623-1.727l.812.864c-1.117 1.22-3.403 2.032-5.41 2.032-3.505 0-6.528-3.048-6.528-6.909 0-3.86 2.87-6.832 6.452-6.832zm15.29 0c1.753 0 3.379.736 4.573 1.93l-.89.863c-.94-.99-2.26-1.625-3.682-1.625-3.074 0-5.36 2.438-5.36 5.69 0 3.276 2.286 5.714 5.36 5.714 1.422 0 2.743-.635 3.733-1.65l.864.863c-1.193 1.22-2.82 1.956-4.597 1.956-3.785 0-6.63-2.946-6.63-6.883 0-3.912 2.845-6.858 6.63-6.858zm22.86 0c1.753 0 3.379.736 4.573 1.93l-.89.863c-.939-.99-2.26-1.625-3.682-1.625-3.074 0-5.36 2.438-5.36 5.69 0 3.276 2.286 5.714 5.36 5.714 1.422 0 2.743-.635 3.733-1.65l.864.863c-1.194 1.22-2.82 1.956-4.597 1.956-3.785 0-6.63-2.946-6.63-6.883 0-3.912 2.845-6.858 6.63-6.858zm13.26 0c3.835 0 6.248 2.946 6.248 7.39h-11.43c.254 2.896 2.463 5.182 5.232 5.182 1.778 0 3.632-.634 4.623-1.727l.813.864c-1.118 1.22-3.404 2.032-5.41 2.032-3.505 0-6.528-3.048-6.528-6.909 0-3.86 2.87-6.832 6.451-6.832zm15.874 0v1.168c-2.971 0-5.08 2.057-5.08 4.927v7.34h-1.244v-13.13h1.245v2.87c.66-1.855 2.666-3.175 5.08-3.175zm16.307 0c1.575 0 3.277.558 4.7 1.473l-.686.965c-1.27-.813-2.718-1.27-4.014-1.27-1.727 0-3.175.94-3.175 2.21s1.067 1.98 3.734 2.82c2.743.863 4.267 1.853 4.267 3.91 0 2.058-2.082 3.633-4.622 3.633-1.855 0-3.887-.712-5.436-1.956l.711-.94c1.499 1.093 3.2 1.727 4.725 1.727 1.905 0 3.378-1.016 3.378-2.311 0-1.473-1.22-2.235-3.633-2.947-3.15-.965-4.368-2.006-4.368-3.784 0-2.032 1.981-3.53 4.42-3.53zm-83.566 1.168c-2.743 0-4.927 2.133-5.206 5.054h10.185c-.178-2.971-2.032-5.054-4.979-5.054zm51.41 0c-2.743 0-4.928 2.133-5.207 5.054h10.185c-.178-2.971-2.032-5.054-4.978-5.054zm-29.134 4.75h6.579v1.219h-6.579v-1.22z" style="opacity:1;fill:#000;stroke:none;stroke-width:1.29835;stroke-linecap:square;paint-order:markers stroke fill"/>
    <circle cx="59.321" cy="169.681" r="24.12" style="opacity:1;fill:#000;stroke-width:.81783;stroke-linecap:square;paint-order:markers stroke fill"/>
    <path d="m116.796 120.928-9.936 24.047-12.289-22.934-24.995 7.225 10.269-23.907L58.61 90.321l25.094-6.877-1.482-25.977L103.246 72.8l19.385-17.355 1.121 25.995 25.655 4.336-19.625 17.083 12.606 22.762z" style="opacity:1;fill:#fff;stroke-width:1.70221;stroke-linecap:square;paint-order:markers stroke fill" transform="scale(-.52257) rotate(-86.92 -227.74 1.652)"/>
  </g>
</svg>