<svg xmlns="http://www.w3.org/2000/svg" width="269.056" height="69.056" version="1.0">
  <path d="M0 .667h4.333v28H0zm4.333 0H6l2.667 28H7.333zm7.334 0H13l-2.667 28H9zm1.666 0h4.334v28h-4.334zm23.334 0-2 15.666H39L37 .667h4l4 28h-4.333l-1.334-8.334H34l-1 8.334h-4.333l4-28zm21 21.666v-1.666H62V22c0 1.667 1.333 2.667 2.667 2.667 1.333 0 2.666-1 2.666-2.667v-2.667c0-1.666-1.666-2.333-3.333-2.666-3.667-.667-6.333-3-6.333-6.667V7c0-3.667 3.333-6.667 7-6.667 3.666 0 7 3 7 6.667v1.667h-4.334V7.333c0-1.666-1.333-2.666-2.666-2.666-1.334 0-2.667 1-2.667 2.666V10c0 1.667 1.667 2.333 3.333 2.667 3.667.333 6.334 3 6.334 6.666v3c0 3.667-3.334 6.667-7 6.667-3.667 0-7-3-7-6.667zm35-21.666-2 15.666H95L93 .667h4l4 28h-4.333l-1.334-8.334H90l-1 8.334h-4.333l4-28zm29.333 0c3.333 0 6.667 3 6.667 6.666V11c0 2.333-1.334 4.333-3.334 5.667l4.667 12h-5l-4-11h-2v11h-4.333v-28zM124.333 10V7.667c0-2-1.666-3-3.333-3h-2v8.666h2c2 0 3.333-.666 3.333-3.333zm16-9.333H145L148.667 12 152.333.667H157L151 18v10.667h-4.333V18zm35 0v28H171v-28zm5.334 0h4.666L180 14.333l5.667 14.334h-5l-5.334-14zM6 40.667V62c0 1.667 1.333 2.667 2.667 2.667 1.333 0 2.666-1 2.666-2.667V40.667h4.334v21.666c0 3.667-3.334 6.667-7 6.667-3.667 0-7-3-7-6.667V40.667zm27.667 0v28h-4.334v-28zm1.666 0 4.334 28H38l-4-28zm9 0v28h-4.666v-28zM62.667 67V42.333h-4v-1.666h12v1.666H67V67h3.667v1.667h-12V67zM89 40.667l3.667 28h-4l-4-28zm12 0-4 28h-4l3.333-28zm13.333 0H128v4h-9V52h8.333v4H119v8.667h9v4h-13.667zm35.667 0c3.333 0 6.667 3 6.667 6.666V51c0 2.333-1.334 4.333-3.334 5.667l4.667 12h-5l-4-11h-2v11h-4.333v-28zM152.333 50v-2.333c0-2-1.666-3-3.333-3h-2v8.666h2c2 0 3.333-.666 3.333-3.333zm17.334 12.333v-1.666H174V62c0 1.667 1.333 2.667 2.667 2.667 1.333 0 2.666-1 2.666-2.667v-2.667c0-1.666-1.666-2.333-3.333-2.666-3.667-.667-6.333-3-6.333-6.667v-3c0-3.667 3.333-6.667 7-6.667 3.666 0 7 3 7 6.667v1.667h-4.334v-1.334c0-1.666-1.333-2.666-2.666-2.666-1.334 0-2.667 1-2.667 2.666V50c0 1.667 1.667 2.333 3.333 2.667 3.667.333 6.334 3 6.334 6.666v3c0 3.667-3.334 6.667-7 6.667-3.667 0-7-3-7-6.667zm33 4.667V42.333h-4v-1.666h12v1.666H207V67h3.667v1.667h-12V67zm21.666-22.333v-4h17v4H235v24h-4.333v-24zm28-4H257L260.667 52l3.666-11.333H269L263 58v10.667h-4.333V58z" style="fill:#000;fill-rule:nonzero;fill-opacity:1;stroke:none"/>
</svg>