<?xml version="1.0" encoding="us-ascii" standalone="no"?><svg xmlns="http://www.w3.org/2000/svg" xmlns:xlink="http://www.w3.org/1999/xlink" contentStyleType="text/css" height="1084px" preserveAspectRatio="none" style="width:2721px;height:1084px;background:#FFFFFF;" version="1.1" viewBox="0 0 2721 1084" width="2721px" zoomAndPan="magnify"><defs/><g><text fill="#2C3E50" font-family="sans-serif" font-size="16" font-weight="bold" lengthAdjust="spacing" textLength="286" x="1210.5" y="26.6094">sec-certs.org Dashboard Architecture</text><!--cluster Application Core--><g id="cluster_Application Core"><rect fill="#FFE4B5" height="619.5" rx="2.5" ry="2.5" style="stroke:#333333;stroke-width:1.5;" width="521" x="7" y="48.125"/><text fill="#2C3E50" font-family="sans-serif" font-size="12" font-weight="bold" lengthAdjust="spacing" textLength="93" x="221" y="62.582">Application Core</text></g><!--cluster Component Registries--><g id="cluster_Component Registries"><rect fill="#E6F3FF" height="163" rx="2.5" ry="2.5" style="stroke:#333333;stroke-width:1.5;" width="427" x="1011" y="348.125"/><text fill="#2C3E50" font-family="sans-serif" font-size="12" font-weight="bold" lengthAdjust="spacing" textLength="126" x="1161.5" y="362.582">Component Registries</text></g><!--cluster Graph Components--><g id="cluster_Graph Components"><rect fill="#E8F5E8" height="362" rx="2.5" ry="2.5" style="stroke:#333333;stroke-width:1.5;" width="694" x="1462" y="535.125"/><text fill="#2C3E50" font-family="sans-serif" font-size="12" font-weight="bold" lengthAdjust="spacing" textLength="109" x="1754.5" y="549.582">Graph Components</text></g><!--cluster Filter Components--><g id="cluster_Filter Components"><rect fill="#F0E6FF" height="362" rx="2.5" ry="2.5" style="stroke:#333333;stroke-width:1.5;" width="535" x="2180" y="535.125"/><text fill="#2C3E50" font-family="sans-serif" font-size="12" font-weight="bold" lengthAdjust="spacing" textLength="103" x="2396" y="549.582">Filter Components</text></g><!--cluster Data & Persistence Layer--><g id="cluster_Data &amp; Persistence Layer"><rect fill="#FFFACD" height="177" rx="2.5" ry="2.5" style="stroke:#333333;stroke-width:1.5;" width="886" x="552" y="535.125"/><text fill="#2C3E50" font-family="sans-serif" font-size="12" font-weight="bold" lengthAdjust="spacing" textLength="145" x="922.5" y="549.582">Data &amp; Persistence Layer</text></g><!--cluster Data Models--><g id="cluster_Data Models"><rect fill="#F5F5F5" height="342" rx="2.5" ry="2.5" style="stroke:#333333;stroke-width:1.5;" width="282" x="754" y="736.125"/><text fill="#2C3E50" font-family="sans-serif" font-size="12" font-weight="bold" lengthAdjust="spacing" textLength="70" x="860" y="750.582">Data Models</text></g><!--class FlaskApp--><g id="elem_FlaskApp"><rect codeLine="28" fill="#FFFFFF" height="71.6719" id="FlaskApp" rx="2.5" ry="2.5" style="stroke:#666666;stroke-width:0.5;" width="124" x="23" y="86.625"/><ellipse cx="36" cy="100.625" fill="#ADD1B2" rx="9" ry="9" style="stroke:#181818;stroke-width:1.0;"/><path d="M37.5313,97.8906 Q37.625,97.75 37.75,97.6797 Q37.875,97.6094 38.0156,97.6094 Q38.25,97.6094 38.4063,97.7813 Q38.5625,97.9531 38.5625,98.3438 L38.5625,99.2813 Q38.5625,99.6719 38.4063,99.8438 Q38.25,100.0156 38.0156,100.0156 Q37.7969,100.0156 37.6563,99.8906 Q37.5156,99.7656 37.4531,99.4375 Q37.4219,99.2031 37.3125,99.0781 Q37.0938,98.8438 36.6953,98.6953 Q36.2969,98.5469 35.9063,98.5469 Q35.4063,98.5469 34.9922,98.7656 Q34.5781,98.9844 34.2578,99.4688 Q33.9375,99.9531 33.9375,100.6094 L33.9375,101.3281 Q33.9375,102.125 34.5156,102.6563 Q35.0938,103.1875 36.125,103.1875 Q36.7344,103.1875 37.1563,103.0156 Q37.4063,102.9219 37.6875,102.6406 Q37.8594,102.4688 37.9531,102.4141 Q38.0469,102.3594 38.1719,102.3594 Q38.3906,102.3594 38.5625,102.5313 Q38.7344,102.7031 38.7344,102.9219 Q38.7344,103.1406 38.5,103.4063 Q38.1719,103.7813 37.6563,104 Q36.9688,104.2813 36.125,104.2813 Q35.1563,104.2813 34.375,103.8906 Q33.7344,103.5625 33.2891,102.8672 Q32.8438,102.1719 32.8438,101.3438 L32.8438,100.5938 Q32.8438,99.7344 33.2422,98.9922 Q33.6406,98.25 34.3516,97.8516 Q35.0625,97.4531 35.8594,97.4531 Q36.3281,97.4531 36.75,97.5625 Q37.1719,97.6719 37.5313,97.8906 Z " fill="#000000"/><text fill="#000000" font-family="sans-serif" font-size="11" lengthAdjust="spacing" textLength="96" x="48" y="105.126">Flask App (Existing)</text><line style="stroke:#666666;stroke-width:0.5;" x1="24" x2="146" y1="114.625" y2="114.625"/><text fill="#000000" font-family="sans-serif" font-size="11" lengthAdjust="spacing" textLength="79" x="29" y="130.0439">+route_handlers</text><line style="stroke:#666666;stroke-width:0.5;" x1="24" x2="146" y1="136.4609" y2="136.4609"/><text fill="#000000" font-family="sans-serif" font-size="11" lengthAdjust="spacing" textLength="30" x="29" y="151.8799">+run()</text></g><!--class DashApp--><g id="elem_DashApp"><rect codeLine="33" fill="#FFFFFF" height="99.3438" id="DashApp" rx="2.5" ry="2.5" style="stroke:#666666;stroke-width:0.5;" width="112" x="155" y="223.125"/><ellipse cx="185.55" cy="237.125" fill="#ADD1B2" rx="9" ry="9" style="stroke:#181818;stroke-width:1.0;"/><path d="M187.0813,234.3906 Q187.175,234.25 187.3,234.1797 Q187.425,234.1094 187.5656,234.1094 Q187.8,234.1094 187.9563,234.2813 Q188.1125,234.4531 188.1125,234.8438 L188.1125,235.7813 Q188.1125,236.1719 187.9563,236.3438 Q187.8,236.5156 187.5656,236.5156 Q187.3469,236.5156 187.2063,236.3906 Q187.0656,236.2656 187.0031,235.9375 Q186.9719,235.7031 186.8625,235.5781 Q186.6438,235.3438 186.2453,235.1953 Q185.8469,235.0469 185.4563,235.0469 Q184.9563,235.0469 184.5422,235.2656 Q184.1281,235.4844 183.8078,235.9688 Q183.4875,236.4531 183.4875,237.1094 L183.4875,237.8281 Q183.4875,238.625 184.0656,239.1563 Q184.6438,239.6875 185.675,239.6875 Q186.2844,239.6875 186.7063,239.5156 Q186.9563,239.4219 187.2375,239.1406 Q187.4094,238.9688 187.5031,238.9141 Q187.5969,238.8594 187.7219,238.8594 Q187.9406,238.8594 188.1125,239.0313 Q188.2844,239.2031 188.2844,239.4219 Q188.2844,239.6406 188.05,239.9063 Q187.7219,240.2813 187.2063,240.5 Q186.5188,240.7813 185.675,240.7813 Q184.7063,240.7813 183.925,240.3906 Q183.2844,240.0625 182.8391,239.3672 Q182.3938,238.6719 182.3938,237.8438 L182.3938,237.0938 Q182.3938,236.2344 182.7922,235.4922 Q183.1906,234.75 183.9016,234.3516 Q184.6125,233.9531 185.4094,233.9531 Q185.8781,233.9531 186.3,234.0625 Q186.7219,234.1719 187.0813,234.3906 Z " fill="#000000"/><text fill="#000000" font-family="sans-serif" font-size="11" lengthAdjust="spacing" textLength="45" x="201.45" y="241.626">DashApp</text><line style="stroke:#666666;stroke-width:0.5;" x1="156" x2="266" y1="251.125" y2="251.125"/><text fill="#000000" font-family="sans-serif" font-size="11" lengthAdjust="spacing" textLength="72" x="161" y="266.5439">+server : Flask</text><text fill="#000000" font-family="sans-serif" font-size="11" lengthAdjust="spacing" textLength="81" x="161" y="280.3799">+layout : html.Div</text><line style="stroke:#666666;stroke-width:0.5;" x1="156" x2="266" y1="286.7969" y2="286.7969"/><text fill="#000000" font-family="sans-serif" font-size="11" lengthAdjust="spacing" textLength="100" x="161" y="302.2158">+init_app(app: Flask)</text><text fill="#000000" font-family="sans-serif" font-size="11" lengthAdjust="spacing" textLength="68" x="161" y="316.0518">+run_server()</text></g><g id="elem_GMN5"><path d="M302,253.625 L302,269.125 L267.27,273.125 L302,277.125 L302,291.2969 A0,0 0 0 0 302,291.2969 L458,291.2969 A0,0 0 0 0 458,291.2969 L458,263.625 L448,253.625 L302,253.625 A0,0 0 0 0 302,253.625 " fill="#FFF3CD" style="stroke:#FFEAA7;stroke-width:0.5;"/><path d="M448,253.625 L448,263.625 L458,263.625 L448,253.625 " fill="#FFF3CD" style="stroke:#FFEAA7;stroke-width:0.5;"/><text fill="#000000" font-family="sans-serif" font-size="11" lengthAdjust="spacing" textLength="118" x="308" y="270.0439">Central Dash Application</text><text fill="#000000" font-family="sans-serif" font-size="11" lengthAdjust="spacing" textLength="135" x="308" y="283.8799">Integrates with Flask server</text></g><!--class DashboardLayoutManager--><g id="elem_DashboardLayoutManager"><rect codeLine="41" fill="#FFFFFF" height="99.3438" id="DashboardLayoutManager" rx="2.5" ry="2.5" style="stroke:#666666;stroke-width:0.5;" width="165" x="128.5" y="389.125"/><ellipse cx="145.55" cy="403.125" fill="#ADD1B2" rx="9" ry="9" style="stroke:#181818;stroke-width:1.0;"/><path d="M147.0813,400.3906 Q147.175,400.25 147.3,400.1797 Q147.425,400.1094 147.5656,400.1094 Q147.8,400.1094 147.9563,400.2813 Q148.1125,400.4531 148.1125,400.8438 L148.1125,401.7813 Q148.1125,402.1719 147.9563,402.3438 Q147.8,402.5156 147.5656,402.5156 Q147.3469,402.5156 147.2063,402.3906 Q147.0656,402.2656 147.0031,401.9375 Q146.9719,401.7031 146.8625,401.5781 Q146.6438,401.3438 146.2453,401.1953 Q145.8469,401.0469 145.4563,401.0469 Q144.9563,401.0469 144.5422,401.2656 Q144.1281,401.4844 143.8078,401.9688 Q143.4875,402.4531 143.4875,403.1094 L143.4875,403.8281 Q143.4875,404.625 144.0656,405.1563 Q144.6438,405.6875 145.675,405.6875 Q146.2844,405.6875 146.7063,405.5156 Q146.9563,405.4219 147.2375,405.1406 Q147.4094,404.9688 147.5031,404.9141 Q147.5969,404.8594 147.7219,404.8594 Q147.9406,404.8594 148.1125,405.0313 Q148.2844,405.2031 148.2844,405.4219 Q148.2844,405.6406 148.05,405.9063 Q147.7219,406.2813 147.2063,406.5 Q146.5188,406.7813 145.675,406.7813 Q144.7063,406.7813 143.925,406.3906 Q143.2844,406.0625 142.8391,405.3672 Q142.3938,404.6719 142.3938,403.8438 L142.3938,403.0938 Q142.3938,402.2344 142.7922,401.4922 Q143.1906,400.75 143.9016,400.3516 Q144.6125,399.9531 145.4094,399.9531 Q145.8781,399.9531 146.3,400.0625 Q146.7219,400.1719 147.0813,400.3906 Z " fill="#000000"/><text fill="#000000" font-family="sans-serif" font-size="11" lengthAdjust="spacing" textLength="128" x="158.45" y="407.626">DashboardLayoutManager</text><line style="stroke:#666666;stroke-width:0.5;" x1="129.5" x2="292.5" y1="417.125" y2="417.125"/><text fill="#000000" font-family="sans-serif" font-size="11" lengthAdjust="spacing" textLength="151" x="134.5" y="432.5439">+components : List[Component]</text><text fill="#000000" font-family="sans-serif" font-size="11" lengthAdjust="spacing" textLength="120" x="134.5" y="446.3799">+user_preferences : dict</text><line style="stroke:#666666;stroke-width:0.5;" x1="129.5" x2="292.5" y1="452.7969" y2="452.7969"/><text fill="#000000" font-family="sans-serif" font-size="11" lengthAdjust="spacing" textLength="153" x="134.5" y="468.2158">+build_layout(user_id) : html.Div</text><text fill="#000000" font-family="sans-serif" font-size="11" lengthAdjust="spacing" textLength="85" x="134.5" y="482.0518">+refresh_layout()</text></g><g id="elem_GMN9"><path d="M106.5,613.625 L106.5,651.2969 A0,0 0 0 0 106.5,651.2969 L307.5,651.2969 A0,0 0 0 0 307.5,651.2969 L307.5,623.625 L297.5,613.625 L187.5,613.625 L183.5,488.335 L179.5,613.625 L106.5,613.625 A0,0 0 0 0 106.5,613.625 " fill="#FFF3CD" style="stroke:#FFEAA7;stroke-width:0.5;"/><path d="M297.5,613.625 L297.5,623.625 L307.5,623.625 L297.5,613.625 " fill="#FFF3CD" style="stroke:#FFEAA7;stroke-width:0.5;"/><text fill="#000000" font-family="sans-serif" font-size="11" lengthAdjust="spacing" textLength="98" x="112.5" y="630.0439">Layout Orchestrator</text><text fill="#000000" font-family="sans-serif" font-size="11" lengthAdjust="spacing" textLength="180" x="112.5" y="643.8799">Builds UI from registered components</text></g><!--class CallbackManager--><g id="elem_CallbackManager"><rect codeLine="49" fill="#FFFFFF" height="99.3438" id="CallbackManager" rx="2.5" ry="2.5" style="stroke:#666666;stroke-width:0.5;" width="183" x="328.5" y="389.125"/><ellipse cx="375.25" cy="403.125" fill="#ADD1B2" rx="9" ry="9" style="stroke:#181818;stroke-width:1.0;"/><path d="M376.7813,400.3906 Q376.875,400.25 377,400.1797 Q377.125,400.1094 377.2656,400.1094 Q377.5,400.1094 377.6563,400.2813 Q377.8125,400.4531 377.8125,400.8438 L377.8125,401.7813 Q377.8125,402.1719 377.6563,402.3438 Q377.5,402.5156 377.2656,402.5156 Q377.0469,402.5156 376.9063,402.3906 Q376.7656,402.2656 376.7031,401.9375 Q376.6719,401.7031 376.5625,401.5781 Q376.3438,401.3438 375.9453,401.1953 Q375.5469,401.0469 375.1563,401.0469 Q374.6563,401.0469 374.2422,401.2656 Q373.8281,401.4844 373.5078,401.9688 Q373.1875,402.4531 373.1875,403.1094 L373.1875,403.8281 Q373.1875,404.625 373.7656,405.1563 Q374.3438,405.6875 375.375,405.6875 Q375.9844,405.6875 376.4063,405.5156 Q376.6563,405.4219 376.9375,405.1406 Q377.1094,404.9688 377.2031,404.9141 Q377.2969,404.8594 377.4219,404.8594 Q377.6406,404.8594 377.8125,405.0313 Q377.9844,405.2031 377.9844,405.4219 Q377.9844,405.6406 377.75,405.9063 Q377.4219,406.2813 376.9063,406.5 Q376.2188,406.7813 375.375,406.7813 Q374.4063,406.7813 373.625,406.3906 Q372.9844,406.0625 372.5391,405.3672 Q372.0938,404.6719 372.0938,403.8438 L372.0938,403.0938 Q372.0938,402.2344 372.4922,401.4922 Q372.8906,400.75 373.6016,400.3516 Q374.3125,399.9531 375.1094,399.9531 Q375.5781,399.9531 376,400.0625 Q376.4219,400.1719 376.7813,400.3906 Z " fill="#000000"/><text fill="#000000" font-family="sans-serif" font-size="11" lengthAdjust="spacing" textLength="82" x="392.75" y="407.626">CallbackManager</text><line style="stroke:#666666;stroke-width:0.5;" x1="329.5" x2="510.5" y1="417.125" y2="417.125"/><text fill="#000000" font-family="sans-serif" font-size="11" lengthAdjust="spacing" textLength="77" x="334.5" y="432.5439">+callbacks : dict</text><text fill="#000000" font-family="sans-serif" font-size="11" lengthAdjust="spacing" textLength="104" x="334.5" y="446.3799">+state_handlers : dict</text><line style="stroke:#666666;stroke-width:0.5;" x1="329.5" x2="510.5" y1="452.7969" y2="452.7969"/><text fill="#000000" font-family="sans-serif" font-size="11" lengthAdjust="spacing" textLength="171" x="334.5" y="468.2158">+register_callbacks(app: DashApp)</text><text fill="#000000" font-family="sans-serif" font-size="11" lengthAdjust="spacing" textLength="129" x="334.5" y="482.0518">+handle_interaction(event)</text></g><g id="elem_GMN13"><path d="M342.5,613.625 L342.5,651.2969 A0,0 0 0 0 342.5,651.2969 L505.5,651.2969 A0,0 0 0 0 505.5,651.2969 L505.5,623.625 L495.5,613.625 L379.1,613.625 L375.1,488.335 L371.1,613.625 L342.5,613.625 A0,0 0 0 0 342.5,613.625 " fill="#FFF3CD" style="stroke:#FFEAA7;stroke-width:0.5;"/><path d="M495.5,613.625 L495.5,623.625 L505.5,623.625 L495.5,613.625 " fill="#FFF3CD" style="stroke:#FFEAA7;stroke-width:0.5;"/><text fill="#000000" font-family="sans-serif" font-size="11" lengthAdjust="spacing" textLength="86" x="348.5" y="630.0439">Event Coordinator</text><text fill="#000000" font-family="sans-serif" font-size="11" lengthAdjust="spacing" textLength="142" x="348.5" y="643.8799">Manages interactive behavior</text></g><!--class Init--><g id="elem_Init"><rect codeLine="57" fill="#FFFFFF" height="81.3438" id="Init" rx="2.5" ry="2.5" style="stroke:#666666;stroke-width:0.5;" width="137" x="182.5" y="82.125"/><ellipse cx="209" cy="100.9609" fill="#ADD1B2" rx="9" ry="9" style="stroke:#181818;stroke-width:1.0;"/><path d="M210.5313,98.2266 Q210.625,98.0859 210.75,98.0156 Q210.875,97.9453 211.0156,97.9453 Q211.25,97.9453 211.4063,98.1172 Q211.5625,98.2891 211.5625,98.6797 L211.5625,99.6172 Q211.5625,100.0078 211.4063,100.1797 Q211.25,100.3516 211.0156,100.3516 Q210.7969,100.3516 210.6563,100.2266 Q210.5156,100.1016 210.4531,99.7734 Q210.4219,99.5391 210.3125,99.4141 Q210.0938,99.1797 209.6953,99.0313 Q209.2969,98.8828 208.9063,98.8828 Q208.4063,98.8828 207.9922,99.1016 Q207.5781,99.3203 207.2578,99.8047 Q206.9375,100.2891 206.9375,100.9453 L206.9375,101.6641 Q206.9375,102.4609 207.5156,102.9922 Q208.0938,103.5234 209.125,103.5234 Q209.7344,103.5234 210.1563,103.3516 Q210.4063,103.2578 210.6875,102.9766 Q210.8594,102.8047 210.9531,102.75 Q211.0469,102.6953 211.1719,102.6953 Q211.3906,102.6953 211.5625,102.8672 Q211.7344,103.0391 211.7344,103.2578 Q211.7344,103.4766 211.5,103.7422 Q211.1719,104.1172 210.6563,104.3359 Q209.9688,104.6172 209.125,104.6172 Q208.1563,104.6172 207.375,104.2266 Q206.7344,103.8984 206.2891,103.2031 Q205.8438,102.5078 205.8438,101.6797 L205.8438,100.9297 Q205.8438,100.0703 206.2422,99.3281 Q206.6406,98.5859 207.3516,98.1875 Q208.0625,97.7891 208.8594,97.7891 Q209.3281,97.7891 209.75,97.8984 Q210.1719,98.0078 210.5313,98.2266 Z " fill="#000000"/><text fill="#000000" font-family="sans-serif" font-size="11" font-style="italic" lengthAdjust="spacing" textLength="51" x="238" y="98.5439">&#171;function&#187;</text><text fill="#000000" font-family="sans-serif" font-size="11" lengthAdjust="spacing" textLength="79" x="224" y="112.3799">init_dashboard()</text><line style="stroke:#666666;stroke-width:0.5;" x1="183.5" x2="318.5" y1="119.7969" y2="119.7969"/><line style="stroke:#666666;stroke-width:0.5;" x1="183.5" x2="318.5" y1="127.7969" y2="127.7969"/><text fill="#000000" font-family="sans-serif" font-size="11" lengthAdjust="spacing" textLength="125" x="188.5" y="143.2158">+bootstrap_components()</text><text fill="#000000" font-family="sans-serif" font-size="11" lengthAdjust="spacing" textLength="80" x="188.5" y="157.0518">+setup_routing()</text></g><g id="elem_GMN17"><path d="M354.5,103.625 L354.5,119.125 L319.55,123.125 L354.5,127.125 L354.5,141.2969 A0,0 0 0 0 354.5,141.2969 L511.5,141.2969 A0,0 0 0 0 511.5,141.2969 L511.5,113.625 L501.5,103.625 L354.5,103.625 A0,0 0 0 0 354.5,103.625 " fill="#FFF3CD" style="stroke:#FFEAA7;stroke-width:0.5;"/><path d="M501.5,103.625 L501.5,113.625 L511.5,113.625 L501.5,103.625 " fill="#FFF3CD" style="stroke:#FFEAA7;stroke-width:0.5;"/><text fill="#000000" font-family="sans-serif" font-size="11" lengthAdjust="spacing" textLength="91" x="360.5" y="120.0439">Bootstrap Function</text><text fill="#000000" font-family="sans-serif" font-size="11" lengthAdjust="spacing" textLength="136" x="360.5" y="133.8799">Initializes dashboard system</text></g><!--class GraphRegistry--><g id="elem_GraphRegistry"><rect codeLine="68" fill="#FFFFFF" height="113.1797" id="GraphRegistry" rx="2.5" ry="2.5" style="stroke:#666666;stroke-width:0.5;" width="183" x="1027.5" y="382.125"/><ellipse cx="1080.25" cy="396.125" fill="#ADD1B2" rx="9" ry="9" style="stroke:#181818;stroke-width:1.0;"/><path d="M1081.7813,393.3906 Q1081.875,393.25 1082,393.1797 Q1082.125,393.1094 1082.2656,393.1094 Q1082.5,393.1094 1082.6563,393.2813 Q1082.8125,393.4531 1082.8125,393.8438 L1082.8125,394.7813 Q1082.8125,395.1719 1082.6563,395.3438 Q1082.5,395.5156 1082.2656,395.5156 Q1082.0469,395.5156 1081.9063,395.3906 Q1081.7656,395.2656 1081.7031,394.9375 Q1081.6719,394.7031 1081.5625,394.5781 Q1081.3438,394.3438 1080.9453,394.1953 Q1080.5469,394.0469 1080.1563,394.0469 Q1079.6563,394.0469 1079.2422,394.2656 Q1078.8281,394.4844 1078.5078,394.9688 Q1078.1875,395.4531 1078.1875,396.1094 L1078.1875,396.8281 Q1078.1875,397.625 1078.7656,398.1563 Q1079.3438,398.6875 1080.375,398.6875 Q1080.9844,398.6875 1081.4063,398.5156 Q1081.6563,398.4219 1081.9375,398.1406 Q1082.1094,397.9688 1082.2031,397.9141 Q1082.2969,397.8594 1082.4219,397.8594 Q1082.6406,397.8594 1082.8125,398.0313 Q1082.9844,398.2031 1082.9844,398.4219 Q1082.9844,398.6406 1082.75,398.9063 Q1082.4219,399.2813 1081.9063,399.5 Q1081.2188,399.7813 1080.375,399.7813 Q1079.4063,399.7813 1078.625,399.3906 Q1077.9844,399.0625 1077.5391,398.3672 Q1077.0938,397.6719 1077.0938,396.8438 L1077.0938,396.0938 Q1077.0938,395.2344 1077.4922,394.4922 Q1077.8906,393.75 1078.6016,393.3516 Q1079.3125,392.9531 1080.1094,392.9531 Q1080.5781,392.9531 1081,393.0625 Q1081.4219,393.1719 1081.7813,393.3906 Z " fill="#000000"/><text fill="#000000" font-family="sans-serif" font-size="11" lengthAdjust="spacing" textLength="70" x="1097.75" y="400.626">GraphRegistry</text><line style="stroke:#666666;stroke-width:0.5;" x1="1028.5" x2="1209.5" y1="410.125" y2="410.125"/><text fill="#000000" font-family="sans-serif" font-size="11" lengthAdjust="spacing" textLength="171" x="1033.5" y="425.5439">+registered_graphs : Dict[str, Type]</text><text fill="#000000" font-family="sans-serif" font-size="11" lengthAdjust="spacing" textLength="155" x="1033.5" y="439.3799">+metadata : Dict[str, GraphMeta]</text><line style="stroke:#666666;stroke-width:0.5;" x1="1028.5" x2="1209.5" y1="445.7969" y2="445.7969"/><text fill="#000000" font-family="sans-serif" font-size="11" lengthAdjust="spacing" textLength="126" x="1033.5" y="461.2158">+register(cls: BaseGraph)</text><text fill="#000000" font-family="sans-serif" font-size="11" lengthAdjust="spacing" textLength="167" x="1033.5" y="475.0518">+get_graph(type: str) : BaseGraph</text><text fill="#000000" font-family="sans-serif" font-size="11" lengthAdjust="spacing" textLength="120" x="1033.5" y="488.8877">+list_available() : List[str]</text></g><!--class FilterRegistry--><g id="elem_FilterRegistry"><rect codeLine="76" fill="#FFFFFF" height="113.1797" id="FilterRegistry" rx="2.5" ry="2.5" style="stroke:#666666;stroke-width:0.5;" width="176" x="1246" y="382.125"/><ellipse cx="1298.75" cy="396.125" fill="#ADD1B2" rx="9" ry="9" style="stroke:#181818;stroke-width:1.0;"/><path d="M1300.2813,393.3906 Q1300.375,393.25 1300.5,393.1797 Q1300.625,393.1094 1300.7656,393.1094 Q1301,393.1094 1301.1563,393.2813 Q1301.3125,393.4531 1301.3125,393.8438 L1301.3125,394.7813 Q1301.3125,395.1719 1301.1563,395.3438 Q1301,395.5156 1300.7656,395.5156 Q1300.5469,395.5156 1300.4063,395.3906 Q1300.2656,395.2656 1300.2031,394.9375 Q1300.1719,394.7031 1300.0625,394.5781 Q1299.8438,394.3438 1299.4453,394.1953 Q1299.0469,394.0469 1298.6563,394.0469 Q1298.1563,394.0469 1297.7422,394.2656 Q1297.3281,394.4844 1297.0078,394.9688 Q1296.6875,395.4531 1296.6875,396.1094 L1296.6875,396.8281 Q1296.6875,397.625 1297.2656,398.1563 Q1297.8438,398.6875 1298.875,398.6875 Q1299.4844,398.6875 1299.9063,398.5156 Q1300.1563,398.4219 1300.4375,398.1406 Q1300.6094,397.9688 1300.7031,397.9141 Q1300.7969,397.8594 1300.9219,397.8594 Q1301.1406,397.8594 1301.3125,398.0313 Q1301.4844,398.2031 1301.4844,398.4219 Q1301.4844,398.6406 1301.25,398.9063 Q1300.9219,399.2813 1300.4063,399.5 Q1299.7188,399.7813 1298.875,399.7813 Q1297.9063,399.7813 1297.125,399.3906 Q1296.4844,399.0625 1296.0391,398.3672 Q1295.5938,397.6719 1295.5938,396.8438 L1295.5938,396.0938 Q1295.5938,395.2344 1295.9922,394.4922 Q1296.3906,393.75 1297.1016,393.3516 Q1297.8125,392.9531 1298.6094,392.9531 Q1299.0781,392.9531 1299.5,393.0625 Q1299.9219,393.1719 1300.2813,393.3906 Z " fill="#000000"/><text fill="#000000" font-family="sans-serif" font-size="11" lengthAdjust="spacing" textLength="63" x="1316.25" y="400.626">FilterRegistry</text><line style="stroke:#666666;stroke-width:0.5;" x1="1247" x2="1421" y1="410.125" y2="410.125"/><text fill="#000000" font-family="sans-serif" font-size="11" lengthAdjust="spacing" textLength="164" x="1252" y="425.5439">+registered_filters : Dict[str, Type]</text><text fill="#000000" font-family="sans-serif" font-size="11" lengthAdjust="spacing" textLength="143" x="1252" y="439.3799">+dependencies : Dict[str, List]</text><line style="stroke:#666666;stroke-width:0.5;" x1="1247" x2="1421" y1="445.7969" y2="445.7969"/><text fill="#000000" font-family="sans-serif" font-size="11" lengthAdjust="spacing" textLength="119" x="1252" y="461.2158">+register(cls: BaseFilter)</text><text fill="#000000" font-family="sans-serif" font-size="11" lengthAdjust="spacing" textLength="153" x="1252" y="475.0518">+get_filter(type: str) : BaseFilter</text><text fill="#000000" font-family="sans-serif" font-size="11" lengthAdjust="spacing" textLength="164" x="1252" y="488.8877">+get_compatible_filters() : List[str]</text></g><!--class BaseGraph--><g id="elem_BaseGraph"><rect codeLine="86" fill="#FFFFFF" height="127.0156" id="BaseGraph" rx="2.5" ry="2.5" style="stroke:#666666;stroke-width:0.5;" width="201" x="1478.5" y="569.125"/><ellipse cx="1547.25" cy="583.125" fill="#A9DCDF" rx="9" ry="9" style="stroke:#181818;stroke-width:1.0;"/><path d="M1548.3906,584.8594 L1545.7188,584.8594 L1545.4531,585.5313 L1545.7188,585.5313 Q1546.125,585.5313 1546.2891,585.6797 Q1546.4531,585.8281 1546.4531,586.0781 Q1546.4531,586.3125 1546.2891,586.4688 Q1546.125,586.625 1545.7188,586.625 L1544.2344,586.625 Q1543.8438,586.625 1543.6719,586.4688 Q1543.5,586.3125 1543.5,586.0781 Q1543.5,585.8281 1543.6797,585.6719 Q1543.8594,585.5156 1544.2656,585.5313 L1546,581.2188 L1545.2813,581.2188 Q1544.875,581.2188 1544.7109,581.0625 Q1544.5469,580.9063 1544.5469,580.6563 Q1544.5469,580.4219 1544.7109,580.2656 Q1544.875,580.1094 1545.2813,580.1094 L1547.6563,580.1094 L1549.8438,585.5313 Q1550.2344,585.5313 1550.3594,585.6094 Q1550.6094,585.7813 1550.6094,586.0781 Q1550.6094,586.3125 1550.4375,586.4688 Q1550.2656,586.625 1549.875,586.625 L1548.3906,586.625 Q1548,586.625 1547.8281,586.4688 Q1547.6563,586.3125 1547.6563,586.0781 Q1547.6563,585.8281 1547.8281,585.6797 Q1548,585.5313 1548.3906,585.5313 L1548.6563,585.5313 L1548.3906,584.8594 Z M1547.9375,583.75 L1547.0469,581.5781 L1546.1563,583.75 L1547.9375,583.75 Z " fill="#000000"/><text fill="#000000" font-family="sans-serif" font-size="11" font-style="italic" lengthAdjust="spacing" textLength="56" x="1564.75" y="587.626">BaseGraph</text><line style="stroke:#666666;stroke-width:0.5;" x1="1479.5" x2="1678.5" y1="597.125" y2="597.125"/><text fill="#000000" font-family="sans-serif" font-size="11" lengthAdjust="spacing" textLength="44" x="1484.5" y="612.5439">+title : str</text><text fill="#000000" font-family="sans-serif" font-size="11" lengthAdjust="spacing" textLength="62" x="1484.5" y="626.3799">+config : dict</text><text fill="#000000" font-family="sans-serif" font-size="11" lengthAdjust="spacing" textLength="141" x="1484.5" y="640.2158">+data_requirements : List[str]</text><line style="stroke:#666666;stroke-width:0.5;" x1="1479.5" x2="1678.5" y1="646.6328" y2="646.6328"/><text fill="#000000" font-family="sans-serif" font-size="11" font-style="italic" lengthAdjust="spacing" textLength="189" x="1484.5" y="662.0518">+render(data: DataFrame) : dcc.Graph</text><text fill="#000000" font-family="sans-serif" font-size="11" font-style="italic" lengthAdjust="spacing" textLength="147" x="1484.5" y="675.8877">+get_config_panel() : html.Div</text><text fill="#000000" font-family="sans-serif" font-size="11" lengthAdjust="spacing" textLength="175" x="1484.5" y="689.7236">+validate_data(df: DataFrame) : bool</text></g><!--class BarChart--><g id="elem_BarChart"><rect codeLine="95" fill="#FFFFFF" height="99.3438" id="BarChart" rx="2.5" ry="2.5" style="stroke:#666666;stroke-width:0.5;" width="197" x="1710.5" y="782.125"/><ellipse cx="1783.75" cy="796.125" fill="#ADD1B2" rx="9" ry="9" style="stroke:#181818;stroke-width:1.0;"/><path d="M1785.2813,793.3906 Q1785.375,793.25 1785.5,793.1797 Q1785.625,793.1094 1785.7656,793.1094 Q1786,793.1094 1786.1563,793.2813 Q1786.3125,793.4531 1786.3125,793.8438 L1786.3125,794.7813 Q1786.3125,795.1719 1786.1563,795.3438 Q1786,795.5156 1785.7656,795.5156 Q1785.5469,795.5156 1785.4063,795.3906 Q1785.2656,795.2656 1785.2031,794.9375 Q1785.1719,794.7031 1785.0625,794.5781 Q1784.8438,794.3438 1784.4453,794.1953 Q1784.0469,794.0469 1783.6563,794.0469 Q1783.1563,794.0469 1782.7422,794.2656 Q1782.3281,794.4844 1782.0078,794.9688 Q1781.6875,795.4531 1781.6875,796.1094 L1781.6875,796.8281 Q1781.6875,797.625 1782.2656,798.1563 Q1782.8438,798.6875 1783.875,798.6875 Q1784.4844,798.6875 1784.9063,798.5156 Q1785.1563,798.4219 1785.4375,798.1406 Q1785.6094,797.9688 1785.7031,797.9141 Q1785.7969,797.8594 1785.9219,797.8594 Q1786.1406,797.8594 1786.3125,798.0313 Q1786.4844,798.2031 1786.4844,798.4219 Q1786.4844,798.6406 1786.25,798.9063 Q1785.9219,799.2813 1785.4063,799.5 Q1784.7188,799.7813 1783.875,799.7813 Q1782.9063,799.7813 1782.125,799.3906 Q1781.4844,799.0625 1781.0391,798.3672 Q1780.5938,797.6719 1780.5938,796.8438 L1780.5938,796.0938 Q1780.5938,795.2344 1780.9922,794.4922 Q1781.3906,793.75 1782.1016,793.3516 Q1782.8125,792.9531 1783.6094,792.9531 Q1784.0781,792.9531 1784.5,793.0625 Q1784.9219,793.1719 1785.2813,793.3906 Z " fill="#000000"/><text fill="#000000" font-family="sans-serif" font-size="11" lengthAdjust="spacing" textLength="43" x="1801.25" y="800.626">BarChart</text><line style="stroke:#666666;stroke-width:0.5;" x1="1711.5" x2="1906.5" y1="810.125" y2="810.125"/><text fill="#000000" font-family="sans-serif" font-size="11" lengthAdjust="spacing" textLength="78" x="1716.5" y="825.5439">+orientation : str</text><text fill="#000000" font-family="sans-serif" font-size="11" lengthAdjust="spacing" textLength="96" x="1716.5" y="839.3799">+color_scheme : str</text><line style="stroke:#666666;stroke-width:0.5;" x1="1711.5" x2="1906.5" y1="845.7969" y2="845.7969"/><text fill="#000000" font-family="sans-serif" font-size="11" lengthAdjust="spacing" textLength="185" x="1716.5" y="861.2158">+render(data: DataFrame) : dcc.Graph</text><text fill="#000000" font-family="sans-serif" font-size="11" lengthAdjust="spacing" textLength="143" x="1716.5" y="875.0518">+get_config_panel() : html.Div</text></g><!--class PieChart--><g id="elem_PieChart"><rect codeLine="102" fill="#FFFFFF" height="99.3438" id="PieChart" rx="2.5" ry="2.5" style="stroke:#666666;stroke-width:0.5;" width="197" x="1942.5" y="782.125"/><ellipse cx="2017.25" cy="796.125" fill="#ADD1B2" rx="9" ry="9" style="stroke:#181818;stroke-width:1.0;"/><path d="M2018.7813,793.3906 Q2018.875,793.25 2019,793.1797 Q2019.125,793.1094 2019.2656,793.1094 Q2019.5,793.1094 2019.6563,793.2813 Q2019.8125,793.4531 2019.8125,793.8438 L2019.8125,794.7813 Q2019.8125,795.1719 2019.6563,795.3438 Q2019.5,795.5156 2019.2656,795.5156 Q2019.0469,795.5156 2018.9063,795.3906 Q2018.7656,795.2656 2018.7031,794.9375 Q2018.6719,794.7031 2018.5625,794.5781 Q2018.3438,794.3438 2017.9453,794.1953 Q2017.5469,794.0469 2017.1563,794.0469 Q2016.6563,794.0469 2016.2422,794.2656 Q2015.8281,794.4844 2015.5078,794.9688 Q2015.1875,795.4531 2015.1875,796.1094 L2015.1875,796.8281 Q2015.1875,797.625 2015.7656,798.1563 Q2016.3438,798.6875 2017.375,798.6875 Q2017.9844,798.6875 2018.4063,798.5156 Q2018.6563,798.4219 2018.9375,798.1406 Q2019.1094,797.9688 2019.2031,797.9141 Q2019.2969,797.8594 2019.4219,797.8594 Q2019.6406,797.8594 2019.8125,798.0313 Q2019.9844,798.2031 2019.9844,798.4219 Q2019.9844,798.6406 2019.75,798.9063 Q2019.4219,799.2813 2018.9063,799.5 Q2018.2188,799.7813 2017.375,799.7813 Q2016.4063,799.7813 2015.625,799.3906 Q2014.9844,799.0625 2014.5391,798.3672 Q2014.0938,797.6719 2014.0938,796.8438 L2014.0938,796.0938 Q2014.0938,795.2344 2014.4922,794.4922 Q2014.8906,793.75 2015.6016,793.3516 Q2016.3125,792.9531 2017.1094,792.9531 Q2017.5781,792.9531 2018,793.0625 Q2018.4219,793.1719 2018.7813,793.3906 Z " fill="#000000"/><text fill="#000000" font-family="sans-serif" font-size="11" lengthAdjust="spacing" textLength="40" x="2034.75" y="800.626">PieChart</text><line style="stroke:#666666;stroke-width:0.5;" x1="1943.5" x2="2138.5" y1="810.125" y2="810.125"/><text fill="#000000" font-family="sans-serif" font-size="11" lengthAdjust="spacing" textLength="97" x="1948.5" y="825.5439">+show_labels : bool</text><text fill="#000000" font-family="sans-serif" font-size="11" lengthAdjust="spacing" textLength="82" x="1948.5" y="839.3799">+hole_size : float</text><line style="stroke:#666666;stroke-width:0.5;" x1="1943.5" x2="2138.5" y1="845.7969" y2="845.7969"/><text fill="#000000" font-family="sans-serif" font-size="11" lengthAdjust="spacing" textLength="185" x="1948.5" y="861.2158">+render(data: DataFrame) : dcc.Graph</text><text fill="#000000" font-family="sans-serif" font-size="11" lengthAdjust="spacing" textLength="143" x="1948.5" y="875.0518">+get_config_panel() : html.Div</text></g><!--class TimeSeriesChart--><g id="elem_TimeSeriesChart"><rect codeLine="109" fill="#FFFFFF" height="99.3438" id="TimeSeriesChart" rx="2.5" ry="2.5" style="stroke:#666666;stroke-width:0.5;" width="197" x="1478.5" y="782.125"/><ellipse cx="1533.75" cy="796.125" fill="#ADD1B2" rx="9" ry="9" style="stroke:#181818;stroke-width:1.0;"/><path d="M1535.2813,793.3906 Q1535.375,793.25 1535.5,793.1797 Q1535.625,793.1094 1535.7656,793.1094 Q1536,793.1094 1536.1563,793.2813 Q1536.3125,793.4531 1536.3125,793.8438 L1536.3125,794.7813 Q1536.3125,795.1719 1536.1563,795.3438 Q1536,795.5156 1535.7656,795.5156 Q1535.5469,795.5156 1535.4063,795.3906 Q1535.2656,795.2656 1535.2031,794.9375 Q1535.1719,794.7031 1535.0625,794.5781 Q1534.8438,794.3438 1534.4453,794.1953 Q1534.0469,794.0469 1533.6563,794.0469 Q1533.1563,794.0469 1532.7422,794.2656 Q1532.3281,794.4844 1532.0078,794.9688 Q1531.6875,795.4531 1531.6875,796.1094 L1531.6875,796.8281 Q1531.6875,797.625 1532.2656,798.1563 Q1532.8438,798.6875 1533.875,798.6875 Q1534.4844,798.6875 1534.9063,798.5156 Q1535.1563,798.4219 1535.4375,798.1406 Q1535.6094,797.9688 1535.7031,797.9141 Q1535.7969,797.8594 1535.9219,797.8594 Q1536.1406,797.8594 1536.3125,798.0313 Q1536.4844,798.2031 1536.4844,798.4219 Q1536.4844,798.6406 1536.25,798.9063 Q1535.9219,799.2813 1535.4063,799.5 Q1534.7188,799.7813 1533.875,799.7813 Q1532.9063,799.7813 1532.125,799.3906 Q1531.4844,799.0625 1531.0391,798.3672 Q1530.5938,797.6719 1530.5938,796.8438 L1530.5938,796.0938 Q1530.5938,795.2344 1530.9922,794.4922 Q1531.3906,793.75 1532.1016,793.3516 Q1532.8125,792.9531 1533.6094,792.9531 Q1534.0781,792.9531 1534.5,793.0625 Q1534.9219,793.1719 1535.2813,793.3906 Z " fill="#000000"/><text fill="#000000" font-family="sans-serif" font-size="11" lengthAdjust="spacing" textLength="79" x="1551.25" y="800.626">TimeSeriesChart</text><line style="stroke:#666666;stroke-width:0.5;" x1="1479.5" x2="1674.5" y1="810.125" y2="810.125"/><text fill="#000000" font-family="sans-serif" font-size="11" lengthAdjust="spacing" textLength="89" x="1484.5" y="825.5439">+date_column : str</text><text fill="#000000" font-family="sans-serif" font-size="11" lengthAdjust="spacing" textLength="85" x="1484.5" y="839.3799">+aggregation : str</text><line style="stroke:#666666;stroke-width:0.5;" x1="1479.5" x2="1674.5" y1="845.7969" y2="845.7969"/><text fill="#000000" font-family="sans-serif" font-size="11" lengthAdjust="spacing" textLength="185" x="1484.5" y="861.2158">+render(data: DataFrame) : dcc.Graph</text><text fill="#000000" font-family="sans-serif" font-size="11" lengthAdjust="spacing" textLength="143" x="1484.5" y="875.0518">+get_config_panel() : html.Div</text></g><!--class BaseFilter--><g id="elem_BaseFilter"><rect codeLine="122" fill="#FFFFFF" height="127.0156" id="BaseFilter" rx="2.5" ry="2.5" style="stroke:#666666;stroke-width:0.5;" width="240" x="2196" y="569.125"/><ellipse cx="2286.75" cy="583.125" fill="#A9DCDF" rx="9" ry="9" style="stroke:#181818;stroke-width:1.0;"/><path d="M2287.8906,584.8594 L2285.2188,584.8594 L2284.9531,585.5313 L2285.2188,585.5313 Q2285.625,585.5313 2285.7891,585.6797 Q2285.9531,585.8281 2285.9531,586.0781 Q2285.9531,586.3125 2285.7891,586.4688 Q2285.625,586.625 2285.2188,586.625 L2283.7344,586.625 Q2283.3438,586.625 2283.1719,586.4688 Q2283,586.3125 2283,586.0781 Q2283,585.8281 2283.1797,585.6719 Q2283.3594,585.5156 2283.7656,585.5313 L2285.5,581.2188 L2284.7813,581.2188 Q2284.375,581.2188 2284.2109,581.0625 Q2284.0469,580.9063 2284.0469,580.6563 Q2284.0469,580.4219 2284.2109,580.2656 Q2284.375,580.1094 2284.7813,580.1094 L2287.1563,580.1094 L2289.3438,585.5313 Q2289.7344,585.5313 2289.8594,585.6094 Q2290.1094,585.7813 2290.1094,586.0781 Q2290.1094,586.3125 2289.9375,586.4688 Q2289.7656,586.625 2289.375,586.625 L2287.8906,586.625 Q2287.5,586.625 2287.3281,586.4688 Q2287.1563,586.3125 2287.1563,586.0781 Q2287.1563,585.8281 2287.3281,585.6797 Q2287.5,585.5313 2287.8906,585.5313 L2288.1563,585.5313 L2287.8906,584.8594 Z M2287.4375,583.75 L2286.5469,581.5781 L2285.6563,583.75 L2287.4375,583.75 Z " fill="#000000"/><text fill="#000000" font-family="sans-serif" font-size="11" font-style="italic" lengthAdjust="spacing" textLength="51" x="2304.25" y="587.626">BaseFilter</text><line style="stroke:#666666;stroke-width:0.5;" x1="2197" x2="2435" y1="597.125" y2="597.125"/><text fill="#000000" font-family="sans-serif" font-size="11" lengthAdjust="spacing" textLength="54" x="2202" y="612.5439">+name : str</text><text fill="#000000" font-family="sans-serif" font-size="11" lengthAdjust="spacing" textLength="76" x="2202" y="626.3799">+filter_type : str</text><text fill="#000000" font-family="sans-serif" font-size="11" lengthAdjust="spacing" textLength="119" x="2202" y="640.2158">+dependencies : List[str]</text><line style="stroke:#666666;stroke-width:0.5;" x1="2197" x2="2435" y1="646.6328" y2="646.6328"/><text fill="#000000" font-family="sans-serif" font-size="11" font-style="italic" lengthAdjust="spacing" textLength="143" x="2202" y="662.0518">+render(state: dict) : html.Div</text><text fill="#000000" font-family="sans-serif" font-size="11" font-style="italic" lengthAdjust="spacing" textLength="228" x="2202" y="675.8877">+apply(df: DataFrame, state: dict) : DataFrame</text><text fill="#000000" font-family="sans-serif" font-size="11" lengthAdjust="spacing" textLength="129" x="2202" y="689.7236">+get_state_schema() : dict</text></g><!--class DateRangeFilter--><g id="elem_DateRangeFilter"><rect codeLine="131" fill="#FFFFFF" height="99.3438" id="DateRangeFilter" rx="2.5" ry="2.5" style="stroke:#666666;stroke-width:0.5;" width="234" x="2196" y="782.125"/><ellipse cx="2271.25" cy="796.125" fill="#ADD1B2" rx="9" ry="9" style="stroke:#181818;stroke-width:1.0;"/><path d="M2272.7813,793.3906 Q2272.875,793.25 2273,793.1797 Q2273.125,793.1094 2273.2656,793.1094 Q2273.5,793.1094 2273.6563,793.2813 Q2273.8125,793.4531 2273.8125,793.8438 L2273.8125,794.7813 Q2273.8125,795.1719 2273.6563,795.3438 Q2273.5,795.5156 2273.2656,795.5156 Q2273.0469,795.5156 2272.9063,795.3906 Q2272.7656,795.2656 2272.7031,794.9375 Q2272.6719,794.7031 2272.5625,794.5781 Q2272.3438,794.3438 2271.9453,794.1953 Q2271.5469,794.0469 2271.1563,794.0469 Q2270.6563,794.0469 2270.2422,794.2656 Q2269.8281,794.4844 2269.5078,794.9688 Q2269.1875,795.4531 2269.1875,796.1094 L2269.1875,796.8281 Q2269.1875,797.625 2269.7656,798.1563 Q2270.3438,798.6875 2271.375,798.6875 Q2271.9844,798.6875 2272.4063,798.5156 Q2272.6563,798.4219 2272.9375,798.1406 Q2273.1094,797.9688 2273.2031,797.9141 Q2273.2969,797.8594 2273.4219,797.8594 Q2273.6406,797.8594 2273.8125,798.0313 Q2273.9844,798.2031 2273.9844,798.4219 Q2273.9844,798.6406 2273.75,798.9063 Q2273.4219,799.2813 2272.9063,799.5 Q2272.2188,799.7813 2271.375,799.7813 Q2270.4063,799.7813 2269.625,799.3906 Q2268.9844,799.0625 2268.5391,798.3672 Q2268.0938,797.6719 2268.0938,796.8438 L2268.0938,796.0938 Q2268.0938,795.2344 2268.4922,794.4922 Q2268.8906,793.75 2269.6016,793.3516 Q2270.3125,792.9531 2271.1094,792.9531 Q2271.5781,792.9531 2272,793.0625 Q2272.4219,793.1719 2272.7813,793.3906 Z " fill="#000000"/><text fill="#000000" font-family="sans-serif" font-size="11" lengthAdjust="spacing" textLength="76" x="2288.75" y="800.626">DateRangeFilter</text><line style="stroke:#666666;stroke-width:0.5;" x1="2197" x2="2429" y1="810.125" y2="810.125"/><text fill="#000000" font-family="sans-serif" font-size="11" lengthAdjust="spacing" textLength="79" x="2202" y="825.5439">+min_date : date</text><text fill="#000000" font-family="sans-serif" font-size="11" lengthAdjust="spacing" textLength="83" x="2202" y="839.3799">+max_date : date</text><line style="stroke:#666666;stroke-width:0.5;" x1="2197" x2="2429" y1="845.7969" y2="845.7969"/><text fill="#000000" font-family="sans-serif" font-size="11" lengthAdjust="spacing" textLength="139" x="2202" y="861.2158">+render(state: dict) : html.Div</text><text fill="#000000" font-family="sans-serif" font-size="11" lengthAdjust="spacing" textLength="222" x="2202" y="875.0518">+apply(df: DataFrame, state: dict) : DataFrame</text></g><!--class SchemeFilter--><g id="elem_SchemeFilter"><rect codeLine="138" fill="#FFFFFF" height="99.3438" id="SchemeFilter" rx="2.5" ry="2.5" style="stroke:#666666;stroke-width:0.5;" width="234" x="2465" y="782.125"/><ellipse cx="2547.25" cy="796.125" fill="#ADD1B2" rx="9" ry="9" style="stroke:#181818;stroke-width:1.0;"/><path d="M2548.7813,793.3906 Q2548.875,793.25 2549,793.1797 Q2549.125,793.1094 2549.2656,793.1094 Q2549.5,793.1094 2549.6563,793.2813 Q2549.8125,793.4531 2549.8125,793.8438 L2549.8125,794.7813 Q2549.8125,795.1719 2549.6563,795.3438 Q2549.5,795.5156 2549.2656,795.5156 Q2549.0469,795.5156 2548.9063,795.3906 Q2548.7656,795.2656 2548.7031,794.9375 Q2548.6719,794.7031 2548.5625,794.5781 Q2548.3438,794.3438 2547.9453,794.1953 Q2547.5469,794.0469 2547.1563,794.0469 Q2546.6563,794.0469 2546.2422,794.2656 Q2545.8281,794.4844 2545.5078,794.9688 Q2545.1875,795.4531 2545.1875,796.1094 L2545.1875,796.8281 Q2545.1875,797.625 2545.7656,798.1563 Q2546.3438,798.6875 2547.375,798.6875 Q2547.9844,798.6875 2548.4063,798.5156 Q2548.6563,798.4219 2548.9375,798.1406 Q2549.1094,797.9688 2549.2031,797.9141 Q2549.2969,797.8594 2549.4219,797.8594 Q2549.6406,797.8594 2549.8125,798.0313 Q2549.9844,798.2031 2549.9844,798.4219 Q2549.9844,798.6406 2549.75,798.9063 Q2549.4219,799.2813 2548.9063,799.5 Q2548.2188,799.7813 2547.375,799.7813 Q2546.4063,799.7813 2545.625,799.3906 Q2544.9844,799.0625 2544.5391,798.3672 Q2544.0938,797.6719 2544.0938,796.8438 L2544.0938,796.0938 Q2544.0938,795.2344 2544.4922,794.4922 Q2544.8906,793.75 2545.6016,793.3516 Q2546.3125,792.9531 2547.1094,792.9531 Q2547.5781,792.9531 2548,793.0625 Q2548.4219,793.1719 2548.7813,793.3906 Z " fill="#000000"/><text fill="#000000" font-family="sans-serif" font-size="11" lengthAdjust="spacing" textLength="62" x="2564.75" y="800.626">SchemeFilter</text><line style="stroke:#666666;stroke-width:0.5;" x1="2466" x2="2698" y1="810.125" y2="810.125"/><text fill="#000000" font-family="sans-serif" font-size="11" lengthAdjust="spacing" textLength="143" x="2471" y="825.5439">+available_schemes : List[str]</text><text fill="#000000" font-family="sans-serif" font-size="11" lengthAdjust="spacing" textLength="91" x="2471" y="839.3799">+multi_select : bool</text><line style="stroke:#666666;stroke-width:0.5;" x1="2466" x2="2698" y1="845.7969" y2="845.7969"/><text fill="#000000" font-family="sans-serif" font-size="11" lengthAdjust="spacing" textLength="139" x="2471" y="861.2158">+render(state: dict) : html.Div</text><text fill="#000000" font-family="sans-serif" font-size="11" lengthAdjust="spacing" textLength="222" x="2471" y="875.0518">+apply(df: DataFrame, state: dict) : DataFrame</text></g><!--class DataService--><g id="elem_DataService"><rect codeLine="150" fill="#FFFFFF" height="127.0156" id="DataService" rx="2.5" ry="2.5" style="stroke:#666666;stroke-width:0.5;" width="195" x="1028.5" y="569.125"/><ellipse cx="1092.75" cy="583.125" fill="#ADD1B2" rx="9" ry="9" style="stroke:#181818;stroke-width:1.0;"/><path d="M1094.2813,580.3906 Q1094.375,580.25 1094.5,580.1797 Q1094.625,580.1094 1094.7656,580.1094 Q1095,580.1094 1095.1563,580.2813 Q1095.3125,580.4531 1095.3125,580.8438 L1095.3125,581.7813 Q1095.3125,582.1719 1095.1563,582.3438 Q1095,582.5156 1094.7656,582.5156 Q1094.5469,582.5156 1094.4063,582.3906 Q1094.2656,582.2656 1094.2031,581.9375 Q1094.1719,581.7031 1094.0625,581.5781 Q1093.8438,581.3438 1093.4453,581.1953 Q1093.0469,581.0469 1092.6563,581.0469 Q1092.1563,581.0469 1091.7422,581.2656 Q1091.3281,581.4844 1091.0078,581.9688 Q1090.6875,582.4531 1090.6875,583.1094 L1090.6875,583.8281 Q1090.6875,584.625 1091.2656,585.1563 Q1091.8438,585.6875 1092.875,585.6875 Q1093.4844,585.6875 1093.9063,585.5156 Q1094.1563,585.4219 1094.4375,585.1406 Q1094.6094,584.9688 1094.7031,584.9141 Q1094.7969,584.8594 1094.9219,584.8594 Q1095.1406,584.8594 1095.3125,585.0313 Q1095.4844,585.2031 1095.4844,585.4219 Q1095.4844,585.6406 1095.25,585.9063 Q1094.9219,586.2813 1094.4063,586.5 Q1093.7188,586.7813 1092.875,586.7813 Q1091.9063,586.7813 1091.125,586.3906 Q1090.4844,586.0625 1090.0391,585.3672 Q1089.5938,584.6719 1089.5938,583.8438 L1089.5938,583.0938 Q1089.5938,582.2344 1089.9922,581.4922 Q1090.3906,580.75 1091.1016,580.3516 Q1091.8125,579.9531 1092.6094,579.9531 Q1093.0781,579.9531 1093.5,580.0625 Q1093.9219,580.1719 1094.2813,580.3906 Z " fill="#000000"/><text fill="#000000" font-family="sans-serif" font-size="11" lengthAdjust="spacing" textLength="59" x="1110.25" y="587.626">DataService</text><line style="stroke:#666666;stroke-width:0.5;" x1="1029.5" x2="1222.5" y1="597.125" y2="597.125"/><text fill="#000000" font-family="sans-serif" font-size="11" lengthAdjust="spacing" textLength="62" x="1034.5" y="612.5439">+cache : dict</text><text fill="#000000" font-family="sans-serif" font-size="11" lengthAdjust="spacing" textLength="114" x="1034.5" y="626.3799">+connection_pool : Pool</text><line style="stroke:#666666;stroke-width:0.5;" x1="1029.5" x2="1222.5" y1="632.7969" y2="632.7969"/><text fill="#000000" font-family="sans-serif" font-size="11" lengthAdjust="spacing" textLength="163" x="1034.5" y="648.2158">+get_cc_dataframe() : DataFrame</text><text fill="#000000" font-family="sans-serif" font-size="11" lengthAdjust="spacing" textLength="169" x="1034.5" y="662.0518">+get_fips_dataframe() : DataFrame</text><text fill="#000000" font-family="sans-serif" font-size="11" lengthAdjust="spacing" textLength="86" x="1034.5" y="675.8877">+refresh_cache()</text><text fill="#000000" font-family="sans-serif" font-size="11" lengthAdjust="spacing" textLength="183" x="1034.5" y="689.7236">+get_filtered_data(filters) : DataFrame</text></g><g id="elem_GMN46"><path d="M1258.5,606.625 L1258.5,629.125 L1223.61,633.125 L1258.5,637.125 L1258.5,658.1328 A0,0 0 0 0 1258.5,658.1328 L1421.5,658.1328 A0,0 0 0 0 1421.5,658.1328 L1421.5,616.625 L1411.5,606.625 L1258.5,606.625 A0,0 0 0 0 1258.5,606.625 " fill="#FFF3CD" style="stroke:#FFEAA7;stroke-width:0.5;"/><path d="M1411.5,606.625 L1411.5,616.625 L1421.5,616.625 L1411.5,606.625 " fill="#FFF3CD" style="stroke:#FFEAA7;stroke-width:0.5;"/><text fill="#000000" font-family="sans-serif" font-size="11" lengthAdjust="spacing" textLength="94" x="1264.5" y="623.0439">Data Access Layer</text><text fill="#000000" font-family="sans-serif" font-size="11" lengthAdjust="spacing" textLength="142" x="1264.5" y="636.8799">Centralized data management</text><text fill="#000000" font-family="sans-serif" font-size="11" lengthAdjust="spacing" textLength="109" x="1264.5" y="650.7158">with intelligent caching</text></g><!--class DashboardStore--><g id="elem_DashboardStore"><rect codeLine="160" fill="#FFFFFF" height="109.0156" id="DashboardStore" rx="2.5" ry="2.5" style="stroke:#666666;stroke-width:0.5;" width="219" x="568.5" y="578.125"/><ellipse cx="634.75" cy="596.9609" fill="#ADD1B2" rx="9" ry="9" style="stroke:#181818;stroke-width:1.0;"/><path d="M636.2813,594.2266 Q636.375,594.0859 636.5,594.0156 Q636.625,593.9453 636.7656,593.9453 Q637,593.9453 637.1563,594.1172 Q637.3125,594.2891 637.3125,594.6797 L637.3125,595.6172 Q637.3125,596.0078 637.1563,596.1797 Q637,596.3516 636.7656,596.3516 Q636.5469,596.3516 636.4063,596.2266 Q636.2656,596.1016 636.2031,595.7734 Q636.1719,595.5391 636.0625,595.4141 Q635.8438,595.1797 635.4453,595.0313 Q635.0469,594.8828 634.6563,594.8828 Q634.1563,594.8828 633.7422,595.1016 Q633.3281,595.3203 633.0078,595.8047 Q632.6875,596.2891 632.6875,596.9453 L632.6875,597.6641 Q632.6875,598.4609 633.2656,598.9922 Q633.8438,599.5234 634.875,599.5234 Q635.4844,599.5234 635.9063,599.3516 Q636.1563,599.2578 636.4375,598.9766 Q636.6094,598.8047 636.7031,598.75 Q636.7969,598.6953 636.9219,598.6953 Q637.1406,598.6953 637.3125,598.8672 Q637.4844,599.0391 637.4844,599.2578 Q637.4844,599.4766 637.25,599.7422 Q636.9219,600.1172 636.4063,600.3359 Q635.7188,600.6172 634.875,600.6172 Q633.9063,600.6172 633.125,600.2266 Q632.4844,599.8984 632.0391,599.2031 Q631.5938,598.5078 631.5938,597.6797 L631.5938,596.9297 Q631.5938,596.0703 631.9922,595.3281 Q632.3906,594.5859 633.1016,594.1875 Q633.8125,593.7891 634.6094,593.7891 Q635.0781,593.7891 635.5,593.8984 Q635.9219,594.0078 636.2813,594.2266 Z " fill="#000000"/><text fill="#000000" font-family="sans-serif" font-size="11" font-style="italic" lengthAdjust="spacing" textLength="60" x="661.75" y="594.5439">&#171;MongoDB&#187;</text><text fill="#000000" font-family="sans-serif" font-size="11" lengthAdjust="spacing" textLength="79" x="652.25" y="608.3799">DashboardStore</text><line style="stroke:#666666;stroke-width:0.5;" x1="569.5" x2="786.5" y1="615.7969" y2="615.7969"/><text fill="#000000" font-family="sans-serif" font-size="11" lengthAdjust="spacing" textLength="106" x="574.5" y="631.2158">+collection : Collection</text><line style="stroke:#666666;stroke-width:0.5;" x1="569.5" x2="786.5" y1="637.6328" y2="637.6328"/><text fill="#000000" font-family="sans-serif" font-size="11" lengthAdjust="spacing" textLength="185" x="574.5" y="653.0518">+get_dashboard(user_id) : Dashboard</text><text fill="#000000" font-family="sans-serif" font-size="11" lengthAdjust="spacing" textLength="207" x="574.5" y="666.8877">+save_dashboard(dashboard: Dashboard)</text><text fill="#000000" font-family="sans-serif" font-size="11" lengthAdjust="spacing" textLength="185" x="574.5" y="680.7236">+get_user_preferences(user_id) : dict</text></g><!--class ActiveFilterState--><g id="elem_ActiveFilterState"><rect codeLine="167" fill="#FFFFFF" height="122.8516" id="ActiveFilterState" rx="2.5" ry="2.5" style="stroke:#666666;stroke-width:0.5;" width="171" x="822.5" y="571.125"/><ellipse cx="864.75" cy="589.9609" fill="#ADD1B2" rx="9" ry="9" style="stroke:#181818;stroke-width:1.0;"/><path d="M866.2813,587.2266 Q866.375,587.0859 866.5,587.0156 Q866.625,586.9453 866.7656,586.9453 Q867,586.9453 867.1563,587.1172 Q867.3125,587.2891 867.3125,587.6797 L867.3125,588.6172 Q867.3125,589.0078 867.1563,589.1797 Q867,589.3516 866.7656,589.3516 Q866.5469,589.3516 866.4063,589.2266 Q866.2656,589.1016 866.2031,588.7734 Q866.1719,588.5391 866.0625,588.4141 Q865.8438,588.1797 865.4453,588.0313 Q865.0469,587.8828 864.6563,587.8828 Q864.1563,587.8828 863.7422,588.1016 Q863.3281,588.3203 863.0078,588.8047 Q862.6875,589.2891 862.6875,589.9453 L862.6875,590.6641 Q862.6875,591.4609 863.2656,591.9922 Q863.8438,592.5234 864.875,592.5234 Q865.4844,592.5234 865.9063,592.3516 Q866.1563,592.2578 866.4375,591.9766 Q866.6094,591.8047 866.7031,591.75 Q866.7969,591.6953 866.9219,591.6953 Q867.1406,591.6953 867.3125,591.8672 Q867.4844,592.0391 867.4844,592.2578 Q867.4844,592.4766 867.25,592.7422 Q866.9219,593.1172 866.4063,593.3359 Q865.7188,593.6172 864.875,593.6172 Q863.9063,593.6172 863.125,593.2266 Q862.4844,592.8984 862.0391,592.2031 Q861.5938,591.5078 861.5938,590.6797 L861.5938,589.9297 Q861.5938,589.0703 861.9922,588.3281 Q862.3906,587.5859 863.1016,587.1875 Q863.8125,586.7891 864.6094,586.7891 Q865.0781,586.7891 865.5,586.8984 Q865.9219,587.0078 866.2813,587.2266 Z " fill="#000000"/><text fill="#000000" font-family="sans-serif" font-size="11" font-style="italic" lengthAdjust="spacing" textLength="41" x="901.25" y="587.5439">&#171;Redis&#187;</text><text fill="#000000" font-family="sans-serif" font-size="11" lengthAdjust="spacing" textLength="79" x="882.25" y="601.3799">ActiveFilterState</text><line style="stroke:#666666;stroke-width:0.5;" x1="823.5" x2="992.5" y1="608.7969" y2="608.7969"/><text fill="#000000" font-family="sans-serif" font-size="11" lengthAdjust="spacing" textLength="97" x="828.5" y="624.2158">+redis_client : Redis</text><text fill="#000000" font-family="sans-serif" font-size="11" lengthAdjust="spacing" textLength="34" x="828.5" y="638.0518">+ttl : int</text><line style="stroke:#666666;stroke-width:0.5;" x1="823.5" x2="992.5" y1="644.4688" y2="644.4688"/><text fill="#000000" font-family="sans-serif" font-size="11" lengthAdjust="spacing" textLength="137" x="828.5" y="659.8877">+get_state(session_id) : dict</text><text fill="#000000" font-family="sans-serif" font-size="11" lengthAdjust="spacing" textLength="159" x="828.5" y="673.7236">+update_state(session_id, state)</text><text fill="#000000" font-family="sans-serif" font-size="11" lengthAdjust="spacing" textLength="134" x="828.5" y="687.5596">+clear_session(session_id)</text></g><!--class DataFrame--><g id="elem_DataFrame"><rect codeLine="177" fill="#FFFFFF" height="122.8516" id="DataFrame" rx="2.5" ry="2.5" style="stroke:#666666;stroke-width:0.5;" width="93" x="926.5" y="770.125"/><ellipse cx="945.35" cy="788.9609" fill="#ADD1B2" rx="9" ry="9" style="stroke:#181818;stroke-width:1.0;"/><path d="M944.5219,789.7422 L944.5219,791.3672 L947.3344,791.3672 L947.3344,790.7578 Q947.3344,790.3672 947.4828,790.1953 Q947.6313,790.0234 947.8813,790.0234 Q948.1313,790.0234 948.2797,790.1953 Q948.4281,790.3672 948.4281,790.7578 L948.4281,792.4609 L943.2406,792.4609 Q942.85,792.4609 942.6781,792.3047 Q942.5063,792.1484 942.5063,791.9141 Q942.5063,791.6641 942.6781,791.5156 Q942.85,791.3672 943.2406,791.3672 L943.4125,791.3672 L943.4125,787.0547 L943.2406,787.0547 Q942.85,787.0547 942.6781,786.8984 Q942.5063,786.7422 942.5063,786.4922 Q942.5063,786.2578 942.6781,786.1016 Q942.85,785.9453 943.2406,785.9453 L948.1938,785.9453 L948.1938,787.6328 Q948.1938,788.0234 948.0375,788.1875 Q947.8813,788.3516 947.6469,788.3516 Q947.3969,788.3516 947.2406,788.1875 Q947.0844,788.0234 947.0844,787.6328 L947.0844,787.0547 L944.5219,787.0547 L944.5219,788.6484 L945.4906,788.6484 Q945.4906,788.2109 945.5688,788.0859 Q945.7406,787.8203 946.0375,787.8203 Q946.2875,787.8203 946.4359,787.9922 Q946.5844,788.1641 946.5844,788.5547 L946.5844,789.8359 Q946.5844,790.1953 946.5063,790.3047 Q946.3344,790.5703 946.0375,790.5703 Q945.7406,790.5703 945.5688,790.3047 Q945.4906,790.1797 945.4906,789.7422 L944.5219,789.7422 Z " fill="#000000"/><text fill="#000000" font-family="sans-serif" font-size="11" font-style="italic" lengthAdjust="spacing" textLength="49" x="960.15" y="786.5439">&#171;Pandas&#187;</text><text fill="#000000" font-family="sans-serif" font-size="11" lengthAdjust="spacing" textLength="52" x="958.65" y="800.3799">DataFrame</text><line style="stroke:#666666;stroke-width:0.5;" x1="927.5" x2="1018.5" y1="807.7969" y2="807.7969"/><text fill="#000000" font-family="sans-serif" font-size="11" lengthAdjust="spacing" textLength="81" x="932.5" y="823.2158">+columns : Index</text><text fill="#000000" font-family="sans-serif" font-size="11" lengthAdjust="spacing" textLength="79" x="932.5" y="837.0518">+dtypes : Series</text><line style="stroke:#666666;stroke-width:0.5;" x1="927.5" x2="1018.5" y1="843.4688" y2="843.4688"/><text fill="#000000" font-family="sans-serif" font-size="11" lengthAdjust="spacing" textLength="35" x="932.5" y="858.8877">+filter()</text><text fill="#000000" font-family="sans-serif" font-size="11" lengthAdjust="spacing" textLength="54" x="932.5" y="872.7236">+groupby()</text><text fill="#000000" font-family="sans-serif" font-size="11" lengthAdjust="spacing" textLength="66" x="932.5" y="886.5596">+pivot_table()</text></g><!--class Dashboard--><g id="elem_Dashboard"><rect codeLine="185" fill="#FFFFFF" height="109.0156" id="Dashboard" rx="2.5" ry="2.5" style="stroke:#666666;stroke-width:0.5;" width="121" x="770.5" y="777.125"/><ellipse cx="799.25" cy="795.9609" fill="#ADD1B2" rx="9" ry="9" style="stroke:#181818;stroke-width:1.0;"/><path d="M798.4219,796.7422 L798.4219,798.3672 L801.2344,798.3672 L801.2344,797.7578 Q801.2344,797.3672 801.3828,797.1953 Q801.5313,797.0234 801.7813,797.0234 Q802.0313,797.0234 802.1797,797.1953 Q802.3281,797.3672 802.3281,797.7578 L802.3281,799.4609 L797.1406,799.4609 Q796.75,799.4609 796.5781,799.3047 Q796.4063,799.1484 796.4063,798.9141 Q796.4063,798.6641 796.5781,798.5156 Q796.75,798.3672 797.1406,798.3672 L797.3125,798.3672 L797.3125,794.0547 L797.1406,794.0547 Q796.75,794.0547 796.5781,793.8984 Q796.4063,793.7422 796.4063,793.4922 Q796.4063,793.2578 796.5781,793.1016 Q796.75,792.9453 797.1406,792.9453 L802.0938,792.9453 L802.0938,794.6328 Q802.0938,795.0234 801.9375,795.1875 Q801.7813,795.3516 801.5469,795.3516 Q801.2969,795.3516 801.1406,795.1875 Q800.9844,795.0234 800.9844,794.6328 L800.9844,794.0547 L798.4219,794.0547 L798.4219,795.6484 L799.3906,795.6484 Q799.3906,795.2109 799.4688,795.0859 Q799.6406,794.8203 799.9375,794.8203 Q800.1875,794.8203 800.3359,794.9922 Q800.4844,795.1641 800.4844,795.5547 L800.4844,796.8359 Q800.4844,797.1953 800.4063,797.3047 Q800.2344,797.5703 799.9375,797.5703 Q799.6406,797.5703 799.4688,797.3047 Q799.3906,797.1797 799.3906,796.7422 L798.4219,796.7422 Z " fill="#000000"/><text fill="#000000" font-family="sans-serif" font-size="11" font-style="italic" lengthAdjust="spacing" textLength="62" x="812.75" y="793.5439">&#171;Document&#187;</text><text fill="#000000" font-family="sans-serif" font-size="11" lengthAdjust="spacing" textLength="53" x="817.25" y="807.3799">Dashboard</text><line style="stroke:#666666;stroke-width:0.5;" x1="771.5" x2="890.5" y1="814.7969" y2="814.7969"/><text fill="#000000" font-family="sans-serif" font-size="11" lengthAdjust="spacing" textLength="64" x="776.5" y="830.2158">+user_id : str</text><text fill="#000000" font-family="sans-serif" font-size="11" lengthAdjust="spacing" textLength="97" x="776.5" y="844.0518">+layout_config : dict</text><text fill="#000000" font-family="sans-serif" font-size="11" lengthAdjust="spacing" textLength="107" x="776.5" y="857.8877">+created_at : datetime</text><text fill="#000000" font-family="sans-serif" font-size="11" lengthAdjust="spacing" textLength="109" x="776.5" y="871.7236">+updated_at : datetime</text><line style="stroke:#666666;stroke-width:0.5;" x1="771.5" x2="890.5" y1="878.1406" y2="878.1406"/></g><!--class DashboardItem--><g id="elem_DashboardItem"><rect codeLine="192" fill="#FFFFFF" height="109.0156" id="DashboardItem" rx="2.5" ry="2.5" style="stroke:#666666;stroke-width:0.5;" width="100" x="781" y="953.125"/><ellipse cx="794" cy="971.9609" fill="#ADD1B2" rx="9" ry="9" style="stroke:#181818;stroke-width:1.0;"/><path d="M793.1719,972.7422 L793.1719,974.3672 L795.9844,974.3672 L795.9844,973.7578 Q795.9844,973.3672 796.1328,973.1953 Q796.2813,973.0234 796.5313,973.0234 Q796.7813,973.0234 796.9297,973.1953 Q797.0781,973.3672 797.0781,973.7578 L797.0781,975.4609 L791.8906,975.4609 Q791.5,975.4609 791.3281,975.3047 Q791.1563,975.1484 791.1563,974.9141 Q791.1563,974.6641 791.3281,974.5156 Q791.5,974.3672 791.8906,974.3672 L792.0625,974.3672 L792.0625,970.0547 L791.8906,970.0547 Q791.5,970.0547 791.3281,969.8984 Q791.1563,969.7422 791.1563,969.4922 Q791.1563,969.2578 791.3281,969.1016 Q791.5,968.9453 791.8906,968.9453 L796.8438,968.9453 L796.8438,970.6328 Q796.8438,971.0234 796.6875,971.1875 Q796.5313,971.3516 796.2969,971.3516 Q796.0469,971.3516 795.8906,971.1875 Q795.7344,971.0234 795.7344,970.6328 L795.7344,970.0547 L793.1719,970.0547 L793.1719,971.6484 L794.1406,971.6484 Q794.1406,971.2109 794.2188,971.0859 Q794.3906,970.8203 794.6875,970.8203 Q794.9375,970.8203 795.0859,970.9922 Q795.2344,971.1641 795.2344,971.5547 L795.2344,972.8359 Q795.2344,973.1953 795.1563,973.3047 Q794.9844,973.5703 794.6875,973.5703 Q794.3906,973.5703 794.2188,973.3047 Q794.1406,973.1797 794.1406,972.7422 L793.1719,972.7422 Z " fill="#000000"/><text fill="#000000" font-family="sans-serif" font-size="11" font-style="italic" lengthAdjust="spacing" textLength="62" x="811" y="969.5439">&#171;Document&#187;</text><text fill="#000000" font-family="sans-serif" font-size="11" lengthAdjust="spacing" textLength="72" x="806" y="983.3799">DashboardItem</text><line style="stroke:#666666;stroke-width:0.5;" x1="782" x2="880" y1="990.7969" y2="990.7969"/><text fill="#000000" font-family="sans-serif" font-size="11" lengthAdjust="spacing" textLength="61" x="787" y="1006.2158">+item_id : str</text><text fill="#000000" font-family="sans-serif" font-size="11" lengthAdjust="spacing" textLength="74" x="787" y="1020.0518">+item_type : str</text><text fill="#000000" font-family="sans-serif" font-size="11" lengthAdjust="spacing" textLength="69" x="787" y="1033.8877">+position : dict</text><text fill="#000000" font-family="sans-serif" font-size="11" lengthAdjust="spacing" textLength="62" x="787" y="1047.7236">+config : dict</text><line style="stroke:#666666;stroke-width:0.5;" x1="782" x2="880" y1="1054.1406" y2="1054.1406"/></g><!--link Init to DashApp--><g id="link_Init_DashApp"><path codeLine="63" d="M224.75,163.215 C224.75,181.615 224.75,197.535 224.75,216.905 " fill="none" id="Init-to-DashApp" style="stroke:#4A90E2;stroke-width:1.0;stroke-dasharray:7.0,7.0;"/><polygon fill="#4A90E2" points="224.75,222.905,228.75,213.905,224.75,217.905,220.75,213.905,224.75,222.905" style="stroke:#4A90E2;stroke-width:1.0;"/><text fill="#000000" font-family="sans-serif" font-size="11" lengthAdjust="spacing" textLength="37" x="186.75" y="190.4739">creates</text></g><!--link Init to CallbackManager--><g id="link_Init_CallbackManager"><path codeLine="64" d="M297.75,163.355 C297.75,248.835 297.75,439.125 297.75,439.125 C297.75,439.125 304.76,439.125 322.28,439.125 " fill="none" id="Init-to-CallbackManager" style="stroke:#4A90E2;stroke-width:1.0;stroke-dasharray:7.0,7.0;"/><polygon fill="#4A90E2" points="328.28,439.125,319.28,435.125,323.28,439.125,319.28,443.125,328.28,439.125" style="stroke:#4A90E2;stroke-width:1.0;"/><text fill="#000000" font-family="sans-serif" font-size="11" lengthAdjust="spacing" textLength="52" x="298.75" y="328.9239">configures</text></g><!--reverse link BaseGraph to BarChart--><g id="link_BaseGraph_BarChart"><path codeLine="116" d="M1697.55,654.125 C1759.44,654.125 1809,654.125 1809,654.125 C1809,654.125 1809,729.205 1809,781.705 " fill="none" id="BaseGraph-backto-BarChart" style="stroke:#4A90E2;stroke-width:1.0;"/><polygon fill="none" points="1679.55,654.125,1697.55,660.125,1697.55,648.125,1679.55,654.125" style="stroke:#4A90E2;stroke-width:1.0;"/></g><!--reverse link BaseGraph to PieChart--><g id="link_BaseGraph_PieChart"><path codeLine="117" d="M1697.53,612.125 C1833.44,612.125 2041,612.125 2041,612.125 C2041,612.125 2041,717.355 2041,782.095 " fill="none" id="BaseGraph-backto-PieChart" style="stroke:#4A90E2;stroke-width:1.0;"/><polygon fill="none" points="1679.53,612.125,1697.53,618.125,1697.53,606.125,1679.53,612.125" style="stroke:#4A90E2;stroke-width:1.0;"/></g><!--reverse link BaseGraph to TimeSeriesChart--><g id="link_BaseGraph_TimeSeriesChart"><path codeLine="118" d="M1577,714.135 C1577,741.895 1577,755.965 1577,781.935 " fill="none" id="BaseGraph-backto-TimeSeriesChart" style="stroke:#4A90E2;stroke-width:1.0;"/><polygon fill="none" points="1577,696.135,1571,714.135,1583,714.135,1577,696.135" style="stroke:#4A90E2;stroke-width:1.0;"/></g><!--reverse link BaseFilter to DateRangeFilter--><g id="link_BaseFilter_DateRangeFilter"><path codeLine="145" d="M2313,714.135 C2313,741.895 2313,755.965 2313,781.935 " fill="none" id="BaseFilter-backto-DateRangeFilter" style="stroke:#4A90E2;stroke-width:1.0;"/><polygon fill="none" points="2313,696.135,2307,714.135,2319,714.135,2313,696.135" style="stroke:#4A90E2;stroke-width:1.0;"/></g><!--reverse link BaseFilter to SchemeFilter--><g id="link_BaseFilter_SchemeFilter"><path codeLine="146" d="M2454.16,633.125 C2524.65,633.125 2582,633.125 2582,633.125 C2582,633.125 2582,723.255 2582,782.045 " fill="none" id="BaseFilter-backto-SchemeFilter" style="stroke:#4A90E2;stroke-width:1.0;"/><polygon fill="none" points="2436.16,633.125,2454.16,639.125,2454.16,627.125,2436.16,633.125" style="stroke:#4A90E2;stroke-width:1.0;"/></g><!--link FlaskApp to Init--><g id="link_FlaskApp_Init"><path codeLine="201" d="M147.28,123.125 C158.69,123.125 164.66,123.125 176.24,123.125 " fill="none" id="FlaskApp-to-Init" style="stroke:#4A90E2;stroke-width:1.0;"/><polygon fill="#4A90E2" points="182.24,123.125,173.24,119.125,177.24,123.125,173.24,127.125,182.24,123.125" style="stroke:#4A90E2;stroke-width:1.0;"/><text fill="#000000" font-family="sans-serif" font-size="11" lengthAdjust="spacing" textLength="43" x="143.26" y="135.5439">initializes</text></g><!--reverse link DashApp to DashboardLayoutManager--><g id="link_DashApp_DashboardLayoutManager"><path codeLine="203" d="M211,334.435 C211,355.445 211,367.845 211,388.855 " fill="none" id="DashApp-backto-DashboardLayoutManager" style="stroke:#4A90E2;stroke-width:1.0;"/><polygon fill="#4A90E2" points="211,322.435,207,328.435,211,334.435,215,328.435,211,322.435" style="stroke:#4A90E2;stroke-width:1.0;"/><text fill="#000000" font-family="sans-serif" font-size="11" lengthAdjust="spacing" textLength="41" x="169" y="353.0639">contains</text></g><!--reverse link DashApp to CallbackManager--><g id="link_DashApp_CallbackManager"><path codeLine="204" d="M279.17,307.125 C332.72,307.125 393.25,307.125 393.25,307.125 C393.25,307.125 393.25,351.675 393.25,388.915 " fill="none" id="DashApp-backto-CallbackManager" style="stroke:#4A90E2;stroke-width:1.0;"/><polygon fill="#4A90E2" points="267.17,307.125,273.17,311.125,279.17,307.125,273.17,303.125,267.17,307.125" style="stroke:#4A90E2;stroke-width:1.0;"/><text fill="#000000" font-family="sans-serif" font-size="11" lengthAdjust="spacing" textLength="41" x="329.1" y="304.5439">contains</text></g><!--link DashboardLayoutManager to GraphRegistry--><g id="link_DashboardLayoutManager_GraphRegistry"><path codeLine="206" d="M284.67,376.945 C284.67,376.945 804.59,386.125 1021.33,386.125 " fill="none" id="DashboardLayoutManager-GraphRegistry" style="stroke:#4A90E2;stroke-width:1.0;stroke-dasharray:7.0,7.0;"/><polygon fill="none" points="284.67,388.945,288.67,382.945,284.67,376.945,280.67,382.945,284.67,388.945" style="stroke:#4A90E2;stroke-width:1.0;"/><polygon fill="#4A90E2" points="1027.33,386.125,1018.33,382.125,1022.33,386.125,1018.33,390.125,1027.33,386.125" style="stroke:#4A90E2;stroke-width:1.0;"/><text fill="#000000" font-family="sans-serif" font-size="11" lengthAdjust="spacing" textLength="36" x="617.58" y="383.5439">queries</text></g><!--link DashboardLayoutManager to FilterRegistry--><g id="link_DashboardLayoutManager_FilterRegistry"><path codeLine="207" d="M275.83,377.055 C275.83,357.735 275.83,352.125 275.83,352.125 C275.83,352.125 1334,352.125 1334,352.125 C1334,352.125 1334,359.585 1334,375.895 " fill="none" id="DashboardLayoutManager-FilterRegistry" style="stroke:#4A90E2;stroke-width:1.0;stroke-dasharray:7.0,7.0;"/><polygon fill="none" points="275.83,389.055,279.83,383.055,275.83,377.055,271.83,383.055,275.83,389.055" style="stroke:#4A90E2;stroke-width:1.0;"/><polygon fill="#4A90E2" points="1334,381.895,1338,372.895,1334,376.895,1330,372.895,1334,381.895" style="stroke:#4A90E2;stroke-width:1.0;"/><text fill="#000000" font-family="sans-serif" font-size="11" lengthAdjust="spacing" textLength="36" x="764.33" y="349.5439">queries</text></g><!--link DashboardLayoutManager to DashboardStore--><g id="link_DashboardLayoutManager_DashboardStore"><path codeLine="208" d="M238.5,500.455 C238.5,546.605 238.5,596.125 238.5,596.125 C238.5,596.125 432.05,596.125 562.23,596.125 " fill="none" id="DashboardLayoutManager-DashboardStore" style="stroke:#4A90E2;stroke-width:1.0;"/><polygon fill="none" points="238.5,488.455,234.5,494.455,238.5,500.455,242.5,494.455,238.5,488.455" style="stroke:#4A90E2;stroke-width:1.0;"/><polygon fill="#4A90E2" points="568.23,596.125,559.23,592.125,563.23,596.125,559.23,600.125,568.23,596.125" style="stroke:#4A90E2;stroke-width:1.0;"/><text fill="#000000" font-family="sans-serif" font-size="11" lengthAdjust="spacing" textLength="53" x="295.53" y="593.5439">loads state</text></g><!--link CallbackManager to ActiveFilterState--><g id="link_CallbackManager_ActiveFilterState"><path codeLine="210" d="M407.7,500.295 C407.7,539.315 407.7,575.125 407.7,575.125 C407.7,575.125 673.31,575.125 816.28,575.125 " fill="none" id="CallbackManager-ActiveFilterState" style="stroke:#4A90E2;stroke-width:1.0;"/><polygon fill="none" points="407.7,488.295,403.7,494.295,407.7,500.295,411.7,494.295,407.7,488.295" style="stroke:#4A90E2;stroke-width:1.0;"/><polygon fill="#4A90E2" points="822.28,575.125,813.28,571.125,817.28,575.125,813.28,579.125,822.28,575.125" style="stroke:#4A90E2;stroke-width:1.0;"/><text fill="#000000" font-family="sans-serif" font-size="11" lengthAdjust="spacing" textLength="85" x="485.57" y="572.5439">manages session</text></g><!--link CallbackManager to DataService--><g id="link_CallbackManager_DataService"><path codeLine="211" d="M523.6,439.125 C687.55,439.125 1002.17,439.125 1002.17,439.125 C1002.17,439.125 1002.17,612.125 1002.17,612.125 C1002.17,612.125 1007.08,612.125 1022.43,612.125 " fill="none" id="CallbackManager-DataService" style="stroke:#4A90E2;stroke-width:1.0;"/><polygon fill="none" points="511.6,439.125,517.6,443.125,523.6,439.125,517.6,435.125,511.6,439.125" style="stroke:#4A90E2;stroke-width:1.0;"/><polygon fill="#4A90E2" points="1028.43,612.125,1019.43,608.125,1023.43,612.125,1019.43,616.125,1028.43,612.125" style="stroke:#4A90E2;stroke-width:1.0;"/><text fill="#000000" font-family="sans-serif" font-size="11" lengthAdjust="spacing" textLength="61" x="794.52" y="436.5439">fetches data</text></g><!--link CallbackManager to BaseGraph--><g id="link_CallbackManager_BaseGraph"><path codeLine="212" d="M440.3,500.135 C440.3,527.945 440.3,545.125 440.3,545.125 C440.3,545.125 1579,545.125 1579,545.125 C1579,545.125 1579,549.465 1579,563.035 " fill="none" id="CallbackManager-BaseGraph" style="stroke:#4A90E2;stroke-width:1.0;stroke-dasharray:7.0,7.0;"/><polygon fill="none" points="440.3,488.135,436.3,494.135,440.3,500.135,444.3,494.135,440.3,488.135" style="stroke:#4A90E2;stroke-width:1.0;"/><polygon fill="#4A90E2" points="1579,569.035,1583,560.035,1579,564.035,1575,560.035,1579,569.035" style="stroke:#4A90E2;stroke-width:1.0;"/><text fill="#000000" font-family="sans-serif" font-size="11" lengthAdjust="spacing" textLength="72" x="920.11" y="557.5439">triggers render</text></g><!--link CallbackManager to BaseFilter--><g id="link_CallbackManager_BaseFilter"><path codeLine="213" d="M472.9,500.385 C472.9,517.345 472.9,520.125 472.9,520.125 C472.9,520.125 2276,520.125 2276,520.125 C2276,520.125 2276,537.425 2276,562.815 " fill="none" id="CallbackManager-BaseFilter" style="stroke:#4A90E2;stroke-width:1.0;stroke-dasharray:7.0,7.0;"/><polygon fill="none" points="472.9,488.385,468.9,494.385,472.9,500.385,476.9,494.385,472.9,488.385" style="stroke:#4A90E2;stroke-width:1.0;"/><polygon fill="#4A90E2" points="2276,568.815,2280,559.815,2276,563.815,2272,559.815,2276,568.815" style="stroke:#4A90E2;stroke-width:1.0;"/><text fill="#000000" font-family="sans-serif" font-size="11" lengthAdjust="spacing" textLength="64" x="1317.92" y="517.5439">applies filters</text></g><!--reverse link GraphRegistry to BaseGraph--><g id="link_GraphRegistry_BaseGraph"><path codeLine="215" d="M1222.77,439.125 C1236.82,439.125 1234.75,439.125 1234.75,439.125 C1234.75,439.125 1234.75,588.125 1234.75,588.125 C1234.75,588.125 1376.46,588.125 1478.04,588.125 " fill="none" id="GraphRegistry-backto-BaseGraph" style="stroke:#4A90E2;stroke-width:1.0;"/><polygon fill="none" points="1210.77,439.125,1216.77,443.125,1222.77,439.125,1216.77,435.125,1210.77,439.125" style="stroke:#4A90E2;stroke-width:1.0;"/><text fill="#000000" font-family="sans-serif" font-size="11" lengthAdjust="spacing" textLength="43" x="1225.9" y="585.5439">registers</text><text fill="#000000" font-family="sans-serif" font-size="11" lengthAdjust="spacing" textLength="16" x="1454.3787" y="582.9868">1..*</text></g><!--reverse link FilterRegistry to BaseFilter--><g id="link_FilterRegistry_BaseFilter"><path codeLine="216" d="M1434.02,439.125 C1681.92,439.125 2356,439.125 2356,439.125 C2356,439.125 2356,512.605 2356,568.995 " fill="none" id="FilterRegistry-backto-BaseFilter" style="stroke:#4A90E2;stroke-width:1.0;"/><polygon fill="none" points="1422.02,439.125,1428.02,443.125,1434.02,439.125,1428.02,435.125,1422.02,439.125" style="stroke:#4A90E2;stroke-width:1.0;"/><text fill="#000000" font-family="sans-serif" font-size="11" lengthAdjust="spacing" textLength="43" x="1909.95" y="436.5439">registers</text><text fill="#000000" font-family="sans-serif" font-size="11" lengthAdjust="spacing" textLength="16" x="2343.9" y="558.9168">1..*</text></g><!--link DataService to DataFrame--><g id="link_DataService_DataFrame"><path codeLine="218" d="M1028.32,653.125 C1017.81,653.125 1010.83,653.125 1010.83,653.125 C1010.83,653.125 1010.83,712.355 1010.83,763.945 " fill="none" id="DataService-to-DataFrame" style="stroke:#4A90E2;stroke-width:1.0;"/><polygon fill="#4A90E2" points="1010.83,769.945,1014.83,760.945,1010.83,764.945,1006.83,760.945,1010.83,769.945" style="stroke:#4A90E2;stroke-width:1.0;"/><text fill="#000000" font-family="sans-serif" font-size="11" lengthAdjust="spacing" textLength="42" x="967.83" y="715.2039">provides</text></g><!--link DashboardStore to Dashboard--><g id="link_DashboardStore_Dashboard"><path codeLine="219" d="M779,687.265 C779,715.225 779,743.165 779,771.105 " fill="none" id="DashboardStore-to-Dashboard" style="stroke:#4A90E2;stroke-width:1.0;"/><polygon fill="#4A90E2" points="779,777.105,783,768.105,779,772.105,775,768.105,779,777.105" style="stroke:#4A90E2;stroke-width:1.0;"/><text fill="#000000" font-family="sans-serif" font-size="11" lengthAdjust="spacing" textLength="31" x="747" y="729.6039">stores</text></g><!--reverse link Dashboard to DashboardItem--><g id="link_Dashboard_DashboardItem"><path codeLine="220" d="M831,898.345 C831,919.535 831,931.745 831,952.935 " fill="none" id="Dashboard-backto-DashboardItem" style="stroke:#4A90E2;stroke-width:1.0;"/><polygon fill="#4A90E2" points="831,886.345,827,892.345,831,898.345,835,892.345,831,886.345" style="stroke:#4A90E2;stroke-width:1.0;"/><text fill="#000000" font-family="sans-serif" font-size="11" lengthAdjust="spacing" textLength="41" x="789" y="917.0639">contains</text><text fill="#000000" font-family="sans-serif" font-size="11" lengthAdjust="spacing" textLength="16" x="813.875" y="942.8068">1..*</text></g><!--SRC=[lLXHRzis47xNho1IO7MwncYRfckD883ZH4E01WkQxgaf15gYPQ8qgPAq4w_BVzyTASka92VPi4r5waGy7ky-tdrtv-Ta8XYLnDYruB8aCwN9WjxnnN91BBkpPCKDdtB1xJentxYigAOBCgNvjrAhfImcIi2EspctB5ZF1JLcRAtcqwLb5xcIr_mFHbu58d0Qi-kA4QNjN0KB5UYc9Ri6WnZHBBTKbe8boNDdgNu9xsX1fx2Ouzcck_LKwO9fRzcpG_Vq2BLSU9Q-Jp-auxOJaQvtxkc8F086rLhTrXhUZZ-yEdyJB4fbUqn9qyF9MLigj2HDpyVZNn2KL4bB3BCMRiyGLLc-0AWBTv6zTrUm6LqAY_lSfRn-tNQeVwd6RRiOkc6v5S7IkpwLtlIf03tzQclVtamEpuzUzIcF1HBt7dpF3tAchHagNP8pQkPJHNL1nZh7YyZjKaFqrCUGlN5L2PvJovKa4wNPdWFpxUaH-P4GU9ovP2-5Zsy4XCdW_8uRH7T_Zr13t0A-z-Bu_4pqKWxsmxyLX7qsfx8G328KNzudWNgqigt3CBrYcepy2S62e6jG1mjpkn33CxuArhZaDgDLDO2VUkT-R5VczTRctRl_CPo8vkNS4ZLhZ1cH2PDMK-7Ua02e6taXBIirjSoGMsxd_gJQvBPZ3lwFpkXBAW5q7VcPgqMb99nauCIF0EsNoURDrq1i2SgpIhCPqqpc38KBdjj0OhhaeiWyEWCdpelzVfX0ZMPclX7kO35Lrgh51emU1y1IVmk_GLGn0oXPfM_aAPfWoEyNPAPXlsOb-0C65u6N8JmJAWHoPoykzLgFfyRI89owwvjpiqQ7ZuVwPiE8y4eo3lUfQOwNEs0hCFC1IDf6ZyWvxe3i0KRYqYFX5mrf5Az01PlJ5LTHWEovY2qsA0zyKbt0It9yF5jAPzB9IOJCL2cBa5VP5jKetO3-bbM6IGTf-a2aksD6v7IZZwJrWHZWt78gWBqCQQmZPWsmBhpzRlDmU1BaImwb258YNkx21ULlnakW8PFS1qpKX3tvvEvFSsQ0ZSxVfOTf6h7Hhs3hl1PQnyJJH5nMeX06nna4nnUGV4a-GtqDSsh1B9HEIoCXf_mILhxsw1tamW1Wr30d5e9UCklF760P7q6GQio-HZPaCD2LqHNb0klsO7-J-B3bQvSSKoxWvCVSdJcfX_qjMCLa0VJ1MIo8fp_ihZUYxQy_jEkmbsu9Ox02VOB76sDxFGz3mW57ci1muV0-FJf_NwD0fnYtkQsHQh2EGF9bqTaNqIu6OPSxC1uopRulkMQBa9KR4_7viJdvtg45eEe1xaIEiJI5AitGjoBFX_7bHnizAcX7Lb79n607NQyW4GkaF3nYKCnQfm0VY237Wz0vfNeofzf6U2X8B6bznU-Y0Xr5Pe3J5rt8_ewVJt6kO-uLPrrppLpTGg6QCc52NslwLX1D1dki4Pa9HUt_QUvdlc3N36cgQxMxBa1pkUY2JCiI4gp_0lvzezr74mW7o-hWpvCMApMujrThTzkETfI4EUjpFqxQz1MmUBexQUiz8O2IzaIWvutCpKdjjHQvFIrdNIVXEQ0tzw8zq4E8TPn-BqbBGxFIkYNVihZ4ekwM6jhfX1MeO9zWoEj3PS4baW1wZn_X2htRiV94L_-9VntRhnrpz1ZULBkQNFgl2Do0KOn3ZovWKEcc-t_gYljeWn-4Ub3K8ZUx8c4wu2da9t85vGvBAhJks3epxUQiT3mvYpeRb8PCMt4GYvjXEB5Rh23t9NCTMrO1KY1m5GFc229tTME6hWuUYj4PhymJH3V3WxDfqDyIG4FYQbLTw7T5JdlmsZhlvSauXr77UCHkP3sFkNdUzMqBrrDYcRwHRWx3Tbi8Nc8NYVP1_zixZbr3aywWmxvKibHdfwq66tXRU5Xn26p-Q7cwRTg3OQiv8QnWTCK2wUQtGBgDOdlQ2uy8c2DmRUnc31-0rnZeuDqdLd3JyatZkomNs0E0CYSIDaiMemXWxEElWO7Bm61h6L9Fg9KhUct9Ekz23tFyuYghHKAbFIsW2uDBLK3vnvGvmd-rG-01j-jjO877Lp3EKTEzJYZ3o3WNG1ztOSt0Ie8BlhfrAaqStJ1GLTDrzAxYAsKpwzluDYKszct6f-FZCvKlCLnR5jQtswbfVZxFTlMgVjugCcfhrhSyobH_8tth3rXv0HFURaivhFPPwjxtrkLA6LwdKfUzMcwvgtyEGIbSTsJcm4X9ymtJWMEAWvFDtCgtCsgIRARG5mU5kfK7kx-uW5CjvT9qTlGEgbuqsQ5D3Pr9CEN68-c8V5_wY7fqOskwUtodj_QapMKZ0krlONoo9KdRcMPRboT6DOt2Nf-9kpV733rZ5h_ySLJStTDukEqcHmI6-hB4CTLNyaTsrGLsvCevjdLrEKcI6ExQFhBtUZXyiHSTk9ba8OnYe7lsDCTjDoMXno4Add16fD9gnOlmklnrT6x9vONIeMGJURKDSGe6uVSN]--></g></svg>