<?xml version="1.0" encoding="UTF-8" standalone="no"?>
<svg
   xmlns:dc="http://purl.org/dc/elements/1.1/"
   xmlns:cc="http://creativecommons.org/ns#"
   xmlns:rdf="http://www.w3.org/1999/02/22-rdf-syntax-ns#"
   xmlns:svg="http://www.w3.org/2000/svg"
   xmlns="http://www.w3.org/2000/svg"
   xmlns:sodipodi="http://sodipodi.sourceforge.net/DTD/sodipodi-0.dtd"
   xmlns:inkscape="http://www.inkscape.org/namespaces/inkscape"
   width="188.78629mm"
   height="68.240051mm"
   viewBox="0 0 188.78628 68.240052"
   version="1.1"
   id="svg8"
   sodipodi:docname="logo.svg"
   inkscape:version="1.0.1 (3bc2e813f5, 2020-09-07)">
  <sodipodi:namedview
     pagecolor="#ffffff"
     bordercolor="#666666"
     borderopacity="1"
     objecttolerance="10"
     gridtolerance="10"
     guidetolerance="10"
     inkscape:pageopacity="0"
     inkscape:pageshadow="2"
     inkscape:window-width="1920"
     inkscape:window-height="1020"
     id="namedview12"
     showgrid="false"
     inkscape:zoom="1.3299324"
     inkscape:cx="263.71214"
     inkscape:cy="150.84456"
     inkscape:window-x="0"
     inkscape:window-y="0"
     inkscape:window-maximized="1"
     inkscape:current-layer="layer1"
     inkscape:document-rotation="0" />
  <defs
     id="defs2" />
  <metadata
     id="metadata5">
    <rdf:RDF>
      <cc:Work
         rdf:about="">
        <dc:format>image/svg+xml</dc:format>
        <dc:type
           rdf:resource="http://purl.org/dc/dcmitype/StillImage" />
        <dc:title />
      </cc:Work>
    </rdf:RDF>
  </metadata>
  <g
     id="layer1"
     transform="translate(-24.826912,-135.56049)">
    <path
       id="rect903"
       style="opacity:0.998;fill:#000000;stroke:none;stroke-width:4.90715;stroke-linecap:square;paint-order:markers stroke fill"
       d="M 176.80859 77.863281 L 176.80859 181.24609 L 669.28906 181.24609 L 627.54688 129.48242 L 669.43164 77.863281 L 176.80859 77.863281 z "
       transform="matrix(0.26458333,0,0,0.26458333,24.826912,135.56049)" />
    <circle
       style="opacity:0.998;fill:#000000;stroke-width:0.81783;stroke-linecap:square;paint-order:markers stroke fill"
       id="path833-3"
       cx="59.321445"
       cy="169.68051"
       r="24.120024" />
    <path
       style="opacity:0.998;fill:#ffffff;stroke-width:1.70221;stroke-linecap:square;paint-order:markers stroke fill"
       id="path835-6"
       d="m 116.79591,120.92807 -9.93587,24.04724 -12.288555,-22.93431 -24.9958,7.22504 10.268973,-23.90689 -21.233385,-15.037769 25.093756,-6.877093 -1.481798,-25.976824 21.022429,15.331291 19.38561,-17.354802 1.12079,25.994901 25.65526,4.33574 -19.62484,17.083816 12.60598,22.76139 z"
       transform="matrix(-0.02807995,0.52181971,-0.52181971,-0.02807995,113.47851,118.0225)" />
    <g
       aria-label="seccerts"
       id="text877-7"
       style="fill:#ffffff;stroke-width:0.264583">
      <path
         d="m 95.289058,177.27479 c 2.7178,0 4.800602,-1.5494 4.800602,-3.9624 0,-2.4892 -2.184402,-3.2004 -4.292602,-3.8608 -2.4384,-0.7874 -3.4036,-1.143 -3.4036,-2.286 0,-1.27 1.2192,-1.9304 2.6924,-1.9304 1.1684,0 2.4638,0.4064 3.7846,1.2446 l 0.9144,-1.4732 c -1.397,-0.9144 -3.0734,-1.4732 -4.699,-1.4732 -2.6162,0 -4.5974,1.4732 -4.5974,3.8608 0,1.8796 1.2192,2.8194 4.3942,3.7338 1.778,0.508 3.302,0.9652 3.302,2.3876 0,1.2446 -1.1684,2.0574 -2.8956,2.0574 -1.4478,0 -2.9464,-0.5588 -4.445,-1.651 l -0.9906,1.397 c 1.5748,1.27 3.6068,1.9558 5.4356,1.9558 z"
         id="path849" />
      <path
         d="m 108.09058,175.57299 c -2.5908,0 -4.3942,-1.8796 -4.6736,-4.445 h 10.7442 c 0,-4.5974 -2.2606,-7.5946 -6.223,-7.5946 -3.5306,0 -6.477,2.921 -6.477,6.8326 0,4.0386 3.1496,6.9088 6.6548,6.9088 1.8288,0 4.1402,-0.7874 5.2832,-2.032 l -1.1684,-1.2446 c -0.8128,0.889 -2.5908,1.5748 -4.1402,1.5748 z m -0.0762,-10.3378 c 2.6162,0 4.0132,1.8288 4.2672,4.191 h -8.8392 c 0.3556,-2.54 2.2352,-4.191 4.572,-4.191 z"
         id="path851" />
      <path
         d="m 122.67015,177.27479 c 1.8288,0 3.5052,-0.762 4.7498,-2.0066 l -1.3208,-1.2954 c -0.889,0.9906 -2.1082,1.6002 -3.429,1.6002 -2.6162,0 -4.8006,-2.3622 -4.8006,-5.1816 0,-2.794 2.1844,-5.1562 4.8006,-5.1562 1.2954,0 2.4892,0.5842 3.3528,1.524 l 1.3208,-1.2954 c -1.2446,-1.1938 -2.8956,-1.9304 -4.6736,-1.9304 -3.683,0 -6.8072,3.1242 -6.8072,6.858 0,3.7338 3.1242,6.8834 6.8072,6.8834 z"
         id="path853" />
      <path
         d="m 135.85273,177.27479 c 1.8288,0 3.5052,-0.762 4.7498,-2.0066 l -1.3208,-1.2954 c -0.889,0.9906 -2.1082,1.6002 -3.429,1.6002 -2.6162,0 -4.8006,-2.3622 -4.8006,-5.1816 0,-2.794 2.1844,-5.1562 4.8006,-5.1562 1.2954,0 2.4892,0.5842 3.3528,1.524 l 1.3208,-1.2954 c -1.2446,-1.1938 -2.8956,-1.9304 -4.6736,-1.9304 -3.683,0 -6.8072,3.1242 -6.8072,6.858 0,3.7338 3.1242,6.8834 6.8072,6.8834 z"
         id="path855" />
      <path
         d="m 148.88291,175.57299 c -2.5908,0 -4.3942,-1.8796 -4.6736,-4.445 h 10.7442 c 0,-4.5974 -2.2606,-7.5946 -6.223,-7.5946 -3.5306,0 -6.477,2.921 -6.477,6.8326 0,4.0386 3.1496,6.9088 6.6548,6.9088 1.8288,0 4.1402,-0.7874 5.2832,-2.032 l -1.1684,-1.2446 c -0.8128,0.889 -2.5908,1.5748 -4.1402,1.5748 z m -0.0762,-10.3378 c 2.6162,0 4.0132,1.8288 4.2672,4.191 h -8.8392 c 0.3556,-2.54 2.2352,-4.191 4.572,-4.191 z"
         id="path857" />
      <path
         d="m 159.11908,166.40359 v -2.5654 h -1.905 v 13.1318 h 1.905 v -7.3406 c 0,-2.5654 2.1082,-4.3942 5.08,-4.3942 v -1.7018 c -2.413,0 -4.2926,1.1176 -5.08,2.8702 z"
         id="path859" />
      <path
         d="m 172.47947,175.03959 c -0.2794,0.3048 -0.7874,0.5334 -1.3716,0.5334 -0.762,0 -1.4224,-0.6858 -1.4224,-1.651 v -8.382 h 3.2258 v -1.7018 h -3.2258 v -3.6068 h -1.905 v 3.6068 h -2.0574 v 1.7018 h 2.0574 v 8.382 c 0,1.9558 1.3208,3.3528 3.2004,3.3528 0.889,0 1.7526,-0.3048 2.4384,-0.8382 z"
         id="path861" />
      <path
         d="m 179.82004,177.27479 c 2.7178,0 4.8006,-1.5494 4.8006,-3.9624 0,-2.4892 -2.1844,-3.2004 -4.2926,-3.8608 -2.4384,-0.7874 -3.4036,-1.143 -3.4036,-2.286 0,-1.27 1.2192,-1.9304 2.6924,-1.9304 1.1684,0 2.4638,0.4064 3.7846,1.2446 l 0.9144,-1.4732 c -1.397,-0.9144 -3.0734,-1.4732 -4.699,-1.4732 -2.6162,0 -4.5974,1.4732 -4.5974,3.8608 0,1.8796 1.2192,2.8194 4.3942,3.7338 1.778,0.508 3.302,0.9652 3.302,2.3876 0,1.2446 -1.1684,2.0574 -2.8956,2.0574 -1.4478,0 -2.9464,-0.5588 -4.445,-1.651 l -0.9906,1.397 c 1.5748,1.27 3.6068,1.9558 5.4356,1.9558 z"
         id="path863" />
    </g>
  </g>
</svg>
