<?xml version="1.0" encoding="UTF-8" standalone="no"?>
<!-- Created with Inkscape (http://www.inkscape.org/) -->

<svg
   version="1.1"
   id="svg1"
   width="386.38333"
   height="287.02249"
   viewBox="0 0 386.38333 287.02249"
   xmlns="http://www.w3.org/2000/svg"
   xmlns:svg="http://www.w3.org/2000/svg">
  <defs
     id="defs1">
    <clipPath
       clipPathUnits="userSpaceOnUse"
       id="clipPath19">
      <path
         d="m 47.1375,41.746875 h 223.2 V 208.06688 h -223.2 z"
         id="path19" />
    </clipPath>
    <clipPath
       clipPathUnits="userSpaceOnUse"
       id="clipPath20">
      <path
         d="M -6.75,-6.75 H 6.75 V 6.75 H -6.75 Z"
         id="path20" />
    </clipPath>
    <clipPath
       clipPathUnits="userSpaceOnUse"
       id="clipPath22">
      <path
         d="m 47.1375,41.746875 h 223.2 V 208.06688 h -223.2 z"
         transform="matrix(1.3333333,0,0,-1.3333333,0,287.0225)"
         id="path22" />
    </clipPath>
    <clipPath
       clipPathUnits="userSpaceOnUse"
       id="clipPath23">
      <path
         d="M -6.75,-6.75 H 6.75 V 6.75 H -6.75 Z"
         id="path23" />
    </clipPath>
    <clipPath
       clipPathUnits="userSpaceOnUse"
       id="clipPath25">
      <path
         d="m 47.1375,41.746875 h 223.2 V 208.06688 h -223.2 z"
         transform="matrix(1.3333333,0,0,-1.3333333,0,287.0225)"
         id="path25" />
    </clipPath>
    <clipPath
       clipPathUnits="userSpaceOnUse"
       id="clipPath26">
      <path
         d="M -6.75,-6.75 H 6.75 V 6.75 H -6.75 Z"
         id="path26" />
    </clipPath>
    <clipPath
       clipPathUnits="userSpaceOnUse"
       id="clipPath28">
      <path
         d="m 47.1375,41.746875 h 223.2 V 208.06688 h -223.2 z"
         transform="matrix(1.3333333,0,0,-1.3333333,0,287.0225)"
         id="path28" />
    </clipPath>
    <clipPath
       clipPathUnits="userSpaceOnUse"
       id="clipPath29">
      <path
         d="M -6.75,-6.75 H 6.75 V 6.75 H -6.75 Z"
         id="path29" />
    </clipPath>
    <clipPath
       clipPathUnits="userSpaceOnUse"
       id="clipPath31">
      <path
         d="m 47.1375,41.746875 h 223.2 V 208.06688 h -223.2 z"
         transform="matrix(1.3333333,0,0,-1.3333333,0,287.0225)"
         id="path31" />
    </clipPath>
    <clipPath
       clipPathUnits="userSpaceOnUse"
       id="clipPath32">
      <path
         d="M -6.75,-6.75 H 6.75 V 6.75 H -6.75 Z"
         id="path32" />
    </clipPath>
    <clipPath
       clipPathUnits="userSpaceOnUse"
       id="clipPath34">
      <path
         d="m 47.1375,41.746875 h 223.2 V 208.06688 h -223.2 z"
         transform="matrix(1.3333333,0,0,-1.3333333,0,287.0225)"
         id="path34" />
    </clipPath>
    <clipPath
       clipPathUnits="userSpaceOnUse"
       id="clipPath35">
      <path
         d="M -6.75,-6.75 H 6.75 V 6.75 H -6.75 Z"
         id="path35" />
    </clipPath>
    <clipPath
       clipPathUnits="userSpaceOnUse"
       id="clipPath37">
      <path
         d="m 47.1375,41.746875 h 223.2 V 208.06688 h -223.2 z"
         transform="matrix(1.3333333,0,0,-1.3333333,0,287.0225)"
         id="path37" />
    </clipPath>
    <clipPath
       clipPathUnits="userSpaceOnUse"
       id="clipPath38">
      <path
         d="M -6.75,-6.75 H 6.75 V 6.75 H -6.75 Z"
         id="path38" />
    </clipPath>
    <clipPath
       clipPathUnits="userSpaceOnUse"
       id="clipPath40">
      <path
         d="m 47.1375,41.746875 h 223.2 V 208.06688 h -223.2 z"
         transform="matrix(1.3333333,0,0,-1.3333333,0,287.0225)"
         id="path40" />
    </clipPath>
    <clipPath
       clipPathUnits="userSpaceOnUse"
       id="clipPath41">
      <path
         d="M -6.75,-6.75 H 6.75 V 6.75 H -6.75 Z"
         id="path41" />
    </clipPath>
    <clipPath
       clipPathUnits="userSpaceOnUse"
       id="clipPath43">
      <path
         d="m 47.1375,41.746875 h 223.2 V 208.06688 h -223.2 z"
         transform="matrix(1.3333333,0,0,-1.3333333,0,287.0225)"
         id="path43" />
    </clipPath>
    <clipPath
       clipPathUnits="userSpaceOnUse"
       id="clipPath44">
      <path
         d="M -6.75,-6.75 H 6.75 V 6.75 H -6.75 Z"
         id="path44" />
    </clipPath>
    <clipPath
       clipPathUnits="userSpaceOnUse"
       id="clipPath46">
      <path
         d="m 47.1375,41.746875 h 223.2 V 208.06688 h -223.2 z"
         transform="matrix(1.3333333,0,0,-1.3333333,0,287.0225)"
         id="path46" />
    </clipPath>
    <clipPath
       clipPathUnits="userSpaceOnUse"
       id="clipPath47">
      <path
         d="M -6.75,-6.75 H 6.75 V 6.75 H -6.75 Z"
         id="path47" />
    </clipPath>
    <clipPath
       clipPathUnits="userSpaceOnUse"
       id="clipPath49">
      <path
         d="m 47.1375,41.746875 h 223.2 V 208.06688 h -223.2 z"
         transform="matrix(1.3333333,0,0,-1.3333333,0,287.0225)"
         id="path49" />
    </clipPath>
    <clipPath
       clipPathUnits="userSpaceOnUse"
       id="clipPath50">
      <path
         d="M -6.75,-6.75 H 6.75 V 6.75 H -6.75 Z"
         id="path50" />
    </clipPath>
    <clipPath
       clipPathUnits="userSpaceOnUse"
       id="clipPath52">
      <path
         d="m 47.1375,41.746875 h 223.2 V 208.06688 h -223.2 z"
         transform="matrix(1.3333333,0,0,-1.3333333,0,287.0225)"
         id="path52" />
    </clipPath>
    <clipPath
       clipPathUnits="userSpaceOnUse"
       id="clipPath53">
      <path
         d="M -6.75,-6.75 H 6.75 V 6.75 H -6.75 Z"
         id="path53" />
    </clipPath>
    <clipPath
       clipPathUnits="userSpaceOnUse"
       id="clipPath55">
      <path
         d="m 47.1375,41.746875 h 223.2 V 208.06688 h -223.2 z"
         transform="matrix(1.3333333,0,0,-1.3333333,0,287.0225)"
         id="path55" />
    </clipPath>
    <clipPath
       clipPathUnits="userSpaceOnUse"
       id="clipPath56">
      <path
         d="M -6.75,-6.75 H 6.75 V 6.75 H -6.75 Z"
         id="path56" />
    </clipPath>
    <clipPath
       clipPathUnits="userSpaceOnUse"
       id="clipPath58">
      <path
         d="m 47.1375,41.746875 h 223.2 V 208.06688 h -223.2 z"
         transform="matrix(1.3333333,0,0,-1.3333333,0,287.0225)"
         id="path58" />
    </clipPath>
    <clipPath
       clipPathUnits="userSpaceOnUse"
       id="clipPath59">
      <path
         d="M -6.75,-6.75 H 6.75 V 6.75 H -6.75 Z"
         id="path59" />
    </clipPath>
    <clipPath
       clipPathUnits="userSpaceOnUse"
       id="clipPath61">
      <path
         d="m 47.1375,41.746875 h 223.2 V 208.06688 h -223.2 z"
         transform="matrix(1.3333333,0,0,-1.3333333,0,287.0225)"
         id="path61" />
    </clipPath>
    <clipPath
       clipPathUnits="userSpaceOnUse"
       id="clipPath62">
      <path
         d="M -6.75,-6.75 H 6.75 V 6.75 H -6.75 Z"
         id="path62" />
    </clipPath>
    <clipPath
       clipPathUnits="userSpaceOnUse"
       id="clipPath64">
      <path
         d="m 47.1375,41.746875 h 223.2 V 208.06688 h -223.2 z"
         transform="matrix(1.3333333,0,0,-1.3333333,0,287.0225)"
         id="path64" />
    </clipPath>
    <clipPath
       clipPathUnits="userSpaceOnUse"
       id="clipPath65">
      <path
         d="M -6.75,-6.75 H 6.75 V 6.75 H -6.75 Z"
         id="path65" />
    </clipPath>
    <clipPath
       clipPathUnits="userSpaceOnUse"
       id="clipPath67">
      <path
         d="m 47.1375,41.746875 h 223.2 V 208.06688 h -223.2 z"
         transform="matrix(1.3333333,0,0,-1.3333333,0,287.0225)"
         id="path67" />
    </clipPath>
    <clipPath
       clipPathUnits="userSpaceOnUse"
       id="clipPath68">
      <path
         d="M -6.75,-6.75 H 6.75 V 6.75 H -6.75 Z"
         id="path68" />
    </clipPath>
    <clipPath
       clipPathUnits="userSpaceOnUse"
       id="clipPath70">
      <path
         d="m 47.1375,41.746875 h 223.2 V 208.06688 h -223.2 z"
         transform="matrix(1.3333333,0,0,-1.3333333,0,287.0225)"
         id="path70" />
    </clipPath>
    <clipPath
       clipPathUnits="userSpaceOnUse"
       id="clipPath71">
      <path
         d="M -6.75,-6.75 H 6.75 V 6.75 H -6.75 Z"
         id="path71" />
    </clipPath>
    <clipPath
       clipPathUnits="userSpaceOnUse"
       id="clipPath73">
      <path
         d="m 47.1375,41.746875 h 223.2 V 208.06688 h -223.2 z"
         transform="matrix(1.3333333,0,0,-1.3333333,0,287.0225)"
         id="path73" />
    </clipPath>
    <clipPath
       clipPathUnits="userSpaceOnUse"
       id="clipPath74">
      <path
         d="M -6.75,-6.75 H 6.75 V 6.75 H -6.75 Z"
         id="path74" />
    </clipPath>
    <clipPath
       clipPathUnits="userSpaceOnUse"
       id="clipPath76">
      <path
         d="m 47.1375,41.746875 h 223.2 V 208.06688 h -223.2 z"
         transform="matrix(1.3333333,0,0,-1.3333333,0,287.0225)"
         id="path76" />
    </clipPath>
    <clipPath
       clipPathUnits="userSpaceOnUse"
       id="clipPath77">
      <path
         d="M -6.75,-6.75 H 6.75 V 6.75 H -6.75 Z"
         id="path77" />
    </clipPath>
    <clipPath
       clipPathUnits="userSpaceOnUse"
       id="clipPath79">
      <path
         d="m 47.1375,41.746875 h 223.2 V 208.06688 h -223.2 z"
         transform="matrix(1.3333333,0,0,-1.3333333,0,287.0225)"
         id="path79" />
    </clipPath>
    <clipPath
       clipPathUnits="userSpaceOnUse"
       id="clipPath80">
      <path
         d="M -6.75,-6.75 H 6.75 V 6.75 H -6.75 Z"
         id="path80" />
    </clipPath>
    <clipPath
       clipPathUnits="userSpaceOnUse"
       id="clipPath82">
      <path
         d="m 47.1375,41.746875 h 223.2 V 208.06688 h -223.2 z"
         transform="matrix(1.3333333,0,0,-1.3333333,0,287.0225)"
         id="path82" />
    </clipPath>
    <clipPath
       clipPathUnits="userSpaceOnUse"
       id="clipPath83">
      <path
         d="M -6.75,-6.75 H 6.75 V 6.75 H -6.75 Z"
         id="path83" />
    </clipPath>
    <clipPath
       clipPathUnits="userSpaceOnUse"
       id="clipPath85">
      <path
         d="m 47.1375,41.746875 h 223.2 V 208.06688 h -223.2 z"
         transform="matrix(1.3333333,0,0,-1.3333333,0,287.0225)"
         id="path85" />
    </clipPath>
    <clipPath
       clipPathUnits="userSpaceOnUse"
       id="clipPath86">
      <path
         d="M -6.75,-6.75 H 6.75 V 6.75 H -6.75 Z"
         id="path86" />
    </clipPath>
    <clipPath
       clipPathUnits="userSpaceOnUse"
       id="clipPath88">
      <path
         d="m 47.1375,41.746875 h 223.2 V 208.06688 h -223.2 z"
         transform="matrix(1.3333333,0,0,-1.3333333,0,287.0225)"
         id="path88" />
    </clipPath>
    <clipPath
       clipPathUnits="userSpaceOnUse"
       id="clipPath89">
      <path
         d="M -6.75,-6.75 H 6.75 V 6.75 H -6.75 Z"
         id="path89" />
    </clipPath>
    <clipPath
       clipPathUnits="userSpaceOnUse"
       id="clipPath91">
      <path
         d="m 47.1375,41.746875 h 223.2 V 208.06688 h -223.2 z"
         transform="matrix(1.3333333,0,0,-1.3333333,0,287.0225)"
         id="path91" />
    </clipPath>
    <clipPath
       clipPathUnits="userSpaceOnUse"
       id="clipPath92">
      <path
         d="M -6.75,-6.75 H 6.75 V 6.75 H -6.75 Z"
         id="path92" />
    </clipPath>
    <clipPath
       clipPathUnits="userSpaceOnUse"
       id="clipPath94">
      <path
         d="m 47.1375,41.746875 h 223.2 V 208.06688 h -223.2 z"
         transform="matrix(1.3333333,0,0,-1.3333333,0,287.0225)"
         id="path94" />
    </clipPath>
    <clipPath
       clipPathUnits="userSpaceOnUse"
       id="clipPath95">
      <path
         d="M -6.75,-6.75 H 6.75 V 6.75 H -6.75 Z"
         id="path95" />
    </clipPath>
    <clipPath
       clipPathUnits="userSpaceOnUse"
       id="clipPath97">
      <path
         d="m 47.1375,41.746875 h 223.2 V 208.06688 h -223.2 z"
         transform="matrix(1.3333333,0,0,-1.3333333,0,287.0225)"
         id="path97" />
    </clipPath>
    <clipPath
       clipPathUnits="userSpaceOnUse"
       id="clipPath98">
      <path
         d="M -6.75,-6.75 H 6.75 V 6.75 H -6.75 Z"
         id="path98" />
    </clipPath>
    <clipPath
       clipPathUnits="userSpaceOnUse"
       id="clipPath100">
      <path
         d="m 47.1375,41.746875 h 223.2 V 208.06688 h -223.2 z"
         transform="matrix(1.3333333,0,0,-1.3333333,0,287.0225)"
         id="path100" />
    </clipPath>
    <clipPath
       clipPathUnits="userSpaceOnUse"
       id="clipPath101">
      <path
         d="M -6.75,-6.75 H 6.75 V 6.75 H -6.75 Z"
         id="path101" />
    </clipPath>
    <clipPath
       clipPathUnits="userSpaceOnUse"
       id="clipPath103">
      <path
         d="m 47.1375,41.746875 h 223.2 V 208.06688 h -223.2 z"
         transform="matrix(1.3333333,0,0,-1.3333333,0,287.0225)"
         id="path103" />
    </clipPath>
    <clipPath
       clipPathUnits="userSpaceOnUse"
       id="clipPath104">
      <path
         d="M -6.75,-6.75 H 6.75 V 6.75 H -6.75 Z"
         id="path104" />
    </clipPath>
    <clipPath
       clipPathUnits="userSpaceOnUse"
       id="clipPath106">
      <path
         d="m 47.1375,41.746875 h 223.2 V 208.06688 h -223.2 z"
         transform="matrix(1.3333333,0,0,-1.3333333,0,287.0225)"
         id="path106" />
    </clipPath>
  </defs>
  <g
     id="g1">
    <path
       id="path1"
       d="M 0,0 H 289.7875 V 215.26687 H 0 Z"
       style="fill:#ffffff;fill-opacity:0;fill-rule:nonzero;stroke:none"
       transform="matrix(1.3333333,0,0,-1.3333333,0,287.0225)" />
    <path
       id="path2"
       d="m 47.1375,41.746875 h 223.2 V 208.06687 h -223.2 z"
       style="fill:#ffffff;fill-opacity:1;fill-rule:nonzero;stroke:none"
       transform="matrix(1.3333333,0,0,-1.3333333,0,287.0225)" />
    <path
       id="path3"
       d="m 47.1375,41.746875 v -6"
       stroke="currentColor"
       style="fill-opacity:1;fill-rule:nonzero;stroke-width:1.25;stroke-linecap:butt;stroke-linejoin:round;stroke-miterlimit:10;stroke-dasharray:none;stroke-opacity:1"
       transform="matrix(1.3333333,0,0,-1.3333333,0,287.0225)" />
    <text
       id="text3"
       xml:space="preserve"
       transform="matrix(1.3333333,0,0,1.3333333,46.516667,254.52667)"><tspan
         id="tspan3"
         fill="currentColor"
         style="font-variant:normal;font-weight:normal;font-size:11px;font-family:'IBM Plex Sans', 'Open Sans', verdana, arial, sans-serif;writing-mode:lr-tb;fill-opacity:1;fill-rule:nonzero;stroke:none"
         x="0"
         y="0">1995</tspan></text>
    <path
       id="path4"
       d="m 84.3375,41.746875 v -6"
       stroke="currentColor"
       style="fill-opacity:1;fill-rule:nonzero;stroke-width:1.25;stroke-linecap:butt;stroke-linejoin:round;stroke-miterlimit:10;stroke-dasharray:none;stroke-opacity:1"
       transform="matrix(1.3333333,0,0,-1.3333333,0,287.0225)" />
    <text
       id="text4"
       xml:space="preserve"
       transform="matrix(1.3333333,0,0,1.3333333,96.116667,254.52667)"><tspan
         id="tspan4"
         fill="currentColor"
         style="font-variant:normal;font-weight:normal;font-size:11px;font-family:'IBM Plex Sans', 'Open Sans', verdana, arial, sans-serif;writing-mode:lr-tb;fill-opacity:1;fill-rule:nonzero;stroke:none"
         x="0"
         y="0">2000</tspan></text>
    <path
       id="path5"
       d="m 121.5375,41.746875 v -6"
       stroke="currentColor"
       style="fill-opacity:1;fill-rule:nonzero;stroke-width:1.25;stroke-linecap:butt;stroke-linejoin:round;stroke-miterlimit:10;stroke-dasharray:none;stroke-opacity:1"
       transform="matrix(1.3333333,0,0,-1.3333333,0,287.0225)" />
    <text
       id="text5"
       xml:space="preserve"
       transform="matrix(1.3333333,0,0,1.3333333,145.71667,254.52667)"><tspan
         id="tspan5"
         fill="currentColor"
         style="font-variant:normal;font-weight:normal;font-size:11px;font-family:'IBM Plex Sans', 'Open Sans', verdana, arial, sans-serif;writing-mode:lr-tb;fill-opacity:1;fill-rule:nonzero;stroke:none"
         x="0"
         y="0">2005</tspan></text>
    <path
       id="path6"
       d="m 158.7375,41.746875 v -6"
       stroke="currentColor"
       style="fill-opacity:1;fill-rule:nonzero;stroke-width:1.25;stroke-linecap:butt;stroke-linejoin:round;stroke-miterlimit:10;stroke-dasharray:none;stroke-opacity:1"
       transform="matrix(1.3333333,0,0,-1.3333333,0,287.0225)" />
    <text
       id="text6"
       xml:space="preserve"
       transform="matrix(1.3333333,0,0,1.3333333,195.31667,254.52667)"><tspan
         id="tspan6"
         fill="currentColor"
         style="font-variant:normal;font-weight:normal;font-size:11px;font-family:'IBM Plex Sans', 'Open Sans', verdana, arial, sans-serif;writing-mode:lr-tb;fill-opacity:1;fill-rule:nonzero;stroke:none"
         x="0"
         y="0">2010</tspan></text>
    <path
       id="path7"
       d="m 195.9375,41.746875 v -6"
       stroke="currentColor"
       style="fill-opacity:1;fill-rule:nonzero;stroke-width:1.25;stroke-linecap:butt;stroke-linejoin:round;stroke-miterlimit:10;stroke-dasharray:none;stroke-opacity:1"
       transform="matrix(1.3333333,0,0,-1.3333333,0,287.0225)" />
    <text
       id="text7"
       xml:space="preserve"
       transform="matrix(1.3333333,0,0,1.3333333,244.91667,254.52667)"><tspan
         id="tspan7"
         fill="currentColor"
         style="font-variant:normal;font-weight:normal;font-size:11px;font-family:'IBM Plex Sans', 'Open Sans', verdana, arial, sans-serif;writing-mode:lr-tb;fill-opacity:1;fill-rule:nonzero;stroke:none"
         x="0"
         y="0">2015</tspan></text>
    <path
       id="path8"
       d="m 233.1375,41.746875 v -6"
       stroke="currentColor"
       style="fill-opacity:1;fill-rule:nonzero;stroke-width:1.25;stroke-linecap:butt;stroke-linejoin:round;stroke-miterlimit:10;stroke-dasharray:none;stroke-opacity:1"
       transform="matrix(1.3333333,0,0,-1.3333333,0,287.0225)" />
    <text
       id="text8"
       xml:space="preserve"
       transform="matrix(1.3333333,0,0,1.3333333,294.51667,254.52667)"><tspan
         id="tspan8"
         fill="currentColor"
         style="font-variant:normal;font-weight:normal;font-size:11px;font-family:'IBM Plex Sans', 'Open Sans', verdana, arial, sans-serif;writing-mode:lr-tb;fill-opacity:1;fill-rule:nonzero;stroke:none"
         x="0"
         y="0">2020</tspan></text>
    <path
       id="path9"
       d="m 270.3375,41.746875 v -6"
       stroke="currentColor"
       style="fill-opacity:1;fill-rule:nonzero;stroke-width:1.25;stroke-linecap:butt;stroke-linejoin:round;stroke-miterlimit:10;stroke-dasharray:none;stroke-opacity:1"
       transform="matrix(1.3333333,0,0,-1.3333333,0,287.0225)" />
    <text
       id="text9"
       xml:space="preserve"
       transform="matrix(1.3333333,0,0,1.3333333,344.11667,254.52667)"><tspan
         id="tspan9"
         fill="currentColor"
         style="font-variant:normal;font-weight:normal;font-size:11px;font-family:'IBM Plex Sans', 'Open Sans', verdana, arial, sans-serif;writing-mode:lr-tb;fill-opacity:1;fill-rule:nonzero;stroke:none"
         x="0"
         y="0">2025</tspan></text>
    <text
       id="text10"
       xml:space="preserve"
       transform="matrix(1.3333333,0,0,1.3333333,195.50417,274.235)"><tspan
         id="tspan10"
         fill="currentColor"
         style="font-variant:normal;font-weight:normal;font-size:12px;font-family:'IBM Plex Sans', 'Open Sans', verdana, arial, sans-serif;writing-mode:lr-tb;fill-opacity:1;fill-rule:nonzero;stroke:none"
         x="0"
         dx="0 -1.09375"
         y="0">Year</tspan></text>
    <path
       id="path10"
       d="m 47.1375,49.306875 h -6"
       stroke="currentColor"
       style="fill-opacity:1;fill-rule:nonzero;stroke-width:1.25;stroke-linecap:butt;stroke-linejoin:round;stroke-miterlimit:10;stroke-dasharray:none;stroke-opacity:1"
       transform="matrix(1.3333333,0,0,-1.3333333,0,287.0225)" />
    <text
       id="text11"
       xml:space="preserve"
       transform="matrix(1.3333333,0,0,1.3333333,29.766667,226.53)"><tspan
         id="tspan11"
         fill="currentColor"
         style="font-variant:normal;font-weight:normal;font-size:11px;font-family:'IBM Plex Sans', 'Open Sans', verdana, arial, sans-serif;writing-mode:lr-tb;fill-opacity:1;fill-rule:nonzero;stroke:none"
         x="0"
         y="0">1.0</tspan></text>
    <path
       id="path11"
       d="m 47.1375,73.711086 h -6"
       stroke="currentColor"
       style="fill-opacity:1;fill-rule:nonzero;stroke-width:1.25;stroke-linecap:butt;stroke-linejoin:round;stroke-miterlimit:10;stroke-dasharray:none;stroke-opacity:1"
       transform="matrix(1.3333333,0,0,-1.3333333,0,287.0225)" />
    <text
       id="text12"
       xml:space="preserve"
       transform="matrix(1.3333333,0,0,1.3333333,29.766667,193.99105)"><tspan
         id="tspan12"
         fill="currentColor"
         style="font-variant:normal;font-weight:normal;font-size:11px;font-family:'IBM Plex Sans', 'Open Sans', verdana, arial, sans-serif;writing-mode:lr-tb;fill-opacity:1;fill-rule:nonzero;stroke:none"
         x="0"
         y="0">1.2</tspan></text>
    <path
       id="path12"
       d="m 47.1375,98.115296 h -6"
       stroke="currentColor"
       style="fill-opacity:1;fill-rule:nonzero;stroke-width:1.25;stroke-linecap:butt;stroke-linejoin:round;stroke-miterlimit:10;stroke-dasharray:none;stroke-opacity:1"
       transform="matrix(1.3333333,0,0,-1.3333333,0,287.0225)" />
    <text
       id="text13"
       xml:space="preserve"
       transform="matrix(1.3333333,0,0,1.3333333,29.766667,161.45211)"><tspan
         id="tspan13"
         fill="currentColor"
         style="font-variant:normal;font-weight:normal;font-size:11px;font-family:'IBM Plex Sans', 'Open Sans', verdana, arial, sans-serif;writing-mode:lr-tb;fill-opacity:1;fill-rule:nonzero;stroke:none"
         x="0"
         y="0">1.4</tspan></text>
    <path
       id="path13"
       d="m 47.1375,122.51951 h -6"
       stroke="currentColor"
       style="fill-opacity:1;fill-rule:nonzero;stroke-width:1.25;stroke-linecap:butt;stroke-linejoin:round;stroke-miterlimit:10;stroke-dasharray:none;stroke-opacity:1"
       transform="matrix(1.3333333,0,0,-1.3333333,0,287.0225)" />
    <text
       id="text14"
       xml:space="preserve"
       transform="matrix(1.3333333,0,0,1.3333333,29.766667,128.91316)"><tspan
         id="tspan14"
         fill="currentColor"
         style="font-variant:normal;font-weight:normal;font-size:11px;font-family:'IBM Plex Sans', 'Open Sans', verdana, arial, sans-serif;writing-mode:lr-tb;fill-opacity:1;fill-rule:nonzero;stroke:none"
         x="0"
         y="0">1.6</tspan></text>
    <path
       id="path14"
       d="m 47.1375,146.92372 h -6"
       stroke="currentColor"
       style="fill-opacity:1;fill-rule:nonzero;stroke-width:1.25;stroke-linecap:butt;stroke-linejoin:round;stroke-miterlimit:10;stroke-dasharray:none;stroke-opacity:1"
       transform="matrix(1.3333333,0,0,-1.3333333,0,287.0225)" />
    <text
       id="text15"
       xml:space="preserve"
       transform="matrix(1.3333333,0,0,1.3333333,29.766667,96.374211)"><tspan
         id="tspan15"
         fill="currentColor"
         style="font-variant:normal;font-weight:normal;font-size:11px;font-family:'IBM Plex Sans', 'Open Sans', verdana, arial, sans-serif;writing-mode:lr-tb;fill-opacity:1;fill-rule:nonzero;stroke:none"
         x="0"
         y="0">1.8</tspan></text>
    <path
       id="path15"
       d="m 47.1375,171.32793 h -6"
       stroke="currentColor"
       style="fill-opacity:1;fill-rule:nonzero;stroke-width:1.25;stroke-linecap:butt;stroke-linejoin:round;stroke-miterlimit:10;stroke-dasharray:none;stroke-opacity:1"
       transform="matrix(1.3333333,0,0,-1.3333333,0,287.0225)" />
    <text
       id="text16"
       xml:space="preserve"
       transform="matrix(1.3333333,0,0,1.3333333,29.766667,63.835263)"><tspan
         id="tspan16"
         fill="currentColor"
         style="font-variant:normal;font-weight:normal;font-size:11px;font-family:'IBM Plex Sans', 'Open Sans', verdana, arial, sans-serif;writing-mode:lr-tb;fill-opacity:1;fill-rule:nonzero;stroke:none"
         x="0"
         y="0">2.0</tspan></text>
    <path
       id="path16"
       d="m 47.1375,195.73214 h -6"
       stroke="currentColor"
       style="fill-opacity:1;fill-rule:nonzero;stroke-width:1.25;stroke-linecap:butt;stroke-linejoin:round;stroke-miterlimit:10;stroke-dasharray:none;stroke-opacity:1"
       transform="matrix(1.3333333,0,0,-1.3333333,0,287.0225)" />
    <text
       id="text17"
       xml:space="preserve"
       transform="matrix(1.3333333,0,0,1.3333333,29.766667,31.296316)"><tspan
         id="tspan17"
         fill="currentColor"
         style="font-variant:normal;font-weight:normal;font-size:11px;font-family:'IBM Plex Sans', 'Open Sans', verdana, arial, sans-serif;writing-mode:lr-tb;fill-opacity:1;fill-rule:nonzero;stroke:none"
         x="0"
         y="0">2.2</tspan></text>
    <text
       id="text18"
       xml:space="preserve"
       transform="matrix(0,-1.3333333,1.3333333,0,21.058333,198.56333)"><tspan
         id="tspan18"
         fill="currentColor"
         style="font-variant:normal;font-weight:normal;font-size:12px;font-family:'IBM Plex Sans', 'Open Sans', verdana, arial, sans-serif;writing-mode:lr-tb;fill-opacity:1;fill-rule:nonzero;stroke:none"
         x="0"
         dx="0 -0.203125"
         y="0">Average security level</tspan></text>
    <path
       id="path18"
       d="m 47.1375,49.306875 7.44,40.673684 7.44,50.842101 7.44,30.50527 7.44,8.13473 7.44,21.04421 7.44,-23.94947 7.44,-27.5504 7.44,-8.86223 7.44,12.33438 7.44,9.54209 7.44,4.94879 7.44,-30.62147 7.44,-2.95464 7.44,28.08138 7.44,-17.07995 7.44,2.80412 7.44,3.68514 7.44,-22.29502 7.44,6.13202 7.44,4.92777 7.44,-12.80829 7.44,-5.12612 7.44,-12.83876 7.44,5.93114 7.44,-7.60273 7.44,11.44962 7.44,-15.96315 7.44,-8.764576"
       style="fill:none;stroke:#66c2a5;stroke-width:1.5;stroke-linecap:round;stroke-linejoin:round;stroke-miterlimit:10;stroke-dasharray:none;stroke-opacity:1"
       transform="matrix(1.3333333,0,0,-1.3333333,0,287.0225)"/>
    <g
       id="g21"
       clip-path="url(#clipPath22)">
      <path
         d="m 0,-3 c 0.795609,0 1.55874,0.316099 2.12132,0.87868 C 2.683901,-1.55874 3,-0.795609 3,0 3,0.795609 2.683901,1.55874 2.12132,2.12132 1.55874,2.683901 0.795609,3 0,3 -0.795609,3 -1.55874,2.683901 -2.12132,2.12132 -2.683901,1.55874 -3,0.795609 -3,0 -3,-0.795609 -2.683901,-1.55874 -2.12132,-2.12132 -1.55874,-2.683901 -0.795609,-3 0,-3 Z"
         style="fill:#66c2a5;fill-opacity:1;fill-rule:nonzero;stroke:#ffffff;stroke-width:0.75;stroke-linecap:butt;stroke-linejoin:round;stroke-miterlimit:10;stroke-dasharray:none;stroke-opacity:1"
         transform="matrix(1.3333333,0,0,-1.3333333,62.85,221.28)"
         clip-path="url(#clipPath20)"
         id="path21" />
    </g>
    <g
       id="g24"
       >
      <path
         d="m 0,-3 c 0.795609,0 1.55874,0.316099 2.12132,0.87868 C 2.683901,-1.55874 3,-0.795609 3,0 3,0.795609 2.683901,1.55874 2.12132,2.12132 1.55874,2.683901 0.795609,3 0,3 -0.795609,3 -1.55874,2.683901 -2.12132,2.12132 -2.683901,1.55874 -3,0.795609 -3,0 -3,-0.795609 -2.683901,-1.55874 -2.12132,-2.12132 -1.55874,-2.683901 -0.795609,-3 0,-3 Z"
         style="fill:#66c2a5;fill-opacity:1;fill-rule:nonzero;stroke:#ffffff;stroke-width:0.75;stroke-linecap:butt;stroke-linejoin:round;stroke-miterlimit:10;stroke-dasharray:none;stroke-opacity:1"
         transform="matrix(1.3333333,0,0,-1.3333333,72.77,167.04842)"
         id="path24" />
    </g>
    <g
       id="g27"
       >
      <path
         d="m 0,-3 c 0.795609,0 1.55874,0.316099 2.12132,0.87868 C 2.683901,-1.55874 3,-0.795609 3,0 3,0.795609 2.683901,1.55874 2.12132,2.12132 1.55874,2.683901 0.795609,3 0,3 -0.795609,3 -1.55874,2.683901 -2.12132,2.12132 -2.683901,1.55874 -3,0.795609 -3,0 -3,-0.795609 -2.683901,-1.55874 -2.12132,-2.12132 -1.55874,-2.683901 -0.795609,-3 0,-3 Z"
         style="fill:#66c2a5;fill-opacity:1;fill-rule:nonzero;stroke:#ffffff;stroke-width:0.75;stroke-linecap:butt;stroke-linejoin:round;stroke-miterlimit:10;stroke-dasharray:none;stroke-opacity:1"
         transform="matrix(1.3333333,0,0,-1.3333333,82.69,99.258947)"

         id="path27" />
    </g>
    <g
       id="g30"
       >
      <path
         d="m 0,-3 c 0.795609,0 1.55874,0.316099 2.12132,0.87868 C 2.683901,-1.55874 3,-0.795609 3,0 3,0.795609 2.683901,1.55874 2.12132,2.12132 1.55874,2.683901 0.795609,3 0,3 -0.795609,3 -1.55874,2.683901 -2.12132,2.12132 -2.683901,1.55874 -3,0.795609 -3,0 -3,-0.795609 -2.683901,-1.55874 -2.12132,-2.12132 -1.55874,-2.683901 -0.795609,-3 0,-3 Z"
         style="fill:#66c2a5;fill-opacity:1;fill-rule:nonzero;stroke:#ffffff;stroke-width:0.75;stroke-linecap:butt;stroke-linejoin:round;stroke-miterlimit:10;stroke-dasharray:none;stroke-opacity:1"
         transform="matrix(1.3333333,0,0,-1.3333333,92.61,58.585263)"

         id="path30" />
    </g>
    <g
       id="g33"
       >
      <path
         d="m 0,-3 c 0.795609,0 1.55874,0.316099 2.12132,0.87868 C 2.683901,-1.55874 3,-0.795609 3,0 3,0.795609 2.683901,1.55874 2.12132,2.12132 1.55874,2.683901 0.795609,3 0,3 -0.795609,3 -1.55874,2.683901 -2.12132,2.12132 -2.683901,1.55874 -3,0.795609 -3,0 -3,-0.795609 -2.683901,-1.55874 -2.12132,-2.12132 -1.55874,-2.683901 -0.795609,-3 0,-3 Z"
         style="fill:#66c2a5;fill-opacity:1;fill-rule:nonzero;stroke:#ffffff;stroke-width:0.75;stroke-linecap:butt;stroke-linejoin:round;stroke-miterlimit:10;stroke-dasharray:none;stroke-opacity:1"
         transform="matrix(1.3333333,0,0,-1.3333333,102.53,47.738947)"

         id="path33" />
    </g>
    <g
       id="g36"
       >
      <path
         d="m 0,-3 c 0.795609,0 1.55874,0.316099 2.12132,0.87868 C 2.683901,-1.55874 3,-0.795609 3,0 3,0.795609 2.683901,1.55874 2.12132,2.12132 1.55874,2.683901 0.795609,3 0,3 -0.795609,3 -1.55874,2.683901 -2.12132,2.12132 -2.683901,1.55874 -3,0.795609 -3,0 -3,-0.795609 -2.683901,-1.55874 -2.12132,-2.12132 -1.55874,-2.683901 -0.795609,-3 0,-3 Z"
         style="fill:#66c2a5;fill-opacity:1;fill-rule:nonzero;stroke:#ffffff;stroke-width:0.75;stroke-linecap:butt;stroke-linejoin:round;stroke-miterlimit:10;stroke-dasharray:none;stroke-opacity:1"
         transform="matrix(1.3333333,0,0,-1.3333333,112.45,19.68)"

         id="path36" />
    </g>
    <g
       id="g39"
       >
      <path
         d="m 0,-3 c 0.795609,0 1.55874,0.316099 2.12132,0.87868 C 2.683901,-1.55874 3,-0.795609 3,0 3,0.795609 2.683901,1.55874 2.12132,2.12132 1.55874,2.683901 0.795609,3 0,3 -0.795609,3 -1.55874,2.683901 -2.12132,2.12132 -2.683901,1.55874 -3,0.795609 -3,0 -3,-0.795609 -2.683901,-1.55874 -2.12132,-2.12132 -1.55874,-2.683901 -0.795609,-3 0,-3 Z"
         style="fill:#66c2a5;fill-opacity:1;fill-rule:nonzero;stroke:#ffffff;stroke-width:0.75;stroke-linecap:butt;stroke-linejoin:round;stroke-miterlimit:10;stroke-dasharray:none;stroke-opacity:1"
         transform="matrix(1.3333333,0,0,-1.3333333,122.37,51.612632)"

         id="path39" />
    </g>
    <g
       id="g42"
       >
      <path
         d="m 0,-3 c 0.795609,0 1.55874,0.316099 2.12132,0.87868 C 2.683901,-1.55874 3,-0.795609 3,0 3,0.795609 2.683901,1.55874 2.12132,2.12132 1.55874,2.683901 0.795609,3 0,3 -0.795609,3 -1.55874,2.683901 -2.12132,2.12132 -2.683901,1.55874 -3,0.795609 -3,0 -3,-0.795609 -2.683901,-1.55874 -2.12132,-2.12132 -1.55874,-2.683901 -0.795609,-3 0,-3 Z"
         style="fill:#66c2a5;fill-opacity:1;fill-rule:nonzero;stroke:#ffffff;stroke-width:0.75;stroke-linecap:butt;stroke-linejoin:round;stroke-miterlimit:10;stroke-dasharray:none;stroke-opacity:1"
         transform="matrix(1.3333333,0,0,-1.3333333,132.29,88.346496)"

         id="path42" />
    </g>
    <g
       id="g45"
       >
      <path
         d="m 0,-3 c 0.795609,0 1.55874,0.316099 2.12132,0.87868 C 2.683901,-1.55874 3,-0.795609 3,0 3,0.795609 2.683901,1.55874 2.12132,2.12132 1.55874,2.683901 0.795609,3 0,3 -0.795609,3 -1.55874,2.683901 -2.12132,2.12132 -2.683901,1.55874 -3,0.795609 -3,0 -3,-0.795609 -2.683901,-1.55874 -2.12132,-2.12132 -1.55874,-2.683901 -0.795609,-3 0,-3 Z"
         style="fill:#66c2a5;fill-opacity:1;fill-rule:nonzero;stroke:#ffffff;stroke-width:0.75;stroke-linecap:butt;stroke-linejoin:round;stroke-miterlimit:10;stroke-dasharray:none;stroke-opacity:1"
         transform="matrix(1.3333333,0,0,-1.3333333,142.21,100.16281)"

         id="path45" />
    </g>
    <g
       id="g48"
       >
      <path
         d="m 0,-3 c 0.795609,0 1.55874,0.316099 2.12132,0.87868 C 2.683901,-1.55874 3,-0.795609 3,0 3,0.795609 2.683901,1.55874 2.12132,2.12132 1.55874,2.683901 0.795609,3 0,3 -0.795609,3 -1.55874,2.683901 -2.12132,2.12132 -2.683901,1.55874 -3,0.795609 -3,0 -3,-0.795609 -2.683901,-1.55874 -2.12132,-2.12132 -1.55874,-2.683901 -0.795609,-3 0,-3 Z"
         style="fill:#66c2a5;fill-opacity:1;fill-rule:nonzero;stroke:#ffffff;stroke-width:0.75;stroke-linecap:butt;stroke-linejoin:round;stroke-miterlimit:10;stroke-dasharray:none;stroke-opacity:1"
         transform="matrix(1.3333333,0,0,-1.3333333,152.13,83.71697)"

         id="path48" />
    </g>
    <g
       id="g51"
       >
      <path
         d="m 0,-3 c 0.795609,0 1.55874,0.316099 2.12132,0.87868 C 2.683901,-1.55874 3,-0.795609 3,0 3,0.795609 2.683901,1.55874 2.12132,2.12132 1.55874,2.683901 0.795609,3 0,3 -0.795609,3 -1.55874,2.683901 -2.12132,2.12132 -2.683901,1.55874 -3,0.795609 -3,0 -3,-0.795609 -2.683901,-1.55874 -2.12132,-2.12132 -1.55874,-2.683901 -0.795609,-3 0,-3 Z"
         style="fill:#66c2a5;fill-opacity:1;fill-rule:nonzero;stroke:#ffffff;stroke-width:0.75;stroke-linecap:butt;stroke-linejoin:round;stroke-miterlimit:10;stroke-dasharray:none;stroke-opacity:1"
         transform="matrix(1.3333333,0,0,-1.3333333,162.05,70.994184)"

         id="path51" />
    </g>
    <g
       id="g54"
       >
      <path
         d="m 0,-3 c 0.795609,0 1.55874,0.316099 2.12132,0.87868 C 2.683901,-1.55874 3,-0.795609 3,0 3,0.795609 2.683901,1.55874 2.12132,2.12132 1.55874,2.683901 0.795609,3 0,3 -0.795609,3 -1.55874,2.683901 -2.12132,2.12132 -2.683901,1.55874 -3,0.795609 -3,0 -3,-0.795609 -2.683901,-1.55874 -2.12132,-2.12132 -1.55874,-2.683901 -0.795609,-3 0,-3 Z"
         style="fill:#66c2a5;fill-opacity:1;fill-rule:nonzero;stroke:#ffffff;stroke-width:0.75;stroke-linecap:butt;stroke-linejoin:round;stroke-miterlimit:10;stroke-dasharray:none;stroke-opacity:1"
         transform="matrix(1.3333333,0,0,-1.3333333,171.97,64.395789)"

         id="path54" />
    </g>
    <g
       id="g57"
       >
      <path
         d="m 0,-3 c 0.795609,0 1.55874,0.316099 2.12132,0.87868 C 2.683901,-1.55874 3,-0.795609 3,0 3,0.795609 2.683901,1.55874 2.12132,2.12132 1.55874,2.683901 0.795609,3 0,3 -0.795609,3 -1.55874,2.683901 -2.12132,2.12132 -2.683901,1.55874 -3,0.795609 -3,0 -3,-0.795609 -2.683901,-1.55874 -2.12132,-2.12132 -1.55874,-2.683901 -0.795609,-3 0,-3 Z"
         style="fill:#66c2a5;fill-opacity:1;fill-rule:nonzero;stroke:#ffffff;stroke-width:0.75;stroke-linecap:butt;stroke-linejoin:round;stroke-miterlimit:10;stroke-dasharray:none;stroke-opacity:1"
         transform="matrix(1.3333333,0,0,-1.3333333,181.89,105.22442)"

         id="path57" />
    </g>
    <g
       id="g60"
       >
      <path
         d="m 0,-3 c 0.795609,0 1.55874,0.316099 2.12132,0.87868 C 2.683901,-1.55874 3,-0.795609 3,0 3,0.795609 2.683901,1.55874 2.12132,2.12132 1.55874,2.683901 0.795609,3 0,3 -0.795609,3 -1.55874,2.683901 -2.12132,2.12132 -2.683901,1.55874 -3,0.795609 -3,0 -3,-0.795609 -2.683901,-1.55874 -2.12132,-2.12132 -1.55874,-2.683901 -0.795609,-3 0,-3 Z"
         style="fill:#66c2a5;fill-opacity:1;fill-rule:nonzero;stroke:#ffffff;stroke-width:0.75;stroke-linecap:butt;stroke-linejoin:round;stroke-miterlimit:10;stroke-dasharray:none;stroke-opacity:1"
         transform="matrix(1.3333333,0,0,-1.3333333,191.81,109.16394)"

         id="path60" />
    </g>
    <g
       id="g63"
       >
      <path
         d="m 0,-3 c 0.795609,0 1.55874,0.316099 2.12132,0.87868 C 2.683901,-1.55874 3,-0.795609 3,0 3,0.795609 2.683901,1.55874 2.12132,2.12132 1.55874,2.683901 0.795609,3 0,3 -0.795609,3 -1.55874,2.683901 -2.12132,2.12132 -2.683901,1.55874 -3,0.795609 -3,0 -3,-0.795609 -2.683901,-1.55874 -2.12132,-2.12132 -1.55874,-2.683901 -0.795609,-3 0,-3 Z"
         style="fill:#66c2a5;fill-opacity:1;fill-rule:nonzero;stroke:#ffffff;stroke-width:0.75;stroke-linecap:butt;stroke-linejoin:round;stroke-miterlimit:10;stroke-dasharray:none;stroke-opacity:1"
         transform="matrix(1.3333333,0,0,-1.3333333,201.73,71.722105)"

         id="path63" />
    </g>
    <g
       id="g66"
       >
      <path
         d="m 0,-3 c 0.795609,0 1.55874,0.316099 2.12132,0.87868 C 2.683901,-1.55874 3,-0.795609 3,0 3,0.795609 2.683901,1.55874 2.12132,2.12132 1.55874,2.683901 0.795609,3 0,3 -0.795609,3 -1.55874,2.683901 -2.12132,2.12132 -2.683901,1.55874 -3,0.795609 -3,0 -3,-0.795609 -2.683901,-1.55874 -2.12132,-2.12132 -1.55874,-2.683901 -0.795609,-3 0,-3 Z"
         style="fill:#66c2a5;fill-opacity:1;fill-rule:nonzero;stroke:#ffffff;stroke-width:0.75;stroke-linecap:butt;stroke-linejoin:round;stroke-miterlimit:10;stroke-dasharray:none;stroke-opacity:1"
         transform="matrix(1.3333333,0,0,-1.3333333,211.65,94.495363)"

         id="path66" />
    </g>
    <g
       id="g69"
       >
      <path
         d="m 0,-3 c 0.795609,0 1.55874,0.316099 2.12132,0.87868 C 2.683901,-1.55874 3,-0.795609 3,0 3,0.795609 2.683901,1.55874 2.12132,2.12132 1.55874,2.683901 0.795609,3 0,3 -0.795609,3 -1.55874,2.683901 -2.12132,2.12132 -2.683901,1.55874 -3,0.795609 -3,0 -3,-0.795609 -2.683901,-1.55874 -2.12132,-2.12132 -1.55874,-2.683901 -0.795609,-3 0,-3 Z"
         style="fill:#66c2a5;fill-opacity:1;fill-rule:nonzero;stroke:#ffffff;stroke-width:0.75;stroke-linecap:butt;stroke-linejoin:round;stroke-miterlimit:10;stroke-dasharray:none;stroke-opacity:1"
         transform="matrix(1.3333333,0,0,-1.3333333,221.57,90.756539)"

         id="path69" />
    </g>
    <g
       id="g72"
       >
      <path
         d="m 0,-3 c 0.795609,0 1.55874,0.316099 2.12132,0.87868 C 2.683901,-1.55874 3,-0.795609 3,0 3,0.795609 2.683901,1.55874 2.12132,2.12132 1.55874,2.683901 0.795609,3 0,3 -0.795609,3 -1.55874,2.683901 -2.12132,2.12132 -2.683901,1.55874 -3,0.795609 -3,0 -3,-0.795609 -2.683901,-1.55874 -2.12132,-2.12132 -1.55874,-2.683901 -0.795609,-3 0,-3 Z"
         style="fill:#66c2a5;fill-opacity:1;fill-rule:nonzero;stroke:#ffffff;stroke-width:0.75;stroke-linecap:butt;stroke-linejoin:round;stroke-miterlimit:10;stroke-dasharray:none;stroke-opacity:1"
         transform="matrix(1.3333333,0,0,-1.3333333,231.49,85.84302)"

         id="path72" />
    </g>
    <g
       id="g75"
       >
      <path
         d="m 0,-3 c 0.795609,0 1.55874,0.316099 2.12132,0.87868 C 2.683901,-1.55874 3,-0.795609 3,0 3,0.795609 2.683901,1.55874 2.12132,2.12132 1.55874,2.683901 0.795609,3 0,3 -0.795609,3 -1.55874,2.683901 -2.12132,2.12132 -2.683901,1.55874 -3,0.795609 -3,0 -3,-0.795609 -2.683901,-1.55874 -2.12132,-2.12132 -1.55874,-2.683901 -0.795609,-3 0,-3 Z"
         style="fill:#66c2a5;fill-opacity:1;fill-rule:nonzero;stroke:#ffffff;stroke-width:0.75;stroke-linecap:butt;stroke-linejoin:round;stroke-miterlimit:10;stroke-dasharray:none;stroke-opacity:1"
         transform="matrix(1.3333333,0,0,-1.3333333,241.41,115.56971)"

         id="path75" />
    </g>
    <g
       id="g78"
       >
      <path
         d="m 0,-3 c 0.795609,0 1.55874,0.316099 2.12132,0.87868 C 2.683901,-1.55874 3,-0.795609 3,0 3,0.795609 2.683901,1.55874 2.12132,2.12132 1.55874,2.683901 0.795609,3 0,3 -0.795609,3 -1.55874,2.683901 -2.12132,2.12132 -2.683901,1.55874 -3,0.795609 -3,0 -3,-0.795609 -2.683901,-1.55874 -2.12132,-2.12132 -1.55874,-2.683901 -0.795609,-3 0,-3 Z"
         style="fill:#66c2a5;fill-opacity:1;fill-rule:nonzero;stroke:#ffffff;stroke-width:0.75;stroke-linecap:butt;stroke-linejoin:round;stroke-miterlimit:10;stroke-dasharray:none;stroke-opacity:1"
         transform="matrix(1.3333333,0,0,-1.3333333,251.33,107.39368)"

         id="path78" />
    </g>
    <g
       id="g81"
       >
      <path
         d="m 0,-3 c 0.795609,0 1.55874,0.316099 2.12132,0.87868 C 2.683901,-1.55874 3,-0.795609 3,0 3,0.795609 2.683901,1.55874 2.12132,2.12132 1.55874,2.683901 0.795609,3 0,3 -0.795609,3 -1.55874,2.683901 -2.12132,2.12132 -2.683901,1.55874 -3,0.795609 -3,0 -3,-0.795609 -2.683901,-1.55874 -2.12132,-2.12132 -1.55874,-2.683901 -0.795609,-3 0,-3 Z"
         style="fill:#66c2a5;fill-opacity:1;fill-rule:nonzero;stroke:#ffffff;stroke-width:0.75;stroke-linecap:butt;stroke-linejoin:round;stroke-miterlimit:10;stroke-dasharray:none;stroke-opacity:1"
         transform="matrix(1.3333333,0,0,-1.3333333,261.25,100.82332)"

         id="path81" />
    </g>
    <g
       id="g84"
       >
      <path
         d="m 0,-3 c 0.795609,0 1.55874,0.316099 2.12132,0.87868 C 2.683901,-1.55874 3,-0.795609 3,0 3,0.795609 2.683901,1.55874 2.12132,2.12132 1.55874,2.683901 0.795609,3 0,3 -0.795609,3 -1.55874,2.683901 -2.12132,2.12132 -2.683901,1.55874 -3,0.795609 -3,0 -3,-0.795609 -2.683901,-1.55874 -2.12132,-2.12132 -1.55874,-2.683901 -0.795609,-3 0,-3 Z"
         style="fill:#66c2a5;fill-opacity:1;fill-rule:nonzero;stroke:#ffffff;stroke-width:0.75;stroke-linecap:butt;stroke-linejoin:round;stroke-miterlimit:10;stroke-dasharray:none;stroke-opacity:1"
         transform="matrix(1.3333333,0,0,-1.3333333,271.17,117.90105)"

         id="path84" />
    </g>
    <g
       id="g87"
       >
      <path
         d="m 0,-3 c 0.795609,0 1.55874,0.316099 2.12132,0.87868 C 2.683901,-1.55874 3,-0.795609 3,0 3,0.795609 2.683901,1.55874 2.12132,2.12132 1.55874,2.683901 0.795609,3 0,3 -0.795609,3 -1.55874,2.683901 -2.12132,2.12132 -2.683901,1.55874 -3,0.795609 -3,0 -3,-0.795609 -2.683901,-1.55874 -2.12132,-2.12132 -1.55874,-2.683901 -0.795609,-3 0,-3 Z"
         style="fill:#66c2a5;fill-opacity:1;fill-rule:nonzero;stroke:#ffffff;stroke-width:0.75;stroke-linecap:butt;stroke-linejoin:round;stroke-miterlimit:10;stroke-dasharray:none;stroke-opacity:1"
         transform="matrix(1.3333333,0,0,-1.3333333,281.09,124.73587)"

         id="path87" />
    </g>
    <g
       id="g90"
       >
      <path
         d="m 0,-3 c 0.795609,0 1.55874,0.316099 2.12132,0.87868 C 2.683901,-1.55874 3,-0.795609 3,0 3,0.795609 2.683901,1.55874 2.12132,2.12132 1.55874,2.683901 0.795609,3 0,3 -0.795609,3 -1.55874,2.683901 -2.12132,2.12132 -2.683901,1.55874 -3,0.795609 -3,0 -3,-0.795609 -2.683901,-1.55874 -2.12132,-2.12132 -1.55874,-2.683901 -0.795609,-3 0,-3 Z"
         style="fill:#66c2a5;fill-opacity:1;fill-rule:nonzero;stroke:#ffffff;stroke-width:0.75;stroke-linecap:butt;stroke-linejoin:round;stroke-miterlimit:10;stroke-dasharray:none;stroke-opacity:1"
         transform="matrix(1.3333333,0,0,-1.3333333,291.01,141.85422)"

         id="path90" />
    </g>
    <g
       id="g93"
       >
      <path
         d="m 0,-3 c 0.795609,0 1.55874,0.316099 2.12132,0.87868 C 2.683901,-1.55874 3,-0.795609 3,0 3,0.795609 2.683901,1.55874 2.12132,2.12132 1.55874,2.683901 0.795609,3 0,3 -0.795609,3 -1.55874,2.683901 -2.12132,2.12132 -2.683901,1.55874 -3,0.795609 -3,0 -3,-0.795609 -2.683901,-1.55874 -2.12132,-2.12132 -1.55874,-2.683901 -0.795609,-3 0,-3 Z"
         style="fill:#66c2a5;fill-opacity:1;fill-rule:nonzero;stroke:#ffffff;stroke-width:0.75;stroke-linecap:butt;stroke-linejoin:round;stroke-miterlimit:10;stroke-dasharray:none;stroke-opacity:1"
         transform="matrix(1.3333333,0,0,-1.3333333,300.93,133.94603)"

         id="path93" />
    </g>
    <g
       id="g96"
       >
      <path
         d="m 0,-3 c 0.795609,0 1.55874,0.316099 2.12132,0.87868 C 2.683901,-1.55874 3,-0.795609 3,0 3,0.795609 2.683901,1.55874 2.12132,2.12132 1.55874,2.683901 0.795609,3 0,3 -0.795609,3 -1.55874,2.683901 -2.12132,2.12132 -2.683901,1.55874 -3,0.795609 -3,0 -3,-0.795609 -2.683901,-1.55874 -2.12132,-2.12132 -1.55874,-2.683901 -0.795609,-3 0,-3 Z"
         style="fill:#66c2a5;fill-opacity:1;fill-rule:nonzero;stroke:#ffffff;stroke-width:0.75;stroke-linecap:butt;stroke-linejoin:round;stroke-miterlimit:10;stroke-dasharray:none;stroke-opacity:1"
         transform="matrix(1.3333333,0,0,-1.3333333,310.85,144.08301)"

         id="path96" />
    </g>
    <g
       id="g99"
       >
      <path
         d="m 0,-3 c 0.795609,0 1.55874,0.316099 2.12132,0.87868 C 2.683901,-1.55874 3,-0.795609 3,0 3,0.795609 2.683901,1.55874 2.12132,2.12132 1.55874,2.683901 0.795609,3 0,3 -0.795609,3 -1.55874,2.683901 -2.12132,2.12132 -2.683901,1.55874 -3,0.795609 -3,0 -3,-0.795609 -2.683901,-1.55874 -2.12132,-2.12132 -1.55874,-2.683901 -0.795609,-3 0,-3 Z"
         style="fill:#66c2a5;fill-opacity:1;fill-rule:nonzero;stroke:#ffffff;stroke-width:0.75;stroke-linecap:butt;stroke-linejoin:round;stroke-miterlimit:10;stroke-dasharray:none;stroke-opacity:1"
         transform="matrix(1.3333333,0,0,-1.3333333,320.77,128.81684)"

         id="path99" />
    </g>
    <g
       id="g102"
       >
      <path
         d="m 0,-3 c 0.795609,0 1.55874,0.316099 2.12132,0.87868 C 2.683901,-1.55874 3,-0.795609 3,0 3,0.795609 2.683901,1.55874 2.12132,2.12132 1.55874,2.683901 0.795609,3 0,3 -0.795609,3 -1.55874,2.683901 -2.12132,2.12132 -2.683901,1.55874 -3,0.795609 -3,0 -3,-0.795609 -2.683901,-1.55874 -2.12132,-2.12132 -1.55874,-2.683901 -0.795609,-3 0,-3 Z"
         style="fill:#66c2a5;fill-opacity:1;fill-rule:nonzero;stroke:#ffffff;stroke-width:0.75;stroke-linecap:butt;stroke-linejoin:round;stroke-miterlimit:10;stroke-dasharray:none;stroke-opacity:1"
         transform="matrix(1.3333333,0,0,-1.3333333,330.69,150.10105)"

         id="path102" />
    </g>
    <g
       id="g105"
       >
      <path
         d="m 0,-3 c 0.795609,0 1.55874,0.316099 2.12132,0.87868 C 2.683901,-1.55874 3,-0.795609 3,0 3,0.795609 2.683901,1.55874 2.12132,2.12132 1.55874,2.683901 0.795609,3 0,3 -0.795609,3 -1.55874,2.683901 -2.12132,2.12132 -2.683901,1.55874 -3,0.795609 -3,0 -3,-0.795609 -2.683901,-1.55874 -2.12132,-2.12132 -1.55874,-2.683901 -0.795609,-3 0,-3 Z"
         style="fill:#66c2a5;fill-opacity:1;fill-rule:nonzero;stroke:#ffffff;stroke-width:0.75;stroke-linecap:butt;stroke-linejoin:round;stroke-miterlimit:10;stroke-dasharray:none;stroke-opacity:1"
         transform="matrix(1.3333333,0,0,-1.3333333,340.61,161.78715)"

         id="path105" />
    </g>
    <path
       id="path107"
       d="M 47.1375,41.746875 V 208.06687"
       stroke="currentColor"
       style="fill:none;;stroke-width:1.25;stroke-linecap:square;stroke-linejoin:miter;stroke-miterlimit:10;stroke-dasharray:none;stroke-opacity:1"
       transform="matrix(1.3333333,0,0,-1.3333333,0,287.0225)" />
    <path
       id="path108"
       d="M 270.3375,41.746875 V 208.06687"
       stroke="currentColor"
       style="fill:none;stroke-width:1.25;stroke-linecap:square;stroke-linejoin:miter;stroke-miterlimit:10;stroke-dasharray:none;stroke-opacity:1"
       transform="matrix(1.3333333,0,0,-1.3333333,0,287.0225)" />
    <path
       id="path109"
       d="m 47.1375,41.746875 h 223.2"
       stroke="currentColor"
       style="fill:none;stroke-width:1.25;stroke-linecap:square;stroke-linejoin:miter;stroke-miterlimit:10;stroke-dasharray:none;stroke-opacity:1"
       transform="matrix(1.3333333,0,0,-1.3333333,0,287.0225)" />
    <path
       id="path110"
       d="m 47.1375,208.06687 h 223.2"
       stroke="currentColor"
       style="fill:none;stroke-width:1.25;stroke-linecap:square;stroke-linejoin:miter;stroke-miterlimit:10;stroke-dasharray:none;stroke-opacity:1"
       transform="matrix(1.3333333,0,0,-1.3333333,0,287.0225)" />
  </g>
</svg>
