<?xml version="1.0" encoding="UTF-8" standalone="no"?>
<!-- Created with Inkscape (http://www.inkscape.org/) -->

<svg
   version="1.1"
   id="svg1"
   width="518.84998"
   height="366.38"
   viewBox="0 0 518.84998 366.38"
   xmlns="http://www.w3.org/2000/svg"
   xmlns:svg="http://www.w3.org/2000/svg">
  <defs
     id="defs1">
    <clipPath
       clipPathUnits="userSpaceOnUse"
       id="clipPath21">
      <path
         d="m 47.1375,41.8875 h 334.8 v 221.76 h -334.8 z"
         id="path21" />
    </clipPath>
    <clipPath
       clipPathUnits="userSpaceOnUse"
       id="clipPath23">
      <path
         d="m 47.1375,41.8875 h 334.8 v 221.76 h -334.8 z"
         id="path23" />
    </clipPath>
    <clipPath
       clipPathUnits="userSpaceOnUse"
       id="clipPath25">
      <path
         d="m 47.1375,41.8875 h 334.8 v 221.76 h -334.8 z"
         id="path25" />
    </clipPath>
  </defs>
  <g
     id="g1">
    <path
       id="path1"
       d="M 0,0 H 389.1375 V 274.785 H 0 Z"
       style="fill:#ffffff;fill-opacity:0;fill-rule:nonzero;stroke:none"
       transform="matrix(1.3333333,0,0,-1.3333333,0,366.38)" />
    <path
       id="path2"
       d="m 47.1375,41.8875 h 334.8 v 221.76 h -334.8 z"
       style="fill:#ffffff;fill-opacity:1;fill-rule:nonzero;stroke:none"
       transform="matrix(1.3333333,0,0,-1.3333333,0,366.38)" />
    <path
       id="path3"
       d="m 62.355682,41.8875 v -6"
       fill="currentColor"
       style="fill-opacity:1;fill-rule:nonzero;stroke:#262626;stroke-width:1.25;stroke-linecap:butt;stroke-linejoin:round;stroke-miterlimit:10;stroke-dasharray:none;stroke-opacity:1"
       transform="matrix(1.3333333,0,0,-1.3333333,0,366.38)" />
    <text
       id="text3"
       xml:space="preserve"
       transform="matrix(1.3333333,0,0,1.3333333,79.057576,333.69667)"><tspan
         id="tspan3"
         fill="currentColor"
         style="font-variant:normal;font-weight:normal;font-size:11px;font-family:'IBM Plex Sans', 'Open Sans', verdana, arial, sans-serif;writing-mode:lr-tb;fill-opacity:1;fill-rule:nonzero;stroke:none"
         x="0"
         y="0">0</tspan></text>
    <path
       id="path4"
       d="m 95.498728,41.8875 v -6"
       fill="currentColor"
       style="fill-opacity:1;fill-rule:nonzero;stroke:#262626;stroke-width:1.25;stroke-linecap:butt;stroke-linejoin:round;stroke-miterlimit:10;stroke-dasharray:none;stroke-opacity:1"
       transform="matrix(1.3333333,0,0,-1.3333333,0,366.38)" />
    <text
       id="text4"
       xml:space="preserve"
       transform="matrix(1.3333333,0,0,1.3333333,123.2483,333.69667)"><tspan
         id="tspan4"
         fill="currentColor"
         style="font-variant:normal;font-weight:normal;font-size:11px;font-family:'IBM Plex Sans', 'Open Sans', verdana, arial, sans-serif;writing-mode:lr-tb;fill-opacity:1;fill-rule:nonzero;stroke:none"
         x="0"
         y="0">2</tspan></text>
    <path
       id="path5"
       d="m 128.64177,41.8875 v -6"
       fill="currentColor"
       style="fill-opacity:1;fill-rule:nonzero;stroke:#262626;stroke-width:1.25;stroke-linecap:butt;stroke-linejoin:round;stroke-miterlimit:10;stroke-dasharray:none;stroke-opacity:1"
       transform="matrix(1.3333333,0,0,-1.3333333,0,366.38)" />
    <text
       id="text5"
       xml:space="preserve"
       transform="matrix(1.3333333,0,0,1.3333333,167.43903,333.69667)"><tspan
         id="tspan5"
         fill="currentColor"
         style="font-variant:normal;font-weight:normal;font-size:11px;font-family:'IBM Plex Sans', 'Open Sans', verdana, arial, sans-serif;writing-mode:lr-tb;fill-opacity:1;fill-rule:nonzero;stroke:none"
         x="0"
         y="0">4</tspan></text>
    <path
       id="path6"
       d="m 161.78482,41.8875 v -6"
       fill="currentColor"
       style="fill-opacity:1;fill-rule:nonzero;stroke:#262626;stroke-width:1.25;stroke-linecap:butt;stroke-linejoin:round;stroke-miterlimit:10;stroke-dasharray:none;stroke-opacity:1"
       transform="matrix(1.3333333,0,0,-1.3333333,0,366.38)" />
    <text
       id="text6"
       xml:space="preserve"
       transform="matrix(1.3333333,0,0,1.3333333,211.62976,333.69667)"><tspan
         id="tspan6"
         fill="currentColor"
         style="font-variant:normal;font-weight:normal;font-size:11px;font-family:'IBM Plex Sans', 'Open Sans', verdana, arial, sans-serif;writing-mode:lr-tb;fill-opacity:1;fill-rule:nonzero;stroke:none"
         x="0"
         y="0">6</tspan></text>
    <path
       id="path7"
       d="m 194.92786,41.8875 v -6"
       fill="currentColor"
       style="fill-opacity:1;fill-rule:nonzero;stroke:#262626;stroke-width:1.25;stroke-linecap:butt;stroke-linejoin:round;stroke-miterlimit:10;stroke-dasharray:none;stroke-opacity:1"
       transform="matrix(1.3333333,0,0,-1.3333333,0,366.38)" />
    <text
       id="text7"
       xml:space="preserve"
       transform="matrix(1.3333333,0,0,1.3333333,255.82049,333.69667)"><tspan
         id="tspan7"
         fill="currentColor"
         style="font-variant:normal;font-weight:normal;font-size:11px;font-family:'IBM Plex Sans', 'Open Sans', verdana, arial, sans-serif;writing-mode:lr-tb;fill-opacity:1;fill-rule:nonzero;stroke:none"
         x="0"
         y="0">8</tspan></text>
    <path
       id="path8"
       d="m 228.07091,41.8875 v -6"
       fill="currentColor"
       style="fill-opacity:1;fill-rule:nonzero;stroke:#262626;stroke-width:1.25;stroke-linecap:butt;stroke-linejoin:round;stroke-miterlimit:10;stroke-dasharray:none;stroke-opacity:1"
       transform="matrix(1.3333333,0,0,-1.3333333,0,366.38)" />
    <text
       id="text8"
       xml:space="preserve"
       transform="matrix(1.3333333,0,0,1.3333333,295.92788,333.69667)"><tspan
         id="tspan8"
         fill="currentColor"
         style="font-variant:normal;font-weight:normal;font-size:11px;font-family:'IBM Plex Sans', 'Open Sans', verdana, arial, sans-serif;writing-mode:lr-tb;fill-opacity:1;fill-rule:nonzero;stroke:none"
         x="0"
         y="0">10</tspan></text>
    <path
       id="path9"
       d="m 261.21396,41.8875 v -6"
       fill="currentColor"
       style="fill-opacity:1;fill-rule:nonzero;stroke:#262626;stroke-width:1.25;stroke-linecap:butt;stroke-linejoin:round;stroke-miterlimit:10;stroke-dasharray:none;stroke-opacity:1"
       transform="matrix(1.3333333,0,0,-1.3333333,0,366.38)" />
    <text
       id="text9"
       xml:space="preserve"
       transform="matrix(1.3333333,0,0,1.3333333,340.11861,333.69667)"><tspan
         id="tspan9"
         fill="currentColor"
         style="font-variant:normal;font-weight:normal;font-size:11px;font-family:'IBM Plex Sans', 'Open Sans', verdana, arial, sans-serif;writing-mode:lr-tb;fill-opacity:1;fill-rule:nonzero;stroke:none"
         x="0"
         y="0">12</tspan></text>
    <path
       id="path10"
       d="m 294.357,41.8875 v -6"
       fill="currentColor"
       style="fill-opacity:1;fill-rule:nonzero;stroke:#262626;stroke-width:1.25;stroke-linecap:butt;stroke-linejoin:round;stroke-miterlimit:10;stroke-dasharray:none;stroke-opacity:1"
       transform="matrix(1.3333333,0,0,-1.3333333,0,366.38)" />
    <text
       id="text10"
       xml:space="preserve"
       transform="matrix(1.3333333,0,0,1.3333333,384.30934,333.69667)"><tspan
         id="tspan10"
         fill="currentColor"
         style="font-variant:normal;font-weight:normal;font-size:11px;font-family:'IBM Plex Sans', 'Open Sans', verdana, arial, sans-serif;writing-mode:lr-tb;fill-opacity:1;fill-rule:nonzero;stroke:none"
         x="0"
         y="0">14</tspan></text>
    <path
       id="path11"
       d="m 327.50005,41.8875 v -6"
       fill="currentColor"
       style="fill-opacity:1;fill-rule:nonzero;stroke:#262626;stroke-width:1.25;stroke-linecap:butt;stroke-linejoin:round;stroke-miterlimit:10;stroke-dasharray:none;stroke-opacity:1"
       transform="matrix(1.3333333,0,0,-1.3333333,0,366.38)" />
    <text
       id="text11"
       xml:space="preserve"
       transform="matrix(1.3333333,0,0,1.3333333,428.50006,333.69667)"><tspan
         id="tspan11"
         fill="currentColor"
         style="font-variant:normal;font-weight:normal;font-size:11px;font-family:'IBM Plex Sans', 'Open Sans', verdana, arial, sans-serif;writing-mode:lr-tb;fill-opacity:1;fill-rule:nonzero;stroke:none"
         x="0"
         y="0">16</tspan></text>
    <path
       id="path12"
       d="m 360.64309,41.8875 v -6"
       fill="currentColor"
       style="fill-opacity:1;fill-rule:nonzero;stroke:#262626;stroke-width:1.25;stroke-linecap:butt;stroke-linejoin:round;stroke-miterlimit:10;stroke-dasharray:none;stroke-opacity:1"
       transform="matrix(1.3333333,0,0,-1.3333333,0,366.38)" />
    <text
       id="text12"
       xml:space="preserve"
       transform="matrix(1.3333333,0,0,1.3333333,472.69079,333.69667)"><tspan
         id="tspan12"
         fill="currentColor"
         style="font-variant:normal;font-weight:normal;font-size:11px;font-family:'IBM Plex Sans', 'Open Sans', verdana, arial, sans-serif;writing-mode:lr-tb;fill-opacity:1;fill-rule:nonzero;stroke:none"
         x="0"
         y="0">18</tspan></text>
    <text
       id="text13"
       xml:space="preserve"
       transform="matrix(1.3333333,0,0,1.3333333,174.925,353.5925)"><tspan
         id="tspan13"
         fill="currentColor"
         style="font-variant:normal;font-weight:normal;font-size:12px;font-family:'IBM Plex Sans', 'Open Sans', verdana, arial, sans-serif;writing-mode:lr-tb;fill-opacity:1;fill-rule:nonzero;stroke:none"
         x="0"
         y="0">Number of months spent in IUT</tspan></text>
    <path
       id="path13"
       d="m 47.1375,41.8875 h -6"
       fill="currentColor"
       style="fill-opacity:1;fill-rule:nonzero;stroke:#262626;stroke-width:1.25;stroke-linecap:butt;stroke-linejoin:round;stroke-miterlimit:10;stroke-dasharray:none;stroke-opacity:1"
       transform="matrix(1.3333333,0,0,-1.3333333,0,366.38)" />
    <text
       id="text14"
       xml:space="preserve"
       transform="matrix(1.3333333,0,0,1.3333333,29.766667,315.78)"><tspan
         id="tspan14"
         fill="currentColor"
         style="font-variant:normal;font-weight:normal;font-size:11px;font-family:'IBM Plex Sans', 'Open Sans', verdana, arial, sans-serif;writing-mode:lr-tb;fill-opacity:1;fill-rule:nonzero;stroke:none"
         x="0"
         y="0">0.0</tspan></text>
    <path
       id="path14"
       d="m 47.1375,86.2395 h -6"
       fill="currentColor"
       style="fill-opacity:1;fill-rule:nonzero;stroke:#262626;stroke-width:1.25;stroke-linecap:butt;stroke-linejoin:round;stroke-miterlimit:10;stroke-dasharray:none;stroke-opacity:1"
       transform="matrix(1.3333333,0,0,-1.3333333,0,366.38)" />
    <text
       id="text15"
       xml:space="preserve"
       transform="matrix(1.3333333,0,0,1.3333333,29.766667,256.644)"><tspan
         id="tspan15"
         fill="currentColor"
         style="font-variant:normal;font-weight:normal;font-size:11px;font-family:'IBM Plex Sans', 'Open Sans', verdana, arial, sans-serif;writing-mode:lr-tb;fill-opacity:1;fill-rule:nonzero;stroke:none"
         x="0"
         y="0">0.2</tspan></text>
    <path
       id="path15"
       d="m 47.1375,130.5915 h -6"
       fill="currentColor"
       style="fill-opacity:1;fill-rule:nonzero;stroke:#262626;stroke-width:1.25;stroke-linecap:butt;stroke-linejoin:round;stroke-miterlimit:10;stroke-dasharray:none;stroke-opacity:1"
       transform="matrix(1.3333333,0,0,-1.3333333,0,366.38)" />
    <text
       id="text16"
       xml:space="preserve"
       transform="matrix(1.3333333,0,0,1.3333333,29.766667,197.508)"><tspan
         id="tspan16"
         fill="currentColor"
         style="font-variant:normal;font-weight:normal;font-size:11px;font-family:'IBM Plex Sans', 'Open Sans', verdana, arial, sans-serif;writing-mode:lr-tb;fill-opacity:1;fill-rule:nonzero;stroke:none"
         x="0"
         y="0">0.4</tspan></text>
    <path
       id="path16"
       d="m 47.1375,174.9435 h -6"
       fill="currentColor"
       style="fill-opacity:1;fill-rule:nonzero;stroke:#262626;stroke-width:1.25;stroke-linecap:butt;stroke-linejoin:round;stroke-miterlimit:10;stroke-dasharray:none;stroke-opacity:1"
       transform="matrix(1.3333333,0,0,-1.3333333,0,366.38)" />
    <text
       id="text17"
       xml:space="preserve"
       transform="matrix(1.3333333,0,0,1.3333333,29.766667,138.372)"><tspan
         id="tspan17"
         fill="currentColor"
         style="font-variant:normal;font-weight:normal;font-size:11px;font-family:'IBM Plex Sans', 'Open Sans', verdana, arial, sans-serif;writing-mode:lr-tb;fill-opacity:1;fill-rule:nonzero;stroke:none"
         x="0"
         y="0">0.6</tspan></text>
    <path
       id="path17"
       d="m 47.1375,219.2955 h -6"
       fill="currentColor"
       style="fill-opacity:1;fill-rule:nonzero;stroke:#262626;stroke-width:1.25;stroke-linecap:butt;stroke-linejoin:round;stroke-miterlimit:10;stroke-dasharray:none;stroke-opacity:1"
       transform="matrix(1.3333333,0,0,-1.3333333,0,366.38)" />
    <text
       id="text18"
       xml:space="preserve"
       transform="matrix(1.3333333,0,0,1.3333333,29.766667,79.236)"><tspan
         id="tspan18"
         fill="currentColor"
         style="font-variant:normal;font-weight:normal;font-size:11px;font-family:'IBM Plex Sans', 'Open Sans', verdana, arial, sans-serif;writing-mode:lr-tb;fill-opacity:1;fill-rule:nonzero;stroke:none"
         x="0"
         y="0">0.8</tspan></text>
    <path
       id="path18"
       d="m 47.1375,263.6475 h -6"
       fill="currentColor"
       style="fill-opacity:1;fill-rule:nonzero;stroke:#262626;stroke-width:1.25;stroke-linecap:butt;stroke-linejoin:round;stroke-miterlimit:10;stroke-dasharray:none;stroke-opacity:1"
       transform="matrix(1.3333333,0,0,-1.3333333,0,366.38)" />
    <text
       id="text19"
       xml:space="preserve"
       transform="matrix(1.3333333,0,0,1.3333333,29.766667,20.1)"><tspan
         id="tspan19"
         fill="currentColor"
         style="font-variant:normal;font-weight:normal;font-size:11px;font-family:'IBM Plex Sans', 'Open Sans', verdana, arial, sans-serif;writing-mode:lr-tb;fill-opacity:1;fill-rule:nonzero;stroke:none"
         x="0"
         y="0">1.0</tspan></text>
    <text
       id="text20"
       xml:space="preserve"
       transform="matrix(0,-1.3333333,1.3333333,0,21.245833,240.94)"><tspan
         id="tspan20"
         fill="currentColor"
         style="font-variant:normal;font-weight:normal;font-size:12px;font-family:'IBM Plex Sans', 'Open Sans', verdana, arial, sans-serif;writing-mode:lr-tb;fill-opacity:1;fill-rule:nonzero;stroke:none"
         x="0"
         y="0">Proportion of modules</tspan></text>
    <path
       id="path20"
       d="m 62.355682,41.8875 v 3.20231 h 0.552384 v 2.401733 h 0.552384 v 1.200867 h 0.552384 v 1.200866 h 0.552384 v 1.200867 h 0.552384 v 2.401732 h 0.552384 v 1.200867 h 0.552384 v 2.401733 h 0.552385 v 1.200866 h 0.552384 v 1.200867 h 0.552384 v 1.200866 h 0.552384 v 0.400289 h 0.552384 v 1.200866 h 0.552384 v 0.400289 h 0.552384 v 0.400289 h 0.552384 v 1.601155 h 1.657153 v 0.800578 h 0.552384 v 1.200866 h 0.552384 v 0.400289 h 0.552384 v 0.800578 h 0.552384 v 2.802021 h 0.552384 v 2.001444 H 75.6129 v 0.800578 h 0.552384 v 3.602599 h 1.104768 v 0.400289 h 0.552384 v 0.400289 h 0.552385 v 0.800577 h 0.552384 v 2.001444 h 0.552384 v 0.400289 h 0.552384 v 0.400289 h 0.552384 v 1.200866 h 0.552384 v 0.400289 h 2.761921 v 0.400289 h 1.657152 v 0.400289 h 0.552384 v 0.400289 h 0.552384 v 1.601155 h 1.104768 v 2.401733 h 1.104768 v 0.400289 h 0.552384 v 2.001444 h 1.104769 v 0.400288 h 1.104768 v 0.800578 h 0.552384 v 0.400289 h 0.552384 v 0.800578 h 0.552384 v 0.400288 h 1.657152 v 0.400289 h 0.552385 v 0.400289 h 0.552384 v 0.400289 h 0.552384 V 95.5262 h 0.552384 v 0.800578 h 1.104768 v 0.800578 H 99.9178 v 0.800577 h 2.76192 v 0.400289 h 1.65715 v 0.400289 h 1.10477 V 99.1288 h 1.65715 v 0.800577 h 0.55239 v 0.800583 h 2.76192 v 0.80057 h 1.10477 v 0.40029 h 0.55238 v 2.40173 h 0.55238 v 0.80058 h 0.55239 v 0.40029 h 0.55238 v 0.80058 h 1.10477 v 0.40029 h 0.55239 v 0.40029 h 0.55238 v 0.40029 h 0.55238 v 0.40028 h 0.55239 v 0.80058 h 1.10476 v 0.40029 h 0.55239 v 1.20087 h 0.55238 v 0.40029 h 1.10477 v 0.40028 h 0.55239 v 0.40029 h 0.55238 v 0.40029 h 0.55238 v 0.40029 h 0.55239 v 0.40029 h 0.55238 v 0.80058 h 3.86669 v 2.80202 h 0.55239 v 2.00144 h 0.55238 v 0.40029 h 0.55238 v 0.80058 h 0.55239 v 0.40029 h 1.10477 v 0.40029 h 1.10476 v 0.40029 h 0.55239 v 0.80057 h 0.55238 v 0.80058 h 0.55239 v 0.80058 h 0.55238 v 0.40029 h 2.20954 v 1.60115 h 1.65715 v 0.40029 h 1.65715 v 0.40029 h 0.55238 v 0.80058 h 0.55239 v 0.40029 h 0.55238 v 0.80057 h 1.10477 v 0.80058 h 0.55239 v 0.40029 h 0.55238 v 2.40173 h 0.55238 v 0.80058 h 2.76192 v 0.40029 h 0.55239 v 1.60115 h 1.10477 v 0.80058 h 0.55238 v 0.40029 h 0.55238 v 0.40029 h 2.20954 v 1.20087 h 0.55238 v 1.20086 h 2.20954 v 2.00145 h 0.55239 v 0.80057 h 1.10476 v 0.40029 h 0.55239 v 0.40029 h 0.55238 v 0.40029 h 1.65715 v 2.40173 h 0.55239 v 0.40029 h 0.55238 v 0.80058 h 2.76192 v 0.40029 h 1.10477 v 0.40029 h 4.41907 v 0.80057 h 1.10477 v 0.40029 h 0.55239 v 0.40029 h 1.10476 v 0.40029 h 0.55239 v 0.80058 h 1.10477 v 1.20087 h 1.65715 v 0.40028 h 0.55238 v 0.80058 h 1.10477 v 0.80058 h 0.55238 v 0.40029 h 1.10477 v 0.40029 h 1.10477 v 1.20086 h 0.55239 v 0.40029 h 2.76192 v 0.40029 h 0.55238 v 0.40029 h 1.10477 v 0.40029 h 1.65715 v 0.40029 h 0.55239 v 0.80058 h 2.76191 v 0.40028 h 2.20954 v 0.40029 h 0.55239 v 0.40029 h 0.55238 v 0.80058 h 1.65715 v 1.60115 h 0.55239 v 0.40029 h 2.20953 v 0.40029 h 2.20954 v 0.40029 h 1.10477 v 0.40029 h 0.55238 v 1.20087 h 2.20954 v 0.40028 h 0.55238 v 1.60116 h 1.65715 v 0.80058 h 0.55239 v 0.40029 h 0.55238 v 1.20086 h 0.55239 v 1.20087 h 3.3143 v 0.40029 h 0.55239 v 0.40029 h 1.10476 v 0.40029 h 1.10477 v 0.40028 h 0.55239 v 0.40029 h 2.76192 v 0.80058 h 1.10476 v 0.40029 h 0.55239 v 0.80058 h 1.65715 v 0.40029 h 0.55238 v 0.80057 h 1.10477 v 1.60116 h 0.55239 v 0.80058 h 0.55238 v 0.40029 h 0.55238 v 0.80057 h 1.10477 v 0.40029 h 1.65716 v 0.40029 h 4.97145 v 0.40029 h 1.10477 v 0.80058 h 1.10477 v 0.40029 h 0.55238 v 0.80057 h 0.55239 v 1.20087 h 0.55238 v 0.40029 h 0.55238 v 0.40029 h 1.65716 v 1.20086 h 0.55238 v 0.40029 h 0.55239 v 0.40029 h 0.55238 v 0.80058 h 1.65715 v 0.80058 h 0.55239 v 0.80057 h 1.10476 v 2.00145 h 0.55239 v 0.40029 h 1.10477 v 1.20086 h 1.65715 v 0.40029 h 0.55238 v 0.40029 h 0.55239 v 0.40029 h 0.55238 v 0.80058 h 0.55238 v 2.80202 h 0.55239 v 0.40029 h 1.10477 v 0.40029 h 2.20953 v 0.80057 h 0.55239 v 0.80058 h 1.10477 v 1.20087 h 4.41907 v 1.20087 h 1.65715 v 0.40028 h 1.10477 v 0.80058 h 4.97146 v 0.40029 h 0.55238 v 0.40029 h 0.55238 v 0.40029 h 1.10477 v 0.80058 h 8.28576 v 0.40028 h 2.20954 v 0.40029 h 1.65715 v 0.40029 h 1.10477 v 0.40029 h 1.65715 v 0.40029 h 2.20954 v 0.80058 h 1.10477 v 0.40029 h 1.65715 v 0.80057 h 2.20954 v 0.40029 h 3.3143 v 0.80058 h 0.55239 v 0.40029 h 6.6286 v 0.40029 h 2.20954 v 0.40029 h 2.20954 v 0.40029 h 2.20953 v 0.40028 h 1.65716 v 0.40029 h 3.86668 v 0.40029 h 0.55239 v 0.40029 h 1.65715 v 0.40029 h 1.10477 v 0.40029 h 2.76192 v 0.40029 h 0.55238 v 0.80057 h 1.65716 v 0.80058 h 3.3143 v 0.40029 h 3.31431 v 1.20087 h 3.3143 v 0.40029 h 3.3143 v 0.40029 h 2.20954 v 0.80057 h 3.3143 v 0.40029 h 0.55239 v 0.40029 h 1.10477 v 1.20087 h 1.65715 v 0.40029 h 3.3143 v 0.40028 h 0.55239 v 0.80058 h 0.55238 v 0.80058 h 0.55239 v 0.40029 h 1.65715 v 0.40029 h 1.10477 v 0.40029 h 2.20953 v 0.40029 h 1.10477 v 0.40028 h 1.10477 v 1.20087 h 0.55238 v 0.40029 h 2.76192 v 0.80058 h 0.55239 v 2.40173 h 0.55238 v 0.40029 h 1.10477 v 0.40029 h 0.55238 v 0.80057 h 1.65716 v 0.80058 h 0.55238 v 0.40029 h 0.55239 v 0.80058 h 0.55238 v 0.80058 h 0.55238 v 0.40029 h 0.55239 v 2.00144 h 0.55238 v 25.61848 h 0.55239 v 0.80058 h 1.65715 v 0.40029 0"
       style="fill:none;stroke:#fc8d62;stroke-width:1.5;stroke-linecap:round;stroke-linejoin:round;stroke-miterlimit:10;stroke-dasharray:none;stroke-opacity:1"
       transform="matrix(1.3333333,0,0,-1.3333333,0,366.38)"
        /> <!-- clip-path="url(#clipPath21)" -->
    <path
       id="path22"
       d="m 62.355682,41.8875 v 4.128511 h 0.552384 v 0.589787 h 0.552384 v 2.359149 h 0.552384 v 4.12851 h 0.552384 v 2.948937 h 0.552384 v 2.948936 h 0.552384 v 2.359149 h 0.552384 v 3.538723 h 0.552385 v 1.179575 h 0.552384 v 1.179574 h 0.552384 v 0.589787 h 0.552384 v 3.538724 h 1.104768 v 1.769361 h 0.552384 v 4.128511 h 0.552384 v 5.897872 h 0.552384 v 10.026383 h 0.552384 V 97.3275 h 0.552385 v 1.179574 h 0.552384 v 1.179575 h 0.552384 v 0.589791 h 1.104768 v 0.58978 h 2.209536 v 1.76936 h 1.104768 v 1.17958 h 0.552385 v 0.58979 h 0.552384 v 1.17957 h 0.552384 v 0.58979 h 0.552384 v 0.58979 h 0.552384 v 0.58978 h 0.552384 v 0.58979 h 1.104768 v 1.17957 h 1.104768 v 0.58979 h 0.552385 v 1.17958 h 0.552384 v 1.17957 h 1.104768 v 0.58979 h 0.552384 v 0.58979 h 0.552384 v 0.58978 h 2.76192 v 0.58979 h 0.552385 v 0.58979 h 1.657152 v 1.17957 h 0.552384 v 1.17958 h 0.552384 v 1.76936 h 0.552384 v 0.58979 h 3.314305 v 0.58978 h 0.552384 v 0.58979 h 0.552384 v 0.58979 h 1.104768 v 0.58978 H 99.9178 v 0.58979 h 1.10477 v 0.58979 h 1.65715 v 0.58979 h 0.55239 v 0.58978 h 0.55238 v 0.58979 h 0.55238 v 2.94894 h 0.55239 v 0.58978 h 1.10477 v 2.35915 h 0.55238 v 0.58979 h 0.55238 v 0.58979 h 1.10477 v 0.58978 h 1.10477 v 0.58979 h 2.76192 v 0.58979 h 1.10477 v 1.17957 h 1.10477 v 1.17958 h 1.10477 v 0.58978 h 0.55238 v 0.58979 h 1.10477 v 1.17958 h 1.65715 v 0.58978 h 0.55238 v 1.17958 h 0.55239 v 4.12851 h 1.10477 v 0.58979 h 2.20953 v 1.76936 h 1.10477 v 1.17957 h 1.65715 v 0.58979 h 0.55239 v 0.58979 h 0.55238 v 0.58978 h 1.10477 v 0.58979 h 0.55238 v 1.17958 h 1.65716 v 0.58978 h 1.65715 v 0.58979 h 1.65715 v 0.58979 h 1.10477 v 1.17957 h 0.55238 v 0.58979 h 1.10477 v 0.58979 h 0.55238 v 1.17957 h 2.76192 v 1.17957 h 0.55239 v 1.17958 h 0.55238 v 0.58979 h 2.20954 v 1.17957 h 0.55238 v 0.58979 h 1.10477 v 0.58979 h 0.55239 v 0.58978 h 0.55238 v 0.58979 h 2.20954 v 0.58979 h 1.10476 v 0.58978 h 1.65716 v 0.58979 h 0.55238 v 0.58979 h 0.55238 v 0.58979 h 0.55239 v 1.17957 h 3.86669 v 0.58979 h 0.55238 v 1.17957 h 2.20954 v 1.17958 h 0.55238 v 0.58978 h 0.55239 v 0.58979 h 1.10476 v 1.17958 h 0.55239 v 0.58978 h 1.65715 v 0.58979 h 1.65715 v 0.58979 h 1.10477 v 0.58978 h 0.55239 v 1.17958 h 1.10476 v 1.17957 h 1.10477 v 1.76937 h 0.55239 v 0.58978 h 1.10476 v 0.58979 h 2.20954 v 0.58979 h 3.86669 v 1.17957 h 0.55238 v 0.58979 h 0.55239 v 0.58979 h 3.3143 v 0.58978 h 0.55239 v 2.35915 h 1.10476 v 0.58979 h 0.55239 v 0.58979 h 1.65715 v 2.35915 h 2.20954 v 0.58978 h 0.55238 v 0.58979 h 1.10477 v 0.58979 h 2.20954 v 0.58978 h 0.55238 v 0.58979 h 0.55238 v 0.58979 h 0.55239 v 0.58979 h 1.10477 v 0.58978 h 0.55238 v 0.58979 h 0.55238 v 1.17957 h 1.10477 v 0.58979 h 0.55239 v 0.58979 h 3.86669 v 0.58979 h 1.10476 v 0.58978 h 1.65716 v 1.17958 h 1.10476 v 0.58979 h 3.86669 v 1.17957 h 0.55239 v 0.58979 h 0.55238 v 0.58978 h 0.55239 v 0.58979 h 2.76192 v 1.17958 h 0.55238 v 0.58978 h 0.55238 v 0.58979 h 1.65716 v 0.58979 h 0.55238 v 1.17957 h 0.55238 v 0.58979 h 0.55239 v 0.58979 h 1.10477 v 1.76936 h 0.55238 v 0.58979 h 0.55238 v 0.58978 h 0.55239 v 0.58979 h 0.55238 v 1.76936 h 0.55239 v 0.58979 h 0.55238 v 0.58979 h 0.55238 v 0.58978 h 0.55239 v 0.58979 h 0.55238 v 1.76936 h 0.55239 v 0.58979 h 0.55238 v 2.35915 h 1.10477 v 0.58979 h 3.3143 v 1.76936 h 1.65716 v 0.58978 h 0.55238 v 0.58979 h 1.10477 v 0.58979 h 3.86669 v 0.58979 h 0.55238 v 2.35915 h 7.73338 v 0.58978 h 0.55238 v 0.58979 h 0.55239 v 0.58979 h 1.65715 v 1.17957 h 2.20954 v 0.58979 h 2.76192 v 0.58979 h 0.55238 v 0.58978 h 1.10477 v 0.58979 h 0.55238 v 0.58979 h 0.55239 v 0.58979 h 1.10476 v 0.58978 h 1.10477 v 0.58979 h 1.65716 v 0.58979 h 1.65715 v 0.58978 h 2.20953 v 0.58979 h 0.55239 v 0.58979 h 1.65715 v 0.58979 h 0.55238 v 0.58978 h 3.31431 v 0.58979 h 3.86669 v 2.35915 h 0.55238 v 0.58979 h 5.52384 v 0.58978 h 0.55239 v 0.58979 h 6.07622 v 0.58979 h 1.65715 v 0.58979 h 1.10477 v 0.58978 h 2.76192 v 1.17958 h 2.20954 v 0.58978 h 0.55238 v 0.58979 h 2.20954 v 1.17958 h 6.07622 v 0.58978 h 1.65716 v 0.58979 h 4.41907 v 0.58979 h 1.65715 v 1.76936 h 2.20954 v 0.58979 h 8.28576 v 0.58978 h 2.76192 v 0.58979 h 3.86669 v 0.58979 h 0.55238 v 0.58979 h 1.10477 v 0.58978 h 1.10477 v 0.58979 h 3.3143 v 0.58979 h 5.52384 v 0.58978 h 1.10477 v 0.58979 h 0.55239 v 0.58979 h 8.83814 v 1.17957 h 3.31431 v 1.76937 h 1.10477 v 1.17957 0"
       style="fill:none;stroke:#66c2a5;stroke-width:1.5;stroke-linecap:round;stroke-linejoin:round;stroke-miterlimit:10;stroke-dasharray:none;stroke-opacity:1"
       transform="matrix(1.3333333,0,0,-1.3333333,0,366.38)"
        /> <!--clip-path="url(#clipPath23)" -->
    <path
       id="path24"
       d="m 360.64309,41.8875 v 221.76"
       style="fill:none;stroke:#ff0000;stroke-width:1.5;stroke-linecap:butt;stroke-linejoin:round;stroke-miterlimit:10;stroke-dasharray:5.55, 2.4;stroke-dashoffset:0;stroke-opacity:1"
       transform="matrix(1.3333333,0,0,-1.3333333,0,366.38)"
        /> <!-- clip-path="url(#clipPath25)" -->
    <path
       id="path26"
       d="m 47.1375,41.8875 v 221.76"
       style="fill:none;stroke:#262626;stroke-width:1.25;stroke-linecap:square;stroke-linejoin:miter;stroke-miterlimit:10;stroke-dasharray:none;stroke-opacity:1"
       transform="matrix(1.3333333,0,0,-1.3333333,0,366.38)" />
    <path
       id="path27"
       d="m 381.9375,41.8875 v 221.76"
       style="fill:none;stroke:#262626;stroke-width:1.25;stroke-linecap:square;stroke-linejoin:miter;stroke-miterlimit:10;stroke-dasharray:none;stroke-opacity:1"
       transform="matrix(1.3333333,0,0,-1.3333333,0,366.38)" />
    <path
       id="path28"
       d="m 47.1375,41.8875 h 334.8"
       style="fill:none;stroke:#262626;stroke-width:1.25;stroke-linecap:square;stroke-linejoin:miter;stroke-miterlimit:10;stroke-dasharray:none;stroke-opacity:1"
       transform="matrix(1.3333333,0,0,-1.3333333,0,366.38)" />
    <path
       id="path29"
       d="m 47.1375,263.6475 h 334.8"
       style="fill:none;stroke:#262626;stroke-width:1.25;stroke-linecap:square;stroke-linejoin:miter;stroke-miterlimit:10;stroke-dasharray:none;stroke-opacity:1"
       transform="matrix(1.3333333,0,0,-1.3333333,0,366.38)" />
    <path
       id="path30"
       d="m 54.8375,207.23812 h 90.90312 c 1.46667,0 2.2,0.73334 2.2,2.20001 v 46.50937 c 0,1.46667 -0.73333,2.2 -2.2,2.2 H 54.8375 c -1.466667,0 -2.2,-0.73333 -2.2,-2.2 v -46.50937 c 0,-1.46667 0.733333,-2.20001 2.2,-2.20001 z"
       style="fill:#ffffff;fill-opacity:0.8;fill-rule:nonzero;stroke:#cccccc;stroke-width:1;stroke-linecap:butt;stroke-linejoin:miter;stroke-miterlimit:10;stroke-dasharray:none;stroke-opacity:0.8"
       transform="matrix(1.3333333,0,0,-1.3333333,0,366.38)" />
    <text
       id="text30"
       xml:space="preserve"
       transform="matrix(1.3333333,0,0,1.3333333,102.59375,39.508333)"><tspan
         id="tspan30"
         fill="black"
         style="font-variant:normal;font-weight:normal;font-size:12px;font-family:'IBM Plex Sans', 'Open Sans', verdana, arial, sans-serif;writing-mode:lr-tb;fill-opacity:1;fill-rule:nonzero;stroke:none"
         x="0"
         y="0">standard</tspan></text>
    <path
       id="path31"
       d="m 57.0375,233.23812 h 11 v 0 h 11 v 0"
       style="fill:none;stroke:#66c2a5;stroke-width:1.5;stroke-linecap:round;stroke-linejoin:round;stroke-miterlimit:10;stroke-dasharray:none;stroke-opacity:1"
       transform="matrix(1.3333333,0,0,-1.3333333,0,366.38)" />
    <text
       id="text31"
       xml:space="preserve"
       transform="matrix(1.3333333,0,0,1.3333333,117.11667,60.529167)"><tspan
         id="tspan31"
         fill="black"
         style="font-variant:normal;font-weight:normal;font-size:11px;font-family:'IBM Plex Sans', 'Open Sans', verdana, arial, sans-serif;writing-mode:lr-tb;fill-opacity:1;fill-rule:nonzero;stroke:none"
         x="0"
         y="0">FIPS 140-2</tspan></text>
    <path
       id="path32"
       d="m 57.0375,217.67562 h 11 v 0 h 11 v 0"
       style="fill:none;stroke:#fc8d62;stroke-width:1.5;stroke-linecap:round;stroke-linejoin:round;stroke-miterlimit:10;stroke-dasharray:none;stroke-opacity:1"
       transform="matrix(1.3333333,0,0,-1.3333333,0,366.38)" />
    <text
       id="text32"
       xml:space="preserve"
       transform="matrix(1.3333333,0,0,1.3333333,117.11667,81.279167)"><tspan
         id="tspan32"
         fill="black"
         style="font-variant:normal;font-weight:normal;font-size:11px;font-family:'IBM Plex Sans', 'Open Sans', verdana, arial, sans-serif;writing-mode:lr-tb;fill-opacity:1;fill-rule:nonzero;stroke:none"
         x="0"
         y="0">FIPS 140-3</tspan></text>
  </g>
</svg>
