<?xml version="1.0" encoding="UTF-8" standalone="no"?>
<!-- Created with Inkscape (http://www.inkscape.org/) -->

<svg
   version="1.1"
   id="svg1"
   width="369.03918"
   height="272.86249"
   viewBox="0 0 369.03918 272.86249"
   xmlns="http://www.w3.org/2000/svg"
   xmlns:svg="http://www.w3.org/2000/svg">
  <defs
     id="defs1">
    <clipPath
       clipPathUnits="userSpaceOnUse"
       id="clipPath16">
      <path
         d="M 50.059375,41.746875 H 257.32937 V 197.44687 H 50.059375 Z"
         id="path16" />
    </clipPath>
    <clipPath
       clipPathUnits="userSpaceOnUse"
       id="clipPath17">
      <path
         d="M -6.75,-6.75 H 6.75 V 6.75 H -6.75 Z"
         id="path17" />
    </clipPath>
    <clipPath
       clipPathUnits="userSpaceOnUse"
       id="clipPath19">
      <path
         d="M 50.059375,41.746875 H 257.32937 V 197.44687 H 50.059375 Z"
         transform="matrix(1.3333333,0,0,-1.3333333,0,272.8625)"
         id="path19" />
    </clipPath>
    <clipPath
       clipPathUnits="userSpaceOnUse"
       id="clipPath20">
      <path
         d="M -6.75,-6.75 H 6.75 V 6.75 H -6.75 Z"
         id="path20" />
    </clipPath>
    <clipPath
       clipPathUnits="userSpaceOnUse"
       id="clipPath22">
      <path
         d="M 50.059375,41.746875 H 257.32937 V 197.44687 H 50.059375 Z"
         transform="matrix(1.3333333,0,0,-1.3333333,0,272.8625)"
         id="path22" />
    </clipPath>
    <clipPath
       clipPathUnits="userSpaceOnUse"
       id="clipPath23">
      <path
         d="M -6.75,-6.75 H 6.75 V 6.75 H -6.75 Z"
         id="path23" />
    </clipPath>
    <clipPath
       clipPathUnits="userSpaceOnUse"
       id="clipPath25">
      <path
         d="M 50.059375,41.746875 H 257.32937 V 197.44687 H 50.059375 Z"
         transform="matrix(1.3333333,0,0,-1.3333333,0,272.8625)"
         id="path25" />
    </clipPath>
    <clipPath
       clipPathUnits="userSpaceOnUse"
       id="clipPath26">
      <path
         d="M -6.75,-6.75 H 6.75 V 6.75 H -6.75 Z"
         id="path26" />
    </clipPath>
    <clipPath
       clipPathUnits="userSpaceOnUse"
       id="clipPath28">
      <path
         d="M 50.059375,41.746875 H 257.32937 V 197.44687 H 50.059375 Z"
         transform="matrix(1.3333333,0,0,-1.3333333,0,272.8625)"
         id="path28" />
    </clipPath>
    <clipPath
       clipPathUnits="userSpaceOnUse"
       id="clipPath29">
      <path
         d="M -6.75,-6.75 H 6.75 V 6.75 H -6.75 Z"
         transform="translate(2.5000001e-6)"
         id="path29" />
    </clipPath>
    <clipPath
       clipPathUnits="userSpaceOnUse"
       id="clipPath31">
      <path
         d="M 50.059375,41.746875 H 257.32937 V 197.44687 H 50.059375 Z"
         transform="matrix(1.3333333,0,0,-1.3333333,0,272.8625)"
         id="path31" />
    </clipPath>
    <clipPath
       clipPathUnits="userSpaceOnUse"
       id="clipPath32">
      <path
         d="M -6.75,-6.75 H 6.75 V 6.75 H -6.75 Z"
         transform="translate(2.5000001e-6)"
         id="path32" />
    </clipPath>
    <clipPath
       clipPathUnits="userSpaceOnUse"
       id="clipPath34">
      <path
         d="M 50.059375,41.746875 H 257.32937 V 197.44687 H 50.059375 Z"
         transform="matrix(1.3333333,0,0,-1.3333333,0,272.8625)"
         id="path34" />
    </clipPath>
    <clipPath
       clipPathUnits="userSpaceOnUse"
       id="clipPath35">
      <path
         d="M -6.75,-6.75 H 6.75 V 6.75 H -6.75 Z"
         transform="translate(2.5000001e-6)"
         id="path35" />
    </clipPath>
    <clipPath
       clipPathUnits="userSpaceOnUse"
       id="clipPath37">
      <path
         d="M 50.059375,41.746875 H 257.32937 V 197.44687 H 50.059375 Z"
         transform="matrix(1.3333333,0,0,-1.3333333,0,272.8625)"
         id="path37" />
    </clipPath>
    <clipPath
       clipPathUnits="userSpaceOnUse"
       id="clipPath38">
      <path
         d="M -6.75,-6.75 H 6.75 V 6.75 H -6.75 Z"
         transform="translate(2.5000001e-6)"
         id="path38" />
    </clipPath>
    <clipPath
       clipPathUnits="userSpaceOnUse"
       id="clipPath40">
      <path
         d="M 50.059375,41.746875 H 257.32937 V 197.44687 H 50.059375 Z"
         transform="matrix(1.3333333,0,0,-1.3333333,0,272.8625)"
         id="path40" />
    </clipPath>
    <clipPath
       clipPathUnits="userSpaceOnUse"
       id="clipPath41">
      <path
         d="M -6.75,-6.75 H 6.75 V 6.75 H -6.75 Z"
         transform="translate(2.5000001e-6)"
         id="path41" />
    </clipPath>
    <clipPath
       clipPathUnits="userSpaceOnUse"
       id="clipPath43">
      <path
         d="M 50.059375,41.746875 H 257.32937 V 197.44687 H 50.059375 Z"
         transform="matrix(1.3333333,0,0,-1.3333333,0,272.8625)"
         id="path43" />
    </clipPath>
    <clipPath
       clipPathUnits="userSpaceOnUse"
       id="clipPath44">
      <path
         d="M -6.75,-6.75 H 6.75 V 6.75 H -6.75 Z"
         transform="translate(2.5000001e-6)"
         id="path44" />
    </clipPath>
    <clipPath
       clipPathUnits="userSpaceOnUse"
       id="clipPath46">
      <path
         d="M 50.059375,41.746875 H 257.32937 V 197.44687 H 50.059375 Z"
         transform="matrix(1.3333333,0,0,-1.3333333,0,272.8625)"
         id="path46" />
    </clipPath>
    <clipPath
       clipPathUnits="userSpaceOnUse"
       id="clipPath47">
      <path
         d="M -6.75,-6.75 H 6.75 V 6.75 H -6.75 Z"
         transform="translate(2.5000001e-6)"
         id="path47" />
    </clipPath>
    <clipPath
       clipPathUnits="userSpaceOnUse"
       id="clipPath49">
      <path
         d="M 50.059375,41.746875 H 257.32937 V 197.44687 H 50.059375 Z"
         transform="matrix(1.3333333,0,0,-1.3333333,0,272.8625)"
         id="path49" />
    </clipPath>
    <clipPath
       clipPathUnits="userSpaceOnUse"
       id="clipPath51">
      <path
         d="M 50.059375,41.746875 H 257.32937 V 197.44687 H 50.059375 Z"
         id="path51" />
    </clipPath>
    <clipPath
       clipPathUnits="userSpaceOnUse"
       id="clipPath52">
      <path
         d="M -6.75,-6.75 H 6.75 V 6.75 H -6.75 Z"
         transform="translate(2.5000001e-6)"
         id="path52" />
    </clipPath>
    <clipPath
       clipPathUnits="userSpaceOnUse"
       id="clipPath54">
      <path
         d="M 50.059375,41.746875 H 257.32937 V 197.44687 H 50.059375 Z"
         transform="matrix(1.3333333,0,0,-1.3333333,0,272.8625)"
         id="path54" />
    </clipPath>
    <clipPath
       clipPathUnits="userSpaceOnUse"
       id="clipPath55">
      <path
         d="M -6.75,-6.75 H 6.75 V 6.75 H -6.75 Z"
         transform="translate(2.5e-6)"
         id="path55" />
    </clipPath>
    <clipPath
       clipPathUnits="userSpaceOnUse"
       id="clipPath57">
      <path
         d="M 50.059375,41.746875 H 257.32937 V 197.44687 H 50.059375 Z"
         transform="matrix(1.3333333,0,0,-1.3333333,0,272.8625)"
         id="path57" />
    </clipPath>
    <clipPath
       clipPathUnits="userSpaceOnUse"
       id="clipPath58">
      <path
         d="M -6.75,-6.75 H 6.75 V 6.75 H -6.75 Z"
         transform="translate(2.5e-6)"
         id="path58" />
    </clipPath>
    <clipPath
       clipPathUnits="userSpaceOnUse"
       id="clipPath60">
      <path
         d="M 50.059375,41.746875 H 257.32937 V 197.44687 H 50.059375 Z"
         transform="matrix(1.3333333,0,0,-1.3333333,0,272.8625)"
         id="path60" />
    </clipPath>
    <clipPath
       clipPathUnits="userSpaceOnUse"
       id="clipPath61">
      <path
         d="M -6.75,-6.75 H 6.75 V 6.75 H -6.75 Z"
         transform="translate(2.5e-6)"
         id="path61" />
    </clipPath>
    <clipPath
       clipPathUnits="userSpaceOnUse"
       id="clipPath63">
      <path
         d="M 50.059375,41.746875 H 257.32937 V 197.44687 H 50.059375 Z"
         transform="matrix(1.3333333,0,0,-1.3333333,0,272.8625)"
         id="path63" />
    </clipPath>
    <clipPath
       clipPathUnits="userSpaceOnUse"
       id="clipPath64">
      <path
         d="M -6.75,-6.75 H 6.75 V 6.75 H -6.75 Z"
         transform="translate(2.5e-6)"
         id="path64" />
    </clipPath>
    <clipPath
       clipPathUnits="userSpaceOnUse"
       id="clipPath66">
      <path
         d="M 50.059375,41.746875 H 257.32937 V 197.44687 H 50.059375 Z"
         transform="matrix(1.3333333,0,0,-1.3333333,0,272.8625)"
         id="path66" />
    </clipPath>
    <clipPath
       clipPathUnits="userSpaceOnUse"
       id="clipPath67">
      <path
         d="M -6.75,-6.75 H 6.75 V 6.75 H -6.75 Z"
         transform="translate(2.5e-6)"
         id="path67" />
    </clipPath>
    <clipPath
       clipPathUnits="userSpaceOnUse"
       id="clipPath69">
      <path
         d="M 50.059375,41.746875 H 257.32937 V 197.44687 H 50.059375 Z"
         transform="matrix(1.3333333,0,0,-1.3333333,0,272.8625)"
         id="path69" />
    </clipPath>
    <clipPath
       clipPathUnits="userSpaceOnUse"
       id="clipPath70">
      <path
         d="M -6.75,-6.75 H 6.75 V 6.75 H -6.75 Z"
         transform="translate(2.5e-6)"
         id="path70" />
    </clipPath>
    <clipPath
       clipPathUnits="userSpaceOnUse"
       id="clipPath72">
      <path
         d="M 50.059375,41.746875 H 257.32937 V 197.44687 H 50.059375 Z"
         transform="matrix(1.3333333,0,0,-1.3333333,0,272.8625)"
         id="path72" />
    </clipPath>
    <clipPath
       clipPathUnits="userSpaceOnUse"
       id="clipPath73">
      <path
         d="M -6.75,-6.75 H 6.75 V 6.75 H -6.75 Z"
         transform="translate(2.5e-6)"
         id="path73" />
    </clipPath>
    <clipPath
       clipPathUnits="userSpaceOnUse"
       id="clipPath75">
      <path
         d="M 50.059375,41.746875 H 257.32937 V 197.44687 H 50.059375 Z"
         transform="matrix(1.3333333,0,0,-1.3333333,0,272.8625)"
         id="path75" />
    </clipPath>
    <clipPath
       clipPathUnits="userSpaceOnUse"
       id="clipPath76">
      <path
         d="M -6.75,-6.75 H 6.75 V 6.75 H -6.75 Z"
         transform="translate(2.5e-6)"
         id="path76" />
    </clipPath>
    <clipPath
       clipPathUnits="userSpaceOnUse"
       id="clipPath78">
      <path
         d="M 50.059375,41.746875 H 257.32937 V 197.44687 H 50.059375 Z"
         transform="matrix(1.3333333,0,0,-1.3333333,0,272.8625)"
         id="path78" />
    </clipPath>
    <clipPath
       clipPathUnits="userSpaceOnUse"
       id="clipPath79">
      <path
         d="M -6.75,-6.75 H 6.75 V 6.75 H -6.75 Z"
         transform="translate(2.5e-6)"
         id="path79" />
    </clipPath>
    <clipPath
       clipPathUnits="userSpaceOnUse"
       id="clipPath81">
      <path
         d="M 50.059375,41.746875 H 257.32937 V 197.44687 H 50.059375 Z"
         transform="matrix(1.3333333,0,0,-1.3333333,0,272.8625)"
         id="path81" />
    </clipPath>
    <clipPath
       clipPathUnits="userSpaceOnUse"
       id="clipPath82">
      <path
         d="M -6.75,-6.75 H 6.75 V 6.75 H -6.75 Z"
         transform="translate(2.5e-6)"
         id="path82" />
    </clipPath>
    <clipPath
       clipPathUnits="userSpaceOnUse"
       id="clipPath84">
      <path
         d="M 50.059375,41.746875 H 257.32937 V 197.44687 H 50.059375 Z"
         transform="matrix(1.3333333,0,0,-1.3333333,0,272.8625)"
         id="path84" />
    </clipPath>
    <clipPath
       clipPathUnits="userSpaceOnUse"
       id="clipPath85">
      <path
         d="M -6.75,-6.75 H 6.75 V 6.75 H -6.75 Z"
         transform="translate(2.5e-6)"
         id="path85" />
    </clipPath>
    <clipPath
       clipPathUnits="userSpaceOnUse"
       id="clipPath87">
      <path
         d="M 50.059375,41.746875 H 257.32937 V 197.44687 H 50.059375 Z"
         transform="matrix(1.3333333,0,0,-1.3333333,0,272.8625)"
         id="path87" />
    </clipPath>
    <clipPath
       clipPathUnits="userSpaceOnUse"
       id="clipPath88">
      <path
         d="M -6.75,-6.75 H 6.75 V 6.75 H -6.75 Z"
         transform="translate(2.4999999e-6)"
         id="path88" />
    </clipPath>
    <clipPath
       clipPathUnits="userSpaceOnUse"
       id="clipPath90">
      <path
         d="M 50.059375,41.746875 H 257.32937 V 197.44687 H 50.059375 Z"
         transform="matrix(1.3333333,0,0,-1.3333333,0,272.8625)"
         id="path90" />
    </clipPath>
    <clipPath
       clipPathUnits="userSpaceOnUse"
       id="clipPath91">
      <path
         d="M -6.75,-6.75 H 6.75 V 6.75 H -6.75 Z"
         transform="translate(2.4999999e-6)"
         id="path91" />
    </clipPath>
    <clipPath
       clipPathUnits="userSpaceOnUse"
       id="clipPath93">
      <path
         d="M 50.059375,41.746875 H 257.32937 V 197.44687 H 50.059375 Z"
         transform="matrix(1.3333333,0,0,-1.3333333,0,272.8625)"
         id="path93" />
    </clipPath>
    <clipPath
       clipPathUnits="userSpaceOnUse"
       id="clipPath94">
      <path
         d="M -6.75,-6.75 H 6.75 V 6.75 H -6.75 Z"
         transform="translate(2.4999999e-6)"
         id="path94" />
    </clipPath>
    <clipPath
       clipPathUnits="userSpaceOnUse"
       id="clipPath96">
      <path
         d="M 50.059375,41.746875 H 257.32937 V 197.44687 H 50.059375 Z"
         transform="matrix(1.3333333,0,0,-1.3333333,0,272.8625)"
         id="path96" />
    </clipPath>
    <clipPath
       clipPathUnits="userSpaceOnUse"
       id="clipPath97">
      <path
         d="M -6.75,-6.75 H 6.75 V 6.75 H -6.75 Z"
         transform="translate(2.4999999e-6)"
         id="path97" />
    </clipPath>
    <clipPath
       clipPathUnits="userSpaceOnUse"
       id="clipPath99">
      <path
         d="M 50.059375,41.746875 H 257.32937 V 197.44687 H 50.059375 Z"
         transform="matrix(1.3333333,0,0,-1.3333333,0,272.8625)"
         id="path99" />
    </clipPath>
    <clipPath
       clipPathUnits="userSpaceOnUse"
       id="clipPath100">
      <path
         d="M -6.75,-6.75 H 6.75 V 6.75 H -6.75 Z"
         transform="translate(2.4999999e-6)"
         id="path100" />
    </clipPath>
    <clipPath
       clipPathUnits="userSpaceOnUse"
       id="clipPath102">
      <path
         d="M 50.059375,41.746875 H 257.32937 V 197.44687 H 50.059375 Z"
         transform="matrix(1.3333333,0,0,-1.3333333,0,272.8625)"
         id="path102" />
    </clipPath>
    <clipPath
       clipPathUnits="userSpaceOnUse"
       id="clipPath103">
      <path
         d="M -6.75,-6.75 H 6.75 V 6.75 H -6.75 Z"
         transform="translate(2.4999999e-6)"
         id="path103" />
    </clipPath>
    <clipPath
       clipPathUnits="userSpaceOnUse"
       id="clipPath105">
      <path
         d="M 50.059375,41.746875 H 257.32937 V 197.44687 H 50.059375 Z"
         transform="matrix(1.3333333,0,0,-1.3333333,0,272.8625)"
         id="path105" />
    </clipPath>
    <clipPath
       clipPathUnits="userSpaceOnUse"
       id="clipPath106">
      <path
         d="M -6.75,-6.75 H 6.75 V 6.75 H -6.75 Z"
         transform="translate(2.4999999e-6)"
         id="path106" />
    </clipPath>
    <clipPath
       clipPathUnits="userSpaceOnUse"
       id="clipPath108">
      <path
         d="M 50.059375,41.746875 H 257.32937 V 197.44687 H 50.059375 Z"
         transform="matrix(1.3333333,0,0,-1.3333333,0,272.8625)"
         id="path108" />
    </clipPath>
    <clipPath
       clipPathUnits="userSpaceOnUse"
       id="clipPath109">
      <path
         d="M -6.75,-6.75 H 6.75 V 6.75 H -6.75 Z"
         transform="translate(2.4999999e-6)"
         id="path109" />
    </clipPath>
    <clipPath
       clipPathUnits="userSpaceOnUse"
       id="clipPath111">
      <path
         d="M 50.059375,41.746875 H 257.32937 V 197.44687 H 50.059375 Z"
         transform="matrix(1.3333333,0,0,-1.3333333,0,272.8625)"
         id="path111" />
    </clipPath>
    <clipPath
       clipPathUnits="userSpaceOnUse"
       id="clipPath112">
      <path
         d="M -6.75,-6.75 H 6.75 V 6.75 H -6.75 Z"
         transform="translate(2.4999999e-6)"
         id="path112" />
    </clipPath>
    <clipPath
       clipPathUnits="userSpaceOnUse"
       id="clipPath114">
      <path
         d="M 50.059375,41.746875 H 257.32937 V 197.44687 H 50.059375 Z"
         transform="matrix(1.3333333,0,0,-1.3333333,0,272.8625)"
         id="path114" />
    </clipPath>
    <clipPath
       clipPathUnits="userSpaceOnUse"
       id="clipPath115">
      <path
         d="M -6.75,-6.75 H 6.75 V 6.75 H -6.75 Z"
         transform="translate(2.4999999e-6)"
         id="path115" />
    </clipPath>
    <clipPath
       clipPathUnits="userSpaceOnUse"
       id="clipPath117">
      <path
         d="M 50.059375,41.746875 H 257.32937 V 197.44687 H 50.059375 Z"
         transform="matrix(1.3333333,0,0,-1.3333333,0,272.8625)"
         id="path117" />
    </clipPath>
    <clipPath
       clipPathUnits="userSpaceOnUse"
       id="clipPath119">
      <path
         d="M 50.059375,41.746875 H 257.32937 V 197.44687 H 50.059375 Z"
         id="path119" />
    </clipPath>
    <clipPath
       clipPathUnits="userSpaceOnUse"
       id="clipPath120">
      <path
         d="M -6.75,-6.75 H 6.75 V 6.75 H -6.75 Z"
         transform="translate(2.5000001e-6)"
         id="path120" />
    </clipPath>
    <clipPath
       clipPathUnits="userSpaceOnUse"
       id="clipPath122">
      <path
         d="M 50.059375,41.746875 H 257.32937 V 197.44687 H 50.059375 Z"
         transform="matrix(1.3333333,0,0,-1.3333333,0,272.8625)"
         id="path122" />
    </clipPath>
    <clipPath
       clipPathUnits="userSpaceOnUse"
       id="clipPath123">
      <path
         d="M -6.75,-6.75 H 6.75 V 6.75 H -6.75 Z"
         transform="translate(2.5000001e-6)"
         id="path123" />
    </clipPath>
    <clipPath
       clipPathUnits="userSpaceOnUse"
       id="clipPath125">
      <path
         d="M 50.059375,41.746875 H 257.32937 V 197.44687 H 50.059375 Z"
         transform="matrix(1.3333333,0,0,-1.3333333,0,272.8625)"
         id="path125" />
    </clipPath>
  </defs>
  <g
     id="g1">
    <path
       id="path1"
       d="M 0,0 H 276.77937 V 204.64687 H 0 Z"
       style="fill:#ffffff;fill-opacity:0;fill-rule:nonzero;stroke:none"
       transform="matrix(1.3333333,0,0,-1.3333333,0,272.8625)" />
    <path
       id="path2"
       d="M 50.059375,41.746875 H 257.32937 V 197.44687 H 50.059375 Z"
       style="fill:#ffffff;fill-opacity:1;fill-rule:nonzero;stroke:none"
       transform="matrix(1.3333333,0,0,-1.3333333,0,272.8625)" />
    <path
       id="path3"
       d="m 50.059375,41.746875 v -6"
       stroke="currentColor"
       style="fill-opacity:1;fill-rule:nonzero;stroke-width:1.25;stroke-linecap:butt;stroke-linejoin:round;stroke-miterlimit:10;stroke-dasharray:none;stroke-opacity:1"
       transform="matrix(1.3333333,0,0,-1.3333333,0,272.8625)" />
    <text
       id="text3"
       xml:space="preserve"
       transform="matrix(1.3333333,0,0,1.3333333,50.4125,240.36667)"><tspan
         id="tspan3"
         fill="currentColor"
         style="font-variant:normal;font-weight:normal;font-size:11px;font-family:'IBM Plex Sans', 'Open Sans', verdana, arial, sans-serif;writing-mode:lr-tb;fill-opacity:1;fill-rule:nonzero;stroke:none"
         x="0"
         y="0">1995</tspan></text>
    <path
       id="path4"
       d="m 84.604375,41.746875 v -6"
       stroke="currentColor"
       style="fill-opacity:1;fill-rule:nonzero;stroke-width:1.25;stroke-linecap:butt;stroke-linejoin:round;stroke-miterlimit:10;stroke-dasharray:none;stroke-opacity:1"
       transform="matrix(1.3333333,0,0,-1.3333333,0,272.8625)" />
    <text
       id="text4"
       xml:space="preserve"
       transform="matrix(1.3333333,0,0,1.3333333,96.4725,240.36667)"><tspan
         id="tspan4"
         fill="currentColor"
         style="font-variant:normal;font-weight:normal;font-size:11px;font-family:'IBM Plex Sans', 'Open Sans', verdana, arial, sans-serif;writing-mode:lr-tb;fill-opacity:1;fill-rule:nonzero;stroke:none"
         x="0"
         y="0">2000</tspan></text>
    <path
       id="path5"
       d="m 119.14937,41.746875 v -6"
       stroke="currentColor"
       style="fill-opacity:1;fill-rule:nonzero;stroke-width:1.25;stroke-linecap:butt;stroke-linejoin:round;stroke-miterlimit:10;stroke-dasharray:none;stroke-opacity:1"
       transform="matrix(1.3333333,0,0,-1.3333333,0,272.8625)" />
    <text
       id="text5"
       xml:space="preserve"
       transform="matrix(1.3333333,0,0,1.3333333,142.5325,240.36667)"><tspan
         id="tspan5"
         fill="currentColor"
         style="font-variant:normal;font-weight:normal;font-size:11px;font-family:'IBM Plex Sans', 'Open Sans', verdana, arial, sans-serif;writing-mode:lr-tb;fill-opacity:1;fill-rule:nonzero;stroke:none"
         x="0"
         y="0">2005</tspan></text>
    <path
       id="path6"
       d="m 153.69437,41.746875 v -6"
       stroke="currentColor"
       style="fill-opacity:1;fill-rule:nonzero;stroke-width:1.25;stroke-linecap:butt;stroke-linejoin:round;stroke-miterlimit:10;stroke-dasharray:none;stroke-opacity:1"
       transform="matrix(1.3333333,0,0,-1.3333333,0,272.8625)" />
    <text
       id="text6"
       xml:space="preserve"
       transform="matrix(1.3333333,0,0,1.3333333,188.5925,240.36667)"><tspan
         id="tspan6"
         fill="currentColor"
         style="font-variant:normal;font-weight:normal;font-size:11px;font-family:'IBM Plex Sans', 'Open Sans', verdana, arial, sans-serif;writing-mode:lr-tb;fill-opacity:1;fill-rule:nonzero;stroke:none"
         x="0"
         y="0">2010</tspan></text>
    <path
       id="path7"
       d="m 188.23937,41.746875 v -6"
       stroke="currentColor"
       style="fill-opacity:1;fill-rule:nonzero;stroke-width:1.25;stroke-linecap:butt;stroke-linejoin:round;stroke-miterlimit:10;stroke-dasharray:none;stroke-opacity:1"
       transform="matrix(1.3333333,0,0,-1.3333333,0,272.8625)" />
    <text
       id="text7"
       xml:space="preserve"
       transform="matrix(1.3333333,0,0,1.3333333,234.6525,240.36667)"><tspan
         id="tspan7"
         fill="currentColor"
         style="font-variant:normal;font-weight:normal;font-size:11px;font-family:'IBM Plex Sans', 'Open Sans', verdana, arial, sans-serif;writing-mode:lr-tb;fill-opacity:1;fill-rule:nonzero;stroke:none"
         x="0"
         y="0">2015</tspan></text>
    <path
       id="path8"
       d="m 222.78437,41.746875 v -6"
       stroke="currentColor"
       style="fill-opacity:1;fill-rule:nonzero;stroke-width:1.25;stroke-linecap:butt;stroke-linejoin:round;stroke-miterlimit:10;stroke-dasharray:none;stroke-opacity:1"
       transform="matrix(1.3333333,0,0,-1.3333333,0,272.8625)" />
    <text
       id="text8"
       xml:space="preserve"
       transform="matrix(1.3333333,0,0,1.3333333,280.7125,240.36667)"><tspan
         id="tspan8"
         fill="currentColor"
         style="font-variant:normal;font-weight:normal;font-size:11px;font-family:'IBM Plex Sans', 'Open Sans', verdana, arial, sans-serif;writing-mode:lr-tb;fill-opacity:1;fill-rule:nonzero;stroke:none"
         x="0"
         y="0">2020</tspan></text>
    <path
       id="path9"
       d="m 257.32937,41.746875 v -6"
       stroke="currentColor"
       style="fill-opacity:1;fill-rule:nonzero;stroke-width:1.25;stroke-linecap:butt;stroke-linejoin:round;stroke-miterlimit:10;stroke-dasharray:none;stroke-opacity:1"
       transform="matrix(1.3333333,0,0,-1.3333333,0,272.8625)" />
    <text
       id="text9"
       xml:space="preserve"
       transform="matrix(1.3333333,0,0,1.3333333,326.7725,240.36667)"><tspan
         id="tspan9"
         fill="currentColor"
         style="font-variant:normal;font-weight:normal;font-size:11px;font-family:'IBM Plex Sans', 'Open Sans', verdana, arial, sans-serif;writing-mode:lr-tb;fill-opacity:1;fill-rule:nonzero;stroke:none"
         x="0"
         y="0">2025</tspan></text>
    <text
       id="text10"
       xml:space="preserve"
       transform="matrix(1.3333333,0,0,1.3333333,188.78,260.075)"><tspan
         id="tspan10"
         fill="currentColor"
         style="font-variant:normal;font-weight:normal;font-size:12px;font-family:'IBM Plex Sans', 'Open Sans', verdana, arial, sans-serif;writing-mode:lr-tb;fill-opacity:1;fill-rule:nonzero;stroke:none"
         x="0"
         dx="0 -1.09375"
         y="0">Year</tspan></text>
    <path
       id="path10"
       d="m 50.059375,48.383196 h -6"
       stroke="currentColor"
       style="fill-opacity:1;fill-rule:nonzero;stroke-width:1.25;stroke-linecap:butt;stroke-linejoin:round;stroke-miterlimit:10;stroke-dasharray:none;stroke-opacity:1"
       transform="matrix(1.3333333,0,0,-1.3333333,0,272.8625)" />
    <text
       id="text11"
       xml:space="preserve"
       transform="matrix(1.3333333,0,0,1.3333333,45.9125,213.60157)"><tspan
         id="tspan11"
         fill="currentColor"
         style="font-variant:normal;font-weight:normal;font-size:11px;font-family:'IBM Plex Sans', 'Open Sans', verdana, arial, sans-serif;writing-mode:lr-tb;fill-opacity:1;fill-rule:nonzero;stroke:none"
         x="0"
         y="0">0</tspan></text>
    <path
       id="path11"
       d="m 50.059375,92.478353 h -6"
       stroke="currentColor"
       style="fill-opacity:1;fill-rule:nonzero;stroke-width:1.25;stroke-linecap:butt;stroke-linejoin:round;stroke-miterlimit:10;stroke-dasharray:none;stroke-opacity:1"
       transform="matrix(1.3333333,0,0,-1.3333333,0,272.8625)" />
    <text
       id="text12"
       xml:space="preserve"
       transform="matrix(1.3333333,0,0,1.3333333,29.579167,154.80803)"><tspan
         id="tspan12"
         fill="currentColor"
         style="font-variant:normal;font-weight:normal;font-size:11px;font-family:'IBM Plex Sans', 'Open Sans', verdana, arial, sans-serif;writing-mode:lr-tb;fill-opacity:1;fill-rule:nonzero;stroke:none"
         x="0"
         y="0">100</tspan></text>
    <path
       id="path12"
       d="m 50.059375,136.57351 h -6"
       stroke="currentColor"
       style="fill-opacity:1;fill-rule:nonzero;stroke-width:1.25;stroke-linecap:butt;stroke-linejoin:round;stroke-miterlimit:10;stroke-dasharray:none;stroke-opacity:1"
       transform="matrix(1.3333333,0,0,-1.3333333,0,272.8625)" />
    <text
       id="text13"
       xml:space="preserve"
       transform="matrix(1.3333333,0,0,1.3333333,29.579167,96.014486)"><tspan
         id="tspan13"
         fill="currentColor"
         style="font-variant:normal;font-weight:normal;font-size:11px;font-family:'IBM Plex Sans', 'Open Sans', verdana, arial, sans-serif;writing-mode:lr-tb;fill-opacity:1;fill-rule:nonzero;stroke:none"
         x="0"
         y="0">200</tspan></text>
    <path
       id="path13"
       d="m 50.059375,180.66867 h -6"
       stroke="currentColor"
       style="fill-opacity:1;fill-rule:nonzero;stroke-width:1.25;stroke-linecap:butt;stroke-linejoin:round;stroke-miterlimit:10;stroke-dasharray:none;stroke-opacity:1"
       transform="matrix(1.3333333,0,0,-1.3333333,0,272.8625)" />
    <text
       id="text14"
       xml:space="preserve"
       transform="matrix(1.3333333,0,0,1.3333333,29.579167,37.220943)"><tspan
         id="tspan14"
         fill="currentColor"
         style="font-variant:normal;font-weight:normal;font-size:11px;font-family:'IBM Plex Sans', 'Open Sans', verdana, arial, sans-serif;writing-mode:lr-tb;fill-opacity:1;fill-rule:nonzero;stroke:none"
         x="0"
         y="0">300</tspan></text>
    <text
       id="text15"
       xml:space="preserve"
       transform="matrix(0,-1.3333333,1.3333333,0,21.058333,213.43125)"><tspan
         id="tspan15"
         fill="currentColor"
         style="font-variant:normal;font-weight:normal;font-size:12px;font-family:'IBM Plex Sans', 'Open Sans', verdana, arial, sans-serif;writing-mode:lr-tb;fill-opacity:1;fill-rule:nonzero;stroke:none"
         x="0"
         y="0">Number of certified modules</tspan></text>
    <path
       id="path15"
       d="m 50.059375,48.824148 6.909,0.881903 6.909,2.204758 6.909,8.37808 6.909,7.937128 6.909,0.440951 6.909,10.582838 6.909,3.527613 6.908995,-22.929482 6.90901,-11.023789 6.90899,0.881903"
       style="fill:none;stroke:#66c2a5;stroke-width:1.5;stroke-linecap:round;stroke-linejoin:round;stroke-miterlimit:10;stroke-dasharray:none;stroke-opacity:1"
       transform="matrix(1.3333333,0,0,-1.3333333,0,272.8625)"
        />
    <g
       id="g18"
       >
      <path
         d="m 0,-3 c 0.795609,0 1.55874,0.316099 2.12132,0.87868 C 2.683901,-1.55874 3,-0.795609 3,0 3,0.795609 2.683901,1.55874 2.12132,2.12132 1.55874,2.683901 0.795609,3 0,3 -0.795609,3 -1.55874,2.683901 -2.12132,2.12132 -2.683901,1.55874 -3,0.795609 -3,0 -3,-0.795609 -2.683901,-1.55874 -2.12132,-2.12132 -1.55874,-2.683901 -0.795609,-3 0,-3 Z"
         style="fill:#66c2a5;fill-opacity:1;fill-rule:nonzero;stroke:#ffffff;stroke-width:0.75;stroke-linecap:butt;stroke-linejoin:round;stroke-miterlimit:10;stroke-dasharray:none;stroke-opacity:1"
         transform="matrix(1.3333333,0,0,-1.3333333,66.745833,207.76364)"
         
         id="path18" />
    </g>
    <g
       id="g21"
       >
      <path
         d="m 0,-3 c 0.795609,0 1.55874,0.316099 2.12132,0.87868 C 2.683901,-1.55874 3,-0.795609 3,0 3,0.795609 2.683901,1.55874 2.12132,2.12132 1.55874,2.683901 0.795609,3 0,3 -0.795609,3 -1.55874,2.683901 -2.12132,2.12132 -2.683901,1.55874 -3,0.795609 -3,0 -3,-0.795609 -2.683901,-1.55874 -2.12132,-2.12132 -1.55874,-2.683901 -0.795609,-3 0,-3 Z"
         style="fill:#66c2a5;fill-opacity:1;fill-rule:nonzero;stroke:#ffffff;stroke-width:0.75;stroke-linecap:butt;stroke-linejoin:round;stroke-miterlimit:10;stroke-dasharray:none;stroke-opacity:1"
         transform="matrix(1.3333333,0,0,-1.3333333,75.957833,206.58777)"
         
         id="path21" />
    </g>
    <g
       id="g24"
       >
      <path
         d="m 0,-3 c 0.795609,0 1.55874,0.316099 2.12132,0.87868 C 2.683901,-1.55874 3,-0.795609 3,0 3,0.795609 2.683901,1.55874 2.12132,2.12132 1.55874,2.683901 0.795609,3 0,3 -0.795609,3 -1.55874,2.683901 -2.12132,2.12132 -2.683901,1.55874 -3,0.795609 -3,0 -3,-0.795609 -2.683901,-1.55874 -2.12132,-2.12132 -1.55874,-2.683901 -0.795609,-3 0,-3 Z"
         style="fill:#66c2a5;fill-opacity:1;fill-rule:nonzero;stroke:#ffffff;stroke-width:0.75;stroke-linecap:butt;stroke-linejoin:round;stroke-miterlimit:10;stroke-dasharray:none;stroke-opacity:1"
         transform="matrix(1.3333333,0,0,-1.3333333,85.169833,203.64809)"
         
         id="path24" />
    </g>
    <g
       id="g27"
       >
      <path
         d="m 0,-3 c 0.795609,0 1.55874,0.316099 2.12132,0.87868 C 2.683901,-1.55874 3,-0.795609 3,0 3,0.795609 2.683901,1.55874 2.12132,2.12132 1.55874,2.683901 0.795609,3 0,3 -0.795609,3 -1.55874,2.683901 -2.12132,2.12132 -2.683901,1.55874 -3,0.795609 -3,0 -3,-0.795609 -2.683901,-1.55874 -2.12132,-2.12132 -1.55874,-2.683901 -0.795609,-3 0,-3 Z"
         style="fill:#66c2a5;fill-opacity:1;fill-rule:nonzero;stroke:#ffffff;stroke-width:0.75;stroke-linecap:butt;stroke-linejoin:round;stroke-miterlimit:10;stroke-dasharray:none;stroke-opacity:1"
         transform="matrix(1.3333333,0,0,-1.3333333,94.381833,192.47732)"
         
         id="path27" />
    </g>
    <g
       id="g30"
       >
      <path
         d="m 0,-3 c 0.795609,0 1.55874,0.316099 2.12132,0.87868 C 2.683901,-1.55874 3,-0.795609 3,0 3,0.795609 2.683901,1.55874 2.12132,2.12132 1.55874,2.683901 0.795609,3 0,3 -0.795609,3 -1.55874,2.683901 -2.12132,2.12132 -2.683901,1.55874 -3,0.795609 -3,0 -3,-0.795609 -2.683901,-1.55874 -2.12132,-2.12132 -1.55874,-2.683901 -0.795609,-3 0,-3 Z"
         style="fill:#66c2a5;fill-opacity:1;fill-rule:nonzero;stroke:#ffffff;stroke-width:0.75;stroke-linecap:butt;stroke-linejoin:round;stroke-miterlimit:10;stroke-dasharray:none;stroke-opacity:1"
         transform="matrix(1.3333333,0,0,-1.3333333,103.59383,181.89448)"
         
         id="path30" />
    </g>
    <g
       id="g33"
       >
      <path
         d="m 0,-3 c 0.795609,0 1.55874,0.316099 2.12132,0.87868 C 2.683901,-1.55874 3,-0.795609 3,0 3,0.795609 2.683901,1.55874 2.12132,2.12132 1.55874,2.683901 0.795609,3 0,3 -0.795609,3 -1.55874,2.683901 -2.12132,2.12132 -2.683901,1.55874 -3,0.795609 -3,0 -3,-0.795609 -2.683901,-1.55874 -2.12132,-2.12132 -1.55874,-2.683901 -0.795609,-3 0,-3 Z"
         style="fill:#66c2a5;fill-opacity:1;fill-rule:nonzero;stroke:#ffffff;stroke-width:0.75;stroke-linecap:butt;stroke-linejoin:round;stroke-miterlimit:10;stroke-dasharray:none;stroke-opacity:1"
         transform="matrix(1.3333333,0,0,-1.3333333,112.80583,181.30654)"
         
         id="path33" />
    </g>
    <g
       id="g36"
       >
      <path
         d="m 0,-3 c 0.795609,0 1.55874,0.316099 2.12132,0.87868 C 2.683901,-1.55874 3,-0.795609 3,0 3,0.795609 2.683901,1.55874 2.12132,2.12132 1.55874,2.683901 0.795609,3 0,3 -0.795609,3 -1.55874,2.683901 -2.12132,2.12132 -2.683901,1.55874 -3,0.795609 -3,0 -3,-0.795609 -2.683901,-1.55874 -2.12132,-2.12132 -1.55874,-2.683901 -0.795609,-3 0,-3 Z"
         style="fill:#66c2a5;fill-opacity:1;fill-rule:nonzero;stroke:#ffffff;stroke-width:0.75;stroke-linecap:butt;stroke-linejoin:round;stroke-miterlimit:10;stroke-dasharray:none;stroke-opacity:1"
         transform="matrix(1.3333333,0,0,-1.3333333,122.01783,167.19609)"
         
         id="path36" />
    </g>
    <g
       id="g39"
       >
      <path
         d="m 0,-3 c 0.795609,0 1.55874,0.316099 2.12132,0.87868 C 2.683901,-1.55874 3,-0.795609 3,0 3,0.795609 2.683901,1.55874 2.12132,2.12132 1.55874,2.683901 0.795609,3 0,3 -0.795609,3 -1.55874,2.683901 -2.12132,2.12132 -2.683901,1.55874 -3,0.795609 -3,0 -3,-0.795609 -2.683901,-1.55874 -2.12132,-2.12132 -1.55874,-2.683901 -0.795609,-3 0,-3 Z"
         style="fill:#66c2a5;fill-opacity:1;fill-rule:nonzero;stroke:#ffffff;stroke-width:0.75;stroke-linecap:butt;stroke-linejoin:round;stroke-miterlimit:10;stroke-dasharray:none;stroke-opacity:1"
         transform="matrix(1.3333333,0,0,-1.3333333,131.22983,162.49261)"
         
         id="path39" />
    </g>
    <g
       id="g42"
       >
      <path
         d="m 0,-3 c 0.795609,0 1.55874,0.316099 2.12132,0.87868 C 2.683901,-1.55874 3,-0.795609 3,0 3,0.795609 2.683901,1.55874 2.12132,2.12132 1.55874,2.683901 0.795609,3 0,3 -0.795609,3 -1.55874,2.683901 -2.12132,2.12132 -2.683901,1.55874 -3,0.795609 -3,0 -3,-0.795609 -2.683901,-1.55874 -2.12132,-2.12132 -1.55874,-2.683901 -0.795609,-3 0,-3 Z"
         style="fill:#66c2a5;fill-opacity:1;fill-rule:nonzero;stroke:#ffffff;stroke-width:0.75;stroke-linecap:butt;stroke-linejoin:round;stroke-miterlimit:10;stroke-dasharray:none;stroke-opacity:1"
         transform="matrix(1.3333333,0,0,-1.3333333,140.44183,193.06525)"
         
         id="path42" />
    </g>
    <g
       id="g45"
       >
      <path
         d="m 0,-3 c 0.795609,0 1.55874,0.316099 2.12132,0.87868 C 2.683901,-1.55874 3,-0.795609 3,0 3,0.795609 2.683901,1.55874 2.12132,2.12132 1.55874,2.683901 0.795609,3 0,3 -0.795609,3 -1.55874,2.683901 -2.12132,2.12132 -2.683901,1.55874 -3,0.795609 -3,0 -3,-0.795609 -2.683901,-1.55874 -2.12132,-2.12132 -1.55874,-2.683901 -0.795609,-3 0,-3 Z"
         style="fill:#66c2a5;fill-opacity:1;fill-rule:nonzero;stroke:#ffffff;stroke-width:0.75;stroke-linecap:butt;stroke-linejoin:round;stroke-miterlimit:10;stroke-dasharray:none;stroke-opacity:1"
         transform="matrix(1.3333333,0,0,-1.3333333,149.65383,207.76364)"
         
         id="path45" />
    </g>
    <g
       id="g48"
       >
      <path
         d="m 0,-3 c 0.795609,0 1.55874,0.316099 2.12132,0.87868 C 2.683901,-1.55874 3,-0.795609 3,0 3,0.795609 2.683901,1.55874 2.12132,2.12132 1.55874,2.683901 0.795609,3 0,3 -0.795609,3 -1.55874,2.683901 -2.12132,2.12132 -2.683901,1.55874 -3,0.795609 -3,0 -3,-0.795609 -2.683901,-1.55874 -2.12132,-2.12132 -1.55874,-2.683901 -0.795609,-3 0,-3 Z"
         style="fill:#66c2a5;fill-opacity:1;fill-rule:nonzero;stroke:#ffffff;stroke-width:0.75;stroke-linecap:butt;stroke-linejoin:round;stroke-miterlimit:10;stroke-dasharray:none;stroke-opacity:1"
         transform="matrix(1.3333333,0,0,-1.3333333,158.86583,206.58777)"
         
         id="path48" />
    </g>
    <path
       id="path50"
       d="m 98.422375,50.147002 6.908995,26.457095 6.90901,25.575193 6.90899,-3.086663 6.909,-1.322855 6.909,16.756158 6.909,18.96092 6.909,-14.11045 6.909,26.89804 6.909,-19.84282 6.909,6.17333 6.909,2.64571 6.909,14.5514 6.909,-9.70094 6.909,35.27613 6.909,-6.61428 6.909,-8.37808 6.909,-10.14188 6.909,-15.43331 6.909,55.5599 6.909,-24.69329 6.909,-2.20475"
       style="fill:none;stroke:#fc8d62;stroke-width:1.5;stroke-linecap:round;stroke-linejoin:round;stroke-miterlimit:10;stroke-dasharray:none;stroke-opacity:1"
       transform="matrix(1.3333333,0,0,-1.3333333,0,272.8625)"
        />
    <g
       id="g53"
       >
      <path
         d="m 0,-3 c 0.795609,0 1.55874,0.316099 2.12132,0.87868 C 2.683901,-1.55874 3,-0.795609 3,0 3,0.795609 2.683901,1.55874 2.12132,2.12132 1.55874,2.683901 0.795609,3 0,3 -0.795609,3 -1.55874,2.683901 -2.12132,2.12132 -2.683901,1.55874 -3,0.795609 -3,0 -3,-0.795609 -2.683901,-1.55874 -2.12132,-2.12132 -1.55874,-2.683901 -0.795609,-3 0,-3 Z"
         style="fill:#fc8d62;fill-opacity:1;fill-rule:nonzero;stroke:#ffffff;stroke-width:0.75;stroke-linecap:butt;stroke-linejoin:round;stroke-miterlimit:10;stroke-dasharray:none;stroke-opacity:1"
         transform="matrix(1.3333333,0,0,-1.3333333,131.22983,205.99983)"
         
         id="path53" />
    </g>
    <g
       id="g56"
       >
      <path
         d="m 0,-3 c 0.795609,0 1.55874,0.316099 2.12132,0.87868 C 2.683901,-1.55874 3,-0.795609 3,0 3,0.795609 2.683901,1.55874 2.12132,2.12132 1.55874,2.683901 0.795609,3 0,3 -0.795609,3 -1.55874,2.683901 -2.12132,2.12132 -2.683901,1.55874 -3,0.795609 -3,0 -3,-0.795609 -2.683901,-1.55874 -2.12132,-2.12132 -1.55874,-2.683901 -0.795609,-3 0,-3 Z"
         style="fill:#fc8d62;fill-opacity:1;fill-rule:nonzero;stroke:#ffffff;stroke-width:0.75;stroke-linecap:butt;stroke-linejoin:round;stroke-miterlimit:10;stroke-dasharray:none;stroke-opacity:1"
         transform="matrix(1.3333333,0,0,-1.3333333,140.44183,170.7237)"
         
         id="path56" />
    </g>
    <g
       id="g59"
       >
      <path
         d="m 0,-3 c 0.795609,0 1.55874,0.316099 2.12132,0.87868 C 2.683901,-1.55874 3,-0.795609 3,0 3,0.795609 2.683901,1.55874 2.12132,2.12132 1.55874,2.683901 0.795609,3 0,3 -0.795609,3 -1.55874,2.683901 -2.12132,2.12132 -2.683901,1.55874 -3,0.795609 -3,0 -3,-0.795609 -2.683901,-1.55874 -2.12132,-2.12132 -1.55874,-2.683901 -0.795609,-3 0,-3 Z"
         style="fill:#fc8d62;fill-opacity:1;fill-rule:nonzero;stroke:#ffffff;stroke-width:0.75;stroke-linecap:butt;stroke-linejoin:round;stroke-miterlimit:10;stroke-dasharray:none;stroke-opacity:1"
         transform="matrix(1.3333333,0,0,-1.3333333,149.65383,136.62345)"
         
         id="path59" />
    </g>
    <g
       id="g62"
       >
      <path
         d="m 0,-3 c 0.795609,0 1.55874,0.316099 2.12132,0.87868 C 2.683901,-1.55874 3,-0.795609 3,0 3,0.795609 2.683901,1.55874 2.12132,2.12132 1.55874,2.683901 0.795609,3 0,3 -0.795609,3 -1.55874,2.683901 -2.12132,2.12132 -2.683901,1.55874 -3,0.795609 -3,0 -3,-0.795609 -2.683901,-1.55874 -2.12132,-2.12132 -1.55874,-2.683901 -0.795609,-3 0,-3 Z"
         style="fill:#fc8d62;fill-opacity:1;fill-rule:nonzero;stroke:#ffffff;stroke-width:0.75;stroke-linecap:butt;stroke-linejoin:round;stroke-miterlimit:10;stroke-dasharray:none;stroke-opacity:1"
         transform="matrix(1.3333333,0,0,-1.3333333,158.86583,140.739)"
         
         id="path62" />
    </g>
    <g
       id="g65"
       >
      <path
         d="m 0,-3 c 0.795609,0 1.55874,0.316099 2.12132,0.87868 C 2.683901,-1.55874 3,-0.795609 3,0 3,0.795609 2.683901,1.55874 2.12132,2.12132 1.55874,2.683901 0.795609,3 0,3 -0.795609,3 -1.55874,2.683901 -2.12132,2.12132 -2.683901,1.55874 -3,0.795609 -3,0 -3,-0.795609 -2.683901,-1.55874 -2.12132,-2.12132 -1.55874,-2.683901 -0.795609,-3 0,-3 Z"
         style="fill:#fc8d62;fill-opacity:1;fill-rule:nonzero;stroke:#ffffff;stroke-width:0.75;stroke-linecap:butt;stroke-linejoin:round;stroke-miterlimit:10;stroke-dasharray:none;stroke-opacity:1"
         transform="matrix(1.3333333,0,0,-1.3333333,168.07783,142.5028)"
         
         id="path65" />
    </g>
    <g
       id="g68"
       >
      <path
         d="m 0,-3 c 0.795609,0 1.55874,0.316099 2.12132,0.87868 C 2.683901,-1.55874 3,-0.795609 3,0 3,0.795609 2.683901,1.55874 2.12132,2.12132 1.55874,2.683901 0.795609,3 0,3 -0.795609,3 -1.55874,2.683901 -2.12132,2.12132 -2.683901,1.55874 -3,0.795609 -3,0 -3,-0.795609 -2.683901,-1.55874 -2.12132,-2.12132 -1.55874,-2.683901 -0.795609,-3 0,-3 Z"
         style="fill:#fc8d62;fill-opacity:1;fill-rule:nonzero;stroke:#ffffff;stroke-width:0.75;stroke-linecap:butt;stroke-linejoin:round;stroke-miterlimit:10;stroke-dasharray:none;stroke-opacity:1"
         transform="matrix(1.3333333,0,0,-1.3333333,177.28983,120.16126)"
         
         id="path68" />
    </g>
    <g
       id="g71"
       >
      <path
         d="m 0,-3 c 0.795609,0 1.55874,0.316099 2.12132,0.87868 C 2.683901,-1.55874 3,-0.795609 3,0 3,0.795609 2.683901,1.55874 2.12132,2.12132 1.55874,2.683901 0.795609,3 0,3 -0.795609,3 -1.55874,2.683901 -2.12132,2.12132 -2.683901,1.55874 -3,0.795609 -3,0 -3,-0.795609 -2.683901,-1.55874 -2.12132,-2.12132 -1.55874,-2.683901 -0.795609,-3 0,-3 Z"
         style="fill:#fc8d62;fill-opacity:1;fill-rule:nonzero;stroke:#ffffff;stroke-width:0.75;stroke-linecap:butt;stroke-linejoin:round;stroke-miterlimit:10;stroke-dasharray:none;stroke-opacity:1"
         transform="matrix(1.3333333,0,0,-1.3333333,186.50183,94.880034)"
         
         id="path71" />
    </g>
    <g
       id="g74"
       >
      <path
         d="m 0,-3 c 0.795609,0 1.55874,0.316099 2.12132,0.87868 C 2.683901,-1.55874 3,-0.795609 3,0 3,0.795609 2.683901,1.55874 2.12132,2.12132 1.55874,2.683901 0.795609,3 0,3 -0.795609,3 -1.55874,2.683901 -2.12132,2.12132 -2.683901,1.55874 -3,0.795609 -3,0 -3,-0.795609 -2.683901,-1.55874 -2.12132,-2.12132 -1.55874,-2.683901 -0.795609,-3 0,-3 Z"
         style="fill:#fc8d62;fill-opacity:1;fill-rule:nonzero;stroke:#ffffff;stroke-width:0.75;stroke-linecap:butt;stroke-linejoin:round;stroke-miterlimit:10;stroke-dasharray:none;stroke-opacity:1"
         transform="matrix(1.3333333,0,0,-1.3333333,195.71383,113.69397)"
         
         id="path74" />
    </g>
    <g
       id="g77"
       >
      <path
         d="m 0,-3 c 0.795609,0 1.55874,0.316099 2.12132,0.87868 C 2.683901,-1.55874 3,-0.795609 3,0 3,0.795609 2.683901,1.55874 2.12132,2.12132 1.55874,2.683901 0.795609,3 0,3 -0.795609,3 -1.55874,2.683901 -2.12132,2.12132 -2.683901,1.55874 -3,0.795609 -3,0 -3,-0.795609 -2.683901,-1.55874 -2.12132,-2.12132 -1.55874,-2.683901 -0.795609,-3 0,-3 Z"
         style="fill:#fc8d62;fill-opacity:1;fill-rule:nonzero;stroke:#ffffff;stroke-width:0.75;stroke-linecap:butt;stroke-linejoin:round;stroke-miterlimit:10;stroke-dasharray:none;stroke-opacity:1"
         transform="matrix(1.3333333,0,0,-1.3333333,204.92583,77.829907)"
         
         id="path77" />
    </g>
    <g
       id="g80"
       >
      <path
         d="m 0,-3 c 0.795609,0 1.55874,0.316099 2.12132,0.87868 C 2.683901,-1.55874 3,-0.795609 3,0 3,0.795609 2.683901,1.55874 2.12132,2.12132 1.55874,2.683901 0.795609,3 0,3 -0.795609,3 -1.55874,2.683901 -2.12132,2.12132 -2.683901,1.55874 -3,0.795609 -3,0 -3,-0.795609 -2.683901,-1.55874 -2.12132,-2.12132 -1.55874,-2.683901 -0.795609,-3 0,-3 Z"
         style="fill:#fc8d62;fill-opacity:1;fill-rule:nonzero;stroke:#ffffff;stroke-width:0.75;stroke-linecap:butt;stroke-linejoin:round;stroke-miterlimit:10;stroke-dasharray:none;stroke-opacity:1"
         transform="matrix(1.3333333,0,0,-1.3333333,214.13783,104.287)"
         
         id="path80" />
    </g>
    <g
       id="g83"
       >
      <path
         d="m 0,-3 c 0.795609,0 1.55874,0.316099 2.12132,0.87868 C 2.683901,-1.55874 3,-0.795609 3,0 3,0.795609 2.683901,1.55874 2.12132,2.12132 1.55874,2.683901 0.795609,3 0,3 -0.795609,3 -1.55874,2.683901 -2.12132,2.12132 -2.683901,1.55874 -3,0.795609 -3,0 -3,-0.795609 -2.683901,-1.55874 -2.12132,-2.12132 -1.55874,-2.683901 -0.795609,-3 0,-3 Z"
         style="fill:#fc8d62;fill-opacity:1;fill-rule:nonzero;stroke:#ffffff;stroke-width:0.75;stroke-linecap:butt;stroke-linejoin:round;stroke-miterlimit:10;stroke-dasharray:none;stroke-opacity:1"
         transform="matrix(1.3333333,0,0,-1.3333333,223.34983,96.055905)"
         
         id="path83" />
    </g>
    <g
       id="g86"
       >
      <path
         d="m 0,-3 c 0.795609,0 1.55874,0.316099 2.12132,0.87868 C 2.683901,-1.55874 3,-0.795609 3,0 3,0.795609 2.683901,1.55874 2.12132,2.12132 1.55874,2.683901 0.795609,3 0,3 -0.795609,3 -1.55874,2.683901 -2.12132,2.12132 -2.683901,1.55874 -3,0.795609 -3,0 -3,-0.795609 -2.683901,-1.55874 -2.12132,-2.12132 -1.55874,-2.683901 -0.795609,-3 0,-3 Z"
         style="fill:#fc8d62;fill-opacity:1;fill-rule:nonzero;stroke:#ffffff;stroke-width:0.75;stroke-linecap:butt;stroke-linejoin:round;stroke-miterlimit:10;stroke-dasharray:none;stroke-opacity:1"
         transform="matrix(1.3333333,0,0,-1.3333333,232.56183,92.528292)"
         
         id="path86" />
    </g>
    <g
       id="g89"
       >
      <path
         d="m 0,-3 c 0.795609,0 1.55874,0.316099 2.12132,0.87868 C 2.683901,-1.55874 3,-0.795609 3,0 3,0.795609 2.683901,1.55874 2.12132,2.12132 1.55874,2.683901 0.795609,3 0,3 -0.795609,3 -1.55874,2.683901 -2.12132,2.12132 -2.683901,1.55874 -3,0.795609 -3,0 -3,-0.795609 -2.683901,-1.55874 -2.12132,-2.12132 -1.55874,-2.683901 -0.795609,-3 0,-3 Z"
         style="fill:#fc8d62;fill-opacity:1;fill-rule:nonzero;stroke:#ffffff;stroke-width:0.75;stroke-linecap:butt;stroke-linejoin:round;stroke-miterlimit:10;stroke-dasharray:none;stroke-opacity:1"
         transform="matrix(1.3333333,0,0,-1.3333333,241.77383,73.126423)"
         
         id="path89" />
    </g>
    <g
       id="g92"
       >
      <path
         d="m 0,-3 c 0.795609,0 1.55874,0.316099 2.12132,0.87868 C 2.683901,-1.55874 3,-0.795609 3,0 3,0.795609 2.683901,1.55874 2.12132,2.12132 1.55874,2.683901 0.795609,3 0,3 -0.795609,3 -1.55874,2.683901 -2.12132,2.12132 -2.683901,1.55874 -3,0.795609 -3,0 -3,-0.795609 -2.683901,-1.55874 -2.12132,-2.12132 -1.55874,-2.683901 -0.795609,-3 0,-3 Z"
         style="fill:#fc8d62;fill-opacity:1;fill-rule:nonzero;stroke:#ffffff;stroke-width:0.75;stroke-linecap:butt;stroke-linejoin:round;stroke-miterlimit:10;stroke-dasharray:none;stroke-opacity:1"
         transform="matrix(1.3333333,0,0,-1.3333333,250.98583,86.061003)"
         
         id="path92" />
    </g>
    <g
       id="g95"
       >
      <path
         d="m 0,-3 c 0.795609,0 1.55874,0.316099 2.12132,0.87868 C 2.683901,-1.55874 3,-0.795609 3,0 3,0.795609 2.683901,1.55874 2.12132,2.12132 1.55874,2.683901 0.795609,3 0,3 -0.795609,3 -1.55874,2.683901 -2.12132,2.12132 -2.683901,1.55874 -3,0.795609 -3,0 -3,-0.795609 -2.683901,-1.55874 -2.12132,-2.12132 -1.55874,-2.683901 -0.795609,-3 0,-3 Z"
         style="fill:#fc8d62;fill-opacity:1;fill-rule:nonzero;stroke:#ffffff;stroke-width:0.75;stroke-linecap:butt;stroke-linejoin:round;stroke-miterlimit:10;stroke-dasharray:none;stroke-opacity:1"
         transform="matrix(1.3333333,0,0,-1.3333333,260.19783,39.026168)"
         
         id="path95" />
    </g>
    <g
       id="g98"
       >
      <path
         d="m 0,-3 c 0.795609,0 1.55874,0.316099 2.12132,0.87868 C 2.683901,-1.55874 3,-0.795609 3,0 3,0.795609 2.683901,1.55874 2.12132,2.12132 1.55874,2.683901 0.795609,3 0,3 -0.795609,3 -1.55874,2.683901 -2.12132,2.12132 -2.683901,1.55874 -3,0.795609 -3,0 -3,-0.795609 -2.683901,-1.55874 -2.12132,-2.12132 -1.55874,-2.683901 -0.795609,-3 0,-3 Z"
         style="fill:#fc8d62;fill-opacity:1;fill-rule:nonzero;stroke:#ffffff;stroke-width:0.75;stroke-linecap:butt;stroke-linejoin:round;stroke-miterlimit:10;stroke-dasharray:none;stroke-opacity:1"
         transform="matrix(1.3333333,0,0,-1.3333333,269.40983,47.8452)"
         
         id="path98" />
    </g>
    <g
       id="g101"
       >
      <path
         d="m 0,-3 c 0.795609,0 1.55874,0.316099 2.12132,0.87868 C 2.683901,-1.55874 3,-0.795609 3,0 3,0.795609 2.683901,1.55874 2.12132,2.12132 1.55874,2.683901 0.795609,3 0,3 -0.795609,3 -1.55874,2.683901 -2.12132,2.12132 -2.683901,1.55874 -3,0.795609 -3,0 -3,-0.795609 -2.683901,-1.55874 -2.12132,-2.12132 -1.55874,-2.683901 -0.795609,-3 0,-3 Z"
         style="fill:#fc8d62;fill-opacity:1;fill-rule:nonzero;stroke:#ffffff;stroke-width:0.75;stroke-linecap:butt;stroke-linejoin:round;stroke-miterlimit:10;stroke-dasharray:none;stroke-opacity:1"
         transform="matrix(1.3333333,0,0,-1.3333333,278.62183,59.015973)"
         
         id="path101" />
    </g>
    <g
       id="g104"
       >
      <path
         d="m 0,-3 c 0.795609,0 1.55874,0.316099 2.12132,0.87868 C 2.683901,-1.55874 3,-0.795609 3,0 3,0.795609 2.683901,1.55874 2.12132,2.12132 1.55874,2.683901 0.795609,3 0,3 -0.795609,3 -1.55874,2.683901 -2.12132,2.12132 -2.683901,1.55874 -3,0.795609 -3,0 -3,-0.795609 -2.683901,-1.55874 -2.12132,-2.12132 -1.55874,-2.683901 -0.795609,-3 0,-3 Z"
         style="fill:#fc8d62;fill-opacity:1;fill-rule:nonzero;stroke:#ffffff;stroke-width:0.75;stroke-linecap:butt;stroke-linejoin:round;stroke-miterlimit:10;stroke-dasharray:none;stroke-opacity:1"
         transform="matrix(1.3333333,0,0,-1.3333333,287.83383,72.538488)"
         
         id="path104" />
    </g>
    <g
       id="g107"
       >
      <path
         d="m 0,-3 c 0.795609,0 1.55874,0.316099 2.12132,0.87868 C 2.683901,-1.55874 3,-0.795609 3,0 3,0.795609 2.683901,1.55874 2.12132,2.12132 1.55874,2.683901 0.795609,3 0,3 -0.795609,3 -1.55874,2.683901 -2.12132,2.12132 -2.683901,1.55874 -3,0.795609 -3,0 -3,-0.795609 -2.683901,-1.55874 -2.12132,-2.12132 -1.55874,-2.683901 -0.795609,-3 0,-3 Z"
         style="fill:#fc8d62;fill-opacity:1;fill-rule:nonzero;stroke:#ffffff;stroke-width:0.75;stroke-linecap:butt;stroke-linejoin:round;stroke-miterlimit:10;stroke-dasharray:none;stroke-opacity:1"
         transform="matrix(1.3333333,0,0,-1.3333333,297.04583,93.116228)"
         
         id="path107" />
    </g>
    <g
       id="g110"
       >
      <path
         d="m 0,-3 c 0.795609,0 1.55874,0.316099 2.12132,0.87868 C 2.683901,-1.55874 3,-0.795609 3,0 3,0.795609 2.683901,1.55874 2.12132,2.12132 1.55874,2.683901 0.795609,3 0,3 -0.795609,3 -1.55874,2.683901 -2.12132,2.12132 -2.683901,1.55874 -3,0.795609 -3,0 -3,-0.795609 -2.683901,-1.55874 -2.12132,-2.12132 -1.55874,-2.683901 -0.795609,-3 0,-3 Z"
         style="fill:#fc8d62;fill-opacity:1;fill-rule:nonzero;stroke:#ffffff;stroke-width:0.75;stroke-linecap:butt;stroke-linejoin:round;stroke-miterlimit:10;stroke-dasharray:none;stroke-opacity:1"
         transform="matrix(1.3333333,0,0,-1.3333333,306.25783,19.036364)"
         
         id="path110" />
    </g>
    <g
       id="g113"
       >
      <path
         d="m 0,-3 c 0.795609,0 1.55874,0.316099 2.12132,0.87868 C 2.683901,-1.55874 3,-0.795609 3,0 3,0.795609 2.683901,1.55874 2.12132,2.12132 1.55874,2.683901 0.795609,3 0,3 -0.795609,3 -1.55874,2.683901 -2.12132,2.12132 -2.683901,1.55874 -3,0.795609 -3,0 -3,-0.795609 -2.683901,-1.55874 -2.12132,-2.12132 -1.55874,-2.683901 -0.795609,-3 0,-3 Z"
         style="fill:#fc8d62;fill-opacity:1;fill-rule:nonzero;stroke:#ffffff;stroke-width:0.75;stroke-linecap:butt;stroke-linejoin:round;stroke-miterlimit:10;stroke-dasharray:none;stroke-opacity:1"
         transform="matrix(1.3333333,0,0,-1.3333333,315.46983,51.960748)"
         
         id="path113" />
    </g>
    <g
       id="g116"
       >
      <path
         d="m 0,-3 c 0.795609,0 1.55874,0.316099 2.12132,0.87868 C 2.683901,-1.55874 3,-0.795609 3,0 3,0.795609 2.683901,1.55874 2.12132,2.12132 1.55874,2.683901 0.795609,3 0,3 -0.795609,3 -1.55874,2.683901 -2.12132,2.12132 -2.683901,1.55874 -3,0.795609 -3,0 -3,-0.795609 -2.683901,-1.55874 -2.12132,-2.12132 -1.55874,-2.683901 -0.795609,-3 0,-3 Z"
         style="fill:#fc8d62;fill-opacity:1;fill-rule:nonzero;stroke:#ffffff;stroke-width:0.75;stroke-linecap:butt;stroke-linejoin:round;stroke-miterlimit:10;stroke-dasharray:none;stroke-opacity:1"
         transform="matrix(1.3333333,0,0,-1.3333333,324.68183,54.900425)"
         
         id="path116" />
    </g>
    <path
       id="path118"
       d="m 236.60237,51.028906 6.909,0.440951"
       style="fill:none;stroke:#8da0cb;stroke-width:1.5;stroke-linecap:round;stroke-linejoin:round;stroke-miterlimit:10;stroke-dasharray:none;stroke-opacity:1"
       transform="matrix(1.3333333,0,0,-1.3333333,0,272.8625)"
        />
    <g
       id="g121"
       >
      <path
         d="m 0,-3 c 0.795609,0 1.55874,0.316099 2.12132,0.87868 C 2.683901,-1.55874 3,-0.795609 3,0 3,0.795609 2.683901,1.55874 2.12132,2.12132 1.55874,2.683901 0.795609,3 0,3 -0.795609,3 -1.55874,2.683901 -2.12132,2.12132 -2.683901,1.55874 -3,0.795609 -3,0 -3,-0.795609 -2.683901,-1.55874 -2.12132,-2.12132 -1.55874,-2.683901 -0.795609,-3 0,-3 Z"
         style="fill:#8da0cb;fill-opacity:1;fill-rule:nonzero;stroke:#ffffff;stroke-width:0.75;stroke-linecap:butt;stroke-linejoin:round;stroke-miterlimit:10;stroke-dasharray:none;stroke-opacity:1"
         transform="matrix(1.3333333,0,0,-1.3333333,315.46983,204.82396)"
         
         id="path121" />
    </g>
    <g
       id="g124"
       >
      <path
         d="m 0,-3 c 0.795609,0 1.55874,0.316099 2.12132,0.87868 C 2.683901,-1.55874 3,-0.795609 3,0 3,0.795609 2.683901,1.55874 2.12132,2.12132 1.55874,2.683901 0.795609,3 0,3 -0.795609,3 -1.55874,2.683901 -2.12132,2.12132 -2.683901,1.55874 -3,0.795609 -3,0 -3,-0.795609 -2.683901,-1.55874 -2.12132,-2.12132 -1.55874,-2.683901 -0.795609,-3 0,-3 Z"
         style="fill:#8da0cb;fill-opacity:1;fill-rule:nonzero;stroke:#ffffff;stroke-width:0.75;stroke-linecap:butt;stroke-linejoin:round;stroke-miterlimit:10;stroke-dasharray:none;stroke-opacity:1"
         transform="matrix(1.3333333,0,0,-1.3333333,324.68183,204.23602)"
         
         id="path124" />
    </g>
    <path
       id="path126"
       d="M 50.059375,41.746875 V 197.44687"
       stroke="currentColor"
       style="fill:none;stroke-width:1.25;stroke-linecap:square;stroke-linejoin:miter;stroke-miterlimit:10;stroke-dasharray:none;stroke-opacity:1"
       transform="matrix(1.3333333,0,0,-1.3333333,0,272.8625)" />
    <path
       id="path127"
       d="M 257.32937,41.746875 V 197.44687"
       stroke="currentColor"
       style="fill:none;stroke-width:1.25;stroke-linecap:square;stroke-linejoin:miter;stroke-miterlimit:10;stroke-dasharray:none;stroke-opacity:1"
       transform="matrix(1.3333333,0,0,-1.3333333,0,272.8625)" />
    <path
       id="path128"
       d="M 50.059375,41.746875 H 257.32937"
       stroke="currentColor"
       style="fill:none;stroke-width:1.25;stroke-linecap:square;stroke-linejoin:miter;stroke-miterlimit:10;stroke-dasharray:none;stroke-opacity:1"
       transform="matrix(1.3333333,0,0,-1.3333333,0,272.8625)" />
    <path
       id="path129"
       d="M 50.059375,197.44687 H 257.32937"
       stroke="currentColor"
       style="fill:none;stroke-width:1.25;stroke-linecap:square;stroke-linejoin:miter;stroke-miterlimit:10;stroke-dasharray:none;stroke-opacity:1"
       transform="matrix(1.3333333,0,0,-1.3333333,0,272.8625)" />
    <path
       id="path130"
       d="M 57.759375,141.95937 H 148.6625 c 1.46667,0 2.2,0.73334 2.2,2.2 v 45.5875 c 0,1.46667 -0.73333,2.2 -2.2,2.2 H 57.759375 c -1.466667,0 -2.2,-0.73333 -2.2,-2.2 v -45.5875 c 0,-1.46666 0.733333,-2.2 2.2,-2.2 z"
       style="fill:#ffffff;fill-opacity:0.8;fill-rule:nonzero;stroke:#cccccc;stroke-width:1;stroke-linecap:butt;stroke-linejoin:miter;stroke-miterlimit:10;stroke-dasharray:none;stroke-opacity:0.8"
       transform="matrix(1.3333333,0,0,-1.3333333,0,272.8625)" />
    <path
       id="path131"
       d="m 59.959375,183.52187 h 11 11"
       style="fill:none;stroke:#66c2a5;stroke-width:1.5;stroke-linecap:round;stroke-linejoin:round;stroke-miterlimit:10;stroke-dasharray:none;stroke-opacity:1"
       transform="matrix(1.3333333,0,0,-1.3333333,0,272.8625)" />
    <path
       id="path132"
       d="m 70.959375,180.52187 c 0.795609,0 1.55874,0.3161 2.12132,0.87868 0.562581,0.56258 0.87868,1.32572 0.87868,2.12132 0,0.79561 -0.316099,1.55874 -0.87868,2.12132 -0.56258,0.56259 -1.325711,0.87868 -2.12132,0.87868 -0.795609,0 -1.55874,-0.31609 -2.12132,-0.87868 -0.562581,-0.56258 -0.87868,-1.32571 -0.87868,-2.12132 0,-0.7956 0.316099,-1.55874 0.87868,-2.12132 0.56258,-0.56258 1.325711,-0.87868 2.12132,-0.87868 z"
       style="fill:#66c2a5;fill-opacity:1;fill-rule:nonzero;stroke:#ffffff;stroke-width:0.75;stroke-linecap:butt;stroke-linejoin:round;stroke-miterlimit:10;stroke-dasharray:none;stroke-opacity:1"
       transform="matrix(1.3333333,0,0,-1.3333333,0,272.8625)" />
    <text
       id="text132"
       xml:space="preserve"
       transform="matrix(1.3333333,0,0,1.3333333,121.0125,33.3)"><tspan
         id="tspan132"
         style="font-variant:normal;font-weight:normal;font-size:11px;font-family:'IBM Plex Sans', 'Open Sans', verdana, arial, sans-serif;writing-mode:lr-tb;fill-opacity:1;fill-rule:nonzero;stroke:none"
         x="0"
         y="0">FIPS 140-1</tspan></text>
    <path
       id="path133"
       d="m 59.959375,167.95937 h 11 11"
       style="fill:none;stroke:#fc8d62;stroke-width:1.5;stroke-linecap:round;stroke-linejoin:round;stroke-miterlimit:10;stroke-dasharray:none;stroke-opacity:1"
       transform="matrix(1.3333333,0,0,-1.3333333,0,272.8625)" />
    <path
       id="path134"
       d="m 70.959375,164.95937 c 0.795609,0 1.55874,0.3161 2.12132,0.87868 0.562581,0.56258 0.87868,1.32572 0.87868,2.12132 0,0.79561 -0.316099,1.55874 -0.87868,2.12132 -0.56258,0.56259 -1.325711,0.87868 -2.12132,0.87868 -0.795609,0 -1.55874,-0.31609 -2.12132,-0.87868 -0.562581,-0.56258 -0.87868,-1.32571 -0.87868,-2.12132 0,-0.7956 0.316099,-1.55874 0.87868,-2.12132 0.56258,-0.56258 1.325711,-0.87868 2.12132,-0.87868 z"
       style="fill:#fc8d62;fill-opacity:1;fill-rule:nonzero;stroke:#ffffff;stroke-width:0.75;stroke-linecap:butt;stroke-linejoin:round;stroke-miterlimit:10;stroke-dasharray:none;stroke-opacity:1"
       transform="matrix(1.3333333,0,0,-1.3333333,0,272.8625)" />
    <text
       id="text134"
       xml:space="preserve"
       transform="matrix(1.3333333,0,0,1.3333333,121.0125,54.05)"><tspan
         id="tspan134"
         style="font-variant:normal;font-weight:normal;font-size:11px;font-family:'IBM Plex Sans', 'Open Sans', verdana, arial, sans-serif;writing-mode:lr-tb;fill-opacity:1;fill-rule:nonzero;stroke:none"
         x="0"
         y="0">FIPS 140-2</tspan></text>
    <path
       id="path135"
       d="m 59.959375,152.39687 h 11 11"
       style="fill:none;stroke:#8da0cb;stroke-width:1.5;stroke-linecap:round;stroke-linejoin:round;stroke-miterlimit:10;stroke-dasharray:none;stroke-opacity:1"
       transform="matrix(1.3333333,0,0,-1.3333333,0,272.8625)" />
    <path
       id="path136"
       d="m 70.959375,149.39687 c 0.795609,0 1.55874,0.3161 2.12132,0.87868 0.562581,0.56259 0.87868,1.32572 0.87868,2.12132 0,0.79561 -0.316099,1.55874 -0.87868,2.12132 -0.56258,0.56259 -1.325711,0.87868 -2.12132,0.87868 -0.795609,0 -1.55874,-0.31609 -2.12132,-0.87868 -0.562581,-0.56258 -0.87868,-1.32571 -0.87868,-2.12132 0,-0.7956 0.316099,-1.55873 0.87868,-2.12132 0.56258,-0.56258 1.325711,-0.87868 2.12132,-0.87868 z"
       style="fill:#8da0cb;fill-opacity:1;fill-rule:nonzero;stroke:#ffffff;stroke-width:0.75;stroke-linecap:butt;stroke-linejoin:round;stroke-miterlimit:10;stroke-dasharray:none;stroke-opacity:1"
       transform="matrix(1.3333333,0,0,-1.3333333,0,272.8625)" />
    <text
       id="text136"
       xml:space="preserve"
       transform="matrix(1.3333333,0,0,1.3333333,121.0125,74.8)"><tspan
         id="tspan136"
         style="font-variant:normal;font-weight:normal;font-size:11px;font-family:'IBM Plex Sans', 'Open Sans', verdana, arial, sans-serif;writing-mode:lr-tb;fill-opacity:1;fill-rule:nonzero;stroke:none"
         x="0"
         y="0">FIPS 140-3</tspan></text>
  </g>
</svg>
