<?xml version="1.0" encoding="UTF-8" standalone="no"?>
<svg
   width="188.78629mm"
   height="68.240051mm"
   viewBox="0 0 188.78628 68.240052"
   version="1.1"
   id="svg8"
   sodipodi:docname="logo_negative.svg"
   inkscape:version="1.1 (c4e8f9ed74, 2021-05-24)"
   xmlns:inkscape="http://www.inkscape.org/namespaces/inkscape"
   xmlns:sodipodi="http://sodipodi.sourceforge.net/DTD/sodipodi-0.dtd"
   xmlns="http://www.w3.org/2000/svg"
   xmlns:svg="http://www.w3.org/2000/svg"
   xmlns:rdf="http://www.w3.org/1999/02/22-rdf-syntax-ns#"
   xmlns:cc="http://creativecommons.org/ns#"
   xmlns:dc="http://purl.org/dc/elements/1.1/">
  <sodipodi:namedview
     pagecolor="#ffffff"
     bordercolor="#666666"
     borderopacity="1"
     objecttolerance="10"
     gridtolerance="10"
     guidetolerance="10"
     id="namedview12"
     showgrid="false"
     inkscape:pageshadow="0"
     inkscape:pageopacity="0"
     inkscape:pagecheckerboard="true"
     inkscape:document-units="mm"
     inkscape:zoom="1.2338046"
     inkscape:cx="262.60235"
     inkscape:cy="206.67778"
     inkscape:window-width="1920"
     inkscape:window-height="1011"
     inkscape:window-x="0"
     inkscape:window-y="0"
     inkscape:window-maximized="1"
     inkscape:current-layer="layer1" />
  <defs
     id="defs2" />
  <metadata
     id="metadata5">
    <rdf:RDF>
      <cc:Work
         rdf:about="">
        <dc:format>image/svg+xml</dc:format>
        <dc:type
           rdf:resource="http://purl.org/dc/dcmitype/StillImage" />
      </cc:Work>
    </rdf:RDF>
  </metadata>
  <g
     id="layer1"
     transform="translate(-24.826912,-135.56049)">
    <path
       id="rect903"
       style="opacity:0.998;fill:#000000;stroke:none;stroke-width:4.90715;stroke-linecap:square;paint-order:markers stroke fill"
       d="M 130.37305,37.794922 A 91.162293,91.162293 0 0 0 73.599609,57.642578 l 45.195311,22.363281 31.52735,-39.794921 a 91.162293,91.162293 0 0 0 -19.94922,-2.416016 z m 20.47461,2.574219 10.75781,49.576171 51.39062,-0.166015 -32.46875,39.833983 32.16993,40.07422 -51.38672,-0.54883 -10.91797,48.5586 a 91.162293,91.162293 0 0 0 54.61328,-36.45118 h 464.2832 L 627.54688,129.48242 669.43164,77.863281 H 205.86719 A 91.162293,91.162293 0 0 0 150.84766,40.369141 Z M 72.972656,58.246094 A 91.162293,91.162293 0 0 0 39.275391,128.38867 L 84.332031,107.2793 Z M 544.80859,93.244141 h 4.70508 v 13.632809 h 12.76758 v 4.41602 h -12.76758 v 33.69531 c 0,4.8 2.68794,8.25586 6.33594,8.25586 2.4,0 4.79934,-0.96039 6.52734,-2.40039 l 2.40039,3.64844 c -2.592,2.016 -5.85679,3.16797 -9.21679,3.16797 -6.336,0 -10.75196,-5.27988 -10.75196,-12.67188 v -33.69531 h -8.44726 v -4.41602 h 8.44726 z M 259.59375,105.72461 c 5.952,0 12.38377,2.11236 17.75977,5.56836 l -2.5918,3.64648 c -4.8,-3.072 -10.27197,-4.79883 -15.16797,-4.79883 -6.528,0 -12,3.55157 -12,8.35157 0,4.8 4.03133,7.48825 14.11133,10.65625 10.368,3.264 16.1289,7.0072 16.1289,14.7832 0,7.776 -7.87265,13.72852 -17.47265,13.72852 -7.008,0 -14.68697,-2.68858 -20.54297,-7.39258 l 2.6875,-3.55078 c 5.664,4.128 12.09547,6.52734 17.85547,6.52734 7.2,0 12.76758,-3.84033 12.76758,-8.73633 0,-5.568 -4.60657,-8.44676 -13.72657,-11.13476 -11.904,-3.648 -16.51367,-7.58469 -16.51367,-14.30469 0,-7.68 7.48908,-13.34375 16.70508,-13.34375 z m 51.83984,0 c 14.496,0 23.61524,11.13555 23.61524,27.93555 h -43.19922 c 0.96,10.944 9.31139,19.58398 19.77539,19.58398 6.72,0 13.72866,-2.39934 17.47266,-6.52734 l 3.07226,3.26367 c -4.224,4.608 -12.86522,7.67969 -20.44922,7.67969 -13.248,0 -24.67187,-11.51933 -24.67187,-26.11133 0,-14.592 10.84876,-25.82422 24.38476,-25.82422 z m 57.79102,0 c 6.624,0 12.76925,2.78292 17.28125,7.29492 l -3.36133,3.26563 c -3.552,-3.744 -8.54392,-6.14454 -13.91992,-6.14454 -11.616,0 -20.25586,9.21591 -20.25586,21.50391 0,12.384 8.63986,21.59961 20.25586,21.59961 5.376,0 10.36928,-2.40023 14.11328,-6.24023 l 3.26367,3.26367 c -4.512,4.608 -10.65695,7.39258 -17.37695,7.39258 -14.304,0 -25.05469,-11.13563 -25.05469,-26.01563 0,-14.784 10.75069,-25.91992 25.05469,-25.91992 z m 50.78516,0 c 6.624,0 12.76729,2.78292 17.27929,7.29492 l -3.35937,3.26563 c -3.552,-3.744 -8.54392,-6.14454 -13.91992,-6.14454 -11.616,0 -20.25586,9.21591 -20.25586,21.50391 0,12.384 8.63986,21.59961 20.25586,21.59961 5.376,0 10.36732,-2.40023 14.11132,-6.24023 l 3.26368,3.26367 c -4.512,4.608 -10.655,7.39258 -17.375,7.39258 -14.304,0 -25.05665,-11.13563 -25.05665,-26.01563 0,-14.784 10.75265,-25.91992 25.05665,-25.91992 z m 50.11132,0 c 14.496,0 23.61524,11.13555 23.61524,27.93555 h -43.19922 c 0.96,10.944 9.31139,19.58398 19.77539,19.58398 6.72,0 13.72866,-2.39934 17.47266,-6.52734 l 3.07226,3.26367 c -4.224,4.608 -12.86522,7.67969 -20.44922,7.67969 -13.248,0 -24.67187,-11.51933 -24.67187,-26.11133 0,-14.592 10.84876,-25.82422 24.38476,-25.82422 z m 60,0 v 4.41601 c -11.232,0 -19.19922,7.77505 -19.19921,18.62305 v 27.74414 h -4.70508 v -49.63086 h 4.70508 v 10.84766 c 2.49595,-7.008 10.07921,-12 19.19921,-12 z m 61.63086,0 c 5.952,0 12.38572,2.11236 17.76172,5.56836 l -2.59179,3.64648 c -4.80001,-3.072 -10.27393,-4.79883 -15.16993,-4.79883 -6.528,0 -12,3.55157 -12,8.35157 0,4.8 4.03328,7.48825 14.11328,10.65625 10.368,3.264 16.12696,7.0072 16.12696,14.7832 0,7.776 -7.87071,13.72852 -17.47071,13.72852 -7.008,0 -14.68892,-2.68858 -20.54492,-7.39258 l 2.6875,-3.55078 c 5.664,4.128 12.09742,6.52734 17.85742,6.52734 7.2,0 12.76758,-3.84033 12.76758,-8.73633 0,-5.568 -4.60851,-8.44676 -13.72851,-11.13476 -11.904,-3.648 -16.51172,-7.58469 -16.51172,-14.30469 0,-7.68 7.48712,-13.34375 16.70312,-13.34375 z m -280.22265,4.41601 c -10.368,0 -18.62369,8.06352 -19.67969,19.10352 h 38.49609 c -0.672,-11.232 -7.6804,-19.10352 -18.8164,-19.10352 z m 158.6875,0 c -10.368,0 -18.62369,8.06352 -19.67969,19.10352 h 38.49609 c -0.672,-11.232 -7.6804,-19.10352 -18.8164,-19.10352 z M 39.306641,129.80469 a 91.162293,91.162293 0 0 0 33.33789,69.53515 l 11.523438,-48.11132 z m 79.121089,48.95508 -44.601558,21.65429 a 91.162293,91.162293 0 0 0 56.546878,19.70508 91.162293,91.162293 0 0 0 18.56836,-2.24609 z"
       transform="matrix(0.26458333,0,0,0.26458333,24.826912,135.56049)" />
    <g
       aria-label="seccerts"
       id="text877-7"
       style="fill:#ffffff;stroke-width:0.264583" />
  </g>
</svg>
