<?xml version="1.0" encoding="UTF-8" standalone="no"?>
<!-- Created with Inkscape (http://www.inkscape.org/) -->

<svg
   version="1.1"
   id="svg1"
   width="243.58347"
   height="207.87387"
   viewBox="0 0 243.58347 207.87387"
   sodipodi:docname="chess_logo_light.svg"
   inkscape:version="1.4 (e7c3feb100, 2024-10-09)"
   xmlns:inkscape="http://www.inkscape.org/namespaces/inkscape"
   xmlns:sodipodi="http://sodipodi.sourceforge.net/DTD/sodipodi-0.dtd"
   xmlns="http://www.w3.org/2000/svg"
   xmlns:svg="http://www.w3.org/2000/svg">
  <sodipodi:namedview
     id="namedview1"
     pagecolor="#ffffff"
     bordercolor="#999999"
     borderopacity="1"
     inkscape:showpageshadow="0"
     inkscape:pageopacity="0"
     inkscape:pagecheckerboard="0"
     inkscape:deskcolor="#d1d1d1"
     inkscape:zoom="2.9924329"
     inkscape:cx="121.80724"
     inkscape:cy="104.0959"
     inkscape:window-width="2560"
     inkscape:window-height="1365"
     inkscape:window-x="0"
     inkscape:window-y="0"
     inkscape:window-maximized="1"
     inkscape:current-layer="svg1" />
  <defs
     id="defs1">
    <clipPath
       clipPathUnits="userSpaceOnUse"
       id="clipPath3">
      <path
         d="M 0,283.465 H 283.465 V 0 H 0 Z"
         transform="translate(-59.892802,-101.2846)"
         id="path3" />
    </clipPath>
    <clipPath
       clipPathUnits="userSpaceOnUse"
       id="clipPath5">
      <path
         d="M 0,283.465 H 283.465 V 0 H 0 Z"
         transform="translate(-122.84661,-135.3868)"
         id="path5" />
    </clipPath>
    <clipPath
       clipPathUnits="userSpaceOnUse"
       id="clipPath7">
      <path
         d="M 0,283.465 H 283.465 V 0 H 0 Z"
         transform="translate(-158.8699,-106.17781)"
         id="path7" />
    </clipPath>
    <clipPath
       clipPathUnits="userSpaceOnUse"
       id="clipPath9">
      <path
         d="M 0,283.465 H 283.465 V 0 H 0 Z"
         transform="translate(-172.8849,-100.0544)"
         id="path9" />
    </clipPath>
    <clipPath
       clipPathUnits="userSpaceOnUse"
       id="clipPath11">
      <path
         d="M 0,283.465 H 283.465 V 0 H 0 Z"
         transform="translate(-209.42251,-100.0544)"
         id="path11" />
    </clipPath>
    <clipPath
       clipPathUnits="userSpaceOnUse"
       id="clipPath13">
      <path
         d="M 0,283.465 H 283.465 V 0 H 0 Z"
         transform="translate(-55.053202,-77.086999)"
         id="path13" />
    </clipPath>
    <clipPath
       clipPathUnits="userSpaceOnUse"
       id="clipPath15">
      <path
         d="M 0,283.465 H 283.465 V 0 H 0 Z"
         transform="translate(-66.609101,-82.398605)"
         id="path15" />
    </clipPath>
    <clipPath
       clipPathUnits="userSpaceOnUse"
       id="clipPath17">
      <path
         d="M 0,283.465 H 283.465 V 0 H 0 Z"
         transform="translate(-71.663602,-78.256099)"
         id="path17" />
    </clipPath>
    <clipPath
       clipPathUnits="userSpaceOnUse"
       id="clipPath19">
      <path
         d="M 0,283.465 H 283.465 V 0 H 0 Z"
         transform="translate(-76.157799,-81.016902)"
         id="path19" />
    </clipPath>
    <clipPath
       clipPathUnits="userSpaceOnUse"
       id="clipPath21">
      <path
         d="M 0,283.465 H 283.465 V 0 H 0 Z"
         transform="translate(-84.7042,-82.462602)"
         id="path21" />
    </clipPath>
    <clipPath
       clipPathUnits="userSpaceOnUse"
       id="clipPath23">
      <path
         d="M 0,283.465 H 283.465 V 0 H 0 Z"
         id="path23" />
    </clipPath>
    <clipPath
       clipPathUnits="userSpaceOnUse"
       id="clipPath25">
      <path
         d="M 0,283.465 H 283.465 V 0 H 0 Z"
         transform="translate(-90.3202,-76.804804)"
         id="path25" />
    </clipPath>
    <clipPath
       clipPathUnits="userSpaceOnUse"
       id="clipPath27">
      <path
         d="M 0,283.465 H 283.465 V 0 H 0 Z"
         transform="translate(-96.805105,-81.016902)"
         id="path27" />
    </clipPath>
    <clipPath
       clipPathUnits="userSpaceOnUse"
       id="clipPath29">
      <path
         d="M 0,283.465 H 283.465 V 0 H 0 Z"
         transform="translate(-103.07721,-76.996699)"
         id="path29" />
    </clipPath>
    <clipPath
       clipPathUnits="userSpaceOnUse"
       id="clipPath31">
      <path
         d="M 0,283.465 H 283.465 V 0 H 0 Z"
         transform="translate(-113.7741,-82.398605)"
         id="path31" />
    </clipPath>
    <clipPath
       clipPathUnits="userSpaceOnUse"
       id="clipPath33">
      <path
         d="M 0,283.465 H 283.465 V 0 H 0 Z"
         transform="translate(-118.8244,-82.462602)"
         id="path33" />
    </clipPath>
    <clipPath
       clipPathUnits="userSpaceOnUse"
       id="clipPath35">
      <path
         d="M 0,283.465 H 283.465 V 0 H 0 Z"
         id="path35" />
    </clipPath>
    <clipPath
       clipPathUnits="userSpaceOnUse"
       id="clipPath37">
      <path
         d="M 0,283.465 H 283.465 V 0 H 0 Z"
         transform="translate(-126.4686,-77.007799)"
         id="path37" />
    </clipPath>
    <clipPath
       clipPathUnits="userSpaceOnUse"
       id="clipPath39">
      <path
         d="M 0,283.465 H 283.465 V 0 H 0 Z"
         transform="translate(-132.79911,-82.398605)"
         id="path39" />
    </clipPath>
    <clipPath
       clipPathUnits="userSpaceOnUse"
       id="clipPath41">
      <path
         d="M 0,283.465 H 283.465 V 0 H 0 Z"
         transform="translate(-142.3116,-77.861299)"
         id="path41" />
    </clipPath>
    <clipPath
       clipPathUnits="userSpaceOnUse"
       id="clipPath43">
      <path
         d="M 0,283.465 H 283.465 V 0 H 0 Z"
         transform="translate(-147.2548,-76.697802)"
         id="path43" />
    </clipPath>
    <clipPath
       clipPathUnits="userSpaceOnUse"
       id="clipPath45">
      <path
         d="M 0,283.465 H 283.465 V 0 H 0 Z"
         transform="translate(-150.57441,-76.996699)"
         id="path45" />
    </clipPath>
    <clipPath
       clipPathUnits="userSpaceOnUse"
       id="clipPath47">
      <path
         d="M 0,283.465 H 283.465 V 0 H 0 Z"
         transform="translate(-157.06071,-81.016902)"
         id="path47" />
    </clipPath>
    <clipPath
       clipPathUnits="userSpaceOnUse"
       id="clipPath49">
      <path
         d="M 0,283.465 H 283.465 V 0 H 0 Z"
         id="path49" />
    </clipPath>
    <clipPath
       clipPathUnits="userSpaceOnUse"
       id="clipPath51">
      <path
         d="M 0,283.465 H 283.465 V 0 H 0 Z"
         id="path51" />
    </clipPath>
    <clipPath
       clipPathUnits="userSpaceOnUse"
       id="clipPath53">
      <path
         d="M 0,283.465 H 283.465 V 0 H 0 Z"
         transform="translate(-169.8705,-81.016902)"
         id="path53" />
    </clipPath>
    <clipPath
       clipPathUnits="userSpaceOnUse"
       id="clipPath55">
      <path
         d="M 0,283.465 H 283.465 V 0 H 0 Z"
         transform="translate(-180.0822,-81.832902)"
         id="path55" />
    </clipPath>
    <clipPath
       clipPathUnits="userSpaceOnUse"
       id="clipPath57">
      <path
         d="M 0,283.465 H 283.465 V 0 H 0 Z"
         transform="translate(-183.5089,-76.996699)"
         id="path57" />
    </clipPath>
    <clipPath
       clipPathUnits="userSpaceOnUse"
       id="clipPath59">
      <path
         d="M 0,283.465 H 283.465 V 0 H 0 Z"
         transform="translate(-189.9951,-81.016902)"
         id="path59" />
    </clipPath>
    <clipPath
       clipPathUnits="userSpaceOnUse"
       id="clipPath61">
      <path
         d="M 0,283.465 H 283.465 V 0 H 0 Z"
         transform="translate(-204.9568,-84.171005)"
         id="path61" />
    </clipPath>
    <clipPath
       clipPathUnits="userSpaceOnUse"
       id="clipPath63">
      <path
         d="M 0,283.465 H 283.465 V 0 H 0 Z"
         transform="translate(-212.35501,-82.398605)"
         id="path63" />
    </clipPath>
    <clipPath
       clipPathUnits="userSpaceOnUse"
       id="clipPath65">
      <path
         d="M 0,283.465 H 283.465 V 0 H 0 Z"
         transform="translate(-218.32831,-78.256099)"
         id="path65" />
    </clipPath>
    <clipPath
       clipPathUnits="userSpaceOnUse"
       id="clipPath67">
      <path
         d="M 0,283.465 H 283.465 V 0 H 0 Z"
         id="path67" />
    </clipPath>
    <clipPath
       clipPathUnits="userSpaceOnUse"
       id="clipPath69">
      <path
         d="M 0,283.465 H 283.465 V 0 H 0 Z"
         transform="translate(-232.4254,-81.832902)"
         id="path69" />
    </clipPath>
    <clipPath
       clipPathUnits="userSpaceOnUse"
       id="clipPath71">
      <path
         d="M 0,283.465 H 283.465 V 0 H 0 Z"
         transform="translate(-76.367702,-65.050099)"
         id="path71" />
    </clipPath>
    <clipPath
       clipPathUnits="userSpaceOnUse"
       id="clipPath73">
      <path
         d="M 0,283.465 H 283.465 V 0 H 0 Z"
         transform="translate(-78.140102,-63.993604)"
         id="path73" />
    </clipPath>
    <clipPath
       clipPathUnits="userSpaceOnUse"
       id="clipPath75">
      <path
         d="M 0,283.465 H 283.465 V 0 H 0 Z"
         transform="translate(-86.658602,-64.196599)"
         id="path75" />
    </clipPath>
    <clipPath
       clipPathUnits="userSpaceOnUse"
       id="clipPath77">
      <path
         d="M 0,283.465 H 283.465 V 0 H 0 Z"
         transform="translate(-91.3447,-65.444899)"
         id="path77" />
    </clipPath>
    <clipPath
       clipPathUnits="userSpaceOnUse"
       id="clipPath79">
      <path
         d="M 0,283.465 H 283.465 V 0 H 0 Z"
         transform="translate(-99.4171,-69.021604)"
         id="path79" />
    </clipPath>
    <clipPath
       clipPathUnits="userSpaceOnUse"
       id="clipPath81">
      <path
         d="M 0,283.465 H 283.465 V 0 H 0 Z"
         id="path81" />
    </clipPath>
    <clipPath
       clipPathUnits="userSpaceOnUse"
       id="clipPath83">
      <path
         d="M 0,283.465 H 283.465 V 0 H 0 Z"
         transform="translate(-107.73831,-65.012599)"
         id="path83" />
    </clipPath>
    <clipPath
       clipPathUnits="userSpaceOnUse"
       id="clipPath85">
      <path
         d="M 0,283.465 H 283.465 V 0 H 0 Z"
         transform="translate(-117.16461,-65.012599)"
         id="path85" />
    </clipPath>
    <clipPath
       clipPathUnits="userSpaceOnUse"
       id="clipPath87">
      <path
         d="M 0,283.465 H 283.465 V 0 H 0 Z"
         transform="translate(-125.72211,-69.021604)"
         id="path87" />
    </clipPath>
    <clipPath
       clipPathUnits="userSpaceOnUse"
       id="clipPath89">
      <path
         d="M 0,283.465 H 283.465 V 0 H 0 Z"
         transform="translate(-131.56191,-65.172402)"
         id="path89" />
    </clipPath>
    <clipPath
       clipPathUnits="userSpaceOnUse"
       id="clipPath91">
      <path
         d="M 0,283.465 H 283.465 V 0 H 0 Z"
         transform="translate(-139.1797,-64.025599)"
         id="path91" />
    </clipPath>
    <clipPath
       clipPathUnits="userSpaceOnUse"
       id="clipPath93">
      <path
         d="M 0,283.465 H 283.465 V 0 H 0 Z"
         transform="translate(-148.8979,-65.444899)"
         id="path93" />
    </clipPath>
    <clipPath
       clipPathUnits="userSpaceOnUse"
       id="clipPath95">
      <path
         d="M 0,283.465 H 283.465 V 0 H 0 Z"
         transform="translate(-157.5249,-69.587404)"
         id="path95" />
    </clipPath>
    <clipPath
       clipPathUnits="userSpaceOnUse"
       id="clipPath97">
      <path
         d="M 0,283.465 H 283.465 V 0 H 0 Z"
         transform="translate(-162.70311,-64.196599)"
         id="path97" />
    </clipPath>
    <clipPath
       clipPathUnits="userSpaceOnUse"
       id="clipPath99">
      <path
         d="M 0,283.465 H 283.465 V 0 H 0 Z"
         transform="translate(-168.7668,-69.021604)"
         id="path99" />
    </clipPath>
    <clipPath
       clipPathUnits="userSpaceOnUse"
       id="clipPath101">
      <path
         d="M 0,283.465 H 283.465 V 0 H 0 Z"
         transform="translate(-181.0539,-63.886602)"
         id="path101" />
    </clipPath>
    <clipPath
       clipPathUnits="userSpaceOnUse"
       id="clipPath103">
      <path
         d="M 0,283.465 H 283.465 V 0 H 0 Z"
         transform="translate(-188.035,-65.444899)"
         id="path103" />
    </clipPath>
    <clipPath
       clipPathUnits="userSpaceOnUse"
       id="clipPath105">
      <path
         d="M 0,283.465 H 283.465 V 0 H 0 Z"
         transform="translate(-194.442,-69.651402)"
         id="path105" />
    </clipPath>
    <clipPath
       clipPathUnits="userSpaceOnUse"
       id="clipPath107">
      <path
         d="M 0,283.465 H 283.465 V 0 H 0 Z"
         transform="translate(-198.42891,-65.012599)"
         id="path107" />
    </clipPath>
    <clipPath
       clipPathUnits="userSpaceOnUse"
       id="clipPath109">
      <path
         d="M 0,283.465 H 283.465 V 0 H 0 Z"
         transform="translate(-207.2533,-69.587404)"
         id="path109" />
    </clipPath>
    <clipPath
       clipPathUnits="userSpaceOnUse"
       id="clipPath111">
      <path
         d="M 0,283.465 H 283.465 V 0 H 0 Z"
         id="path111" />
    </clipPath>
    <clipPath
       clipPathUnits="userSpaceOnUse"
       id="clipPath113">
      <path
         d="M 0,283.465 H 283.465 V 0 H 0 Z"
         transform="translate(-214.05781,-65.012599)"
         id="path113" />
    </clipPath>
    <clipPath
       clipPathUnits="userSpaceOnUse"
       id="clipPath115">
      <path
         d="M 0,283.465 H 283.465 V 0 H 0 Z"
         transform="translate(-143.7409,-213.51301)"
         id="path115" />
    </clipPath>
    <clipPath
       clipPathUnits="userSpaceOnUse"
       id="clipPath117">
      <path
         d="M 0,283.465 H 283.465 V 0 H 0 Z"
         transform="translate(-190.9363,-157.7018)"
         id="path117" />
    </clipPath>
    <clipPath
       clipPathUnits="userSpaceOnUse"
       id="clipPath119">
      <path
         d="M 0,283.465 H 283.465 V 0 H 0 Z"
         id="path119" />
    </clipPath>
  </defs>
  <g
     id="g1"
     transform="translate(-67.185063,-85.04)">
    <g
       id="group-MC0">
      <path
         id="path2"
         d="m 0,0 c -2.955,1.589 -5.278,3.792 -6.97,6.61 -1.69,2.819 -2.536,6.004 -2.534,9.557 0,3.553 0.845,6.739 2.535,9.558 1.692,2.818 4.015,5.02 6.97,6.609 2.954,1.589 6.278,2.383 9.967,2.383 3.109,0 5.92,-0.547 8.43,-1.639 2.511,-1.094 4.621,-2.665 6.329,-4.714 l -5.329,-4.92 c -2.426,2.801 -5.433,4.202 -9.019,4.202 -2.222,0 -4.203,-0.486 -5.945,-1.461 -1.743,-0.973 -3.101,-2.331 -4.074,-4.073 -0.973,-1.743 -1.461,-3.724 -1.461,-5.945 0,-2.22 0.487,-4.201 1.46,-5.944 0.973,-1.742 2.331,-3.1 4.074,-4.075 1.742,-0.973 3.723,-1.459 5.944,-1.459 3.587,0 6.593,1.416 9.019,4.254 l 5.33,-4.92 C 23.017,1.938 20.899,0.35 18.372,-0.744 15.843,-1.836 13.024,-2.383 9.916,-2.383 6.26,-2.383 2.954,-1.589 0,0"
         style="fill:#ffffff;fill-opacity:1;fill-rule:nonzero;stroke:none"
         transform="matrix(1.3333333,0,0,-1.3333333,79.857067,242.9072)"
         clip-path="url(#clipPath3)" />
      <path
         id="path4"
         d="m 0,0 -0.001,-35.87 h -8.302 v 14.707 H -24.598 V -35.87 H -32.9 L -32.898,0 h 8.301 V -14.143 H -8.302 V 0 Z"
         style="fill:#ffffff;fill-opacity:1;fill-rule:nonzero;stroke:none"
         transform="matrix(1.3333333,0,0,-1.3333333,163.79547,197.4376)"
         clip-path="url(#clipPath5)" />
      <path
         id="path6"
         d="m 0,0 v -6.661 h -27.774 l 0.001,35.87 H -0.664 V 22.548 H -19.523 V 14.759 H -2.868 L -2.869,8.302 H -19.524 V 0 Z"
         style="fill:#ffffff;fill-opacity:1;fill-rule:nonzero;stroke:none"
         transform="matrix(1.3333333,0,0,-1.3333333,211.82653,236.38293)"
         clip-path="url(#clipPath7)" />
      <path
         id="path8"
         d="m 0,0 c -2.648,0.769 -4.775,1.768 -6.381,2.998 l 2.82,6.252 C -2.024,8.122 -0.197,7.217 1.921,6.534 4.04,5.85 6.157,5.509 8.275,5.509 c 2.358,0 4.1,0.35 5.227,1.051 1.127,0.699 1.692,1.631 1.692,2.793 0,0.853 -0.334,1.562 -1,2.127 -0.665,0.562 -1.52,1.016 -2.562,1.358 -1.042,0.34 -2.452,0.717 -4.227,1.127 -2.734,0.648 -4.97,1.297 -6.713,1.946 -1.742,0.649 -3.236,1.692 -4.483,3.127 -1.248,1.434 -1.871,3.347 -1.871,5.739 0,2.084 0.564,3.972 1.692,5.662 1.127,1.691 2.826,3.031 5.099,4.022 2.271,0.991 5.047,1.486 8.327,1.486 2.288,0 4.526,-0.274 6.712,-0.82 2.187,-0.547 4.1,-1.332 5.74,-2.357 l -2.562,-6.302 c -3.314,1.879 -6.628,2.819 -9.942,2.819 -2.323,0 -4.04,-0.377 -5.15,-1.128 -1.11,-0.752 -1.666,-1.743 -1.666,-2.972 0,-1.23 0.641,-2.145 1.923,-2.741 1.28,-0.599 3.236,-1.188 5.868,-1.768 2.732,-0.649 4.971,-1.3 6.712,-1.948 1.742,-0.649 3.237,-1.675 4.485,-3.075 1.244,-1.401 1.868,-3.297 1.868,-5.688 0,-2.049 -0.573,-3.92 -1.717,-5.61 C 20.582,2.665 18.865,1.323 16.577,0.334 14.288,-0.658 11.505,-1.152 8.224,-1.152 5.388,-1.152 2.647,-0.769 0,0"
         style="fill:#ffffff;fill-opacity:1;fill-rule:nonzero;stroke:none"
         transform="matrix(1.3333333,0,0,-1.3333333,230.5132,244.54747)"
         clip-path="url(#clipPath9)" />
      <path
         id="path10"
         d="m 0,0 c -2.648,0.769 -4.775,1.768 -6.381,2.998 l 2.82,6.252 C -2.024,8.122 -0.197,7.217 1.921,6.534 4.04,5.85 6.157,5.509 8.275,5.509 c 2.358,0 4.1,0.35 5.227,1.051 1.127,0.699 1.692,1.631 1.692,2.793 0,0.853 -0.334,1.562 -1,2.127 -0.665,0.562 -1.52,1.016 -2.562,1.358 -1.042,0.34 -2.452,0.717 -4.227,1.127 -2.734,0.648 -4.97,1.297 -6.713,1.946 -1.742,0.649 -3.236,1.692 -4.483,3.127 -1.248,1.434 -1.871,3.347 -1.871,5.739 0,2.084 0.564,3.972 1.692,5.662 1.127,1.691 2.826,3.031 5.099,4.022 2.271,0.991 5.047,1.486 8.327,1.486 2.288,0 4.526,-0.274 6.712,-0.82 2.187,-0.547 4.1,-1.332 5.74,-2.357 l -2.562,-6.302 c -3.314,1.879 -6.628,2.819 -9.942,2.819 -2.323,0 -4.04,-0.377 -5.15,-1.128 -1.11,-0.752 -1.666,-1.743 -1.666,-2.972 0,-1.23 0.641,-2.145 1.923,-2.741 1.28,-0.599 3.236,-1.188 5.868,-1.768 2.732,-0.649 4.971,-1.3 6.712,-1.948 1.742,-0.649 3.237,-1.675 4.485,-3.075 1.244,-1.401 1.868,-3.297 1.868,-5.688 0,-2.049 -0.573,-3.92 -1.717,-5.61 C 20.582,2.665 18.865,1.323 16.577,0.334 14.288,-0.658 11.505,-1.152 8.224,-1.152 5.388,-1.152 2.647,-0.769 0,0"
         style="fill:#ffffff;fill-opacity:1;fill-rule:nonzero;stroke:none"
         transform="matrix(1.3333333,0,0,-1.3333333,279.23,244.54747)"
         clip-path="url(#clipPath11)" />
      <path
         id="path12"
         d="m 0,0 c -0.609,0.331 -1.086,0.788 -1.432,1.372 -0.345,0.584 -0.517,1.243 -0.517,1.975 0,0.733 0.174,1.392 0.523,1.976 0.349,0.584 0.827,1.041 1.436,1.372 0.609,0.331 1.29,0.496 2.045,0.496 0.611,0 1.17,-0.107 1.676,-0.321 C 4.236,6.657 4.662,6.347 5.011,5.941 L 4.115,5.099 C 3.574,5.681 2.908,5.973 2.119,5.973 1.606,5.973 1.147,5.862 0.741,5.637 0.335,5.413 0.019,5.102 -0.209,4.703 -0.436,4.305 -0.55,3.852 -0.55,3.347 -0.55,2.841 -0.436,2.39 -0.209,1.992 0.019,1.593 0.335,1.282 0.741,1.058 1.147,0.833 1.606,0.721 2.119,0.721 c 0.789,0 1.455,0.295 1.996,0.886 L 5.011,0.753 C 4.662,0.348 4.234,0.038 3.725,-0.175 3.217,-0.389 2.655,-0.496 2.043,-0.496 1.289,-0.496 0.607,-0.331 0,0"
         style="fill:#ffffff;fill-opacity:1;fill-rule:nonzero;stroke:none"
         transform="matrix(1.3333333,0,0,-1.3333333,73.404267,275.17067)"
         clip-path="url(#clipPath13)" />
      <path
         id="path14"
         d="m 0,0 -2.669,-6.16 c -0.25,-0.62 -0.552,-1.055 -0.908,-1.308 -0.356,-0.253 -0.787,-0.379 -1.291,-0.379 -0.285,0 -0.566,0.047 -0.844,0.139 -0.278,0.093 -0.506,0.221 -0.684,0.385 l 0.534,0.981 c 0.129,-0.121 0.279,-0.217 0.454,-0.287 0.174,-0.071 0.351,-0.107 0.529,-0.107 0.235,0 0.428,0.061 0.582,0.182 0.153,0.121 0.293,0.324 0.421,0.607 L -3.78,-5.722 -6.267,0 h 1.388 L -3.086,-4.216 -1.282,0 Z"
         style="fill:#ffffff;fill-opacity:1;fill-rule:nonzero;stroke:none"
         transform="matrix(1.3333333,0,0,-1.3333333,88.812133,268.08853)"
         clip-path="url(#clipPath15)" />
      <path
         id="path16"
         d="M 0,0 C 0.317,0.328 0.475,0.759 0.475,1.293 0.475,1.827 0.317,2.256 0,2.584 -0.317,2.911 -0.72,3.075 -1.212,3.075 -1.532,3.075 -1.82,3.003 -2.077,2.857 -2.333,2.711 -2.536,2.502 -2.684,2.231 -2.834,1.961 -2.91,1.649 -2.91,1.293 c 0,-0.357 0.076,-0.67 0.226,-0.94 0.148,-0.271 0.351,-0.48 0.607,-0.625 0.257,-0.146 0.545,-0.219 0.865,-0.219 0.492,0 0.895,0.164 1.212,0.491 M 0.427,3.844 C 0.865,3.602 1.208,3.26 1.457,2.819 1.707,2.377 1.831,1.868 1.831,1.293 1.831,0.716 1.707,0.204 1.457,-0.24 1.208,-0.685 0.865,-1.029 0.427,-1.271 c -0.438,-0.241 -0.934,-0.362 -1.489,-0.362 -0.392,0 -0.749,0.068 -1.073,0.203 -0.324,0.134 -0.597,0.337 -0.816,0.608 v -0.736 h -1.271 v 7.922 h 1.335 V 3.449 c 0.228,0.249 0.496,0.438 0.806,0.566 0.309,0.128 0.649,0.191 1.019,0.191 0.555,0 1.051,-0.12 1.489,-0.362"
         style="fill:#ffffff;fill-opacity:1;fill-rule:nonzero;stroke:none"
         transform="matrix(1.3333333,0,0,-1.3333333,95.551467,273.61187)"
         clip-path="url(#clipPath17)" />
      <path
         id="path18"
         d="M 0,0 C -0.296,-0.253 -0.475,-0.589 -0.539,-1.009 H 2.695 C 2.638,-0.596 2.465,-0.263 2.173,-0.006 1.881,0.25 1.518,0.378 1.083,0.378 0.656,0.378 0.295,0.252 0,0 m 3.945,-1.896 h -4.473 c 0.078,-0.42 0.282,-0.752 0.613,-0.998 0.332,-0.245 0.742,-0.369 1.233,-0.369 0.627,0 1.142,0.208 1.548,0.62 L 3.582,-3.466 C 3.325,-3.771 3.001,-4.002 2.611,-4.159 2.219,-4.315 1.778,-4.394 1.286,-4.394 c -0.626,0 -1.178,0.125 -1.654,0.374 -0.477,0.249 -0.846,0.596 -1.106,1.041 -0.259,0.445 -0.389,0.948 -0.389,1.511 0,0.555 0.127,1.055 0.378,1.5 0.253,0.445 0.604,0.791 1.053,1.04 0.449,0.25 0.953,0.374 1.515,0.374 0.556,0 1.052,-0.123 1.49,-0.369 0.438,-0.244 0.779,-0.59 1.025,-1.035 0.246,-0.445 0.368,-0.959 0.368,-1.542 0,-0.093 -0.007,-0.225 -0.021,-0.396"
         style="fill:#ffffff;fill-opacity:1;fill-rule:nonzero;stroke:none"
         transform="matrix(1.3333333,0,0,-1.3333333,101.54373,269.9308)"
         clip-path="url(#clipPath19)" />
      <path
         id="path20"
         d="m 0,0 v -1.271 c -0.114,0.023 -0.217,0.032 -0.31,0.032 -0.52,0 -0.926,-0.151 -1.216,-0.453 C -1.818,-1.995 -1.964,-2.43 -1.964,-3 v -2.765 h -1.335 v 5.701 h 1.271 V -0.897 C -1.645,-0.299 -0.969,0 0,0"
         style="fill:#ffffff;fill-opacity:1;fill-rule:nonzero;stroke:none"
         transform="matrix(1.3333333,0,0,-1.3333333,112.93893,268.0032)"
         clip-path="url(#clipPath21)" />
      <path
         id="path22"
         d="m 85.515,80.22 h 2.936 v -1.109 h -2.936 z"
         style="fill:#ffffff;fill-opacity:1;fill-rule:nonzero;stroke:none"
         transform="matrix(1.3333333,0,0,-1.3333333,0,377.95333)"
         clip-path="url(#clipPath23)" />
      <path
         id="path24"
         d="m 0,0 c -0.442,0.121 -0.794,0.274 -1.058,0.459 l 0.513,1.015 C -0.289,1.303 0.019,1.165 0.378,1.062 0.738,0.959 1.091,0.908 1.44,0.908 c 0.798,0 1.197,0.21 1.197,0.629 0,0.199 -0.101,0.338 -0.304,0.416 C 2.13,2.032 1.803,2.106 1.355,2.178 0.885,2.249 0.503,2.331 0.207,2.423 c -0.295,0.093 -0.55,0.254 -0.769,0.487 -0.216,0.23 -0.325,0.553 -0.325,0.966 0,0.54 0.227,0.973 0.678,1.297 0.452,0.323 1.063,0.485 1.831,0.485 0.391,0 0.783,-0.045 1.175,-0.134 C 3.188,5.435 3.509,5.316 3.757,5.167 L 3.245,4.152 C 2.761,4.437 2.216,4.58 1.611,4.58 1.221,4.58 0.923,4.521 0.72,4.404 0.517,4.286 0.416,4.131 0.416,3.94 0.416,3.725 0.524,3.574 0.741,3.485 0.958,3.396 1.294,3.313 1.75,3.235 2.206,3.164 2.579,3.082 2.871,2.989 3.163,2.897 3.414,2.74 3.624,2.519 3.834,2.299 3.938,1.985 3.938,1.579 3.938,1.045 3.707,0.619 3.245,0.299 2.782,-0.022 2.152,-0.182 1.355,-0.182 0.892,-0.182 0.441,-0.121 0,0"
         style="fill:#ffffff;fill-opacity:1;fill-rule:nonzero;stroke:none"
         transform="matrix(1.3333333,0,0,-1.3333333,120.42693,275.54693)"
         clip-path="url(#clipPath25)" />
      <path
         id="path26"
         d="M 0,0 C -0.296,-0.253 -0.475,-0.589 -0.539,-1.009 H 2.695 C 2.638,-0.596 2.465,-0.263 2.173,-0.006 1.881,0.25 1.518,0.378 1.083,0.378 0.656,0.378 0.295,0.252 0,0 m 3.945,-1.896 h -4.473 c 0.078,-0.42 0.282,-0.752 0.613,-0.998 0.332,-0.245 0.742,-0.369 1.233,-0.369 0.627,0 1.142,0.208 1.548,0.62 L 3.582,-3.466 C 3.325,-3.771 3.001,-4.002 2.611,-4.159 2.219,-4.315 1.778,-4.394 1.286,-4.394 c -0.626,0 -1.178,0.125 -1.654,0.374 -0.477,0.249 -0.846,0.596 -1.106,1.041 -0.259,0.445 -0.389,0.948 -0.389,1.511 0,0.555 0.127,1.055 0.378,1.5 0.253,0.445 0.604,0.791 1.053,1.04 0.449,0.25 0.953,0.374 1.515,0.374 0.556,0 1.052,-0.123 1.49,-0.369 0.438,-0.244 0.779,-0.59 1.025,-1.035 0.246,-0.445 0.368,-0.959 0.368,-1.542 0,-0.093 -0.007,-0.225 -0.021,-0.396"
         style="fill:#ffffff;fill-opacity:1;fill-rule:nonzero;stroke:none"
         transform="matrix(1.3333333,0,0,-1.3333333,129.07347,269.9308)"
         clip-path="url(#clipPath27)" />
      <path
         id="path28"
         d="m 0,0 c -0.47,0.249 -0.837,0.596 -1.1,1.041 -0.262,0.445 -0.394,0.948 -0.394,1.511 0,0.562 0.132,1.064 0.394,1.504 0.263,0.442 0.629,0.787 1.094,1.036 0.466,0.25 0.999,0.374 1.596,0.374 0.563,0 1.055,-0.114 1.479,-0.342 C 3.493,4.897 3.812,4.569 4.024,4.143 L 3,3.545 C 2.836,3.808 2.631,4.005 2.385,4.137 2.141,4.269 1.872,4.334 1.581,4.334 1.082,4.334 0.669,4.173 0.342,3.849 0.014,3.525 -0.149,3.093 -0.149,2.552 -0.149,2.01 0.013,1.578 0.336,1.254 0.66,0.93 1.075,0.769 1.581,0.769 c 0.291,0 0.56,0.065 0.804,0.197 C 2.631,1.098 2.836,1.296 3,1.558 L 4.024,0.961 C 3.805,0.534 3.482,0.204 3.058,-0.026 2.636,-0.259 2.146,-0.374 1.59,-0.374 0.999,-0.374 0.47,-0.249 0,0"
         style="fill:#ffffff;fill-opacity:1;fill-rule:nonzero;stroke:none"
         transform="matrix(1.3333333,0,0,-1.3333333,137.43627,275.29107)"
         clip-path="url(#clipPath29)" />
      <path
         id="path30"
         d="m 0,0 v -5.701 h -1.271 v 0.726 c -0.212,-0.256 -0.479,-0.453 -0.8,-0.592 -0.32,-0.139 -0.665,-0.209 -1.036,-0.209 -0.76,0 -1.361,0.213 -1.799,0.635 -0.438,0.424 -0.656,1.053 -0.656,1.885 V 0 h 1.335 v -3.075 c 0,-0.511 0.115,-0.895 0.347,-1.147 0.231,-0.253 0.56,-0.379 0.987,-0.379 0.477,0 0.856,0.147 1.137,0.443 0.281,0.295 0.421,0.72 0.421,1.276 V 0 Z"
         style="fill:#ffffff;fill-opacity:1;fill-rule:nonzero;stroke:none"
         transform="matrix(1.3333333,0,0,-1.3333333,151.6988,268.08853)"
         clip-path="url(#clipPath31)" />
      <path
         id="path32"
         d="m 0,0 v -1.271 c -0.114,0.023 -0.217,0.032 -0.31,0.032 -0.52,0 -0.926,-0.151 -1.216,-0.453 C -1.818,-1.995 -1.964,-2.43 -1.964,-3 v -2.765 h -1.335 v 5.701 h 1.271 V -0.897 C -1.645,-0.299 -0.969,0 0,0"
         style="fill:#ffffff;fill-opacity:1;fill-rule:nonzero;stroke:none"
         transform="matrix(1.3333333,0,0,-1.3333333,158.43253,268.0032)"
         clip-path="url(#clipPath33)" />
      <path
         id="path34"
         d="m 119.956,82.399 h 1.335 v -5.701 h -1.335 z m 0.064,1.169 c -0.164,0.153 -0.246,0.343 -0.246,0.571 0,0.228 0.082,0.418 0.246,0.571 0.164,0.153 0.365,0.23 0.609,0.23 0.242,0 0.445,-0.074 0.607,-0.218 0.164,-0.146 0.246,-0.33 0.246,-0.551 0,-0.235 -0.08,-0.432 -0.24,-0.592 -0.16,-0.16 -0.364,-0.241 -0.613,-0.241 -0.244,0 -0.445,0.077 -0.609,0.23"
         style="fill:#ffffff;fill-opacity:1;fill-rule:nonzero;stroke:none"
         transform="matrix(1.3333333,0,0,-1.3333333,0,377.95333)"
         clip-path="url(#clipPath35)" />
      <path
         id="path36"
         d="m 0,0 c -0.157,-0.128 -0.348,-0.225 -0.571,-0.289 -0.224,-0.064 -0.46,-0.096 -0.711,-0.096 -0.625,0 -1.109,0.164 -1.451,0.492 -0.342,0.327 -0.513,0.804 -0.513,1.43 V 4.28 h -0.94 v 1.068 h 0.94 V 6.65 h 1.335 V 5.348 h 1.527 V 4.28 H -1.911 V 1.569 c 0,-0.278 0.068,-0.489 0.203,-0.635 0.134,-0.146 0.33,-0.219 0.588,-0.219 0.298,0 0.547,0.079 0.746,0.234 z"
         style="fill:#ffffff;fill-opacity:1;fill-rule:nonzero;stroke:none"
         transform="matrix(1.3333333,0,0,-1.3333333,168.6248,275.27627)"
         clip-path="url(#clipPath37)" />
      <path
         id="path38"
         d="m 0,0 -2.669,-6.16 c -0.25,-0.62 -0.552,-1.055 -0.908,-1.308 -0.356,-0.253 -0.787,-0.379 -1.291,-0.379 -0.285,0 -0.566,0.047 -0.844,0.139 -0.278,0.093 -0.506,0.221 -0.684,0.385 l 0.534,0.981 c 0.129,-0.121 0.279,-0.217 0.454,-0.287 0.174,-0.071 0.351,-0.107 0.529,-0.107 0.235,0 0.428,0.061 0.582,0.182 0.153,0.121 0.293,0.324 0.421,0.607 L -3.78,-5.722 -6.267,0 h 1.388 L -3.086,-4.216 -1.282,0 Z"
         style="fill:#ffffff;fill-opacity:1;fill-rule:nonzero;stroke:none"
         transform="matrix(1.3333333,0,0,-1.3333333,177.06547,268.08853)"
         clip-path="url(#clipPath39)" />
      <path
         id="path40"
         d="M 0,0 V -1.164 H -5.605 V 6.31 H -0.15 V 5.146 H -4.218 V 3.203 h 3.609 V 2.06 H -4.218 V 0 Z"
         style="fill:#ffffff;fill-opacity:1;fill-rule:nonzero;stroke:none"
         transform="matrix(1.3333333,0,0,-1.3333333,189.7488,274.13827)"
         clip-path="url(#clipPath41)" />
      <path
         id="path42"
         d="M 0,0 -1.462,1.975 -2.936,0 h -1.473 l 2.221,2.893 -2.126,2.808 h 1.485 L -1.43,3.833 -0.032,5.701 H 1.41 L -0.726,2.915 1.505,0 Z"
         style="fill:#ffffff;fill-opacity:1;fill-rule:nonzero;stroke:none"
         transform="matrix(1.3333333,0,0,-1.3333333,196.33973,275.6896)"
         clip-path="url(#clipPath43)" />
      <path
         id="path44"
         d="m 0,0 c -0.47,0.249 -0.837,0.596 -1.1,1.041 -0.262,0.445 -0.394,0.948 -0.394,1.511 0,0.562 0.132,1.064 0.394,1.504 0.263,0.442 0.629,0.787 1.094,1.036 0.466,0.25 0.999,0.374 1.596,0.374 0.563,0 1.055,-0.114 1.479,-0.342 C 3.493,4.897 3.812,4.569 4.024,4.143 L 3,3.545 C 2.836,3.808 2.631,4.005 2.385,4.137 2.141,4.269 1.872,4.334 1.581,4.334 1.081,4.334 0.669,4.173 0.342,3.849 0.014,3.525 -0.149,3.093 -0.149,2.552 -0.149,2.01 0.013,1.578 0.336,1.254 0.66,0.93 1.075,0.769 1.581,0.769 c 0.291,0 0.56,0.065 0.804,0.197 C 2.631,1.098 2.836,1.296 3,1.558 L 4.024,0.961 C 3.805,0.534 3.482,0.204 3.058,-0.026 2.636,-0.259 2.146,-0.374 1.59,-0.374 0.999,-0.374 0.47,-0.249 0,0"
         style="fill:#ffffff;fill-opacity:1;fill-rule:nonzero;stroke:none"
         transform="matrix(1.3333333,0,0,-1.3333333,200.76587,275.29107)"
         clip-path="url(#clipPath45)" />
      <path
         id="path46"
         d="M 0,0 C -0.296,-0.253 -0.475,-0.589 -0.539,-1.009 H 2.695 C 2.638,-0.596 2.465,-0.263 2.173,-0.006 1.881,0.25 1.518,0.378 1.083,0.378 0.656,0.378 0.295,0.252 0,0 m 3.945,-1.896 h -4.473 c 0.078,-0.42 0.282,-0.752 0.613,-0.998 0.332,-0.245 0.742,-0.369 1.233,-0.369 0.627,0 1.142,0.208 1.548,0.62 L 3.582,-3.466 C 3.325,-3.771 3.001,-4.002 2.611,-4.159 2.219,-4.315 1.778,-4.394 1.286,-4.394 c -0.626,0 -1.178,0.125 -1.654,0.374 -0.477,0.249 -0.846,0.596 -1.106,1.041 -0.259,0.445 -0.389,0.948 -0.389,1.511 0,0.555 0.127,1.055 0.378,1.5 0.253,0.445 0.604,0.791 1.053,1.04 0.449,0.25 0.953,0.374 1.515,0.374 0.556,0 1.052,-0.123 1.49,-0.369 0.438,-0.244 0.779,-0.59 1.025,-1.035 0.246,-0.445 0.368,-0.959 0.368,-1.542 0,-0.093 -0.007,-0.225 -0.021,-0.396"
         style="fill:#ffffff;fill-opacity:1;fill-rule:nonzero;stroke:none"
         transform="matrix(1.3333333,0,0,-1.3333333,209.41427,269.9308)"
         clip-path="url(#clipPath47)" />
      <path
         id="path48"
         d="m 162.307,84.62 h 1.335 v -7.922 h -1.335 z"
         style="fill:#ffffff;fill-opacity:1;fill-rule:nonzero;stroke:none"
         transform="matrix(1.3333333,0,0,-1.3333333,0,377.95333)"
         clip-path="url(#clipPath49)" />
      <path
         id="path50"
         d="m 165.393,84.62 h 1.335 v -7.922 h -1.335 z"
         style="fill:#ffffff;fill-opacity:1;fill-rule:nonzero;stroke:none"
         transform="matrix(1.3333333,0,0,-1.3333333,0,377.95333)"
         clip-path="url(#clipPath51)" />
      <path
         id="path52"
         d="M 0,0 C -0.296,-0.253 -0.475,-0.589 -0.539,-1.009 H 2.695 C 2.638,-0.596 2.465,-0.263 2.173,-0.006 1.881,0.25 1.518,0.378 1.083,0.378 0.656,0.378 0.295,0.252 0,0 m 3.945,-1.896 h -4.473 c 0.078,-0.42 0.282,-0.752 0.613,-0.998 0.332,-0.245 0.742,-0.369 1.233,-0.369 0.627,0 1.142,0.208 1.548,0.62 L 3.582,-3.466 C 3.325,-3.771 3.001,-4.002 2.611,-4.159 2.219,-4.315 1.778,-4.394 1.286,-4.394 c -0.626,0 -1.178,0.125 -1.654,0.374 -0.477,0.249 -0.846,0.596 -1.106,1.041 -0.259,0.445 -0.389,0.948 -0.389,1.511 0,0.555 0.127,1.055 0.378,1.5 0.253,0.445 0.604,0.791 1.053,1.04 0.449,0.25 0.953,0.374 1.515,0.374 0.556,0 1.052,-0.123 1.49,-0.369 0.438,-0.244 0.779,-0.59 1.025,-1.035 0.246,-0.445 0.368,-0.959 0.368,-1.542 0,-0.093 -0.007,-0.225 -0.021,-0.396"
         style="fill:#ffffff;fill-opacity:1;fill-rule:nonzero;stroke:none"
         transform="matrix(1.3333333,0,0,-1.3333333,226.494,269.9308)"
         clip-path="url(#clipPath53)" />
      <path
         id="path54"
         d="m 0,0 c 0.434,-0.42 0.651,-1.043 0.651,-1.868 v -3.267 h -1.335 v 3.096 c 0,0.499 -0.117,0.874 -0.352,1.126 -0.235,0.253 -0.57,0.379 -1.003,0.379 -0.491,0 -0.879,-0.147 -1.164,-0.443 -0.285,-0.295 -0.427,-0.72 -0.427,-1.275 v -2.883 h -1.334 v 5.701 h 1.27 v -0.737 c 0.22,0.264 0.498,0.463 0.833,0.598 0.334,0.135 0.712,0.203 1.132,0.203 C -1.011,0.63 -0.434,0.42 0,0"
         style="fill:#ffffff;fill-opacity:1;fill-rule:nonzero;stroke:none"
         transform="matrix(1.3333333,0,0,-1.3333333,240.1096,268.8428)"
         clip-path="url(#clipPath55)" />
      <path
         id="path56"
         d="m 0,0 c -0.47,0.249 -0.837,0.596 -1.1,1.041 -0.262,0.445 -0.394,0.948 -0.394,1.511 0,0.562 0.132,1.064 0.394,1.504 0.263,0.442 0.629,0.787 1.094,1.036 0.466,0.25 0.999,0.374 1.596,0.374 0.563,0 1.055,-0.114 1.479,-0.342 C 3.493,4.897 3.812,4.569 4.024,4.143 L 3,3.545 C 2.836,3.808 2.631,4.005 2.385,4.137 2.141,4.269 1.872,4.334 1.581,4.334 1.081,4.334 0.669,4.173 0.342,3.849 0.014,3.525 -0.149,3.093 -0.149,2.552 -0.149,2.01 0.013,1.578 0.336,1.254 0.66,0.93 1.075,0.769 1.581,0.769 c 0.291,0 0.56,0.065 0.804,0.197 C 2.631,1.098 2.836,1.296 3,1.558 L 4.024,0.961 C 3.805,0.534 3.482,0.204 3.058,-0.026 2.636,-0.259 2.146,-0.374 1.59,-0.374 0.999,-0.374 0.47,-0.249 0,0"
         style="fill:#ffffff;fill-opacity:1;fill-rule:nonzero;stroke:none"
         transform="matrix(1.3333333,0,0,-1.3333333,244.67853,275.29107)"
         clip-path="url(#clipPath57)" />
      <path
         id="path58"
         d="M 0,0 C -0.296,-0.253 -0.475,-0.589 -0.539,-1.009 H 2.695 C 2.638,-0.596 2.465,-0.263 2.173,-0.006 1.881,0.25 1.518,0.378 1.083,0.378 0.656,0.378 0.295,0.252 0,0 m 3.945,-1.896 h -4.473 c 0.078,-0.42 0.282,-0.752 0.613,-0.998 0.332,-0.245 0.742,-0.369 1.233,-0.369 0.627,0 1.142,0.208 1.548,0.62 L 3.582,-3.466 C 3.325,-3.771 3.001,-4.002 2.611,-4.159 2.219,-4.315 1.778,-4.394 1.286,-4.394 c -0.626,0 -1.178,0.125 -1.654,0.374 -0.477,0.249 -0.846,0.596 -1.106,1.041 -0.259,0.445 -0.389,0.948 -0.389,1.511 0,0.555 0.127,1.055 0.378,1.5 0.253,0.445 0.604,0.791 1.053,1.04 0.449,0.25 0.953,0.374 1.515,0.374 0.556,0 1.052,-0.123 1.49,-0.369 0.438,-0.244 0.779,-0.59 1.025,-1.035 0.246,-0.445 0.368,-0.959 0.368,-1.542 0,-0.093 -0.007,-0.225 -0.021,-0.396"
         style="fill:#ffffff;fill-opacity:1;fill-rule:nonzero;stroke:none"
         transform="matrix(1.3333333,0,0,-1.3333333,253.3268,269.9308)"
         clip-path="url(#clipPath59)" />
      <path
         id="path60"
         d="M 0,0 V -7.473 H -1.389 V -4.27 H -5.253 V -7.473 H -6.641 V 0 h 1.388 v -3.086 h 3.864 V 0 Z"
         style="fill:#ffffff;fill-opacity:1;fill-rule:nonzero;stroke:none"
         transform="matrix(1.3333333,0,0,-1.3333333,273.27573,265.72533)"
         clip-path="url(#clipPath61)" />
      <path
         id="path62"
         d="m 0,0 v -5.701 h -1.271 v 0.726 c -0.212,-0.256 -0.479,-0.453 -0.8,-0.592 -0.32,-0.139 -0.665,-0.209 -1.036,-0.209 -0.76,0 -1.361,0.213 -1.799,0.635 -0.438,0.424 -0.656,1.053 -0.656,1.885 V 0 h 1.335 v -3.075 c 0,-0.511 0.115,-0.895 0.347,-1.147 0.231,-0.253 0.56,-0.379 0.987,-0.379 0.477,0 0.857,0.147 1.137,0.443 0.281,0.295 0.421,0.72 0.421,1.276 V 0 Z"
         style="fill:#ffffff;fill-opacity:1;fill-rule:nonzero;stroke:none"
         transform="matrix(1.3333333,0,0,-1.3333333,283.14,268.08853)"
         clip-path="url(#clipPath63)" />
      <path
         id="path64"
         d="M 0,0 C 0.317,0.328 0.475,0.759 0.475,1.293 0.475,1.827 0.317,2.256 0,2.584 -0.317,2.911 -0.72,3.075 -1.212,3.075 -1.532,3.075 -1.82,3.003 -2.077,2.857 -2.333,2.711 -2.536,2.502 -2.684,2.231 -2.834,1.961 -2.91,1.649 -2.91,1.293 c 0,-0.357 0.076,-0.67 0.226,-0.94 0.148,-0.271 0.351,-0.48 0.607,-0.625 0.257,-0.146 0.545,-0.219 0.865,-0.219 0.492,0 0.895,0.164 1.212,0.491 M 0.427,3.844 C 0.865,3.602 1.208,3.26 1.457,2.819 1.707,2.377 1.831,1.868 1.831,1.293 1.831,0.716 1.707,0.204 1.457,-0.24 1.208,-0.685 0.865,-1.029 0.427,-1.271 c -0.438,-0.241 -0.934,-0.362 -1.489,-0.362 -0.392,0 -0.749,0.068 -1.073,0.203 -0.324,0.134 -0.597,0.337 -0.816,0.608 v -0.736 h -1.271 v 7.922 h 1.335 V 3.449 c 0.228,0.249 0.496,0.438 0.806,0.566 0.309,0.128 0.649,0.191 1.019,0.191 0.555,0 1.051,-0.12 1.489,-0.362"
         style="fill:#ffffff;fill-opacity:1;fill-rule:nonzero;stroke:none"
         transform="matrix(1.3333333,0,0,-1.3333333,291.1044,273.61187)"
         clip-path="url(#clipPath65)" />
      <path
         id="path66"
         d="m 224.377,82.399 h 1.335 v -5.701 h -1.335 z m 0.064,1.169 c -0.164,0.153 -0.246,0.343 -0.246,0.571 0,0.228 0.082,0.418 0.246,0.571 0.164,0.153 0.365,0.23 0.608,0.23 0.242,0 0.445,-0.074 0.608,-0.218 0.164,-0.146 0.246,-0.33 0.246,-0.551 0,-0.235 -0.081,-0.432 -0.241,-0.592 -0.159,-0.16 -0.364,-0.241 -0.613,-0.241 -0.243,0 -0.444,0.077 -0.608,0.23"
         style="fill:#ffffff;fill-opacity:1;fill-rule:nonzero;stroke:none"
         transform="matrix(1.3333333,0,0,-1.3333333,0,377.95333)"
         clip-path="url(#clipPath67)" />
      <path
         id="path68"
         d="m 0,0 c 0.434,-0.42 0.651,-1.043 0.651,-1.868 v -3.267 h -1.335 v 3.096 c 0,0.499 -0.117,0.874 -0.352,1.126 -0.235,0.253 -0.57,0.379 -1.003,0.379 -0.491,0 -0.879,-0.147 -1.164,-0.443 -0.285,-0.295 -0.427,-0.72 -0.427,-1.275 v -2.883 h -1.334 v 5.701 h 1.27 v -0.737 c 0.22,0.264 0.498,0.463 0.833,0.598 0.334,0.135 0.712,0.203 1.132,0.203 C -1.011,0.63 -0.434,0.42 0,0"
         style="fill:#ffffff;fill-opacity:1;fill-rule:nonzero;stroke:none"
         transform="matrix(1.3333333,0,0,-1.3333333,309.90053,268.8428)"
         clip-path="url(#clipPath69)" />
      <path
         id="path70"
         d="M 0,0 V -1.164 H -5.605 V 6.31 H -0.15 V 5.146 H -4.218 V 3.203 h 3.609 V 2.06 H -4.218 V 0 Z"
         style="fill:#ffffff;fill-opacity:1;fill-rule:nonzero;stroke:none"
         transform="matrix(1.3333333,0,0,-1.3333333,101.8236,291.21987)"
         clip-path="url(#clipPath71)" />
      <path
         id="path72"
         d="m 0,0 c -0.442,0.121 -0.794,0.274 -1.058,0.459 l 0.513,1.015 C -0.289,1.303 0.019,1.165 0.378,1.062 0.738,0.959 1.091,0.908 1.44,0.908 c 0.798,0 1.197,0.21 1.197,0.629 0,0.199 -0.101,0.338 -0.304,0.416 C 2.13,2.032 1.803,2.106 1.355,2.178 0.885,2.249 0.503,2.331 0.207,2.423 c -0.295,0.093 -0.55,0.254 -0.769,0.487 -0.216,0.23 -0.325,0.553 -0.325,0.966 0,0.54 0.227,0.973 0.678,1.297 0.452,0.323 1.063,0.485 1.831,0.485 0.391,0 0.783,-0.045 1.175,-0.134 C 3.188,5.435 3.509,5.316 3.757,5.167 L 3.245,4.152 C 2.761,4.437 2.216,4.58 1.611,4.58 1.221,4.58 0.923,4.521 0.72,4.404 0.517,4.286 0.416,4.131 0.416,3.94 0.416,3.725 0.524,3.574 0.741,3.485 0.958,3.396 1.294,3.313 1.75,3.235 2.206,3.164 2.579,3.082 2.871,2.989 3.162,2.897 3.414,2.74 3.624,2.519 3.834,2.299 3.938,1.985 3.938,1.579 3.938,1.045 3.707,0.619 3.245,0.299 2.782,-0.022 2.152,-0.182 1.355,-0.182 0.892,-0.182 0.441,-0.121 0,0"
         style="fill:#ffffff;fill-opacity:1;fill-rule:nonzero;stroke:none"
         transform="matrix(1.3333333,0,0,-1.3333333,104.1868,292.62853)"
         clip-path="url(#clipPath73)" />
      <path
         id="path74"
         d="m 0,0 c -0.157,-0.128 -0.348,-0.225 -0.571,-0.289 -0.224,-0.064 -0.46,-0.096 -0.711,-0.096 -0.625,0 -1.109,0.164 -1.451,0.492 -0.342,0.327 -0.513,0.804 -0.513,1.43 V 4.28 h -0.94 v 1.068 h 0.94 V 6.65 h 1.335 V 5.348 h 1.527 V 4.28 H -1.911 V 1.569 c 0,-0.278 0.068,-0.489 0.203,-0.635 0.134,-0.146 0.33,-0.219 0.588,-0.219 0.298,0 0.547,0.079 0.746,0.234 z"
         style="fill:#ffffff;fill-opacity:1;fill-rule:nonzero;stroke:none"
         transform="matrix(1.3333333,0,0,-1.3333333,115.5448,292.35787)"
         clip-path="url(#clipPath75)" />
      <path
         id="path76"
         d="m 0,0 c 0.321,0.328 0.481,0.759 0.481,1.293 0,0.534 -0.16,0.963 -0.481,1.291 -0.32,0.327 -0.726,0.491 -1.216,0.491 -0.491,0 -0.896,-0.164 -1.213,-0.491 -0.316,-0.328 -0.474,-0.757 -0.474,-1.291 0,-0.534 0.158,-0.965 0.474,-1.293 0.317,-0.327 0.722,-0.491 1.213,-0.491 0.49,0 0.896,0.164 1.216,0.491 m -2.775,-1.259 c -0.463,0.248 -0.824,0.596 -1.084,1.041 -0.26,0.445 -0.389,0.948 -0.389,1.511 0,0.561 0.129,1.063 0.389,1.504 0.26,0.442 0.621,0.787 1.084,1.036 0.462,0.25 0.982,0.373 1.559,0.373 0.583,0 1.106,-0.123 1.569,-0.373 C 0.816,3.584 1.176,3.239 1.436,2.797 1.696,2.356 1.827,1.854 1.827,1.293 1.827,0.73 1.696,0.227 1.436,-0.218 1.176,-0.663 0.816,-1.011 0.353,-1.259 -0.11,-1.508 -0.633,-1.633 -1.216,-1.633 c -0.577,0 -1.097,0.125 -1.559,0.374"
         style="fill:#ffffff;fill-opacity:1;fill-rule:nonzero;stroke:none"
         transform="matrix(1.3333333,0,0,-1.3333333,121.79293,290.69347)"
         clip-path="url(#clipPath77)" />
      <path
         id="path78"
         d="m 0,0 c 0.434,-0.42 0.651,-1.043 0.651,-1.868 v -3.267 h -1.335 v 3.096 c 0,0.499 -0.117,0.874 -0.352,1.126 -0.235,0.253 -0.57,0.379 -1.003,0.379 -0.491,0 -0.879,-0.147 -1.164,-0.443 -0.285,-0.295 -0.427,-0.72 -0.427,-1.275 v -2.883 h -1.334 v 5.701 h 1.27 v -0.737 c 0.22,0.264 0.498,0.463 0.833,0.598 0.334,0.135 0.712,0.203 1.132,0.203 C -1.011,0.63 -0.434,0.42 0,0"
         style="fill:#ffffff;fill-opacity:1;fill-rule:nonzero;stroke:none"
         transform="matrix(1.3333333,0,0,-1.3333333,132.55613,285.92453)"
         clip-path="url(#clipPath79)" />
      <path
         id="path80"
         d="m 101.766,69.587 h 1.335 v -5.701 h -1.335 z m 0.064,1.169 c -0.164,0.153 -0.246,0.344 -0.246,0.572 0,0.228 0.082,0.418 0.246,0.571 0.164,0.153 0.366,0.23 0.609,0.23 0.242,0 0.445,-0.074 0.608,-0.219 0.164,-0.146 0.246,-0.329 0.246,-0.55 0,-0.235 -0.081,-0.433 -0.241,-0.592 -0.16,-0.16 -0.364,-0.241 -0.613,-0.241 -0.243,0 -0.445,0.077 -0.609,0.229"
         style="fill:#ffffff;fill-opacity:1;fill-rule:nonzero;stroke:none"
         transform="matrix(1.3333333,0,0,-1.3333333,0,377.95333)"
         clip-path="url(#clipPath81)" />
      <path
         id="path82"
         d="m 0,0 c 0.26,0.153 0.443,0.373 0.55,0.658 v 0.661 h -1.377 c -0.769,0 -1.153,-0.253 -1.153,-0.759 0,-0.242 0.096,-0.434 0.288,-0.575 0.192,-0.143 0.459,-0.214 0.801,-0.214 0.334,0 0.631,0.076 0.891,0.229 M 1.218,4.035 C 1.663,3.634 1.885,3.028 1.885,2.216 V -1.126 H 0.624 v 0.694 c -0.162,-0.249 -0.396,-0.44 -0.699,-0.572 -0.302,-0.13 -0.667,-0.197 -1.094,-0.197 -0.427,0 -0.801,0.074 -1.121,0.22 -0.321,0.146 -0.568,0.347 -0.742,0.607 -0.174,0.26 -0.261,0.553 -0.261,0.881 0,0.513 0.19,0.923 0.571,1.233 0.381,0.31 0.98,0.465 1.799,0.465 H 0.55 V 2.291 C 0.55,2.688 0.431,2.994 0.192,3.208 -0.046,3.422 -0.4,3.528 -0.87,3.528 -1.19,3.528 -1.505,3.479 -1.814,3.379 -2.124,3.279 -2.385,3.14 -2.6,2.962 l -0.522,0.972 c 0.299,0.228 0.657,0.403 1.077,0.524 0.421,0.121 0.866,0.181 1.335,0.181 0.841,0 1.483,-0.202 1.928,-0.604"
         style="fill:#ffffff;fill-opacity:1;fill-rule:nonzero;stroke:none"
         transform="matrix(1.3333333,0,0,-1.3333333,143.65107,291.26987)"
         clip-path="url(#clipPath83)" />
      <path
         id="path84"
         d="m 0,0 c 0.26,0.153 0.443,0.373 0.55,0.658 v 0.661 h -1.377 c -0.769,0 -1.153,-0.253 -1.153,-0.759 0,-0.242 0.096,-0.434 0.288,-0.575 0.192,-0.143 0.459,-0.214 0.801,-0.214 0.334,0 0.631,0.076 0.891,0.229 M 1.218,4.035 C 1.663,3.634 1.885,3.028 1.885,2.216 V -1.126 H 0.624 v 0.694 c -0.162,-0.249 -0.396,-0.44 -0.699,-0.572 -0.302,-0.13 -0.667,-0.197 -1.094,-0.197 -0.427,0 -0.801,0.074 -1.121,0.22 -0.321,0.146 -0.568,0.347 -0.742,0.607 -0.174,0.26 -0.261,0.553 -0.261,0.881 0,0.513 0.19,0.923 0.571,1.233 0.381,0.31 0.98,0.465 1.799,0.465 H 0.55 V 2.291 C 0.55,2.688 0.431,2.994 0.192,3.208 -0.046,3.422 -0.4,3.528 -0.87,3.528 -1.19,3.528 -1.505,3.479 -1.814,3.379 -2.124,3.279 -2.385,3.14 -2.6,2.962 l -0.522,0.972 c 0.299,0.228 0.657,0.403 1.077,0.524 0.421,0.121 0.866,0.181 1.335,0.181 0.841,0 1.483,-0.202 1.928,-0.604"
         style="fill:#ffffff;fill-opacity:1;fill-rule:nonzero;stroke:none"
         transform="matrix(1.3333333,0,0,-1.3333333,156.21947,291.26987)"
         clip-path="url(#clipPath85)" />
      <path
         id="path86"
         d="m 0,0 c 0.434,-0.42 0.651,-1.043 0.651,-1.868 v -3.267 h -1.335 v 3.096 c 0,0.499 -0.117,0.874 -0.352,1.126 -0.235,0.253 -0.57,0.379 -1.003,0.379 -0.491,0 -0.879,-0.147 -1.164,-0.443 -0.285,-0.295 -0.427,-0.72 -0.427,-1.275 v -2.883 h -1.334 v 5.701 h 1.27 v -0.737 c 0.22,0.264 0.498,0.463 0.833,0.598 0.334,0.135 0.712,0.203 1.132,0.203 C -1.011,0.63 -0.434,0.42 0,0"
         style="fill:#ffffff;fill-opacity:1;fill-rule:nonzero;stroke:none"
         transform="matrix(1.3333333,0,0,-1.3333333,167.62947,285.92453)"
         clip-path="url(#clipPath87)" />
      <path
         id="path88"
         d="M 0,0 C 0.256,0.146 0.459,0.354 0.607,0.626 0.758,0.895 0.833,1.208 0.833,1.565 0.833,1.921 0.758,2.234 0.607,2.504 0.459,2.775 0.256,2.983 0,3.129 -0.257,3.275 -0.545,3.347 -0.865,3.347 -1.186,3.347 -1.474,3.275 -1.729,3.129 -1.986,2.983 -2.189,2.775 -2.338,2.504 -2.488,2.234 -2.562,1.921 -2.562,1.565 c 0,-0.357 0.074,-0.67 0.224,-0.939 0.149,-0.272 0.352,-0.48 0.609,-0.626 0.255,-0.146 0.543,-0.218 0.864,-0.218 0.32,0 0.608,0.072 0.865,0.218 m 2.145,6.636 v -7.922 h -1.28 v 0.737 C 0.644,-0.82 0.371,-1.023 0.047,-1.158 c -0.324,-0.135 -0.681,-0.203 -1.073,-0.203 -0.548,0 -1.04,0.121 -1.478,0.363 -0.437,0.242 -0.781,0.585 -1.03,1.03 -0.25,0.445 -0.374,0.956 -0.374,1.533 0,0.576 0.124,1.085 0.374,1.527 0.249,0.44 0.593,0.782 1.03,1.024 0.438,0.242 0.93,0.363 1.478,0.363 0.378,0 0.723,-0.064 1.036,-0.192 0.314,-0.128 0.581,-0.32 0.8,-0.577 v 2.926 z"
         style="fill:#ffffff;fill-opacity:1;fill-rule:nonzero;stroke:none"
         transform="matrix(1.3333333,0,0,-1.3333333,175.41587,291.0568)"
         clip-path="url(#clipPath89)" />
      <path
         id="path90"
         d="m 0,0 c -0.538,0.164 -0.963,0.381 -1.276,0.651 l 0.479,1.078 C -0.491,1.487 -0.114,1.29 0.331,1.137 0.776,0.984 1.222,0.908 1.67,0.908 c 0.556,0 0.97,0.089 1.244,0.267 0.274,0.178 0.411,0.413 0.411,0.704 0,0.213 -0.076,0.39 -0.229,0.529 C 2.943,2.547 2.748,2.655 2.513,2.733 2.278,2.811 1.959,2.9 1.553,3 0.983,3.135 0.523,3.27 0.17,3.406 -0.182,3.541 -0.485,3.752 -0.737,4.041 -0.99,4.329 -1.116,4.718 -1.116,5.21 c 0,0.413 0.112,0.788 0.336,1.126 0.224,0.338 0.562,0.606 1.015,0.806 0.452,0.199 1.005,0.299 1.66,0.299 0.454,0 0.903,-0.057 1.344,-0.171 C 3.681,7.156 4.062,6.992 4.382,6.78 L 3.944,5.701 C 3.617,5.893 3.275,6.039 2.919,6.139 2.563,6.237 2.219,6.287 1.884,6.287 1.336,6.287 0.929,6.196 0.662,6.011 0.395,5.825 0.261,5.58 0.261,5.274 0.261,5.06 0.338,4.886 0.491,4.75 0.644,4.615 0.837,4.508 1.072,4.43 1.307,4.352 1.628,4.263 2.034,4.163 2.588,4.035 3.044,3.902 3.4,3.763 3.756,3.624 4.059,3.413 4.312,3.128 4.565,2.843 4.692,2.459 4.692,1.975 4.692,1.562 4.579,1.189 4.355,0.854 4.131,0.52 3.791,0.253 3.336,0.053 2.88,-0.146 2.324,-0.246 1.67,-0.246 1.094,-0.246 0.537,-0.164 0,0"
         style="fill:#ffffff;fill-opacity:1;fill-rule:nonzero;stroke:none"
         transform="matrix(1.3333333,0,0,-1.3333333,185.57293,292.58587)"
         clip-path="url(#clipPath91)" />
      <path
         id="path92"
         d="m 0,0 c 0.321,0.328 0.481,0.759 0.481,1.293 0,0.534 -0.16,0.963 -0.481,1.291 -0.32,0.327 -0.726,0.491 -1.216,0.491 -0.491,0 -0.896,-0.164 -1.213,-0.491 -0.316,-0.328 -0.474,-0.757 -0.474,-1.291 0,-0.534 0.158,-0.965 0.474,-1.293 0.317,-0.327 0.722,-0.491 1.213,-0.491 0.49,0 0.896,0.164 1.216,0.491 m -2.775,-1.259 c -0.463,0.248 -0.824,0.596 -1.084,1.041 -0.26,0.445 -0.389,0.948 -0.389,1.511 0,0.561 0.129,1.063 0.389,1.504 0.26,0.442 0.621,0.787 1.084,1.036 0.462,0.25 0.982,0.373 1.559,0.373 0.583,0 1.106,-0.123 1.569,-0.373 C 0.816,3.584 1.176,3.239 1.436,2.797 1.696,2.356 1.827,1.854 1.827,1.293 1.827,0.73 1.696,0.227 1.436,-0.218 1.176,-0.663 0.816,-1.011 0.353,-1.259 -0.11,-1.508 -0.633,-1.633 -1.216,-1.633 c -0.577,0 -1.097,0.125 -1.559,0.374"
         style="fill:#ffffff;fill-opacity:1;fill-rule:nonzero;stroke:none"
         transform="matrix(1.3333333,0,0,-1.3333333,198.53053,290.69347)"
         clip-path="url(#clipPath93)" />
      <path
         id="path94"
         d="m 0,0 v -5.701 h -1.271 v 0.726 c -0.212,-0.256 -0.479,-0.453 -0.8,-0.592 -0.32,-0.139 -0.665,-0.209 -1.036,-0.209 -0.76,0 -1.361,0.213 -1.799,0.635 -0.438,0.424 -0.656,1.053 -0.656,1.885 V 0 h 1.335 v -3.075 c 0,-0.511 0.115,-0.895 0.347,-1.147 0.231,-0.253 0.56,-0.379 0.987,-0.379 0.477,0 0.857,0.147 1.137,0.443 0.281,0.295 0.421,0.72 0.421,1.276 V 0 Z"
         style="fill:#ffffff;fill-opacity:1;fill-rule:nonzero;stroke:none"
         transform="matrix(1.3333333,0,0,-1.3333333,210.0332,285.17013)"
         clip-path="url(#clipPath95)" />
      <path
         id="path96"
         d="m 0,0 c -0.157,-0.128 -0.348,-0.225 -0.571,-0.289 -0.224,-0.064 -0.46,-0.096 -0.711,-0.096 -0.625,0 -1.109,0.164 -1.451,0.492 -0.342,0.327 -0.513,0.804 -0.513,1.43 V 4.28 h -0.94 v 1.068 h 0.94 V 6.65 h 1.335 V 5.348 h 1.527 V 4.28 H -1.911 V 1.569 c 0,-0.278 0.068,-0.489 0.203,-0.635 0.134,-0.146 0.33,-0.219 0.588,-0.219 0.298,0 0.547,0.079 0.746,0.234 z"
         style="fill:#ffffff;fill-opacity:1;fill-rule:nonzero;stroke:none"
         transform="matrix(1.3333333,0,0,-1.3333333,216.93747,292.35787)"
         clip-path="url(#clipPath97)" />
      <path
         id="path98"
         d="m 0,0 c 0.434,-0.42 0.651,-1.043 0.651,-1.868 v -3.267 h -1.335 v 3.096 c 0,0.499 -0.117,0.874 -0.352,1.126 -0.235,0.253 -0.57,0.379 -1.003,0.379 -0.491,0 -0.879,-0.147 -1.164,-0.443 -0.285,-0.295 -0.427,-0.72 -0.427,-1.275 v -2.883 h -1.334 v 7.922 h 1.334 v -2.883 c 0.22,0.235 0.493,0.414 0.816,0.539 C -2.49,0.567 -2.128,0.63 -1.729,0.63 -1.011,0.63 -0.434,0.42 0,0"
         style="fill:#ffffff;fill-opacity:1;fill-rule:nonzero;stroke:none"
         transform="matrix(1.3333333,0,0,-1.3333333,225.0224,285.92453)"
         clip-path="url(#clipPath99)" />
      <path
         id="path100"
         d="m 0,0 -0.011,4.954 -2.455,-4.1 H -3.085 L -5.541,4.889 V 0 h -1.323 v 7.473 h 1.142 L -2.754,2.519 0.16,7.473 H 1.303 L 1.314,0 Z"
         style="fill:#ffffff;fill-opacity:1;fill-rule:nonzero;stroke:none"
         transform="matrix(1.3333333,0,0,-1.3333333,241.4052,292.7712)"
         clip-path="url(#clipPath101)" />
      <path
         id="path102"
         d="m 0,0 c 0.321,0.328 0.481,0.759 0.481,1.293 0,0.534 -0.16,0.963 -0.481,1.291 -0.32,0.327 -0.726,0.491 -1.216,0.491 -0.491,0 -0.896,-0.164 -1.213,-0.491 -0.316,-0.328 -0.474,-0.757 -0.474,-1.291 0,-0.534 0.158,-0.965 0.474,-1.293 0.317,-0.327 0.722,-0.491 1.213,-0.491 0.49,0 0.896,0.164 1.216,0.491 m -2.775,-1.259 c -0.463,0.248 -0.824,0.596 -1.084,1.041 -0.26,0.445 -0.389,0.948 -0.389,1.511 0,0.561 0.129,1.063 0.389,1.504 0.26,0.442 0.621,0.787 1.084,1.036 0.462,0.25 0.982,0.373 1.559,0.373 0.584,0 1.106,-0.123 1.569,-0.373 C 0.816,3.584 1.176,3.239 1.436,2.797 1.696,2.356 1.827,1.854 1.827,1.293 1.827,0.73 1.696,0.227 1.436,-0.218 1.176,-0.663 0.816,-1.011 0.353,-1.259 -0.11,-1.508 -0.632,-1.633 -1.216,-1.633 c -0.577,0 -1.097,0.125 -1.559,0.374"
         style="fill:#ffffff;fill-opacity:1;fill-rule:nonzero;stroke:none"
         transform="matrix(1.3333333,0,0,-1.3333333,250.71333,290.69347)"
         clip-path="url(#clipPath103)" />
      <path
         id="path104"
         d="m 0,0 v -1.271 c -0.114,0.023 -0.217,0.032 -0.31,0.032 -0.52,0 -0.926,-0.151 -1.216,-0.453 C -1.818,-1.995 -1.964,-2.43 -1.964,-3 v -2.765 h -1.335 v 5.701 h 1.271 V -0.897 C -1.645,-0.299 -0.969,0 0,0"
         style="fill:#ffffff;fill-opacity:1;fill-rule:nonzero;stroke:none"
         transform="matrix(1.3333333,0,0,-1.3333333,259.256,285.0848)"
         clip-path="url(#clipPath105)" />
      <path
         id="path106"
         d="m 0,0 c 0.26,0.153 0.443,0.373 0.55,0.658 v 0.661 h -1.377 c -0.769,0 -1.153,-0.253 -1.153,-0.759 0,-0.242 0.096,-0.434 0.288,-0.575 0.192,-0.143 0.459,-0.214 0.801,-0.214 0.334,0 0.631,0.076 0.891,0.229 M 1.218,4.035 C 1.663,3.634 1.885,3.028 1.885,2.216 V -1.126 H 0.624 v 0.694 c -0.162,-0.249 -0.396,-0.44 -0.699,-0.572 -0.302,-0.13 -0.667,-0.197 -1.094,-0.197 -0.427,0 -0.801,0.074 -1.121,0.22 -0.321,0.146 -0.568,0.347 -0.742,0.607 -0.174,0.26 -0.261,0.553 -0.261,0.881 0,0.513 0.19,0.923 0.571,1.233 0.381,0.31 0.98,0.465 1.799,0.465 H 0.55 V 2.291 C 0.55,2.688 0.431,2.994 0.192,3.208 -0.046,3.422 -0.4,3.528 -0.87,3.528 -1.19,3.528 -1.505,3.479 -1.814,3.379 -2.124,3.279 -2.385,3.14 -2.6,2.962 l -0.522,0.972 c 0.299,0.228 0.657,0.403 1.077,0.524 0.421,0.121 0.866,0.181 1.335,0.181 0.841,0 1.483,-0.202 1.928,-0.604"
         style="fill:#ffffff;fill-opacity:1;fill-rule:nonzero;stroke:none"
         transform="matrix(1.3333333,0,0,-1.3333333,264.57187,291.26987)"
         clip-path="url(#clipPath107)" />
      <path
         id="path108"
         d="M 0,0 -2.445,-5.701 H -3.823 L -6.267,0 h 1.388 L -3.107,-4.227 -1.282,0 Z"
         style="fill:#ffffff;fill-opacity:1;fill-rule:nonzero;stroke:none"
         transform="matrix(1.3333333,0,0,-1.3333333,276.33773,285.17013)"
         clip-path="url(#clipPath109)" />
      <path
         id="path110"
         d="m 208.086,69.587 h 1.335 v -5.701 h -1.335 z m 0.064,1.169 c -0.164,0.153 -0.246,0.344 -0.246,0.572 0,0.228 0.082,0.418 0.246,0.571 0.164,0.153 0.365,0.23 0.609,0.23 0.242,0 0.445,-0.074 0.607,-0.219 0.164,-0.146 0.246,-0.329 0.246,-0.55 0,-0.235 -0.08,-0.433 -0.24,-0.592 -0.16,-0.16 -0.364,-0.241 -0.613,-0.241 -0.244,0 -0.445,0.077 -0.609,0.229"
         style="fill:#ffffff;fill-opacity:1;fill-rule:nonzero;stroke:none"
         transform="matrix(1.3333333,0,0,-1.3333333,0,377.95333)"
         clip-path="url(#clipPath111)" />
      <path
         id="path112"
         d="m 0,0 c 0.26,0.153 0.443,0.373 0.55,0.658 v 0.661 h -1.377 c -0.769,0 -1.153,-0.253 -1.153,-0.759 0,-0.242 0.096,-0.434 0.288,-0.575 0.192,-0.143 0.459,-0.214 0.801,-0.214 0.334,0 0.631,0.076 0.891,0.229 M 1.218,4.035 C 1.663,3.634 1.885,3.028 1.885,2.216 V -1.126 H 0.624 v 0.694 c -0.162,-0.249 -0.396,-0.44 -0.699,-0.572 -0.302,-0.13 -0.667,-0.197 -1.094,-0.197 -0.427,0 -0.801,0.074 -1.121,0.22 -0.321,0.146 -0.568,0.347 -0.742,0.607 -0.174,0.26 -0.261,0.553 -0.261,0.881 0,0.513 0.19,0.923 0.571,1.233 0.381,0.31 0.98,0.465 1.799,0.465 H 0.55 v 0.086 c 0,0.397 -0.119,0.703 -0.358,0.917 -0.238,0.214 -0.592,0.32 -1.062,0.32 -0.32,0 -0.635,-0.049 -0.944,-0.149 -0.31,-0.1 -0.571,-0.239 -0.785,-0.417 l -0.523,0.972 c 0.299,0.228 0.657,0.403 1.077,0.524 0.421,0.121 0.866,0.181 1.335,0.181 0.841,0 1.483,-0.202 1.928,-0.604"
         style="fill:#ffffff;fill-opacity:1;fill-rule:nonzero;stroke:none"
         transform="matrix(1.3333333,0,0,-1.3333333,285.4104,291.26987)"
         clip-path="url(#clipPath113)" />
      <path
         id="path114"
         d="M 0,0 C 1.704,0 3.086,1.382 3.086,3.086 3.086,4.79 1.705,6.172 0,6.172 -1.704,6.172 -3.086,4.791 -3.086,3.086 -3.086,1.382 -1.704,0 0,0"
         style="fill:#3871c1;fill-opacity:1;fill-rule:nonzero;stroke:none"
         transform="matrix(1.3333333,0,0,-1.3333333,191.65453,93.269333)"
         clip-path="url(#clipPath115)" />
      <path
         id="path116"
         d="m 0,0 c -5.81,0 -10.52,4.65 -10.519,10.384 0,3.637 1.898,6.831 4.765,8.686 l 3.536,19.04 h -5.957 v -3.568 h -3.924 v 3.568 h -5.607 v -3.568 h -3.925 v 3.568 h -5.957 l 3.527,-19.019 c 2.886,-1.851 4.798,-5.056 4.798,-8.706 0,-5.669 -4.605,-10.268 -10.323,-10.373 v 0.133 c -0.052,-0.001 -0.102,-0.008 -0.155,-0.008 -6.789,0.001 -12.292,5.433 -12.292,12.135 0.001,4.249 2.218,7.982 5.569,10.149 l 10e-4,15.72 h -5.025 l 2.263,12.127 -7.926,3.554 -7.925,-3.553 2.261,-12.127 h -5.041 l -10e-4,-15.696 c 3.372,-2.163 5.607,-5.908 5.607,-10.174 -10e-4,-6.701 -5.505,-12.133 -12.294,-12.132 -0.056,0 -0.109,0.007 -0.164,0.008 V 0.016 c -5.715,0.108 -10.316,4.707 -10.316,10.373 0,3.637 1.898,6.832 4.766,8.686 l 10e-4,13.453 h -4.301 l 1.936,5.946 -6.782,7.473 -6.783,-7.472 1.936,-5.946 h -4.314 l -0.001,-13.432 c 2.886,-1.852 4.799,-5.056 4.798,-8.707 0,-5.734 -4.71,-10.383 -10.52,-10.382 -0.048,0 -0.094,0.006 -0.141,0.007 l -0.014,-11.048 29.719,-0.002 v -10e-4 l 34.786,-0.002 v 0 L 0.119,-11.041 0.133,0.007 C 0.088,0.006 0.045,0 0,0"
         style="fill:#3871c1;fill-opacity:1;fill-rule:nonzero;stroke:none"
         transform="matrix(1.3333333,0,0,-1.3333333,254.58173,167.68427)"
         clip-path="url(#clipPath117)" />
      <path
         id="path118"
         d="M 222.118,143.913 H 65.445 v 4.27 h 156.673 z"
         style="fill:#3871c1;fill-opacity:1;fill-rule:nonzero;stroke:none"
         transform="matrix(1.3333333,0,0,-1.3333333,0,377.95333)"
         clip-path="url(#clipPath119)" />
    </g>
  </g>
</svg>
