<?xml version="1.0" encoding="UTF-8" standalone="no"?>
<!-- Created with Inkscape (http://www.inkscape.org/) -->

<svg
   version="1.1"
   id="svg1"
   width="1318.08"
   height="293.90668"
   viewBox="0 0 1318.08 293.90668"
   xmlns="http://www.w3.org/2000/svg"
   xmlns:svg="http://www.w3.org/2000/svg">
  <defs
     id="defs1" />
  <g
     id="g1">
    <g
       id="group-R5">
      <path
         id="path2"
         d="M 100.293,101.059 H 3049.74 V 2103.9 H 100.293 V 101.059"
         style="fill:#ffffff;fill-opacity:1;fill-rule:nonzero;stroke:none"
         transform="matrix(0.13333333,0,0,-0.13333333,0,293.90667)" />
      <path
         id="path3"
         d="M 157.012,158.27 H 2993.03 v 1890.7 H 157.012 V 158.27"
         style="fill:#2a3c93;fill-opacity:1;fill-rule:nonzero;stroke:none"
         transform="matrix(0.13333333,0,0,-0.13333333,0,293.90667)" />
      <path
         id="path4"
         d="m 1514.59,1637.02 59.84,43.67 59.85,-43.67 -22.78,70.63 60.79,43.67 h -74.93 l -22.93,71.48 -22.93,-71.56 -74.88,0.08 60.74,-43.67 -22.77,-70.63"
         style="fill:#fbca07;fill-opacity:1;fill-rule:nonzero;stroke:none"
         transform="matrix(0.13333333,0,0,-0.13333333,0,293.90667)" />
      <path
         id="path5"
         d="m 1204.9,1553.82 59.84,43.67 59.81,-43.67 -22.74,70.63 60.75,43.67 h -74.93 l -22.92,71.56 -22.93,-71.64 -74.89,0.08 60.74,-43.67 -22.73,-70.63"
         style="fill:#fbca07;fill-opacity:1;fill-rule:nonzero;stroke:none"
         transform="matrix(0.13333333,0,0,-0.13333333,0,293.90667)" />
      <path
         id="path6"
         d="m 1038.14,1512.57 -22.93,-71.64 -74.874,0.08 60.734,-43.67 -22.765,-70.63 59.835,43.67 59.84,-43.67 -22.77,70.63 60.74,43.67 h -74.88 l -22.93,71.56"
         style="fill:#fbca07;fill-opacity:1;fill-rule:nonzero;stroke:none"
         transform="matrix(0.13333333,0,0,-0.13333333,0,293.90667)" />
      <path
         id="path7"
         d="m 955.023,1061.08 59.807,-43.67 -22.736,70.62 60.736,43.68 h -74.877 l -22.93,71.56 -22.929,-71.72 -74.918,0.16 60.777,-43.68 -22.769,-70.62 59.839,43.67"
         style="fill:#fbca07;fill-opacity:1;fill-rule:nonzero;stroke:none"
         transform="matrix(0.13333333,0,0,-0.13333333,0,293.90667)" />
      <path
         id="path8"
         d="m 1061.07,821.48 -22.93,71.559 -22.93,-71.641 -74.874,0.082 60.734,-43.671 -22.765,-70.629 59.835,43.75 59.84,-43.75 -22.77,70.629 60.74,43.671 h -74.88"
         style="fill:#fbca07;fill-opacity:1;fill-rule:nonzero;stroke:none"
         transform="matrix(0.13333333,0,0,-0.13333333,0,293.90667)" />
      <path
         id="path9"
         d="m 1288.1,594.449 -22.93,71.481 -22.89,-71.559 -74.92,0.078 60.74,-43.668 -22.73,-70.633 59.84,43.672 59.8,-43.672 -22.73,70.633 60.74,43.668 h -74.92"
         style="fill:#fbca07;fill-opacity:1;fill-rule:nonzero;stroke:none"
         transform="matrix(0.13333333,0,0,-0.13333333,0,293.90667)" />
      <path
         id="path10"
         d="m 1597.4,512.18 -22.93,71.558 -22.89,-71.636 -74.92,0.078 60.74,-43.668 -22.73,-70.633 59.84,43.672 59.8,-43.672 -22.77,70.633 60.78,43.668 h -74.92"
         style="fill:#fbca07;fill-opacity:1;fill-rule:nonzero;stroke:none"
         transform="matrix(0.13333333,0,0,-0.13333333,0,293.90667)" />
      <path
         id="path11"
         d="m 1906.7,594.449 -22.89,71.481 -22.97,-71.559 -74.84,0.078 60.7,-43.668 -22.73,-70.633 59.84,43.672 59.84,-43.672 -22.81,70.633 60.78,43.668 h -74.92"
         style="fill:#fbca07;fill-opacity:1;fill-rule:nonzero;stroke:none"
         transform="matrix(0.13333333,0,0,-0.13333333,0,293.90667)" />
      <path
         id="path12"
         d="m 2133.81,821.48 -22.97,71.559 -22.97,-71.641 -74.84,0.082 60.78,-43.671 -22.81,-70.629 59.84,43.75 59.84,-43.75 -22.81,70.629 60.78,43.671 h -74.84"
         style="fill:#fbca07;fill-opacity:1;fill-rule:nonzero;stroke:none"
         transform="matrix(0.13333333,0,0,-0.13333333,0,293.90667)" />
      <path
         id="path13"
         d="M 2290.92,1132.57 H 2216 l -22.97,71.56 -22.89,-71.64 -74.92,0.08 60.78,-43.67 -22.74,-70.63 59.77,43.75 59.84,-43.75 -22.73,70.63 60.78,43.67"
         style="fill:#fbca07;fill-opacity:1;fill-rule:nonzero;stroke:none"
         transform="matrix(0.13333333,0,0,-0.13333333,0,293.90667)" />
      <path
         id="path14"
         d="m 2050.99,1327.65 59.84,43.67 59.85,-43.67 -22.81,70.63 60.78,43.59 h -74.85 l -22.97,71.56 -22.96,-71.64 -74.85,0.08 60.78,-43.59 -22.81,-70.63"
         style="fill:#fbca07;fill-opacity:1;fill-rule:nonzero;stroke:none"
         transform="matrix(0.13333333,0,0,-0.13333333,0,293.90667)" />
      <path
         id="path15"
         d="m 1884.67,1739.6 -22.89,-71.64 -74.92,0.16 60.7,-43.75 -22.73,-70.63 59.92,43.75 59.76,-43.75 -22.73,70.63 60.78,43.75 h -75 l -22.89,71.48"
         style="fill:#fbca07;fill-opacity:1;fill-rule:nonzero;stroke:none"
         transform="matrix(0.13333333,0,0,-0.13333333,0,293.90667)" />
      <path
         id="path16"
         d="m 30.621203,-9.6922344 c -1.757812,1.6289063 -3.902344,2.4140625 -6.445312,2.4140625 -3.375,0 -6.105469,-1.2421875 -8.25,-3.7734371 -2.144532,-2.472657 -3.1875,-6.632813 -3.1875,-12.550782 0,-5.519531 1.113281,-9.550781 3.257812,-12.023437 2.144531,-2.472656 4.933594,-3.703125 8.378906,-3.703125 2.472657,0 4.617188,0.714844 6.375,2.085937 1.746094,1.429688 2.917969,3.304688 3.445313,5.71875 l 9.292969,-2.214843 c -1.042969,-3.703125 -2.660157,-6.5625 -4.746094,-8.578125 -3.574219,-3.386719 -8.191406,-5.074219 -13.910156,-5.074219 -6.503907,0 -11.765625,2.144531 -15.7968754,6.433594 -3.9609375,4.289062 -5.9765625,10.335937 -5.9765625,18.070312 0,7.347656 2.015625,13.0664064 5.9765625,17.2968751 3.9609374,4.2304688 9.0351564,6.37500003 15.2109374,6.37500003 5.003906,0 9.164063,-1.2421875 12.421875,-3.71484373 3.246094,-2.53125 5.589844,-6.3046875 6.949219,-11.4375004 l -9.105469,-2.789062 c -0.773437,3.375 -2.074219,5.90625 -3.890625,7.4648436 z m 21.125977,2.2851563 c 1.441406,2.7304687 3.585937,4.7460937 6.375,6.1757812 2.800781,1.35937503 5.71875,2.07421878 8.835937,2.07421878 5.015625,0 9.105469,-1.6875 12.421875,-5.07421878 3.316406,-3.3046875 4.945313,-7.5351561 4.945313,-12.6679691 0,-5.074218 -1.628907,-9.234375 -4.886719,-12.550781 -3.246094,-3.316406 -7.464844,-5.003906 -12.539063,-5.003906 -3.316406,0 -6.304687,0.714844 -8.976562,2.214844 -2.660156,1.429687 -4.734375,3.574218 -6.175781,6.363281 -1.488282,2.730469 -2.203125,5.589844 -2.203125,8.578125 0,3.902344 0.714843,7.160156 2.203125,9.8906249 z m 9.363281,-17.0976559 c 1.558594,-1.757813 3.515625,-2.671875 5.847656,-2.671875 2.285156,0 4.230469,0.914062 5.859375,2.671875 1.558594,1.816406 2.332031,4.347656 2.332031,7.664062 0,3.386719 -0.773437,5.917969 -2.332031,7.7343751 -1.628906,1.7578125 -3.574219,2.671875 -5.859375,2.671875 -2.332031,0 -4.289062,-0.9140625 -5.847656,-2.671875 -1.617188,-1.8164061 -2.402344,-4.3476561 -2.402344,-7.7343751 0,-3.316406 0.785156,-5.847656 2.402344,-7.664062 z m 46.722659,12.09375 v -8.90625 H 90.290148 v 8.90625 z m 1.24218,-14.308594 h 4.9336 V -8.28125e-4 h 8.90625 V -26.719578 h 6.6914 v -7.019531 h -6.6914 v -2.402344 c 0,-1.757813 0.25781,-2.929688 0.84375,-3.515625 0.58594,-0.585938 1.55859,-0.902344 2.85937,-0.902344 1.3711,0 2.73047,0.1875 4.23047,0.515625 l 1.10156,-6.234375 c -2.47265,-0.714844 -4.93359,-1.113281 -7.47656,-1.113281 -2.53125,0 -4.54687,0.457031 -6.17578,1.300781 -1.61719,0.914063 -2.78906,2.015625 -3.375,3.445313 -0.58594,1.371093 -0.91406,3.515625 -0.91406,6.375 v 2.53125 h -4.9336 z M 165.16124,-8.28125e-4 V -33.739109 h -8.89453 v 14.238281 c 0,4.875 -0.19922,7.933594 -0.65625,9.164062 -0.45703,1.2304691 -1.30078,2.2734379 -2.53125,3.1171879 -1.17187,0.84375 -2.54297,1.2421875 -4.10156,1.2421875 -1.30078,0 -2.40235,-0.328125 -3.31641,-0.9140625 -0.84375,-0.6445313 -1.42969,-1.5 -1.74609,-2.6015625 -0.32813,-1.0429684 -0.52735,-3.9609374 -0.52735,-8.7070314 v -15.539062 h -8.90625 v 21.386718 c 0,3.1875004 0.39844,5.7187504 1.24219,7.4765629 0.77344,1.8164062 2.07422,3.2460937 3.90235,4.23046873 1.8164,0.97265625 3.83203,1.48828125 6.10546,1.48828125 2.21485,0 4.35938,-0.515625 6.30469,-1.62890625 2.01563,-1.03125003 3.64453,-2.46093753 4.875,-4.28906253 V -8.28125e-4 Z M 205.00792,-20.930516 c 0,-2.601562 -0.19922,-4.617187 -0.52734,-5.976562 -0.32813,-1.429688 -0.90235,-2.671875 -1.75781,-3.773438 -0.84375,-1.101562 -2.07422,-2.015625 -3.70313,-2.730468 -1.61719,-0.714844 -3.44531,-1.042969 -5.39062,-1.042969 -4.48829,0 -8.26172,1.886719 -11.17969,5.660156 v -4.945312 h -8.26172 V -8.28125e-4 h 8.90625 V -15.282078 c 0,-3.761719 0.25781,-6.304688 0.71484,-7.734375 0.45703,-1.359375 1.30078,-2.460938 2.54297,-3.316406 1.23047,-0.84375 2.58985,-1.289063 4.16016,-1.289063 1.23047,0 2.27344,0.316406 3.11719,0.902344 0.90234,0.585937 1.48828,1.429687 1.88671,2.472656 0.38672,1.042969 0.58594,3.445313 0.58594,7.089844 V -8.28125e-4 h 8.90625 z m 39.96094,-25.617187 h -8.90625 v 16.769531 c -2.73047,-3.117187 -6.04688,-4.675781 -9.82031,-4.675781 -4.08985,0 -7.47657,1.5 -10.20703,4.488281 -2.66016,2.988281 -4.03125,7.277344 -4.03125,13.066406 0,5.589844 1.37109,9.9375004 4.16015,13.0664066 2.80078,3.11718753 6.11719,4.67578128 9.94922,4.67578128 1.95703,0 3.83203,-0.45703125 5.71875,-1.4296875 1.88672,-0.97265628 3.51563,-2.47265628 4.875,-4.35937498 v 4.945312475 h 8.26172 z m -21.64453,21.457031 c 1.42969,-1.6875 3.17578,-2.53125 5.32031,-2.53125 2.15625,0 3.90234,0.84375 5.33203,2.53125 1.3711,1.757813 2.08594,4.546875 2.08594,8.449219 0,3.445312 -0.71484,6.105469 -2.14453,7.8632811 -1.42969,1.7578125 -3.1875,2.6015625 -5.27344,2.6015625 -2.53125,0 -4.54687,-1.171875 -5.97656,-3.515625 -0.97266,-1.6171876 -1.48828,-4.2187496 -1.48828,-7.8632816 0,-3.316406 0.71484,-5.847656 2.14453,-7.535156 z m 47.75683,18.0703126 c -0.97265,0.7734375 -2.14453,1.171875 -3.5039,1.171875 -2.08594,0 -3.77344,-0.7148437 -5.13281,-2.2148437 -1.3711,-1.4882813 -2.08594,-3.5039059 -2.14454,-6.1757809 h 22.28907 c 0.1289,-6.820313 -1.23047,-11.894532 -4.16016,-15.210938 -2.85937,-3.316406 -6.82031,-5.003906 -11.82422,-5.003906 -4.48828,0 -8.1914,1.558594 -11.12109,4.746094 -2.91797,3.1875 -4.34766,7.535156 -4.34766,13.136718 0,4.675782 1.10156,8.5781254 3.30469,11.6250004 2.85937,3.84375 7.16016,5.78906248 13.00781,5.78906248 3.70313,0 6.82031,-0.843750005 9.29297,-2.53124998 2.47266,-1.7578125 4.23047,-4.2304688 5.39063,-7.4765625 l -8.90625,-1.5000004 c -0.44532,1.6992191 -1.16016,2.9296879 -2.14454,3.6445316 z M 260.42882,-19.700047 c 0,-2.472656 0.64453,-4.347656 1.88672,-5.777344 1.30078,-1.429687 2.85937,-2.144531 4.80469,-2.144531 1.8164,0 3.38672,0.644531 4.61718,2.003906 1.30079,1.371094 1.94532,3.316407 2.01563,5.917969 z m 60.39551,-26.847656 h -8.90625 v 16.769531 c -2.73047,-3.117187 -6.04688,-4.675781 -9.82031,-4.675781 -4.08985,0 -7.47657,1.5 -10.20704,4.488281 -2.66015,2.988281 -4.03125,7.277344 -4.03125,13.066406 0,5.589844 1.3711,9.9375004 4.16016,13.0664066 2.80078,3.11718753 6.11719,4.67578128 9.94922,4.67578128 1.95703,0 3.83203,-0.45703125 5.71875,-1.4296875 1.88672,-0.97265628 3.51562,-2.47265628 4.875,-4.35937498 v 4.945312475 h 8.26172 z m -21.64453,21.457031 c 1.42968,-1.6875 3.17578,-2.53125 5.32031,-2.53125 2.15625,0 3.90234,0.84375 5.33203,2.53125 1.37109,1.757813 2.08594,4.546875 2.08594,8.449219 0,3.445312 -0.71485,6.105469 -2.14453,7.8632811 -1.42969,1.7578125 -3.1875,2.6015625 -5.27344,2.6015625 -2.53125,0 -4.54688,-1.171875 -5.97656,-3.515625 -0.97266,-1.6171876 -1.48828,-4.2187496 -1.48828,-7.8632816 0,-3.316406 0.71484,-5.847656 2.14453,-7.535156 z M 355.51476,-8.28125e-4 V -4.9461406 c 1.35937,1.8867187 2.98828,3.3164062 4.80469,4.30078123 1.88671,0.97265625 3.83203,1.48828125 5.71875,1.48828125 3.90234,0 7.27734,-1.55859375 10.00781,-4.67578128 2.73047,-3.1289062 4.10156,-7.5468746 4.10156,-13.3242186 0,-5.589844 -1.37109,-9.820313 -4.03125,-12.808594 -2.66016,-2.988281 -6.10547,-4.488281 -10.20703,-4.488281 -3.77344,0 -7.01953,1.558594 -9.75,4.675781 v -16.769531 h -8.90625 V -8.28125e-4 Z M 358.17491,-25.160984 c 1.42969,-1.617188 3.1875,-2.460938 5.33204,-2.460938 2.20312,0 3.96093,0.84375 5.39062,2.53125 1.37109,1.757813 2.08594,4.546875 2.08594,8.378906 0,3.644532 -0.71485,6.304688 -2.08594,8.0039066 -1.35937,1.6875 -3.04687,2.53125 -5.0625,2.53125 -2.54297,0 -4.61719,-1.171875 -6.17578,-3.5742187 -1.11328,-1.6874999 -1.62891,-4.2890629 -1.62891,-7.8046879 0,-3.375 0.71485,-5.90625 2.14453,-7.605468 z m 37.75782,25.23046838 c -0.58594,1.87500002 -1.30078,3.44531252 -2.34375,4.67578122 -0.97266,1.2304688 -2.53125,1.8164063 -4.61719,1.8164063 -1.10156,0 -2.34375,-0.1289063 -3.77344,-0.3867188 l 0.78516,6.9492189 c 1.6289,0.328125 3.3164,0.527344 5.07422,0.527344 1.6875,0 3.17578,-0.199219 4.54687,-0.527344 1.35938,-0.386719 2.47266,-0.902344 3.44531,-1.488281 0.91407,-0.65625 1.6875,-1.5 2.40235,-2.5312504 0.71484,-1.0429687 1.5,-2.5429687 2.27344,-4.4882812 l 2.14453,-5.9179688 11.89453,-32.4374996 h -9.22266 l -7.86328,23.9179684 -8.13281,-23.9179684 h -9.49219 z M 13.980578,44.260891 V 32.296047 l -8.9062499,5.273437 v 6.691407 H 0.97276563 v 7.089843 H 5.0743281 v 14.753907 c 0,3.1875 0.058594,5.261718 0.2578125,6.304687 0.2578125,1.5 0.6445313,2.660156 1.3007813,3.503906 0.5859375,0.855469 1.4882812,1.570313 2.7890625,2.085938 1.3007816,0.585937 2.7304686,0.84375 4.3593746,0.84375 2.601563,0 4.945313,-0.457031 7.019532,-1.359375 l -0.714844,-6.890625 c -1.628906,0.585937 -2.789063,0.84375 -3.644531,0.84375 -0.585938,0 -1.101563,-0.128906 -1.488282,-0.457031 -0.386718,-0.257813 -0.714843,-0.65625 -0.785156,-1.101563 -0.128906,-0.457031 -0.1875,-2.085937 -0.1875,-4.875 V 51.350734 h 6.105469 V 44.260891 Z M 26.191516,31.452297 v 46.546875 h 8.90625 V 61.100734 c 0,-2.800781 0.257812,-4.945312 0.84375,-6.375 0.527343,-1.488281 1.371093,-2.53125 2.542968,-3.246093 1.171875,-0.714844 2.53125,-1.101563 4.03125,-1.101563 1.300782,0 2.402344,0.257813 3.246094,0.84375 0.914063,0.585938 1.5,1.300781 1.816406,2.273438 0.328125,0.902343 0.527344,3.1875 0.527344,6.691406 v 17.8125 h 8.90625 V 58.241359 c 0,-3.058593 -0.140625,-5.273437 -0.457031,-6.703125 -0.328125,-1.429687 -0.914063,-2.730468 -1.757813,-3.960937 -0.84375,-1.171875 -2.085937,-2.144531 -3.703125,-2.859375 -1.6875,-0.785156 -3.574218,-1.171875 -5.589843,-1.171875 -4.03125,0 -7.476563,1.6875 -10.40625,5.132812 V 31.452297 Z m 57.190429,39.527344 c -0.972656,0.773437 -2.144531,1.171875 -3.503906,1.171875 -2.085937,0 -3.773437,-0.714844 -5.132812,-2.214844 -1.371094,-1.488281 -2.085938,-3.503906 -2.144532,-6.175781 h 22.289063 c 0.128906,-6.820313 -1.230469,-11.894532 -4.160156,-15.210938 -2.859375,-3.316406 -6.820313,-5.003906 -11.824219,-5.003906 -4.488281,0 -8.191406,1.558594 -11.121094,4.746094 -2.917969,3.1875 -4.347656,7.535156 -4.347656,13.136718 0,4.675782 1.101562,8.578125 3.304687,11.625 2.859375,3.84375 7.160157,5.789063 13.007813,5.789063 3.703125,0 6.820312,-0.84375 9.292969,-2.53125 2.472656,-1.757813 4.230468,-4.230469 5.390625,-7.476563 l -8.90625,-1.5 c -0.445313,1.699219 -1.160157,2.929688 -2.144532,3.644532 z M 72.729602,58.299953 c 0,-2.472656 0.644531,-4.347656 1.886718,-5.777344 1.300782,-1.429687 2.859375,-2.144531 4.804688,-2.144531 1.816406,0 3.386719,0.644531 4.617187,2.003906 1.300782,1.371094 1.945313,3.316407 2.015625,5.917969 z m 82.930668,19.699219 v -7.863281 h -25.9336 V 57.526516 h 23.27344 V 49.663234 H 129.72667 V 39.327297 h 25.03125 v -7.875 H 120.3048 v 46.546875 z m 38.48144,0 V 44.260891 h -8.89453 v 14.238281 c 0,4.875 -0.19922,7.933594 -0.65625,9.164062 -0.45703,1.230469 -1.30078,2.273438 -2.53125,3.117188 -1.17188,0.84375 -2.54297,1.242187 -4.10156,1.242187 -1.30078,0 -2.40235,-0.328125 -3.31641,-0.914062 -0.84375,-0.644531 -1.42969,-1.5 -1.74609,-2.601563 -0.32813,-1.042968 -0.52735,-3.960937 -0.52735,-8.707031 V 44.260891 h -8.90625 v 21.386718 c 0,3.1875 0.39844,5.71875 1.24219,7.476563 0.77344,1.816406 2.07422,3.246094 3.90234,4.230469 1.81641,0.972656 3.83204,1.488281 6.10547,1.488281 2.21485,0 4.35938,-0.515625 6.30469,-1.628906 2.01563,-1.03125 3.64453,-2.460938 4.875,-4.289063 v 5.074219 z m 17.67188,-10.40625 c 0,-5.71875 0.25781,-9.480469 0.71484,-11.308594 0.51562,-1.746094 1.23047,-3.046875 2.08594,-3.703125 0.84375,-0.714844 1.94531,-1.042969 3.17578,-1.042969 1.30078,0 2.67187,0.457032 4.23047,1.429688 l 2.73047,-7.734375 c -1.88672,-1.101563 -3.83204,-1.6875 -5.91797,-1.6875 -1.42969,0 -2.73047,0.328125 -3.83203,1.042969 -1.10157,0.714843 -2.40235,2.203125 -3.83204,4.488281 v -4.816406 h -8.26171 v 33.738281 h 8.90625 z m 16.90429,3 c 1.44141,2.730469 3.58594,4.746094 6.375,6.175781 2.80078,1.359375 5.71875,2.074219 8.83594,2.074219 5.01563,0 9.10547,-1.6875 12.42188,-5.074219 3.3164,-3.304687 4.94531,-7.535156 4.94531,-12.667969 0,-5.074218 -1.62891,-9.234375 -4.88672,-12.550781 -3.24609,-3.316406 -7.46484,-5.003906 -12.53906,-5.003906 -3.31641,0 -6.30469,0.714844 -8.97657,2.214844 -2.66015,1.429687 -4.73437,3.574218 -6.17578,6.363281 -1.48828,2.730469 -2.20312,5.589844 -2.20312,8.578125 0,3.902344 0.71484,7.160156 2.20312,9.890625 z m 9.36328,-17.097656 c 1.5586,-1.757813 3.51563,-2.671875 5.84766,-2.671875 2.28516,0 4.23047,0.914062 5.85938,2.671875 1.55859,1.816406 2.33203,4.347656 2.33203,7.664062 0,3.386719 -0.77344,5.917969 -2.33203,7.734375 -1.62891,1.757813 -3.57422,2.671875 -5.85938,2.671875 -2.33203,0 -4.28906,-0.914062 -5.84766,-2.671875 -1.61718,-1.816406 -2.40234,-4.347656 -2.40234,-7.734375 0,-3.316406 0.78516,-5.847656 2.40234,-7.664062 z m 29.95606,37.3125 h 8.90625 V 73.909328 c 1.6875,1.816406 3.24609,3.117188 4.81641,3.832031 1.48828,0.714844 3.17578,1.101563 5.0625,1.101563 3.90234,0 7.21875,-1.558594 9.94921,-4.675781 2.78907,-3.128907 4.16016,-7.546875 4.16016,-13.136719 0,-5.519531 -1.37109,-9.808594 -4.08984,-12.867188 -2.73047,-3.058593 -6.04688,-4.617187 -9.94922,-4.617187 -2.27344,0 -4.28906,0.515625 -6.17578,1.558594 -1.81641,1.042968 -3.2461,2.402343 -4.35938,4.101562 v -4.945312 h -8.32031 z m 10.92187,-37.699219 c 1.42969,-1.699219 3.2461,-2.542969 5.39063,-2.542969 2.15625,0 3.90234,0.84375 5.27344,2.601563 1.42968,1.6875 2.14453,4.359375 2.14453,7.863281 0,3.84375 -0.71485,6.5625 -2.08594,8.261719 -1.35937,1.617187 -3.04687,2.460937 -5.13281,2.460937 -2.14453,0 -3.96094,-0.902344 -5.46094,-2.71875 -1.48828,-1.828125 -2.27344,-4.617187 -2.27344,-8.460937 0,-3.304688 0.71485,-5.777344 2.14453,-7.464844 z m 46.39454,17.871094 c -0.97266,0.773437 -2.14454,1.171875 -3.50391,1.171875 -2.08594,0 -3.77344,-0.714844 -5.13281,-2.214844 -1.3711,-1.488281 -2.08594,-3.503906 -2.14453,-6.175781 h 22.28906 c 0.1289,-6.820313 -1.23047,-11.894532 -4.16016,-15.210938 -2.85937,-3.316406 -6.82031,-5.003906 -11.82422,-5.003906 -4.48828,0 -8.1914,1.558594 -11.12109,4.746094 -2.91797,3.1875 -4.34766,7.535156 -4.34766,13.136718 0,4.675782 1.10157,8.578125 3.30469,11.625 2.85938,3.84375 7.16016,5.789063 13.00781,5.789063 3.70313,0 6.82032,-0.84375 9.29297,-2.53125 2.47266,-1.757813 4.23047,-4.230469 5.39063,-7.476563 l -8.90625,-1.5 c -0.44532,1.699219 -1.16016,2.929688 -2.14453,3.644532 z M 314.70128,58.299953 c 0,-2.472656 0.64453,-4.347656 1.88672,-5.777344 1.30078,-1.429687 2.85938,-2.144531 4.80469,-2.144531 1.8164,0 3.38672,0.644531 4.61719,2.003906 1.30078,1.371094 1.94531,3.316407 2.01562,5.917969 z m 38.22363,-6.949219 c 0.91407,-0.65625 2.14454,-0.972656 3.77344,-0.972656 2.34375,0 3.90235,0.386719 4.7461,1.101563 0.84375,0.714843 1.30078,1.945312 1.30078,3.703125 v 0.914062 c -1.62891,0.644531 -4.48828,1.429688 -8.64844,2.203125 -3.11719,0.585938 -5.46094,1.242188 -7.08984,2.085938 -1.61719,0.773437 -2.91797,1.886718 -3.83204,3.375 -0.90234,1.5 -1.35937,3.1875 -1.35937,5.132812 0,2.859375 0.97266,5.273438 2.98828,7.160156 2.01563,1.875 4.74609,2.789063 8.19141,2.789063 1.94531,0 3.77343,-0.386719 5.51953,-1.101563 1.75781,-0.785156 3.38672,-1.886718 4.875,-3.386718 0.0703,0.199218 0.19922,0.527343 0.32812,1.042968 0.32813,1.171875 0.58594,2.015625 0.84375,2.601563 h 8.84766 c -0.78516,-1.628906 -1.30078,-3.117188 -1.57031,-4.546875 -0.31641,-1.371094 -0.44532,-3.574219 -0.44532,-6.503906 l 0.12891,-10.40625 c 0,-3.890625 -0.39844,-6.5625 -1.17187,-7.992188 -0.84375,-1.429687 -2.21485,-2.660156 -4.16016,-3.574219 -1.95703,-0.972656 -4.875,-1.429687 -8.84766,-1.429687 -4.41797,0 -7.73437,0.785156 -9.9375,2.402344 -2.21484,1.558593 -3.77343,3.972656 -4.6875,7.289062 l 8.0625,1.429688 c 0.52735,-1.558594 1.30078,-2.730469 2.14453,-3.316407 z m 9.82032,12.28125 c 0,2.144532 -0.12891,3.574219 -0.32813,4.359375 -0.38672,1.171875 -1.04297,2.144532 -2.14453,2.988282 -1.5,1.042968 -2.98828,1.558593 -4.61719,1.558593 -1.42968,0 -2.60156,-0.457031 -3.57422,-1.359375 -0.91406,-0.914062 -1.35937,-2.015625 -1.35937,-3.257812 0,-1.230469 0.58594,-2.273438 1.74609,-3.117188 0.78516,-0.515625 2.34375,-1.042968 4.875,-1.558593 2.47266,-0.527344 4.23047,-0.972657 5.40235,-1.371094 z m 48.24609,-6.5625 c 0,-2.601562 -0.19922,-4.617187 -0.52734,-5.976562 -0.32813,-1.429688 -0.90235,-2.671875 -1.75782,-3.773438 -0.84375,-1.101562 -2.07421,-2.015625 -3.70312,-2.730468 -1.61719,-0.714844 -3.44531,-1.042969 -5.39063,-1.042969 -4.48828,0 -8.26171,1.886719 -11.17968,5.660156 v -4.945312 h -8.26172 v 33.738281 h 8.90625 v -15.28125 c 0,-3.761719 0.25781,-6.304688 0.71484,-7.734375 0.45703,-1.359375 1.30078,-2.460938 2.54297,-3.316406 1.23047,-0.84375 2.58984,-1.289063 4.16016,-1.289063 1.23047,0 2.27343,0.316406 3.11718,0.902344 0.90235,0.585937 1.48829,1.429687 1.88672,2.472656 0.38672,1.042969 0.58594,3.445313 0.58594,7.089844 v 17.15625 h 8.90625 z m 27.14063,-0.785156 c 0,5.273438 0.32812,9.164063 0.91406,11.835938 0.44531,1.816406 1.30078,3.503906 2.66015,5.203125 1.30079,1.617187 3.11719,2.917968 5.39063,3.960937 2.28516,1.042969 5.66016,1.558594 10.07812,1.558594 3.64454,0 6.63282,-0.457031 8.90625,-1.429688 2.27344,-0.914062 4.10157,-2.214843 5.46094,-3.773437 1.3711,-1.617188 2.34375,-3.574219 2.80078,-5.847656 0.51563,-2.34375 0.77344,-6.234375 0.77344,-11.894532 V 31.452297 h -9.42187 v 25.746094 c 0,3.703125 -0.12891,6.375 -0.38672,7.933593 -0.26953,1.558594 -1.11328,2.917969 -2.47266,4.03125 -1.30078,1.101563 -3.31641,1.617188 -5.91797,1.617188 -2.60156,0 -4.67578,-0.585938 -6.17578,-1.746094 -1.5,-1.113281 -2.47266,-2.671875 -2.85937,-4.558594 -0.19922,-1.171875 -0.32813,-3.773437 -0.32813,-7.792968 V 31.452297 h -9.42187 z m 77.56347,0.785156 c 0,-2.601562 -0.19922,-4.617187 -0.52734,-5.976562 -0.32813,-1.429688 -0.90235,-2.671875 -1.75781,-3.773438 -0.84375,-1.101562 -2.07422,-2.015625 -3.70313,-2.730468 -1.61719,-0.714844 -3.44531,-1.042969 -5.39062,-1.042969 -4.48829,0 -8.26172,1.886719 -11.17969,5.660156 v -4.945312 h -8.26172 v 33.738281 h 8.90625 v -15.28125 c 0,-3.761719 0.25781,-6.304688 0.71484,-7.734375 0.45703,-1.359375 1.30078,-2.460938 2.54297,-3.316406 1.23047,-0.84375 2.58985,-1.289063 4.16016,-1.289063 1.23047,0 2.27344,0.316406 3.11719,0.902344 0.90234,0.585937 1.48828,1.429687 1.88671,2.472656 0.38672,1.042969 0.58594,3.445313 0.58594,7.089844 v 17.15625 h 8.90625 z m 17.91797,-17.355468 v -8.261719 h -8.90625 v 8.261719 z m 0,38.285156 V 44.260891 h -8.90625 v 33.738281 z m 9.28125,-7.40625 c 1.44141,2.730469 3.58594,4.746094 6.375,6.175781 2.80078,1.359375 5.71875,2.074219 8.83594,2.074219 5.01562,0 9.10547,-1.6875 12.42187,-5.074219 3.31641,-3.304687 4.94532,-7.535156 4.94532,-12.667969 0,-5.074218 -1.62891,-9.234375 -4.88672,-12.550781 -3.2461,-3.316406 -7.46485,-5.003906 -12.53907,-5.003906 -3.3164,0 -6.30468,0.714844 -8.97656,2.214844 -2.66015,1.429687 -4.73437,3.574218 -6.17578,6.363281 -1.48828,2.730469 -2.20312,5.589844 -2.20312,8.578125 0,3.902344 0.71484,7.160156 2.20312,9.890625 z m 9.36328,-17.097656 c 1.5586,-1.757813 3.51563,-2.671875 5.84766,-2.671875 2.28515,0 4.23047,0.914062 5.85937,2.671875 1.5586,1.816406 2.33203,4.347656 2.33203,7.664062 0,3.386719 -0.77343,5.917969 -2.33203,7.734375 -1.6289,1.757813 -3.57422,2.671875 -5.85937,2.671875 -2.33203,0 -4.28906,-0.914062 -5.84766,-2.671875 -1.61719,-1.816406 -2.40234,-4.347656 -2.40234,-7.734375 0,-3.316406 0.78515,-5.847656 2.40234,-7.664062 z m 60.90528,3.574218 c 0,-2.601562 -0.19922,-4.617187 -0.52735,-5.976562 -0.32812,-1.429688 -0.90234,-2.671875 -1.75781,-3.773438 -0.84375,-1.101562 -2.07422,-2.015625 -3.70313,-2.730468 -1.61718,-0.714844 -3.44531,-1.042969 -5.39062,-1.042969 -4.48828,0 -8.26172,1.886719 -11.17969,5.660156 v -4.945312 h -8.26172 v 33.738281 h 8.90625 v -15.28125 c 0,-3.761719 0.25782,-6.304688 0.71485,-7.734375 0.45703,-1.359375 1.30078,-2.460938 2.54297,-3.316406 1.23046,-0.84375 2.58984,-1.289063 4.16015,-1.289063 1.23047,0 2.27344,0.316406 3.11719,0.902344 0.90234,0.585937 1.48828,1.429687 1.88672,2.472656 0.38672,1.042969 0.58594,3.445313 0.58594,7.089844 v 17.15625 h 8.90625 z m 0,0"
         style="fill:#ffffff;fill-opacity:1;fill-rule:nonzero;stroke:none"
         aria-label="Co-funded by&#10;the European Union"
         transform="matrix(1.3333333,0,0,1.3333333,447.38267,115.60267)" />
    </g>
  </g>
</svg>
