<?xml version="1.0" encoding="UTF-8" standalone="no"?>
<svg
   width="179.17918mm"
   height="50.139061mm"
   viewBox="0 0 179.17918 50.139062"
   version="1.1"
   id="svg8"
   sodipodi:docname="logo_dark.svg"
   inkscape:version="1.3.2 (091e20ef0f, 2023-11-25, custom)"
   inkscape:export-filename="logo.png"
   inkscape:export-xdpi="144.601"
   inkscape:export-ydpi="144.601"
   xmlns:inkscape="http://www.inkscape.org/namespaces/inkscape"
   xmlns:sodipodi="http://sodipodi.sourceforge.net/DTD/sodipodi-0.dtd"
   xmlns="http://www.w3.org/2000/svg"
   xmlns:svg="http://www.w3.org/2000/svg"
   xmlns:rdf="http://www.w3.org/1999/02/22-rdf-syntax-ns#"
   xmlns:cc="http://creativecommons.org/ns#"
   xmlns:dc="http://purl.org/dc/elements/1.1/">
  <sodipodi:namedview
     pagecolor="#000000"
     bordercolor="#ffffff"
     borderopacity="0.17647059"
     objecttolerance="10"
     gridtolerance="10"
     guidetolerance="10"
     inkscape:pageopacity="0"
     inkscape:pageshadow="2"
     inkscape:window-width="2560"
     inkscape:window-height="1365"
     id="namedview12"
     showgrid="false"
     inkscape:zoom="1.5573678"
     inkscape:cx="329.08091"
     inkscape:cy="16.373782"
     inkscape:window-x="0"
     inkscape:window-y="0"
     inkscape:window-maximized="1"
     inkscape:current-layer="layer1"
     inkscape:showpageshadow="0"
     inkscape:pagecheckerboard="false"
     inkscape:deskcolor="#000000"
     inkscape:document-units="mm" />
  <defs
     id="defs2" />
  <metadata
     id="metadata5">
    <rdf:RDF>
      <cc:Work
         rdf:about="">
        <dc:format>image/svg+xml</dc:format>
        <dc:type
           rdf:resource="http://purl.org/dc/dcmitype/StillImage" />
      </cc:Work>
    </rdf:RDF>
  </metadata>
  <g
     id="layer1"
     transform="translate(-34.251752,-144.61119)">
    <path
       id="rect903"
       style="opacity:1;fill:#000000;fill-opacity:1;stroke:#ffffff;stroke-width:1.898;stroke-linecap:square;stroke-dasharray:none;stroke-opacity:1;paint-order:markers stroke fill"
       d="m 71.607517,156.16182 v 27.35336 H 211.30707 l -11.8408,-13.6958 11.88125,-13.65756 z" />
    <g
       id="path833-3">
      <path
         id="path1"
         style="color:#000000;fill:#ffffff;stroke-linecap:square;-inkscape-stroke:none;paint-order:markers stroke fill"
         d="m 59.322057,144.61119 c -13.833971,0 -25.070305,11.23478 -25.070305,25.06876 0,13.83396 11.236334,25.0703 25.070305,25.0703 8.721128,0 16.405939,-4.46819 20.897432,-11.23497 h -2.303218 c -4.221488,5.6681 -10.974711,9.33638 -18.594214,9.33638 -12.808219,0 -23.171713,-10.36349 -23.171713,-23.17171 0,-12.80822 10.363494,-23.17016 23.171713,-23.17016 7.759235,0 14.615766,3.80649 18.819523,9.65212 h 2.281514 C 75.96305,149.21937 68.17801,144.61119 59.322057,144.61119 Z" />
      <path
         style="color:#000000;fill:#000000;stroke-linecap:square;-inkscape-stroke:none;paint-order:markers stroke fill"
         d="M 83.441469,169.68051 A 24.120024,24.120024 0 0 1 59.321445,193.80054 24.120024,24.120024 0 0 1 35.201422,169.68051 24.120024,24.120024 0 0 1 59.321445,145.56049 24.120024,24.120024 0 0 1 83.441469,169.68051 Z"
         id="path2" />
    </g>
    <path
       style="opacity:1;fill:#ffffff;fill-opacity:1;stroke:none;stroke-width:1.70221;stroke-linecap:square;stroke-opacity:1;paint-order:markers stroke fill"
       id="path835-6"
       d="m 116.79591,120.92807 -9.93587,24.04724 -12.288555,-22.93431 -24.9958,7.22504 10.268973,-23.90689 -21.233385,-15.037769 25.093756,-6.877093 -1.481798,-25.976824 21.022429,15.331291 19.38561,-17.354802 1.12079,25.994901 25.65526,4.33574 -19.62484,17.083816 12.60598,22.76139 z"
       transform="matrix(-0.02807995,0.52181971,-0.52181971,-0.02807995,113.47851,118.0225)" />
    <text
       xml:space="preserve"
       style="font-size:25.4px;line-height:1.25;font-family:Metropolis;-inkscape-font-specification:Metropolis;text-align:center;letter-spacing:0px;word-spacing:0px;text-anchor:middle;display:inline;fill:#ffffff;fill-opacity:1;stroke-width:0.264583"
       x="141.99953"
       y="176.96999"
       id="text877-7"><tspan
         id="tspan875-5"
         x="141.99953"
         y="176.96999"
         style="font-style:normal;font-variant:normal;font-weight:normal;font-stretch:normal;font-size:25.4px;font-family:Metropolis;-inkscape-font-specification:Metropolis;fill:#ffffff;fill-opacity:1;stroke-width:0.264583">sec-certs</tspan></text>
  </g>
</svg>
